<svg xmlns="http://www.w3.org/2000/svg" width="720" height="140" viewBox="0 0 720 140" font-family="-apple-system,BlinkMacSystemFont,Segoe UI,Helvetica,Arial,sans-serif"><style>svg{--cf-bg:#0d1117;--cf-bg-alt:#161b22;--cf-border:#21262d;--cf-text:#e6edf3;--cf-text-dim:#8b949e;--cf-text-faint:#6e7681;--cf-accent:#5eead4;--cf-accent-soft:rgba(94,234,212,0.16);--cf-green:#3fb950;--cf-amber:#d29922;--cf-red:#f85149;--cf-spark:#5eead4;--cf-spark-bg:rgba(94,234,212,0.18)}@media (prefers-color-scheme: light){svg{--cf-bg:#ffffff;--cf-bg-alt:#f6f8fa;--cf-border:#d0d7de;--cf-text:#1f2328;--cf-text-dim:#656d76;--cf-text-faint:#8c959f;--cf-accent:#0d9488;--cf-accent-soft:rgba(13,148,136,0.12);--cf-green:#1a7f37;--cf-amber:#9a6700;--cf-red:#cf222e;--cf-spark:#0d9488;--cf-spark-bg:rgba(13,148,136,0.12)}}</style><rect width="720" height="140" rx="12" fill="var(--cf-bg)" stroke="var(--cf-border)"/><text x="18" y="26" font-size="13" font-weight="600" fill="var(--cf-text)">braedonsaunders/beaconhs</text><text x="702" y="26" text-anchor="end" font-size="10" fill="var(--cf-text-faint)" font-family="ui-monospace,SFMono-Regular,Menlo,monospace">@ee9c6ef</text><g transform="translate(18,46)"><text x="0" y="0" font-size="9" font-weight="600" fill="var(--cf-text-dim)" letter-spacing="0.8">FILES</text><text x="0" y="28" font-size="22" font-weight="700" fill="var(--cf-text)">919</text><g transform="translate(0,40)"><svg width="64" height="14" viewBox="0 0 64 14" preserveAspectRatio="none"><path d="M0 3.89 L4 3.89 L8 3.89 L12 0 L16 7 L20 7 L24 4.67 L28 14 L32 10.11 L36 10.11 L40 10.11 L44 10.11 L48 9.33 L52 8.56 L56 7 L60 5.44 L64 5.44 L64 14 L0 14 Z" fill="var(--cf-spark-bg)" stroke="none"/><path d="M0 3.89 L4 3.89 L8 3.89 L12 0 L16 7 L20 7 L24 4.67 L28 14 L32 10.11 L36 10.11 L40 10.11 L44 10.11 L48 9.33 L52 8.56 L56 7 L60 5.44 L64 5.44" fill="none" stroke="var(--cf-spark)" stroke-width="1.4" stroke-linecap="round" stroke-linejoin="round"/></svg></g></g><g transform="translate(154.8,46)"><text x="0" y="0" font-size="9" font-weight="600" fill="var(--cf-text-dim)" letter-spacing="0.8">FNS</text><text x="0" y="28" font-size="22" font-weight="700" fill="var(--cf-text)">2.7K</text><g transform="translate(0,40)"><svg width="64" height="14" viewBox="0 0 64 14" preserveAspectRatio="none"><path d="M0 14 L4 14 L8 14 L12 0 L16 5.52 L20 5.52 L24 4.88 L28 9.63 L32 8.22 L36 8.22 L40 8.22 L44 8.22 L48 8.09 L52 7.83 L56 7.45 L60 7.19 L64 7.19 L64 14 L0 14 Z" fill="var(--cf-spark-bg)" stroke="none"/><path d="M0 14 L4 14 L8 14 L12 0 L16 5.52 L20 5.52 L24 4.88 L28 9.63 L32 8.22 L36 8.22 L40 8.22 L44 8.22 L48 8.09 L52 7.83 L56 7.45 L60 7.19 L64 7.19" fill="none" stroke="var(--cf-spark)" stroke-width="1.4" stroke-linecap="round" stroke-linejoin="round"/></svg></g></g><g transform="translate(291.6,46)"><text x="0" y="0" font-size="9" font-weight="600" fill="var(--cf-text-dim)" letter-spacing="0.8">LOC</text><text x="0" y="28" font-size="22" font-weight="700" fill="var(--cf-text)">260.4K</text><g transform="translate(0,40)"><svg width="64" height="14" viewBox="0 0 64 14" preserveAspectRatio="none"><path d="M0 14 L4 14 L8 14 L12 11.98 L16 0.2 L20 0.2 L24 0 L28 1.32 L32 1.15 L36 1.15 L40 1.1 L44 1.1 L48 1.08 L52 1.07 L56 1.02 L60 1.06 L64 1.03 L64 14 L0 14 Z" fill="var(--cf-spark-bg)" stroke="none"/><path d="M0 14 L4 14 L8 14 L12 11.98 L16 0.2 L20 0.2 L24 0 L28 1.32 L32 1.15 L36 1.15 L40 1.1 L44 1.1 L48 1.08 L52 1.07 L56 1.02 L60 1.06 L64 1.03" fill="none" stroke="var(--cf-spark)" stroke-width="1.4" stroke-linecap="round" stroke-linejoin="round"/></svg></g></g><g transform="translate(428.40000000000003,46)"><text x="0" y="0" font-size="9" font-weight="600" fill="var(--cf-text-dim)" letter-spacing="0.8">LANGS</text><text x="0" y="28" font-size="22" font-weight="700" fill="var(--cf-text)">17</text><g transform="translate(0,40)"><svg width="64" height="14" viewBox="0 0 64 14" preserveAspectRatio="none"><path d="M0 7 L4 7 L8 7 L12 7 L16 7 L20 7 L24 7 L28 7 L32 7 L36 7 L40 7 L44 7 L48 7 L52 7 L56 7 L60 7 L64 7 L64 14 L0 14 Z" fill="var(--cf-spark-bg)" stroke="none"/><path d="M0 7 L4 7 L8 7 L12 7 L16 7 L20 7 L24 7 L28 7 L32 7 L36 7 L40 7 L44 7 L48 7 L52 7 L56 7 L60 7 L64 7" fill="none" stroke="var(--cf-spark)" stroke-width="1.4" stroke-linecap="round" stroke-linejoin="round"/></svg></g></g><g transform="translate(565.2,46)"><text x="0" y="0" font-size="9" font-weight="600" fill="var(--cf-text-dim)" letter-spacing="0.8">TESTS</text><text x="0" y="28" font-size="22" font-weight="700" fill="var(--cf-text)">3</text><g transform="translate(0,40)"><svg width="64" height="14" viewBox="0 0 64 14" preserveAspectRatio="none"><path d="M0 7 L4 7 L8 7 L12 7 L16 7 L20 7 L24 7 L28 7 L32 7 L36 7 L40 7 L44 7 L48 7 L52 7 L56 7 L60 7 L64 7 L64 14 L0 14 Z" fill="var(--cf-spark-bg)" stroke="none"/><path d="M0 7 L4 7 L8 7 L12 7 L16 7 L20 7 L24 7 L28 7 L32 7 L36 7 L40 7 L44 7 L48 7 L52 7 L56 7 L60 7 L64 7" fill="none" stroke="var(--cf-spark)" stroke-width="1.4" stroke-linecap="round" stroke-linejoin="round"/></svg></g></g><a href="https://github.com/braedonsaunders/codeflow" target="_blank"><text x="702" y="130" text-anchor="end" font-size="9" fill="var(--cf-text-faint)">powered by <tspan font-weight="600" fill="var(--cf-accent)">codeflow</tspan></text></a></svg>