<svg xmlns="http://www.w3.org/2000/svg" width="720" height="140" viewBox="0 0 720 140" font-family="-apple-system,BlinkMacSystemFont,Segoe UI,Helvetica,Arial,sans-serif"><style>svg{--cf-bg:#0d1117;--cf-bg-alt:#161b22;--cf-border:#21262d;--cf-text:#e6edf3;--cf-text-dim:#8b949e;--cf-text-faint:#6e7681;--cf-accent:#5eead4;--cf-accent-soft:rgba(94,234,212,0.16);--cf-green:#3fb950;--cf-amber:#d29922;--cf-red:#f85149;--cf-spark:#5eead4;--cf-spark-bg:rgba(94,234,212,0.18)}@media (prefers-color-scheme: light){svg{--cf-bg:#ffffff;--cf-bg-alt:#f6f8fa;--cf-border:#d0d7de;--cf-text:#1f2328;--cf-text-dim:#656d76;--cf-text-faint:#8c959f;--cf-accent:#0d9488;--cf-accent-soft:rgba(13,148,136,0.12);--cf-green:#1a7f37;--cf-amber:#9a6700;--cf-red:#cf222e;--cf-spark:#0d9488;--cf-spark-bg:rgba(13,148,136,0.12)}}</style><rect width="720" height="140" rx="12" fill="var(--cf-bg)" stroke="var(--cf-border)"/><text x="18" y="26" font-size="13" font-weight="600" fill="var(--cf-text)">braedonsaunders/beaconhs</text><text x="702" y="26" text-anchor="end" font-size="10" fill="var(--cf-text-faint)" font-family="ui-monospace,SFMono-Regular,Menlo,monospace">@52f4d8c</text><g transform="translate(18,46)"><text x="0" y="0" font-size="9" font-weight="600" fill="var(--cf-text-dim)" letter-spacing="0.8">FILES</text><text x="0" y="28" font-size="22" font-weight="700" fill="var(--cf-text)">1.4K</text><g transform="translate(0,40)"><svg width="64" height="14" viewBox="0 0 64 14" preserveAspectRatio="none"><path d="M0 13.77 L2.13 14 L4.27 11.74 L6.4 11.06 L8.53 4.74 L10.67 4.74 L12.8 2.48 L14.93 3.39 L17.07 3.16 L19.2 3.16 L21.33 6.32 L23.47 6.32 L25.6 5.42 L27.73 4.97 L29.87 4.29 L32 4.52 L34.13 4.52 L36.27 4.52 L38.4 4.52 L40.53 3.16 L42.67 3.16 L44.8 2.03 L46.93 2.03 L49.07 2.03 L51.2 0.68 L53.33 0 L55.47 0.23 L57.6 0.45 L59.73 0.45 L61.87 0.68 L64 0.45 L64 14 L0 14 Z" fill="var(--cf-spark-bg)" stroke="none"/><path d="M0 13.77 L2.13 14 L4.27 11.74 L6.4 11.06 L8.53 4.74 L10.67 4.74 L12.8 2.48 L14.93 3.39 L17.07 3.16 L19.2 3.16 L21.33 6.32 L23.47 6.32 L25.6 5.42 L27.73 4.97 L29.87 4.29 L32 4.52 L34.13 4.52 L36.27 4.52 L38.4 4.52 L40.53 3.16 L42.67 3.16 L44.8 2.03 L46.93 2.03 L49.07 2.03 L51.2 0.68 L53.33 0 L55.47 0.23 L57.6 0.45 L59.73 0.45 L61.87 0.68 L64 0.45" fill="none" stroke="var(--cf-spark)" stroke-width="1.4" stroke-linecap="round" stroke-linejoin="round"/></svg></g></g><g transform="translate(154.8,46)"><text x="0" y="0" font-size="9" font-weight="600" fill="var(--cf-text-dim)" letter-spacing="0.8">FNS</text><text x="0" y="28" font-size="22" font-weight="700" fill="var(--cf-text)">4.8K</text><g transform="translate(0,40)"><svg width="64" height="14" viewBox="0 0 64 14" preserveAspectRatio="none"><path d="M0 12.55 L2.13 14 L4.27 12.43 L6.4 10.62 L8.53 3.26 L10.67 3.26 L12.8 0 L14.93 5.07 L17.07 4.71 L19.2 4.59 L21.33 13.64 L23.47 13.64 L25.6 12.91 L27.73 12.19 L29.87 10.74 L32 10.86 L34.13 10.86 L36.27 10.5 L38.4 10.5 L40.53 8.33 L42.67 8.21 L44.8 9.05 L46.93 9.05 L49.07 8.45 L51.2 3.86 L53.33 2.78 L55.47 3.02 L57.6 2.53 L59.73 2.53 L61.87 3.14 L64 3.26 L64 14 L0 14 Z" fill="var(--cf-spark-bg)" stroke="none"/><path d="M0 12.55 L2.13 14 L4.27 12.43 L6.4 10.62 L8.53 3.26 L10.67 3.26 L12.8 0 L14.93 5.07 L17.07 4.71 L19.2 4.59 L21.33 13.64 L23.47 13.64 L25.6 12.91 L27.73 12.19 L29.87 10.74 L32 10.86 L34.13 10.86 L36.27 10.5 L38.4 10.5 L40.53 8.33 L42.67 8.21 L44.8 9.05 L46.93 9.05 L49.07 8.45 L51.2 3.86 L53.33 2.78 L55.47 3.02 L57.6 2.53 L59.73 2.53 L61.87 3.14 L64 3.26" fill="none" stroke="var(--cf-spark)" stroke-width="1.4" stroke-linecap="round" stroke-linejoin="round"/></svg></g></g><g transform="translate(291.6,46)"><text x="0" y="0" font-size="9" font-weight="600" fill="var(--cf-text-dim)" letter-spacing="0.8">LOC</text><text x="0" y="28" font-size="22" font-weight="700" fill="var(--cf-text)">458.9K</text><g transform="translate(0,40)"><svg width="64" height="14" viewBox="0 0 64 14" preserveAspectRatio="none"><path d="M0 12.81 L2.13 14 L4.27 12.99 L6.4 12.43 L8.53 2.45 L10.67 2.47 L12.8 0 L14.93 3.44 L17.07 3.25 L19.2 3.08 L21.33 9.79 L23.47 9.79 L25.6 8.57 L27.73 7.99 L29.87 7.18 L32 7.06 L34.13 7.01 L36.27 6.72 L38.4 6.69 L40.53 4.99 L42.67 4.74 L44.8 6.45 L46.93 6.45 L49.07 5.79 L51.2 2.9 L53.33 1.62 L55.47 1.74 L57.6 1.3 L59.73 1.2 L61.87 1.11 L64 1.07 L64 14 L0 14 Z" fill="var(--cf-spark-bg)" stroke="none"/><path d="M0 12.81 L2.13 14 L4.27 12.99 L6.4 12.43 L8.53 2.45 L10.67 2.47 L12.8 0 L14.93 3.44 L17.07 3.25 L19.2 3.08 L21.33 9.79 L23.47 9.79 L25.6 8.57 L27.73 7.99 L29.87 7.18 L32 7.06 L34.13 7.01 L36.27 6.72 L38.4 6.69 L40.53 4.99 L42.67 4.74 L44.8 6.45 L46.93 6.45 L49.07 5.79 L51.2 2.9 L53.33 1.62 L55.47 1.74 L57.6 1.3 L59.73 1.2 L61.87 1.11 L64 1.07" fill="none" stroke="var(--cf-spark)" stroke-width="1.4" stroke-linecap="round" stroke-linejoin="round"/></svg></g></g><g transform="translate(428.40000000000003,46)"><text x="0" y="0" font-size="9" font-weight="600" fill="var(--cf-text-dim)" letter-spacing="0.8">LANGS</text><text x="0" y="28" font-size="22" font-weight="700" fill="var(--cf-text)">17</text><g transform="translate(0,40)"><svg width="64" height="14" viewBox="0 0 64 14" preserveAspectRatio="none"><path d="M0 7 L2.13 7 L4.27 7 L6.4 7 L8.53 7 L10.67 7 L12.8 7 L14.93 7 L17.07 7 L19.2 7 L21.33 7 L23.47 7 L25.6 7 L27.73 7 L29.87 7 L32 7 L34.13 7 L36.27 7 L38.4 7 L40.53 7 L42.67 7 L44.8 7 L46.93 7 L49.07 7 L51.2 7 L53.33 7 L55.47 7 L57.6 7 L59.73 7 L61.87 7 L64 7 L64 14 L0 14 Z" fill="var(--cf-spark-bg)" stroke="none"/><path d="M0 7 L2.13 7 L4.27 7 L6.4 7 L8.53 7 L10.67 7 L12.8 7 L14.93 7 L17.07 7 L19.2 7 L21.33 7 L23.47 7 L25.6 7 L27.73 7 L29.87 7 L32 7 L34.13 7 L36.27 7 L38.4 7 L40.53 7 L42.67 7 L44.8 7 L46.93 7 L49.07 7 L51.2 7 L53.33 7 L55.47 7 L57.6 7 L59.73 7 L61.87 7 L64 7" fill="none" stroke="var(--cf-spark)" stroke-width="1.4" stroke-linecap="round" stroke-linejoin="round"/></svg></g></g><g transform="translate(565.2,46)"><text x="0" y="0" font-size="9" font-weight="600" fill="var(--cf-text-dim)" letter-spacing="0.8">TESTS</text><text x="0" y="28" font-size="22" font-weight="700" fill="var(--cf-text)">13</text><g transform="translate(0,40)"><svg width="64" height="14" viewBox="0 0 64 14" preserveAspectRatio="none"><path d="M0 14 L2.13 14 L4.27 14 L6.4 14 L8.53 14 L10.67 14 L12.8 14 L14.93 14 L17.07 14 L19.2 14 L21.33 14 L23.47 14 L25.6 14 L27.73 9.33 L29.87 9.33 L32 9.33 L34.13 9.33 L36.27 9.33 L38.4 9.33 L40.53 9.33 L42.67 9.33 L44.8 0 L46.93 0 L49.07 0 L51.2 0 L53.33 0 L55.47 0 L57.6 0 L59.73 0 L61.87 0 L64 0 L64 14 L0 14 Z" fill="var(--cf-spark-bg)" stroke="none"/><path d="M0 14 L2.13 14 L4.27 14 L6.4 14 L8.53 14 L10.67 14 L12.8 14 L14.93 14 L17.07 14 L19.2 14 L21.33 14 L23.47 14 L25.6 14 L27.73 9.33 L29.87 9.33 L32 9.33 L34.13 9.33 L36.27 9.33 L38.4 9.33 L40.53 9.33 L42.67 9.33 L44.8 0 L46.93 0 L49.07 0 L51.2 0 L53.33 0 L55.47 0 L57.6 0 L59.73 0 L61.87 0 L64 0" fill="none" stroke="var(--cf-spark)" stroke-width="1.4" stroke-linecap="round" stroke-linejoin="round"/></svg></g></g><a href="https://github.com/braedonsaunders/codeflow" target="_blank"><text x="702" y="130" text-anchor="end" font-size="9" fill="var(--cf-text-faint)">powered by <tspan font-weight="600" fill="var(--cf-accent)">codeflow</tspan></text></a></svg>