<svg xmlns="http://www.w3.org/2000/svg" width="720" height="140" viewBox="0 0 720 140" font-family="-apple-system,BlinkMacSystemFont,Segoe UI,Helvetica,Arial,sans-serif"><style>svg{--cf-bg:#0d1117;--cf-bg-alt:#161b22;--cf-border:#21262d;--cf-text:#e6edf3;--cf-text-dim:#8b949e;--cf-text-faint:#6e7681;--cf-accent:#5eead4;--cf-accent-soft:rgba(94,234,212,0.16);--cf-green:#3fb950;--cf-amber:#d29922;--cf-red:#f85149;--cf-spark:#5eead4;--cf-spark-bg:rgba(94,234,212,0.18)}@media (prefers-color-scheme: light){svg{--cf-bg:#ffffff;--cf-bg-alt:#f6f8fa;--cf-border:#d0d7de;--cf-text:#1f2328;--cf-text-dim:#656d76;--cf-text-faint:#8c959f;--cf-accent:#0d9488;--cf-accent-soft:rgba(13,148,136,0.12);--cf-green:#1a7f37;--cf-amber:#9a6700;--cf-red:#cf222e;--cf-spark:#0d9488;--cf-spark-bg:rgba(13,148,136,0.12)}}</style><rect width="720" height="140" rx="12" fill="var(--cf-bg)" stroke="var(--cf-border)"/><text x="18" y="26" font-size="13" font-weight="600" fill="var(--cf-text)">braedonsaunders/beaconhs</text><text x="702" y="26" text-anchor="end" font-size="10" fill="var(--cf-text-faint)" font-family="ui-monospace,SFMono-Regular,Menlo,monospace">@40eb0f4</text><g transform="translate(18,46)"><text x="0" y="0" font-size="9" font-weight="600" fill="var(--cf-text-dim)" letter-spacing="0.8">FILES</text><text x="0" y="28" font-size="22" font-weight="700" fill="var(--cf-text)">1K</text><g transform="translate(0,40)"><svg width="64" height="14" viewBox="0 0 64 14" preserveAspectRatio="none"><path d="M0 14 L2.13 13.89 L4.27 13.67 L6.4 13.45 L8.53 13.45 L10.67 13.45 L12.8 11.24 L14.93 11.24 L17.07 11.24 L19.2 11.57 L21.33 4.74 L23.47 4.63 L25.6 4.63 L27.73 4.63 L29.87 4.63 L32 4.63 L34.13 4.63 L36.27 4.41 L38.4 4.19 L40.53 4.08 L42.67 4.08 L44.8 4.08 L46.93 4.08 L49.07 1.43 L51.2 1.54 L53.33 1.54 L55.47 0 L57.6 0 L59.73 0 L61.87 0 L64 0 L64 14 L0 14 Z" fill="var(--cf-spark-bg)" stroke="none"/><path d="M0 14 L2.13 13.89 L4.27 13.67 L6.4 13.45 L8.53 13.45 L10.67 13.45 L12.8 11.24 L14.93 11.24 L17.07 11.24 L19.2 11.57 L21.33 4.74 L23.47 4.63 L25.6 4.63 L27.73 4.63 L29.87 4.63 L32 4.63 L34.13 4.63 L36.27 4.41 L38.4 4.19 L40.53 4.08 L42.67 4.08 L44.8 4.08 L46.93 4.08 L49.07 1.43 L51.2 1.54 L53.33 1.54 L55.47 0 L57.6 0 L59.73 0 L61.87 0 L64 0" fill="none" stroke="var(--cf-spark)" stroke-width="1.4" stroke-linecap="round" stroke-linejoin="round"/></svg></g></g><g transform="translate(154.8,46)"><text x="0" y="0" font-size="9" font-weight="600" fill="var(--cf-text-dim)" letter-spacing="0.8">FNS</text><text x="0" y="28" font-size="22" font-weight="700" fill="var(--cf-text)">3.3K</text><g transform="translate(0,40)"><svg width="64" height="14" viewBox="0 0 64 14" preserveAspectRatio="none"><path d="M0 14 L2.13 13.95 L4.27 13.87 L6.4 13.82 L8.53 13.82 L10.67 13.82 L12.8 11.03 L14.93 11.03 L17.07 11.06 L19.2 10.98 L21.33 4.56 L23.47 4.53 L25.6 4.53 L27.73 4.4 L29.87 4.35 L32 4.35 L34.13 4.35 L36.27 3.76 L38.4 3.38 L40.53 3.33 L42.67 3.33 L44.8 3.33 L46.93 3.3 L49.07 1.25 L51.2 1.41 L53.33 1.41 L55.47 0.1 L57.6 0.1 L59.73 0.1 L61.87 0.1 L64 0 L64 14 L0 14 Z" fill="var(--cf-spark-bg)" stroke="none"/><path d="M0 14 L2.13 13.95 L4.27 13.87 L6.4 13.82 L8.53 13.82 L10.67 13.82 L12.8 11.03 L14.93 11.03 L17.07 11.06 L19.2 10.98 L21.33 4.56 L23.47 4.53 L25.6 4.53 L27.73 4.4 L29.87 4.35 L32 4.35 L34.13 4.35 L36.27 3.76 L38.4 3.38 L40.53 3.33 L42.67 3.33 L44.8 3.33 L46.93 3.3 L49.07 1.25 L51.2 1.41 L53.33 1.41 L55.47 0.1 L57.6 0.1 L59.73 0.1 L61.87 0.1 L64 0" fill="none" stroke="var(--cf-spark)" stroke-width="1.4" stroke-linecap="round" stroke-linejoin="round"/></svg></g></g><g transform="translate(291.6,46)"><text x="0" y="0" font-size="9" font-weight="600" fill="var(--cf-text-dim)" letter-spacing="0.8">LOC</text><text x="0" y="28" font-size="22" font-weight="700" fill="var(--cf-text)">358.3K</text><g transform="translate(0,40)"><svg width="64" height="14" viewBox="0 0 64 14" preserveAspectRatio="none"><path d="M0 14 L2.13 14 L4.27 13.98 L6.4 13.99 L8.53 13.98 L10.67 13.98 L12.8 3.8 L14.93 3.8 L17.07 3.8 L19.2 3.86 L21.33 2.29 L23.47 2.28 L25.6 2.27 L27.73 2.24 L29.87 2.22 L32 2.21 L34.13 2.16 L36.27 1.93 L38.4 1.87 L40.53 1.84 L42.67 1.83 L44.8 1.78 L46.93 1.77 L49.07 1.06 L51.2 1.08 L53.33 1.03 L55.47 0.05 L57.6 0.01 L59.73 0.01 L61.87 0.01 L64 0 L64 14 L0 14 Z" fill="var(--cf-spark-bg)" stroke="none"/><path d="M0 14 L2.13 14 L4.27 13.98 L6.4 13.99 L8.53 13.98 L10.67 13.98 L12.8 3.8 L14.93 3.8 L17.07 3.8 L19.2 3.86 L21.33 2.29 L23.47 2.28 L25.6 2.27 L27.73 2.24 L29.87 2.22 L32 2.21 L34.13 2.16 L36.27 1.93 L38.4 1.87 L40.53 1.84 L42.67 1.83 L44.8 1.78 L46.93 1.77 L49.07 1.06 L51.2 1.08 L53.33 1.03 L55.47 0.05 L57.6 0.01 L59.73 0.01 L61.87 0.01 L64 0" fill="none" stroke="var(--cf-spark)" stroke-width="1.4" stroke-linecap="round" stroke-linejoin="round"/></svg></g></g><g transform="translate(428.40000000000003,46)"><text x="0" y="0" font-size="9" font-weight="600" fill="var(--cf-text-dim)" letter-spacing="0.8">LANGS</text><text x="0" y="28" font-size="22" font-weight="700" fill="var(--cf-text)">17</text><g transform="translate(0,40)"><svg width="64" height="14" viewBox="0 0 64 14" preserveAspectRatio="none"><path d="M0 7 L2.13 7 L4.27 7 L6.4 7 L8.53 7 L10.67 7 L12.8 7 L14.93 7 L17.07 7 L19.2 7 L21.33 7 L23.47 7 L25.6 7 L27.73 7 L29.87 7 L32 7 L34.13 7 L36.27 7 L38.4 7 L40.53 7 L42.67 7 L44.8 7 L46.93 7 L49.07 7 L51.2 7 L53.33 7 L55.47 7 L57.6 7 L59.73 7 L61.87 7 L64 7 L64 14 L0 14 Z" fill="var(--cf-spark-bg)" stroke="none"/><path d="M0 7 L2.13 7 L4.27 7 L6.4 7 L8.53 7 L10.67 7 L12.8 7 L14.93 7 L17.07 7 L19.2 7 L21.33 7 L23.47 7 L25.6 7 L27.73 7 L29.87 7 L32 7 L34.13 7 L36.27 7 L38.4 7 L40.53 7 L42.67 7 L44.8 7 L46.93 7 L49.07 7 L51.2 7 L53.33 7 L55.47 7 L57.6 7 L59.73 7 L61.87 7 L64 7" fill="none" stroke="var(--cf-spark)" stroke-width="1.4" stroke-linecap="round" stroke-linejoin="round"/></svg></g></g><g transform="translate(565.2,46)"><text x="0" y="0" font-size="9" font-weight="600" fill="var(--cf-text-dim)" letter-spacing="0.8">TESTS</text><text x="0" y="28" font-size="22" font-weight="700" fill="var(--cf-text)">4</text><g transform="translate(0,40)"><svg width="64" height="14" viewBox="0 0 64 14" preserveAspectRatio="none"><path d="M0 14 L2.13 14 L4.27 14 L6.4 14 L8.53 14 L10.67 14 L12.8 14 L14.93 14 L17.07 14 L19.2 0 L21.33 0 L23.47 0 L25.6 0 L27.73 0 L29.87 0 L32 0 L34.13 0 L36.27 0 L38.4 0 L40.53 0 L42.67 0 L44.8 0 L46.93 0 L49.07 0 L51.2 0 L53.33 0 L55.47 0 L57.6 0 L59.73 0 L61.87 0 L64 0 L64 14 L0 14 Z" fill="var(--cf-spark-bg)" stroke="none"/><path d="M0 14 L2.13 14 L4.27 14 L6.4 14 L8.53 14 L10.67 14 L12.8 14 L14.93 14 L17.07 14 L19.2 0 L21.33 0 L23.47 0 L25.6 0 L27.73 0 L29.87 0 L32 0 L34.13 0 L36.27 0 L38.4 0 L40.53 0 L42.67 0 L44.8 0 L46.93 0 L49.07 0 L51.2 0 L53.33 0 L55.47 0 L57.6 0 L59.73 0 L61.87 0 L64 0" fill="none" stroke="var(--cf-spark)" stroke-width="1.4" stroke-linecap="round" stroke-linejoin="round"/></svg></g></g><a href="https://github.com/braedonsaunders/codeflow" target="_blank"><text x="702" y="130" text-anchor="end" font-size="9" fill="var(--cf-text-faint)">powered by <tspan font-weight="600" fill="var(--cf-accent)">codeflow</tspan></text></a></svg>