<svg xmlns="http://www.w3.org/2000/svg" width="720" height="140" viewBox="0 0 720 140" font-family="-apple-system,BlinkMacSystemFont,Segoe UI,Helvetica,Arial,sans-serif"><style>svg{--cf-bg:#0d1117;--cf-bg-alt:#161b22;--cf-border:#21262d;--cf-text:#e6edf3;--cf-text-dim:#8b949e;--cf-text-faint:#6e7681;--cf-accent:#5eead4;--cf-accent-soft:rgba(94,234,212,0.16);--cf-green:#3fb950;--cf-amber:#d29922;--cf-red:#f85149;--cf-spark:#5eead4;--cf-spark-bg:rgba(94,234,212,0.18)}@media (prefers-color-scheme: light){svg{--cf-bg:#ffffff;--cf-bg-alt:#f6f8fa;--cf-border:#d0d7de;--cf-text:#1f2328;--cf-text-dim:#656d76;--cf-text-faint:#8c959f;--cf-accent:#0d9488;--cf-accent-soft:rgba(13,148,136,0.12);--cf-green:#1a7f37;--cf-amber:#9a6700;--cf-red:#cf222e;--cf-spark:#0d9488;--cf-spark-bg:rgba(13,148,136,0.12)}}</style><rect width="720" height="140" rx="12" fill="var(--cf-bg)" stroke="var(--cf-border)"/><text x="18" y="26" font-size="13" font-weight="600" fill="var(--cf-text)">braedonsaunders/beaconhs</text><text x="702" y="26" text-anchor="end" font-size="10" fill="var(--cf-text-faint)" font-family="ui-monospace,SFMono-Regular,Menlo,monospace">@a09193b</text><g transform="translate(18,46)"><text x="0" y="0" font-size="9" font-weight="600" fill="var(--cf-text-dim)" letter-spacing="0.8">FILES</text><text x="0" y="28" font-size="22" font-weight="700" fill="var(--cf-text)">919</text><g transform="translate(0,40)"><svg width="64" height="14" viewBox="0 0 64 14" preserveAspectRatio="none"><path d="M0 3.89 L3.76 3.89 L7.53 3.89 L11.29 0 L15.06 7 L18.82 7 L22.59 4.67 L26.35 14 L30.12 10.11 L33.88 10.11 L37.65 10.11 L41.41 10.11 L45.18 9.33 L48.94 8.56 L52.71 7 L56.47 5.44 L60.24 5.44 L64 5.44 L64 14 L0 14 Z" fill="var(--cf-spark-bg)" stroke="none"/><path d="M0 3.89 L3.76 3.89 L7.53 3.89 L11.29 0 L15.06 7 L18.82 7 L22.59 4.67 L26.35 14 L30.12 10.11 L33.88 10.11 L37.65 10.11 L41.41 10.11 L45.18 9.33 L48.94 8.56 L52.71 7 L56.47 5.44 L60.24 5.44 L64 5.44" fill="none" stroke="var(--cf-spark)" stroke-width="1.4" stroke-linecap="round" stroke-linejoin="round"/></svg></g></g><g transform="translate(154.8,46)"><text x="0" y="0" font-size="9" font-weight="600" fill="var(--cf-text-dim)" letter-spacing="0.8">FNS</text><text x="0" y="28" font-size="22" font-weight="700" fill="var(--cf-text)">2.7K</text><g transform="translate(0,40)"><svg width="64" height="14" viewBox="0 0 64 14" preserveAspectRatio="none"><path d="M0 14 L3.76 14 L7.53 14 L11.29 0 L15.06 5.52 L18.82 5.52 L22.59 4.88 L26.35 9.63 L30.12 8.22 L33.88 8.22 L37.65 8.22 L41.41 8.22 L45.18 8.09 L48.94 7.83 L52.71 7.45 L56.47 7.19 L60.24 7.19 L64 7.19 L64 14 L0 14 Z" fill="var(--cf-spark-bg)" stroke="none"/><path d="M0 14 L3.76 14 L7.53 14 L11.29 0 L15.06 5.52 L18.82 5.52 L22.59 4.88 L26.35 9.63 L30.12 8.22 L33.88 8.22 L37.65 8.22 L41.41 8.22 L45.18 8.09 L48.94 7.83 L52.71 7.45 L56.47 7.19 L60.24 7.19 L64 7.19" fill="none" stroke="var(--cf-spark)" stroke-width="1.4" stroke-linecap="round" stroke-linejoin="round"/></svg></g></g><g transform="translate(291.6,46)"><text x="0" y="0" font-size="9" font-weight="600" fill="var(--cf-text-dim)" letter-spacing="0.8">LOC</text><text x="0" y="28" font-size="22" font-weight="700" fill="var(--cf-text)">260.4K</text><g transform="translate(0,40)"><svg width="64" height="14" viewBox="0 0 64 14" preserveAspectRatio="none"><path d="M0 14 L3.76 14 L7.53 14 L11.29 11.98 L15.06 0.2 L18.82 0.2 L22.59 0 L26.35 1.32 L30.12 1.15 L33.88 1.15 L37.65 1.1 L41.41 1.1 L45.18 1.08 L48.94 1.07 L52.71 1.02 L56.47 1.06 L60.24 1.03 L64 1.02 L64 14 L0 14 Z" fill="var(--cf-spark-bg)" stroke="none"/><path d="M0 14 L3.76 14 L7.53 14 L11.29 11.98 L15.06 0.2 L18.82 0.2 L22.59 0 L26.35 1.32 L30.12 1.15 L33.88 1.15 L37.65 1.1 L41.41 1.1 L45.18 1.08 L48.94 1.07 L52.71 1.02 L56.47 1.06 L60.24 1.03 L64 1.02" fill="none" stroke="var(--cf-spark)" stroke-width="1.4" stroke-linecap="round" stroke-linejoin="round"/></svg></g></g><g transform="translate(428.40000000000003,46)"><text x="0" y="0" font-size="9" font-weight="600" fill="var(--cf-text-dim)" letter-spacing="0.8">LANGS</text><text x="0" y="28" font-size="22" font-weight="700" fill="var(--cf-text)">17</text><g transform="translate(0,40)"><svg width="64" height="14" viewBox="0 0 64 14" preserveAspectRatio="none"><path d="M0 7 L3.76 7 L7.53 7 L11.29 7 L15.06 7 L18.82 7 L22.59 7 L26.35 7 L30.12 7 L33.88 7 L37.65 7 L41.41 7 L45.18 7 L48.94 7 L52.71 7 L56.47 7 L60.24 7 L64 7 L64 14 L0 14 Z" fill="var(--cf-spark-bg)" stroke="none"/><path d="M0 7 L3.76 7 L7.53 7 L11.29 7 L15.06 7 L18.82 7 L22.59 7 L26.35 7 L30.12 7 L33.88 7 L37.65 7 L41.41 7 L45.18 7 L48.94 7 L52.71 7 L56.47 7 L60.24 7 L64 7" fill="none" stroke="var(--cf-spark)" stroke-width="1.4" stroke-linecap="round" stroke-linejoin="round"/></svg></g></g><g transform="translate(565.2,46)"><text x="0" y="0" font-size="9" font-weight="600" fill="var(--cf-text-dim)" letter-spacing="0.8">TESTS</text><text x="0" y="28" font-size="22" font-weight="700" fill="var(--cf-text)">3</text><g transform="translate(0,40)"><svg width="64" height="14" viewBox="0 0 64 14" preserveAspectRatio="none"><path d="M0 7 L3.76 7 L7.53 7 L11.29 7 L15.06 7 L18.82 7 L22.59 7 L26.35 7 L30.12 7 L33.88 7 L37.65 7 L41.41 7 L45.18 7 L48.94 7 L52.71 7 L56.47 7 L60.24 7 L64 7 L64 14 L0 14 Z" fill="var(--cf-spark-bg)" stroke="none"/><path d="M0 7 L3.76 7 L7.53 7 L11.29 7 L15.06 7 L18.82 7 L22.59 7 L26.35 7 L30.12 7 L33.88 7 L37.65 7 L41.41 7 L45.18 7 L48.94 7 L52.71 7 L56.47 7 L60.24 7 L64 7" fill="none" stroke="var(--cf-spark)" stroke-width="1.4" stroke-linecap="round" stroke-linejoin="round"/></svg></g></g><a href="https://github.com/braedonsaunders/codeflow" target="_blank"><text x="702" y="130" text-anchor="end" font-size="9" fill="var(--cf-text-faint)">powered by <tspan font-weight="600" fill="var(--cf-accent)">codeflow</tspan></text></a></svg>