<svg xmlns="http://www.w3.org/2000/svg" width="720" height="318" viewBox="0 0 720 318" font-family="-apple-system,BlinkMacSystemFont,Segoe UI,Helvetica,Arial,sans-serif"><style>svg{--cf-bg:#0d1117;--cf-bg-alt:#161b22;--cf-border:#21262d;--cf-text:#e6edf3;--cf-text-dim:#8b949e;--cf-text-faint:#6e7681;--cf-accent:#5eead4;--cf-accent-soft:rgba(94,234,212,0.16);--cf-green:#3fb950;--cf-amber:#d29922;--cf-red:#f85149;--cf-spark:#5eead4;--cf-spark-bg:rgba(94,234,212,0.18)}@media (prefers-color-scheme: light){svg{--cf-bg:#ffffff;--cf-bg-alt:#f6f8fa;--cf-border:#d0d7de;--cf-text:#1f2328;--cf-text-dim:#656d76;--cf-text-faint:#8c959f;--cf-accent:#0d9488;--cf-accent-soft:rgba(13,148,136,0.12);--cf-green:#1a7f37;--cf-amber:#9a6700;--cf-red:#cf222e;--cf-spark:#0d9488;--cf-spark-bg:rgba(13,148,136,0.12)}}</style><rect width="720" height="318" rx="14" fill="var(--cf-bg)" stroke="var(--cf-border)"/><g transform="translate(22,26)"><text x="0" y="0" font-size="18" font-weight="700" fill="var(--cf-text)">braedonsaunders/beaconhs</text><text x="676" y="0" text-anchor="end" font-size="11" fill="var(--cf-text-faint)" font-family="ui-monospace,SFMono-Regular,Menlo,monospace">@0df13f5</text></g><g transform="translate(22,60)"><rect width="676" height="110" rx="10" fill="var(--cf-bg-alt)" stroke="var(--cf-border)"/><text x="16" y="22" font-size="11" font-weight="500" fill="var(--cf-text-dim)" letter-spacing="0.6">HEALTH</text><text x="16" y="78" font-size="64" font-weight="700" fill="var(--cf-amber)" font-family="ui-monospace,SFMono-Regular,Menlo,monospace">D</text></g><g transform="translate(22,184)"><rect width="676" height="88" rx="10" fill="var(--cf-bg-alt)" stroke="var(--cf-border)"/><g transform="translate(16,16)"><text x="0" y="0" font-size="10" font-weight="500" fill="var(--cf-text-dim)" letter-spacing="0.6">FILES</text><text x="0" y="28" font-size="22" font-weight="700" fill="var(--cf-text)">716</text><g transform="translate(0,38)"><svg width="80" height="18" viewBox="0 0 80 18" preserveAspectRatio="none"><path d="M0 18 L3.33 14.63 L6.67 14.63 L10 12.43 L13.33 9.97 L16.67 9.71 L20 9.58 L23.33 9.58 L26.67 7.12 L30 5.96 L33.33 5.96 L36.67 5.96 L40 5.96 L43.33 5.96 L46.67 5.31 L50 4.27 L53.33 3.11 L56.67 0.78 L60 2.33 L63.33 1.68 L66.67 0.52 L70 0.26 L73.33 0.13 L76.67 0 L80 0 L80 18 L0 18 Z" fill="var(--cf-spark-bg)" stroke="none"/><path d="M0 18 L3.33 14.63 L6.67 14.63 L10 12.43 L13.33 9.97 L16.67 9.71 L20 9.58 L23.33 9.58 L26.67 7.12 L30 5.96 L33.33 5.96 L36.67 5.96 L40 5.96 L43.33 5.96 L46.67 5.31 L50 4.27 L53.33 3.11 L56.67 0.78 L60 2.33 L63.33 1.68 L66.67 0.52 L70 0.26 L73.33 0.13 L76.67 0 L80 0" fill="none" stroke="var(--cf-spark)" stroke-width="1.4" stroke-linecap="round" stroke-linejoin="round"/></svg></g></g><g transform="translate(177,16)"><text x="0" y="0" font-size="10" font-weight="500" fill="var(--cf-text-dim)" letter-spacing="0.6">FNS</text><text x="0" y="28" font-size="22" font-weight="700" fill="var(--cf-text)">1.9K</text><g transform="translate(0,38)"><svg width="80" height="18" viewBox="0 0 80 18" preserveAspectRatio="none"><path d="M0 18 L3.33 13.33 L6.67 13.26 L10 11.74 L13.33 8.4 L16.67 8.13 L20 7.5 L23.33 7.5 L26.67 6.1 L30 5.71 L33.33 5.71 L36.67 5.71 L40 5.71 L43.33 5.68 L46.67 5.17 L50 3.5 L53.33 2.1 L56.67 0 L60 3.34 L63.33 2.1 L66.67 1.21 L70 0.89 L73.33 0.82 L76.67 0.82 L80 0.82 L80 18 L0 18 Z" fill="var(--cf-spark-bg)" stroke="none"/><path d="M0 18 L3.33 13.33 L6.67 13.26 L10 11.74 L13.33 8.4 L16.67 8.13 L20 7.5 L23.33 7.5 L26.67 6.1 L30 5.71 L33.33 5.71 L36.67 5.71 L40 5.71 L43.33 5.68 L46.67 5.17 L50 3.5 L53.33 2.1 L56.67 0 L60 3.34 L63.33 2.1 L66.67 1.21 L70 0.89 L73.33 0.82 L76.67 0.82 L80 0.82" fill="none" stroke="var(--cf-spark)" stroke-width="1.4" stroke-linecap="round" stroke-linejoin="round"/></svg></g></g><g transform="translate(338,16)"><text x="0" y="0" font-size="10" font-weight="500" fill="var(--cf-text-dim)" letter-spacing="0.6">LOC</text><text x="0" y="28" font-size="22" font-weight="700" fill="var(--cf-text)">376.8K</text><g transform="translate(0,38)"><svg width="80" height="18" viewBox="0 0 80 18" preserveAspectRatio="none"><path d="M0 18 L3.33 12.66 L6.67 12.64 L10 11.92 L13.33 11.32 L16.67 11.27 L20 10.98 L23.33 10.98 L26.67 10.68 L30 6.37 L33.33 6.37 L36.67 6.37 L40 6.37 L43.33 6.36 L46.67 6.14 L50 5.7 L53.33 5.25 L56.67 0.36 L60 1.06 L63.33 0.62 L66.67 0.23 L70 0.13 L73.33 0.09 L76.67 0 L80 0 L80 18 L0 18 Z" fill="var(--cf-spark-bg)" stroke="none"/><path d="M0 18 L3.33 12.66 L6.67 12.64 L10 11.92 L13.33 11.32 L16.67 11.27 L20 10.98 L23.33 10.98 L26.67 10.68 L30 6.37 L33.33 6.37 L36.67 6.37 L40 6.37 L43.33 6.36 L46.67 6.14 L50 5.7 L53.33 5.25 L56.67 0.36 L60 1.06 L63.33 0.62 L66.67 0.23 L70 0.13 L73.33 0.09 L76.67 0 L80 0" fill="none" stroke="var(--cf-spark)" stroke-width="1.4" stroke-linecap="round" stroke-linejoin="round"/></svg></g></g><g transform="translate(499,16)"><text x="0" y="0" font-size="10" font-weight="500" fill="var(--cf-text-dim)" letter-spacing="0.6">LANGS</text><text x="0" y="28" font-size="22" font-weight="700" fill="var(--cf-text)">16</text><g transform="translate(0,38)"><svg width="80" height="18" viewBox="0 0 80 18" preserveAspectRatio="none"><path d="M0 18 L3.33 18 L6.67 18 L10 18 L13.33 18 L16.67 18 L20 18 L23.33 18 L26.67 18 L30 18 L33.33 18 L36.67 18 L40 18 L43.33 18 L46.67 18 L50 18 L53.33 18 L56.67 18 L60 18 L63.33 18 L66.67 18 L70 18 L73.33 18 L76.67 0 L80 0 L80 18 L0 18 Z" fill="var(--cf-spark-bg)" stroke="none"/><path d="M0 18 L3.33 18 L6.67 18 L10 18 L13.33 18 L16.67 18 L20 18 L23.33 18 L26.67 18 L30 18 L33.33 18 L36.67 18 L40 18 L43.33 18 L46.67 18 L50 18 L53.33 18 L56.67 18 L60 18 L63.33 18 L66.67 18 L70 18 L73.33 18 L76.67 0 L80 0" fill="none" stroke="var(--cf-spark)" stroke-width="1.4" stroke-linecap="round" stroke-linejoin="round"/></svg></g></g></g><g transform="translate(22,304)"><text x="0" y="0" font-size="10" fill="var(--cf-text-faint)">updated 2026-05-25</text><a href="https://github.com/braedonsaunders/codeflow" target="_blank"><text x="676" y="0" text-anchor="end" font-size="10" fill="var(--cf-text-faint)">powered by <tspan font-weight="600" fill="var(--cf-accent)">codeflow</tspan></text></a></g></svg>