<svg xmlns="http://www.w3.org/2000/svg" width="720" height="140" viewBox="0 0 720 140" font-family="-apple-system,BlinkMacSystemFont,Segoe UI,Helvetica,Arial,sans-serif"><style>svg{--cf-bg:#0d1117;--cf-bg-alt:#161b22;--cf-border:#21262d;--cf-text:#e6edf3;--cf-text-dim:#8b949e;--cf-text-faint:#6e7681;--cf-accent:#5eead4;--cf-accent-soft:rgba(94,234,212,0.16);--cf-green:#3fb950;--cf-amber:#d29922;--cf-red:#f85149;--cf-spark:#5eead4;--cf-spark-bg:rgba(94,234,212,0.18)}@media (prefers-color-scheme: light){svg{--cf-bg:#ffffff;--cf-bg-alt:#f6f8fa;--cf-border:#d0d7de;--cf-text:#1f2328;--cf-text-dim:#656d76;--cf-text-faint:#8c959f;--cf-accent:#0d9488;--cf-accent-soft:rgba(13,148,136,0.12);--cf-green:#1a7f37;--cf-amber:#9a6700;--cf-red:#cf222e;--cf-spark:#0d9488;--cf-spark-bg:rgba(13,148,136,0.12)}}</style><rect width="720" height="140" rx="12" fill="var(--cf-bg)" stroke="var(--cf-border)"/><text x="18" y="26" font-size="13" font-weight="600" fill="var(--cf-text)">braedonsaunders/beaconhs</text><text x="702" y="26" text-anchor="end" font-size="10" fill="var(--cf-text-faint)" font-family="ui-monospace,SFMono-Regular,Menlo,monospace">@217bdee</text><g transform="translate(18,46)"><text x="0" y="0" font-size="9" font-weight="600" fill="var(--cf-text-dim)" letter-spacing="0.8">FILES</text><text x="0" y="28" font-size="22" font-weight="700" fill="var(--cf-text)">1.1K</text><g transform="translate(0,40)"><svg width="64" height="14" viewBox="0 0 64 14" preserveAspectRatio="none"><path d="M0 13.82 L2.13 14 L4.27 14 L6.4 11.45 L8.53 11.45 L10.67 11.45 L12.8 11.45 L14.93 11.45 L17.07 11.45 L19.2 11.09 L21.33 4.55 L23.47 4.55 L25.6 4.18 L27.73 3.09 L29.87 2.55 L32 2.55 L34.13 2.36 L36.27 2 L38.4 0.73 L40.53 0.73 L42.67 0.36 L44.8 0.36 L46.93 0.36 L49.07 0.36 L51.2 0.36 L53.33 0.18 L55.47 0.18 L57.6 0.18 L59.73 0.18 L61.87 0.18 L64 0 L64 14 L0 14 Z" fill="var(--cf-spark-bg)" stroke="none"/><path d="M0 13.82 L2.13 14 L4.27 14 L6.4 11.45 L8.53 11.45 L10.67 11.45 L12.8 11.45 L14.93 11.45 L17.07 11.45 L19.2 11.09 L21.33 4.55 L23.47 4.55 L25.6 4.18 L27.73 3.09 L29.87 2.55 L32 2.55 L34.13 2.36 L36.27 2 L38.4 0.73 L40.53 0.73 L42.67 0.36 L44.8 0.36 L46.93 0.36 L49.07 0.36 L51.2 0.36 L53.33 0.18 L55.47 0.18 L57.6 0.18 L59.73 0.18 L61.87 0.18 L64 0" fill="none" stroke="var(--cf-spark)" stroke-width="1.4" stroke-linecap="round" stroke-linejoin="round"/></svg></g></g><g transform="translate(154.8,46)"><text x="0" y="0" font-size="9" font-weight="600" fill="var(--cf-text-dim)" letter-spacing="0.8">FNS</text><text x="0" y="28" font-size="22" font-weight="700" fill="var(--cf-text)">3.4K</text><g transform="translate(0,40)"><svg width="64" height="14" viewBox="0 0 64 14" preserveAspectRatio="none"><path d="M0 13.63 L2.13 14 L4.27 14 L6.4 10.88 L8.53 10.88 L10.67 10.88 L12.8 10.88 L14.93 10.64 L17.07 10.64 L19.2 10.52 L21.33 7.03 L23.47 7.03 L25.6 6.24 L27.73 5.5 L29.87 4.28 L32 3.55 L34.13 3.3 L36.27 2.87 L38.4 1.65 L40.53 1.65 L42.67 0.55 L44.8 0.55 L46.93 0.55 L49.07 0.49 L51.2 0.49 L53.33 0.43 L55.47 0.43 L57.6 0.37 L59.73 0.06 L61.87 0.06 L64 0 L64 14 L0 14 Z" fill="var(--cf-spark-bg)" stroke="none"/><path d="M0 13.63 L2.13 14 L4.27 14 L6.4 10.88 L8.53 10.88 L10.67 10.88 L12.8 10.88 L14.93 10.64 L17.07 10.64 L19.2 10.52 L21.33 7.03 L23.47 7.03 L25.6 6.24 L27.73 5.5 L29.87 4.28 L32 3.55 L34.13 3.3 L36.27 2.87 L38.4 1.65 L40.53 1.65 L42.67 0.55 L44.8 0.55 L46.93 0.55 L49.07 0.49 L51.2 0.49 L53.33 0.43 L55.47 0.43 L57.6 0.37 L59.73 0.06 L61.87 0.06 L64 0" fill="none" stroke="var(--cf-spark)" stroke-width="1.4" stroke-linecap="round" stroke-linejoin="round"/></svg></g></g><g transform="translate(291.6,46)"><text x="0" y="0" font-size="9" font-weight="600" fill="var(--cf-text-dim)" letter-spacing="0.8">LOC</text><text x="0" y="28" font-size="22" font-weight="700" fill="var(--cf-text)">369.8K</text><g transform="translate(0,40)"><svg width="64" height="14" viewBox="0 0 64 14" preserveAspectRatio="none"><path d="M0 13.87 L2.13 14 L4.27 13.72 L6.4 8.69 L8.53 8.52 L10.67 8.52 L12.8 8.52 L14.93 8.44 L17.07 8.43 L19.2 8.38 L21.33 4.96 L23.47 4.92 L25.6 4.57 L27.73 4.28 L29.87 3.38 L32 2.83 L34.13 2.5 L36.27 2.32 L38.4 1.7 L40.53 1.68 L42.67 0.99 L44.8 0.98 L46.93 0.98 L49.07 0.99 L51.2 0.98 L53.33 0.91 L55.47 0.86 L57.6 0.77 L59.73 0.03 L61.87 0.01 L64 0 L64 14 L0 14 Z" fill="var(--cf-spark-bg)" stroke="none"/><path d="M0 13.87 L2.13 14 L4.27 13.72 L6.4 8.69 L8.53 8.52 L10.67 8.52 L12.8 8.52 L14.93 8.44 L17.07 8.43 L19.2 8.38 L21.33 4.96 L23.47 4.92 L25.6 4.57 L27.73 4.28 L29.87 3.38 L32 2.83 L34.13 2.5 L36.27 2.32 L38.4 1.7 L40.53 1.68 L42.67 0.99 L44.8 0.98 L46.93 0.98 L49.07 0.99 L51.2 0.98 L53.33 0.91 L55.47 0.86 L57.6 0.77 L59.73 0.03 L61.87 0.01 L64 0" fill="none" stroke="var(--cf-spark)" stroke-width="1.4" stroke-linecap="round" stroke-linejoin="round"/></svg></g></g><g transform="translate(428.40000000000003,46)"><text x="0" y="0" font-size="9" font-weight="600" fill="var(--cf-text-dim)" letter-spacing="0.8">LANGS</text><text x="0" y="28" font-size="22" font-weight="700" fill="var(--cf-text)">17</text><g transform="translate(0,40)"><svg width="64" height="14" viewBox="0 0 64 14" preserveAspectRatio="none"><path d="M0 7 L2.13 7 L4.27 7 L6.4 7 L8.53 7 L10.67 7 L12.8 7 L14.93 7 L17.07 7 L19.2 7 L21.33 7 L23.47 7 L25.6 7 L27.73 7 L29.87 7 L32 7 L34.13 7 L36.27 7 L38.4 7 L40.53 7 L42.67 7 L44.8 7 L46.93 7 L49.07 7 L51.2 7 L53.33 7 L55.47 7 L57.6 7 L59.73 7 L61.87 7 L64 7 L64 14 L0 14 Z" fill="var(--cf-spark-bg)" stroke="none"/><path d="M0 7 L2.13 7 L4.27 7 L6.4 7 L8.53 7 L10.67 7 L12.8 7 L14.93 7 L17.07 7 L19.2 7 L21.33 7 L23.47 7 L25.6 7 L27.73 7 L29.87 7 L32 7 L34.13 7 L36.27 7 L38.4 7 L40.53 7 L42.67 7 L44.8 7 L46.93 7 L49.07 7 L51.2 7 L53.33 7 L55.47 7 L57.6 7 L59.73 7 L61.87 7 L64 7" fill="none" stroke="var(--cf-spark)" stroke-width="1.4" stroke-linecap="round" stroke-linejoin="round"/></svg></g></g><g transform="translate(565.2,46)"><text x="0" y="0" font-size="9" font-weight="600" fill="var(--cf-text-dim)" letter-spacing="0.8">TESTS</text><text x="0" y="28" font-size="22" font-weight="700" fill="var(--cf-text)">5</text><g transform="translate(0,40)"><svg width="64" height="14" viewBox="0 0 64 14" preserveAspectRatio="none"><path d="M0 14 L2.13 14 L4.27 14 L6.4 14 L8.53 14 L10.67 14 L12.8 14 L14.93 14 L17.07 14 L19.2 14 L21.33 0 L23.47 0 L25.6 0 L27.73 0 L29.87 0 L32 0 L34.13 0 L36.27 0 L38.4 0 L40.53 0 L42.67 0 L44.8 0 L46.93 0 L49.07 0 L51.2 0 L53.33 0 L55.47 0 L57.6 0 L59.73 0 L61.87 0 L64 0 L64 14 L0 14 Z" fill="var(--cf-spark-bg)" stroke="none"/><path d="M0 14 L2.13 14 L4.27 14 L6.4 14 L8.53 14 L10.67 14 L12.8 14 L14.93 14 L17.07 14 L19.2 14 L21.33 0 L23.47 0 L25.6 0 L27.73 0 L29.87 0 L32 0 L34.13 0 L36.27 0 L38.4 0 L40.53 0 L42.67 0 L44.8 0 L46.93 0 L49.07 0 L51.2 0 L53.33 0 L55.47 0 L57.6 0 L59.73 0 L61.87 0 L64 0" fill="none" stroke="var(--cf-spark)" stroke-width="1.4" stroke-linecap="round" stroke-linejoin="round"/></svg></g></g><a href="https://github.com/braedonsaunders/codeflow" target="_blank"><text x="702" y="130" text-anchor="end" font-size="9" fill="var(--cf-text-faint)">powered by <tspan font-weight="600" fill="var(--cf-accent)">codeflow</tspan></text></a></svg>