<svg xmlns="http://www.w3.org/2000/svg" width="720" height="140" viewBox="0 0 720 140" font-family="-apple-system,BlinkMacSystemFont,Segoe UI,Helvetica,Arial,sans-serif"><style>svg{--cf-bg:#0d1117;--cf-bg-alt:#161b22;--cf-border:#21262d;--cf-text:#e6edf3;--cf-text-dim:#8b949e;--cf-text-faint:#6e7681;--cf-accent:#5eead4;--cf-accent-soft:rgba(94,234,212,0.16);--cf-green:#3fb950;--cf-amber:#d29922;--cf-red:#f85149;--cf-spark:#5eead4;--cf-spark-bg:rgba(94,234,212,0.18)}@media (prefers-color-scheme: light){svg{--cf-bg:#ffffff;--cf-bg-alt:#f6f8fa;--cf-border:#d0d7de;--cf-text:#1f2328;--cf-text-dim:#656d76;--cf-text-faint:#8c959f;--cf-accent:#0d9488;--cf-accent-soft:rgba(13,148,136,0.12);--cf-green:#1a7f37;--cf-amber:#9a6700;--cf-red:#cf222e;--cf-spark:#0d9488;--cf-spark-bg:rgba(13,148,136,0.12)}}</style><rect width="720" height="140" rx="12" fill="var(--cf-bg)" stroke="var(--cf-border)"/><text x="18" y="26" font-size="13" font-weight="600" fill="var(--cf-text)">braedonsaunders/beaconhs</text><text x="702" y="26" text-anchor="end" font-size="10" fill="var(--cf-text-faint)" font-family="ui-monospace,SFMono-Regular,Menlo,monospace">@1c2f9a5</text><g transform="translate(18,46)"><text x="0" y="0" font-size="9" font-weight="600" fill="var(--cf-text-dim)" letter-spacing="0.8">FILES</text><text x="0" y="28" font-size="22" font-weight="700" fill="var(--cf-text)">1.3K</text><g transform="translate(0,40)"><svg width="64" height="14" viewBox="0 0 64 14" preserveAspectRatio="none"><path d="M0 13.41 L2.13 14 L4.27 14 L6.4 12.82 L8.53 12.82 L10.67 12.82 L12.8 12.82 L14.93 12.82 L17.07 9.86 L19.2 9.86 L21.33 9.86 L23.47 8.28 L25.6 8.08 L27.73 4.93 L29.87 4.93 L32 4.93 L34.13 4.93 L36.27 4.93 L38.4 4.93 L40.53 3.55 L42.67 3.35 L44.8 3.35 L46.93 3.35 L49.07 2.17 L51.2 1.38 L53.33 1.58 L55.47 1.58 L57.6 1.38 L59.73 0.2 L61.87 0 L64 0.59 L64 14 L0 14 Z" fill="var(--cf-spark-bg)" stroke="none"/><path d="M0 13.41 L2.13 14 L4.27 14 L6.4 12.82 L8.53 12.82 L10.67 12.82 L12.8 12.82 L14.93 12.82 L17.07 9.86 L19.2 9.86 L21.33 9.86 L23.47 8.28 L25.6 8.08 L27.73 4.93 L29.87 4.93 L32 4.93 L34.13 4.93 L36.27 4.93 L38.4 4.93 L40.53 3.55 L42.67 3.35 L44.8 3.35 L46.93 3.35 L49.07 2.17 L51.2 1.38 L53.33 1.58 L55.47 1.58 L57.6 1.38 L59.73 0.2 L61.87 0 L64 0.59" fill="none" stroke="var(--cf-spark)" stroke-width="1.4" stroke-linecap="round" stroke-linejoin="round"/></svg></g></g><g transform="translate(154.8,46)"><text x="0" y="0" font-size="9" font-weight="600" fill="var(--cf-text-dim)" letter-spacing="0.8">FNS</text><text x="0" y="28" font-size="22" font-weight="700" fill="var(--cf-text)">4.6K</text><g transform="translate(0,40)"><svg width="64" height="14" viewBox="0 0 64 14" preserveAspectRatio="none"><path d="M0 13.54 L2.13 14 L4.27 14 L6.4 13.27 L8.53 13.27 L10.67 13.24 L12.8 13.24 L14.93 13.41 L17.07 10.41 L19.2 10.41 L21.33 10.41 L23.47 9.9 L25.6 9.55 L27.73 8.5 L29.87 8.5 L32 8.5 L34.13 8.5 L36.27 8.43 L38.4 8.43 L40.53 3.76 L42.67 3.69 L44.8 3.69 L46.93 3.3 L49.07 1.69 L51.2 1.17 L53.33 1.12 L55.47 1.1 L57.6 1.05 L59.73 0.05 L61.87 0 L64 0.07 L64 14 L0 14 Z" fill="var(--cf-spark-bg)" stroke="none"/><path d="M0 13.54 L2.13 14 L4.27 14 L6.4 13.27 L8.53 13.27 L10.67 13.24 L12.8 13.24 L14.93 13.41 L17.07 10.41 L19.2 10.41 L21.33 10.41 L23.47 9.9 L25.6 9.55 L27.73 8.5 L29.87 8.5 L32 8.5 L34.13 8.5 L36.27 8.43 L38.4 8.43 L40.53 3.76 L42.67 3.69 L44.8 3.69 L46.93 3.3 L49.07 1.69 L51.2 1.17 L53.33 1.12 L55.47 1.1 L57.6 1.05 L59.73 0.05 L61.87 0 L64 0.07" fill="none" stroke="var(--cf-spark)" stroke-width="1.4" stroke-linecap="round" stroke-linejoin="round"/></svg></g></g><g transform="translate(291.6,46)"><text x="0" y="0" font-size="9" font-weight="600" fill="var(--cf-text-dim)" letter-spacing="0.8">LOC</text><text x="0" y="28" font-size="22" font-weight="700" fill="var(--cf-text)">441.6K</text><g transform="translate(0,40)"><svg width="64" height="14" viewBox="0 0 64 14" preserveAspectRatio="none"><path d="M0 4.13 L2.13 0.28 L4.27 0.28 L6.4 0.02 L8.53 0.01 L10.67 0 L12.8 0 L14.93 0.08 L17.07 14 L19.2 14 L21.33 13.99 L23.47 13.89 L25.6 13.81 L27.73 8.97 L29.87 8.97 L32 8.96 L34.13 8.97 L36.27 8.97 L38.4 8.97 L40.53 3.46 L42.67 3.58 L44.8 3.58 L46.93 3.53 L49.07 3.32 L51.2 3.23 L53.33 3.23 L55.47 3.22 L57.6 3.21 L59.73 2.84 L61.87 2.81 L64 2.74 L64 14 L0 14 Z" fill="var(--cf-spark-bg)" stroke="none"/><path d="M0 4.13 L2.13 0.28 L4.27 0.28 L6.4 0.02 L8.53 0.01 L10.67 0 L12.8 0 L14.93 0.08 L17.07 14 L19.2 14 L21.33 13.99 L23.47 13.89 L25.6 13.81 L27.73 8.97 L29.87 8.97 L32 8.96 L34.13 8.97 L36.27 8.97 L38.4 8.97 L40.53 3.46 L42.67 3.58 L44.8 3.58 L46.93 3.53 L49.07 3.32 L51.2 3.23 L53.33 3.23 L55.47 3.22 L57.6 3.21 L59.73 2.84 L61.87 2.81 L64 2.74" fill="none" stroke="var(--cf-spark)" stroke-width="1.4" stroke-linecap="round" stroke-linejoin="round"/></svg></g></g><g transform="translate(428.40000000000003,46)"><text x="0" y="0" font-size="9" font-weight="600" fill="var(--cf-text-dim)" letter-spacing="0.8">LANGS</text><text x="0" y="28" font-size="22" font-weight="700" fill="var(--cf-text)">17</text><g transform="translate(0,40)"><svg width="64" height="14" viewBox="0 0 64 14" preserveAspectRatio="none"><path d="M0 7 L2.13 7 L4.27 7 L6.4 7 L8.53 7 L10.67 7 L12.8 7 L14.93 7 L17.07 7 L19.2 7 L21.33 7 L23.47 7 L25.6 7 L27.73 7 L29.87 7 L32 7 L34.13 7 L36.27 7 L38.4 7 L40.53 7 L42.67 7 L44.8 7 L46.93 7 L49.07 7 L51.2 7 L53.33 7 L55.47 7 L57.6 7 L59.73 7 L61.87 7 L64 7 L64 14 L0 14 Z" fill="var(--cf-spark-bg)" stroke="none"/><path d="M0 7 L2.13 7 L4.27 7 L6.4 7 L8.53 7 L10.67 7 L12.8 7 L14.93 7 L17.07 7 L19.2 7 L21.33 7 L23.47 7 L25.6 7 L27.73 7 L29.87 7 L32 7 L34.13 7 L36.27 7 L38.4 7 L40.53 7 L42.67 7 L44.8 7 L46.93 7 L49.07 7 L51.2 7 L53.33 7 L55.47 7 L57.6 7 L59.73 7 L61.87 7 L64 7" fill="none" stroke="var(--cf-spark)" stroke-width="1.4" stroke-linecap="round" stroke-linejoin="round"/></svg></g></g><g transform="translate(565.2,46)"><text x="0" y="0" font-size="9" font-weight="600" fill="var(--cf-text-dim)" letter-spacing="0.8">TESTS</text><text x="0" y="28" font-size="22" font-weight="700" fill="var(--cf-text)">9</text><g transform="translate(0,40)"><svg width="64" height="14" viewBox="0 0 64 14" preserveAspectRatio="none"><path d="M0 14 L2.13 14 L4.27 14 L6.4 14 L8.53 14 L10.67 14 L12.8 14 L14.93 14 L17.07 14 L19.2 14 L21.33 14 L23.47 14 L25.6 14 L27.73 14 L29.87 14 L32 14 L34.13 14 L36.27 14 L38.4 14 L40.53 7 L42.67 7 L44.8 7 L46.93 7 L49.07 0 L51.2 0 L53.33 0 L55.47 0 L57.6 0 L59.73 0 L61.87 0 L64 0 L64 14 L0 14 Z" fill="var(--cf-spark-bg)" stroke="none"/><path d="M0 14 L2.13 14 L4.27 14 L6.4 14 L8.53 14 L10.67 14 L12.8 14 L14.93 14 L17.07 14 L19.2 14 L21.33 14 L23.47 14 L25.6 14 L27.73 14 L29.87 14 L32 14 L34.13 14 L36.27 14 L38.4 14 L40.53 7 L42.67 7 L44.8 7 L46.93 7 L49.07 0 L51.2 0 L53.33 0 L55.47 0 L57.6 0 L59.73 0 L61.87 0 L64 0" fill="none" stroke="var(--cf-spark)" stroke-width="1.4" stroke-linecap="round" stroke-linejoin="round"/></svg></g></g><a href="https://github.com/braedonsaunders/codeflow" target="_blank"><text x="702" y="130" text-anchor="end" font-size="9" fill="var(--cf-text-faint)">powered by <tspan font-weight="600" fill="var(--cf-accent)">codeflow</tspan></text></a></svg>