<svg xmlns="http://www.w3.org/2000/svg" width="720" height="140" viewBox="0 0 720 140" font-family="-apple-system,BlinkMacSystemFont,Segoe UI,Helvetica,Arial,sans-serif"><style>svg{--cf-bg:#0d1117;--cf-bg-alt:#161b22;--cf-border:#21262d;--cf-text:#e6edf3;--cf-text-dim:#8b949e;--cf-text-faint:#6e7681;--cf-accent:#5eead4;--cf-accent-soft:rgba(94,234,212,0.16);--cf-green:#3fb950;--cf-amber:#d29922;--cf-red:#f85149;--cf-spark:#5eead4;--cf-spark-bg:rgba(94,234,212,0.18)}@media (prefers-color-scheme: light){svg{--cf-bg:#ffffff;--cf-bg-alt:#f6f8fa;--cf-border:#d0d7de;--cf-text:#1f2328;--cf-text-dim:#656d76;--cf-text-faint:#8c959f;--cf-accent:#0d9488;--cf-accent-soft:rgba(13,148,136,0.12);--cf-green:#1a7f37;--cf-amber:#9a6700;--cf-red:#cf222e;--cf-spark:#0d9488;--cf-spark-bg:rgba(13,148,136,0.12)}}</style><rect width="720" height="140" rx="12" fill="var(--cf-bg)" stroke="var(--cf-border)"/><text x="18" y="26" font-size="13" font-weight="600" fill="var(--cf-text)">braedonsaunders/beaconhs</text><text x="702" y="26" text-anchor="end" font-size="10" fill="var(--cf-text-faint)" font-family="ui-monospace,SFMono-Regular,Menlo,monospace">@f64a939</text><g transform="translate(18,46)"><text x="0" y="0" font-size="9" font-weight="600" fill="var(--cf-text-dim)" letter-spacing="0.8">FILES</text><text x="0" y="28" font-size="22" font-weight="700" fill="var(--cf-text)">1.4K</text><g transform="translate(0,40)"><svg width="64" height="14" viewBox="0 0 64 14" preserveAspectRatio="none"><path d="M0 14 L2.13 14 L4.27 14 L6.4 14 L8.53 14 L10.67 13.77 L12.8 14 L14.93 11.74 L17.07 11.06 L19.2 4.74 L21.33 4.74 L23.47 2.48 L25.6 3.39 L27.73 3.16 L29.87 3.16 L32 6.32 L34.13 6.32 L36.27 5.42 L38.4 4.97 L40.53 4.29 L42.67 4.52 L44.8 4.52 L46.93 4.52 L49.07 4.52 L51.2 3.16 L53.33 3.16 L55.47 2.03 L57.6 2.03 L59.73 2.03 L61.87 0.68 L64 0 L64 14 L0 14 Z" fill="var(--cf-spark-bg)" stroke="none"/><path d="M0 14 L2.13 14 L4.27 14 L6.4 14 L8.53 14 L10.67 13.77 L12.8 14 L14.93 11.74 L17.07 11.06 L19.2 4.74 L21.33 4.74 L23.47 2.48 L25.6 3.39 L27.73 3.16 L29.87 3.16 L32 6.32 L34.13 6.32 L36.27 5.42 L38.4 4.97 L40.53 4.29 L42.67 4.52 L44.8 4.52 L46.93 4.52 L49.07 4.52 L51.2 3.16 L53.33 3.16 L55.47 2.03 L57.6 2.03 L59.73 2.03 L61.87 0.68 L64 0" fill="none" stroke="var(--cf-spark)" stroke-width="1.4" stroke-linecap="round" stroke-linejoin="round"/></svg></g></g><g transform="translate(154.8,46)"><text x="0" y="0" font-size="9" font-weight="600" fill="var(--cf-text-dim)" letter-spacing="0.8">FNS</text><text x="0" y="28" font-size="22" font-weight="700" fill="var(--cf-text)">4.8K</text><g transform="translate(0,40)"><svg width="64" height="14" viewBox="0 0 64 14" preserveAspectRatio="none"><path d="M0 12.67 L2.13 12.67 L4.27 12.55 L6.4 12.55 L8.53 12.55 L10.67 12.55 L12.8 14 L14.93 12.43 L17.07 10.62 L19.2 3.26 L21.33 3.26 L23.47 0 L25.6 5.07 L27.73 4.71 L29.87 4.59 L32 13.64 L34.13 13.64 L36.27 12.91 L38.4 12.19 L40.53 10.74 L42.67 10.86 L44.8 10.86 L46.93 10.5 L49.07 10.5 L51.2 8.33 L53.33 8.21 L55.47 9.05 L57.6 9.05 L59.73 8.45 L61.87 3.86 L64 2.78 L64 14 L0 14 Z" fill="var(--cf-spark-bg)" stroke="none"/><path d="M0 12.67 L2.13 12.67 L4.27 12.55 L6.4 12.55 L8.53 12.55 L10.67 12.55 L12.8 14 L14.93 12.43 L17.07 10.62 L19.2 3.26 L21.33 3.26 L23.47 0 L25.6 5.07 L27.73 4.71 L29.87 4.59 L32 13.64 L34.13 13.64 L36.27 12.91 L38.4 12.19 L40.53 10.74 L42.67 10.86 L44.8 10.86 L46.93 10.5 L49.07 10.5 L51.2 8.33 L53.33 8.21 L55.47 9.05 L57.6 9.05 L59.73 8.45 L61.87 3.86 L64 2.78" fill="none" stroke="var(--cf-spark)" stroke-width="1.4" stroke-linecap="round" stroke-linejoin="round"/></svg></g></g><g transform="translate(291.6,46)"><text x="0" y="0" font-size="9" font-weight="600" fill="var(--cf-text-dim)" letter-spacing="0.8">LOC</text><text x="0" y="28" font-size="22" font-weight="700" fill="var(--cf-text)">458.5K</text><g transform="translate(0,40)"><svg width="64" height="14" viewBox="0 0 64 14" preserveAspectRatio="none"><path d="M0 13.5 L2.13 13.44 L4.27 12.8 L6.4 12.75 L8.53 12.74 L10.67 12.81 L12.8 14 L14.93 12.99 L17.07 12.43 L19.2 2.45 L21.33 2.47 L23.47 0 L25.6 3.44 L27.73 3.25 L29.87 3.08 L32 9.79 L34.13 9.79 L36.27 8.57 L38.4 7.99 L40.53 7.18 L42.67 7.06 L44.8 7.01 L46.93 6.72 L49.07 6.69 L51.2 4.99 L53.33 4.74 L55.47 6.45 L57.6 6.45 L59.73 5.79 L61.87 2.9 L64 1.62 L64 14 L0 14 Z" fill="var(--cf-spark-bg)" stroke="none"/><path d="M0 13.5 L2.13 13.44 L4.27 12.8 L6.4 12.75 L8.53 12.74 L10.67 12.81 L12.8 14 L14.93 12.99 L17.07 12.43 L19.2 2.45 L21.33 2.47 L23.47 0 L25.6 3.44 L27.73 3.25 L29.87 3.08 L32 9.79 L34.13 9.79 L36.27 8.57 L38.4 7.99 L40.53 7.18 L42.67 7.06 L44.8 7.01 L46.93 6.72 L49.07 6.69 L51.2 4.99 L53.33 4.74 L55.47 6.45 L57.6 6.45 L59.73 5.79 L61.87 2.9 L64 1.62" fill="none" stroke="var(--cf-spark)" stroke-width="1.4" stroke-linecap="round" stroke-linejoin="round"/></svg></g></g><g transform="translate(428.40000000000003,46)"><text x="0" y="0" font-size="9" font-weight="600" fill="var(--cf-text-dim)" letter-spacing="0.8">LANGS</text><text x="0" y="28" font-size="22" font-weight="700" fill="var(--cf-text)">17</text><g transform="translate(0,40)"><svg width="64" height="14" viewBox="0 0 64 14" preserveAspectRatio="none"><path d="M0 7 L2.13 7 L4.27 7 L6.4 7 L8.53 7 L10.67 7 L12.8 7 L14.93 7 L17.07 7 L19.2 7 L21.33 7 L23.47 7 L25.6 7 L27.73 7 L29.87 7 L32 7 L34.13 7 L36.27 7 L38.4 7 L40.53 7 L42.67 7 L44.8 7 L46.93 7 L49.07 7 L51.2 7 L53.33 7 L55.47 7 L57.6 7 L59.73 7 L61.87 7 L64 7 L64 14 L0 14 Z" fill="var(--cf-spark-bg)" stroke="none"/><path d="M0 7 L2.13 7 L4.27 7 L6.4 7 L8.53 7 L10.67 7 L12.8 7 L14.93 7 L17.07 7 L19.2 7 L21.33 7 L23.47 7 L25.6 7 L27.73 7 L29.87 7 L32 7 L34.13 7 L36.27 7 L38.4 7 L40.53 7 L42.67 7 L44.8 7 L46.93 7 L49.07 7 L51.2 7 L53.33 7 L55.47 7 L57.6 7 L59.73 7 L61.87 7 L64 7" fill="none" stroke="var(--cf-spark)" stroke-width="1.4" stroke-linecap="round" stroke-linejoin="round"/></svg></g></g><g transform="translate(565.2,46)"><text x="0" y="0" font-size="9" font-weight="600" fill="var(--cf-text-dim)" letter-spacing="0.8">TESTS</text><text x="0" y="28" font-size="22" font-weight="700" fill="var(--cf-text)">13</text><g transform="translate(0,40)"><svg width="64" height="14" viewBox="0 0 64 14" preserveAspectRatio="none"><path d="M0 14 L2.13 14 L4.27 14 L6.4 14 L8.53 14 L10.67 14 L12.8 14 L14.93 14 L17.07 14 L19.2 14 L21.33 14 L23.47 14 L25.6 14 L27.73 14 L29.87 14 L32 14 L34.13 14 L36.27 14 L38.4 9.33 L40.53 9.33 L42.67 9.33 L44.8 9.33 L46.93 9.33 L49.07 9.33 L51.2 9.33 L53.33 9.33 L55.47 0 L57.6 0 L59.73 0 L61.87 0 L64 0 L64 14 L0 14 Z" fill="var(--cf-spark-bg)" stroke="none"/><path d="M0 14 L2.13 14 L4.27 14 L6.4 14 L8.53 14 L10.67 14 L12.8 14 L14.93 14 L17.07 14 L19.2 14 L21.33 14 L23.47 14 L25.6 14 L27.73 14 L29.87 14 L32 14 L34.13 14 L36.27 14 L38.4 9.33 L40.53 9.33 L42.67 9.33 L44.8 9.33 L46.93 9.33 L49.07 9.33 L51.2 9.33 L53.33 9.33 L55.47 0 L57.6 0 L59.73 0 L61.87 0 L64 0" fill="none" stroke="var(--cf-spark)" stroke-width="1.4" stroke-linecap="round" stroke-linejoin="round"/></svg></g></g><a href="https://github.com/braedonsaunders/codeflow" target="_blank"><text x="702" y="130" text-anchor="end" font-size="9" fill="var(--cf-text-faint)">powered by <tspan font-weight="600" fill="var(--cf-accent)">codeflow</tspan></text></a></svg>