<svg xmlns="http://www.w3.org/2000/svg" width="720" height="140" viewBox="0 0 720 140" font-family="-apple-system,BlinkMacSystemFont,Segoe UI,Helvetica,Arial,sans-serif"><style>svg{--cf-bg:#0d1117;--cf-bg-alt:#161b22;--cf-border:#21262d;--cf-text:#e6edf3;--cf-text-dim:#8b949e;--cf-text-faint:#6e7681;--cf-accent:#5eead4;--cf-accent-soft:rgba(94,234,212,0.16);--cf-green:#3fb950;--cf-amber:#d29922;--cf-red:#f85149;--cf-spark:#5eead4;--cf-spark-bg:rgba(94,234,212,0.18)}@media (prefers-color-scheme: light){svg{--cf-bg:#ffffff;--cf-bg-alt:#f6f8fa;--cf-border:#d0d7de;--cf-text:#1f2328;--cf-text-dim:#656d76;--cf-text-faint:#8c959f;--cf-accent:#0d9488;--cf-accent-soft:rgba(13,148,136,0.12);--cf-green:#1a7f37;--cf-amber:#9a6700;--cf-red:#cf222e;--cf-spark:#0d9488;--cf-spark-bg:rgba(13,148,136,0.12)}}</style><rect width="720" height="140" rx="12" fill="var(--cf-bg)" stroke="var(--cf-border)"/><text x="18" y="26" font-size="13" font-weight="600" fill="var(--cf-text)">braedonsaunders/beaconhs</text><text x="702" y="26" text-anchor="end" font-size="10" fill="var(--cf-text-faint)" font-family="ui-monospace,SFMono-Regular,Menlo,monospace">@0bc8d1a</text><g transform="translate(18,46)"><text x="0" y="0" font-size="9" font-weight="600" fill="var(--cf-text-dim)" letter-spacing="0.8">FILES</text><text x="0" y="28" font-size="22" font-weight="700" fill="var(--cf-text)">919</text><g transform="translate(0,40)"><svg width="64" height="14" viewBox="0 0 64 14" preserveAspectRatio="none"><path d="M0 3.89 L4.27 3.89 L8.53 3.89 L12.8 0 L17.07 7 L21.33 7 L25.6 4.67 L29.87 14 L34.13 10.11 L38.4 10.11 L42.67 10.11 L46.93 10.11 L51.2 9.33 L55.47 8.56 L59.73 7 L64 5.44 L64 14 L0 14 Z" fill="var(--cf-spark-bg)" stroke="none"/><path d="M0 3.89 L4.27 3.89 L8.53 3.89 L12.8 0 L17.07 7 L21.33 7 L25.6 4.67 L29.87 14 L34.13 10.11 L38.4 10.11 L42.67 10.11 L46.93 10.11 L51.2 9.33 L55.47 8.56 L59.73 7 L64 5.44" fill="none" stroke="var(--cf-spark)" stroke-width="1.4" stroke-linecap="round" stroke-linejoin="round"/></svg></g></g><g transform="translate(154.8,46)"><text x="0" y="0" font-size="9" font-weight="600" fill="var(--cf-text-dim)" letter-spacing="0.8">FNS</text><text x="0" y="28" font-size="22" font-weight="700" fill="var(--cf-text)">2.7K</text><g transform="translate(0,40)"><svg width="64" height="14" viewBox="0 0 64 14" preserveAspectRatio="none"><path d="M0 14 L4.27 14 L8.53 14 L12.8 0 L17.07 5.52 L21.33 5.52 L25.6 4.88 L29.87 9.63 L34.13 8.22 L38.4 8.22 L42.67 8.22 L46.93 8.22 L51.2 8.09 L55.47 7.83 L59.73 7.45 L64 7.19 L64 14 L0 14 Z" fill="var(--cf-spark-bg)" stroke="none"/><path d="M0 14 L4.27 14 L8.53 14 L12.8 0 L17.07 5.52 L21.33 5.52 L25.6 4.88 L29.87 9.63 L34.13 8.22 L38.4 8.22 L42.67 8.22 L46.93 8.22 L51.2 8.09 L55.47 7.83 L59.73 7.45 L64 7.19" fill="none" stroke="var(--cf-spark)" stroke-width="1.4" stroke-linecap="round" stroke-linejoin="round"/></svg></g></g><g transform="translate(291.6,46)"><text x="0" y="0" font-size="9" font-weight="600" fill="var(--cf-text-dim)" letter-spacing="0.8">LOC</text><text x="0" y="28" font-size="22" font-weight="700" fill="var(--cf-text)">260.3K</text><g transform="translate(0,40)"><svg width="64" height="14" viewBox="0 0 64 14" preserveAspectRatio="none"><path d="M0 14 L4.27 14 L8.53 14 L12.8 11.98 L17.07 0.2 L21.33 0.2 L25.6 0 L29.87 1.32 L34.13 1.15 L38.4 1.15 L42.67 1.1 L46.93 1.1 L51.2 1.08 L55.47 1.07 L59.73 1.02 L64 1.06 L64 14 L0 14 Z" fill="var(--cf-spark-bg)" stroke="none"/><path d="M0 14 L4.27 14 L8.53 14 L12.8 11.98 L17.07 0.2 L21.33 0.2 L25.6 0 L29.87 1.32 L34.13 1.15 L38.4 1.15 L42.67 1.1 L46.93 1.1 L51.2 1.08 L55.47 1.07 L59.73 1.02 L64 1.06" fill="none" stroke="var(--cf-spark)" stroke-width="1.4" stroke-linecap="round" stroke-linejoin="round"/></svg></g></g><g transform="translate(428.40000000000003,46)"><text x="0" y="0" font-size="9" font-weight="600" fill="var(--cf-text-dim)" letter-spacing="0.8">LANGS</text><text x="0" y="28" font-size="22" font-weight="700" fill="var(--cf-text)">17</text><g transform="translate(0,40)"><svg width="64" height="14" viewBox="0 0 64 14" preserveAspectRatio="none"><path d="M0 7 L4.27 7 L8.53 7 L12.8 7 L17.07 7 L21.33 7 L25.6 7 L29.87 7 L34.13 7 L38.4 7 L42.67 7 L46.93 7 L51.2 7 L55.47 7 L59.73 7 L64 7 L64 14 L0 14 Z" fill="var(--cf-spark-bg)" stroke="none"/><path d="M0 7 L4.27 7 L8.53 7 L12.8 7 L17.07 7 L21.33 7 L25.6 7 L29.87 7 L34.13 7 L38.4 7 L42.67 7 L46.93 7 L51.2 7 L55.47 7 L59.73 7 L64 7" fill="none" stroke="var(--cf-spark)" stroke-width="1.4" stroke-linecap="round" stroke-linejoin="round"/></svg></g></g><g transform="translate(565.2,46)"><text x="0" y="0" font-size="9" font-weight="600" fill="var(--cf-text-dim)" letter-spacing="0.8">TESTS</text><text x="0" y="28" font-size="22" font-weight="700" fill="var(--cf-text)">3</text><g transform="translate(0,40)"><svg width="64" height="14" viewBox="0 0 64 14" preserveAspectRatio="none"><path d="M0 7 L4.27 7 L8.53 7 L12.8 7 L17.07 7 L21.33 7 L25.6 7 L29.87 7 L34.13 7 L38.4 7 L42.67 7 L46.93 7 L51.2 7 L55.47 7 L59.73 7 L64 7 L64 14 L0 14 Z" fill="var(--cf-spark-bg)" stroke="none"/><path d="M0 7 L4.27 7 L8.53 7 L12.8 7 L17.07 7 L21.33 7 L25.6 7 L29.87 7 L34.13 7 L38.4 7 L42.67 7 L46.93 7 L51.2 7 L55.47 7 L59.73 7 L64 7" fill="none" stroke="var(--cf-spark)" stroke-width="1.4" stroke-linecap="round" stroke-linejoin="round"/></svg></g></g><a href="https://github.com/braedonsaunders/codeflow" target="_blank"><text x="702" y="130" text-anchor="end" font-size="9" fill="var(--cf-text-faint)">powered by <tspan font-weight="600" fill="var(--cf-accent)">codeflow</tspan></text></a></svg>