<svg xmlns="http://www.w3.org/2000/svg" width="720" height="318" viewBox="0 0 720 318" font-family="-apple-system,BlinkMacSystemFont,Segoe UI,Helvetica,Arial,sans-serif"><style>svg{--cf-bg:#0d1117;--cf-bg-alt:#161b22;--cf-border:#21262d;--cf-text:#e6edf3;--cf-text-dim:#8b949e;--cf-text-faint:#6e7681;--cf-accent:#5eead4;--cf-accent-soft:rgba(94,234,212,0.16);--cf-green:#3fb950;--cf-amber:#d29922;--cf-red:#f85149;--cf-spark:#5eead4;--cf-spark-bg:rgba(94,234,212,0.18)}@media (prefers-color-scheme: light){svg{--cf-bg:#ffffff;--cf-bg-alt:#f6f8fa;--cf-border:#d0d7de;--cf-text:#1f2328;--cf-text-dim:#656d76;--cf-text-faint:#8c959f;--cf-accent:#0d9488;--cf-accent-soft:rgba(13,148,136,0.12);--cf-green:#1a7f37;--cf-amber:#9a6700;--cf-red:#cf222e;--cf-spark:#0d9488;--cf-spark-bg:rgba(13,148,136,0.12)}}</style><rect width="720" height="318" rx="14" fill="var(--cf-bg)" stroke="var(--cf-border)"/><g transform="translate(22,26)"><text x="0" y="0" font-size="18" font-weight="700" fill="var(--cf-text)">braedonsaunders/beaconhs</text><text x="676" y="0" text-anchor="end" font-size="11" fill="var(--cf-text-faint)" font-family="ui-monospace,SFMono-Regular,Menlo,monospace">@42d9d13</text></g><g transform="translate(22,60)"><rect width="676" height="110" rx="10" fill="var(--cf-bg-alt)" stroke="var(--cf-border)"/><text x="16" y="22" font-size="11" font-weight="500" fill="var(--cf-text-dim)" letter-spacing="0.6">HEALTH</text><text x="16" y="78" font-size="64" font-weight="700" fill="var(--cf-amber)" font-family="ui-monospace,SFMono-Regular,Menlo,monospace">D</text></g><g transform="translate(22,184)"><rect width="676" height="88" rx="10" fill="var(--cf-bg-alt)" stroke="var(--cf-border)"/><g transform="translate(16,16)"><text x="0" y="0" font-size="10" font-weight="500" fill="var(--cf-text-dim)" letter-spacing="0.6">FILES</text><text x="0" y="28" font-size="22" font-weight="700" fill="var(--cf-text)">716</text><g transform="translate(0,38)"><svg width="80" height="18" viewBox="0 0 80 18" preserveAspectRatio="none"><path d="M0 18 L3.2 14.63 L6.4 14.63 L9.6 12.43 L12.8 9.97 L16 9.71 L19.2 9.58 L22.4 9.58 L25.6 7.12 L28.8 5.96 L32 5.96 L35.2 5.96 L38.4 5.96 L41.6 5.96 L44.8 5.31 L48 4.27 L51.2 3.11 L54.4 0.78 L57.6 2.33 L60.8 1.68 L64 0.52 L67.2 0.26 L70.4 0.13 L73.6 0 L76.8 0 L80 0 L80 18 L0 18 Z" fill="var(--cf-spark-bg)" stroke="none"/><path d="M0 18 L3.2 14.63 L6.4 14.63 L9.6 12.43 L12.8 9.97 L16 9.71 L19.2 9.58 L22.4 9.58 L25.6 7.12 L28.8 5.96 L32 5.96 L35.2 5.96 L38.4 5.96 L41.6 5.96 L44.8 5.31 L48 4.27 L51.2 3.11 L54.4 0.78 L57.6 2.33 L60.8 1.68 L64 0.52 L67.2 0.26 L70.4 0.13 L73.6 0 L76.8 0 L80 0" fill="none" stroke="var(--cf-spark)" stroke-width="1.4" stroke-linecap="round" stroke-linejoin="round"/></svg></g></g><g transform="translate(177,16)"><text x="0" y="0" font-size="10" font-weight="500" fill="var(--cf-text-dim)" letter-spacing="0.6">FNS</text><text x="0" y="28" font-size="22" font-weight="700" fill="var(--cf-text)">1.9K</text><g transform="translate(0,38)"><svg width="80" height="18" viewBox="0 0 80 18" preserveAspectRatio="none"><path d="M0 18 L3.2 13.33 L6.4 13.26 L9.6 11.74 L12.8 8.4 L16 8.13 L19.2 7.5 L22.4 7.5 L25.6 6.1 L28.8 5.71 L32 5.71 L35.2 5.71 L38.4 5.71 L41.6 5.68 L44.8 5.17 L48 3.5 L51.2 2.1 L54.4 0 L57.6 3.34 L60.8 2.1 L64 1.21 L67.2 0.89 L70.4 0.82 L73.6 0.82 L76.8 0.82 L80 0.82 L80 18 L0 18 Z" fill="var(--cf-spark-bg)" stroke="none"/><path d="M0 18 L3.2 13.33 L6.4 13.26 L9.6 11.74 L12.8 8.4 L16 8.13 L19.2 7.5 L22.4 7.5 L25.6 6.1 L28.8 5.71 L32 5.71 L35.2 5.71 L38.4 5.71 L41.6 5.68 L44.8 5.17 L48 3.5 L51.2 2.1 L54.4 0 L57.6 3.34 L60.8 2.1 L64 1.21 L67.2 0.89 L70.4 0.82 L73.6 0.82 L76.8 0.82 L80 0.82" fill="none" stroke="var(--cf-spark)" stroke-width="1.4" stroke-linecap="round" stroke-linejoin="round"/></svg></g></g><g transform="translate(338,16)"><text x="0" y="0" font-size="10" font-weight="500" fill="var(--cf-text-dim)" letter-spacing="0.6">LOC</text><text x="0" y="28" font-size="22" font-weight="700" fill="var(--cf-text)">376.9K</text><g transform="translate(0,38)"><svg width="80" height="18" viewBox="0 0 80 18" preserveAspectRatio="none"><path d="M0 18 L3.2 12.66 L6.4 12.64 L9.6 11.92 L12.8 11.32 L16 11.27 L19.2 10.98 L22.4 10.98 L25.6 10.68 L28.8 6.37 L32 6.37 L35.2 6.37 L38.4 6.37 L41.6 6.36 L44.8 6.14 L48 5.7 L51.2 5.25 L54.4 0.36 L57.6 1.06 L60.8 0.62 L64 0.23 L67.2 0.14 L70.4 0.1 L73.6 0 L76.8 0 L80 0 L80 18 L0 18 Z" fill="var(--cf-spark-bg)" stroke="none"/><path d="M0 18 L3.2 12.66 L6.4 12.64 L9.6 11.92 L12.8 11.32 L16 11.27 L19.2 10.98 L22.4 10.98 L25.6 10.68 L28.8 6.37 L32 6.37 L35.2 6.37 L38.4 6.37 L41.6 6.36 L44.8 6.14 L48 5.7 L51.2 5.25 L54.4 0.36 L57.6 1.06 L60.8 0.62 L64 0.23 L67.2 0.14 L70.4 0.1 L73.6 0 L76.8 0 L80 0" fill="none" stroke="var(--cf-spark)" stroke-width="1.4" stroke-linecap="round" stroke-linejoin="round"/></svg></g></g><g transform="translate(499,16)"><text x="0" y="0" font-size="10" font-weight="500" fill="var(--cf-text-dim)" letter-spacing="0.6">LANGS</text><text x="0" y="28" font-size="22" font-weight="700" fill="var(--cf-text)">16</text><g transform="translate(0,38)"><svg width="80" height="18" viewBox="0 0 80 18" preserveAspectRatio="none"><path d="M0 18 L3.2 18 L6.4 18 L9.6 18 L12.8 18 L16 18 L19.2 18 L22.4 18 L25.6 18 L28.8 18 L32 18 L35.2 18 L38.4 18 L41.6 18 L44.8 18 L48 18 L51.2 18 L54.4 18 L57.6 18 L60.8 18 L64 18 L67.2 18 L70.4 18 L73.6 0 L76.8 0 L80 0 L80 18 L0 18 Z" fill="var(--cf-spark-bg)" stroke="none"/><path d="M0 18 L3.2 18 L6.4 18 L9.6 18 L12.8 18 L16 18 L19.2 18 L22.4 18 L25.6 18 L28.8 18 L32 18 L35.2 18 L38.4 18 L41.6 18 L44.8 18 L48 18 L51.2 18 L54.4 18 L57.6 18 L60.8 18 L64 18 L67.2 18 L70.4 18 L73.6 0 L76.8 0 L80 0" fill="none" stroke="var(--cf-spark)" stroke-width="1.4" stroke-linecap="round" stroke-linejoin="round"/></svg></g></g></g><g transform="translate(22,304)"><text x="0" y="0" font-size="10" fill="var(--cf-text-faint)">updated 2026-05-25</text><a href="https://github.com/braedonsaunders/codeflow" target="_blank"><text x="676" y="0" text-anchor="end" font-size="10" fill="var(--cf-text-faint)">powered by <tspan font-weight="600" fill="var(--cf-accent)">codeflow</tspan></text></a></g></svg>