<svg xmlns="http://www.w3.org/2000/svg" width="720" height="318" viewBox="0 0 720 318" font-family="-apple-system,BlinkMacSystemFont,Segoe UI,Helvetica,Arial,sans-serif"><style>svg{--cf-bg:#0d1117;--cf-bg-alt:#161b22;--cf-border:#21262d;--cf-text:#e6edf3;--cf-text-dim:#8b949e;--cf-text-faint:#6e7681;--cf-accent:#5eead4;--cf-accent-soft:rgba(94,234,212,0.16);--cf-green:#3fb950;--cf-amber:#d29922;--cf-red:#f85149;--cf-spark:#5eead4;--cf-spark-bg:rgba(94,234,212,0.18)}@media (prefers-color-scheme: light){svg{--cf-bg:#ffffff;--cf-bg-alt:#f6f8fa;--cf-border:#d0d7de;--cf-text:#1f2328;--cf-text-dim:#656d76;--cf-text-faint:#8c959f;--cf-accent:#0d9488;--cf-accent-soft:rgba(13,148,136,0.12);--cf-green:#1a7f37;--cf-amber:#9a6700;--cf-red:#cf222e;--cf-spark:#0d9488;--cf-spark-bg:rgba(13,148,136,0.12)}}</style><rect width="720" height="318" rx="14" fill="var(--cf-bg)" stroke="var(--cf-border)"/><g transform="translate(22,26)"><text x="0" y="0" font-size="18" font-weight="700" fill="var(--cf-text)">braedonsaunders/beaconhs</text><text x="676" y="0" text-anchor="end" font-size="11" fill="var(--cf-text-faint)" font-family="ui-monospace,SFMono-Regular,Menlo,monospace">@30d31cc</text></g><g transform="translate(22,60)"><rect width="676" height="110" rx="10" fill="var(--cf-bg-alt)" stroke="var(--cf-border)"/><text x="16" y="22" font-size="11" font-weight="500" fill="var(--cf-text-dim)" letter-spacing="0.6">HEALTH</text><text x="16" y="78" font-size="64" font-weight="700" fill="var(--cf-amber)" font-family="ui-monospace,SFMono-Regular,Menlo,monospace">D</text><text x="660" y="78" text-anchor="end" font-size="22" font-weight="600" fill="var(--cf-text)">66</text><text x="660" y="94" text-anchor="end" font-size="10" fill="var(--cf-text-faint)" letter-spacing="0.6">SCORE / 100</text></g><g transform="translate(22,184)"><rect width="676" height="88" rx="10" fill="var(--cf-bg-alt)" stroke="var(--cf-border)"/><g transform="translate(16,16)"><text x="0" y="0" font-size="10" font-weight="500" fill="var(--cf-text-dim)" letter-spacing="0.6">FILES</text><text x="0" y="28" font-size="22" font-weight="700" fill="var(--cf-text)">715</text><g transform="translate(0,38)"><svg width="80" height="18" viewBox="0 0 80 18" preserveAspectRatio="none"><path d="M0 18 L3.64 14.61 L7.27 14.61 L10.91 12.39 L14.55 9.91 L18.18 9.65 L21.82 9.52 L25.45 9.52 L29.09 7.04 L32.73 5.87 L36.36 5.87 L40 5.87 L43.64 5.87 L47.27 5.87 L50.91 5.22 L54.55 4.17 L58.18 3 L61.82 0.65 L65.45 2.22 L69.09 1.57 L72.73 0.39 L76.36 0.13 L80 0 L80 18 L0 18 Z" fill="var(--cf-spark-bg)" stroke="none"/><path d="M0 18 L3.64 14.61 L7.27 14.61 L10.91 12.39 L14.55 9.91 L18.18 9.65 L21.82 9.52 L25.45 9.52 L29.09 7.04 L32.73 5.87 L36.36 5.87 L40 5.87 L43.64 5.87 L47.27 5.87 L50.91 5.22 L54.55 4.17 L58.18 3 L61.82 0.65 L65.45 2.22 L69.09 1.57 L72.73 0.39 L76.36 0.13 L80 0" fill="none" stroke="var(--cf-spark)" stroke-width="1.4" stroke-linecap="round" stroke-linejoin="round"/></svg></g></g><g transform="translate(177,16)"><text x="0" y="0" font-size="10" font-weight="500" fill="var(--cf-text-dim)" letter-spacing="0.6">FNS</text><text x="0" y="28" font-size="22" font-weight="700" fill="var(--cf-text)">1.9K</text><g transform="translate(0,38)"><svg width="80" height="18" viewBox="0 0 80 18" preserveAspectRatio="none"><path d="M0 18 L3.64 13.33 L7.27 13.26 L10.91 11.74 L14.55 8.4 L18.18 8.13 L21.82 7.5 L25.45 7.5 L29.09 6.1 L32.73 5.71 L36.36 5.71 L40 5.71 L43.64 5.71 L47.27 5.68 L50.91 5.17 L54.55 3.5 L58.18 2.1 L61.82 0 L65.45 3.34 L69.09 2.1 L72.73 1.21 L76.36 0.89 L80 0.82 L80 18 L0 18 Z" fill="var(--cf-spark-bg)" stroke="none"/><path d="M0 18 L3.64 13.33 L7.27 13.26 L10.91 11.74 L14.55 8.4 L18.18 8.13 L21.82 7.5 L25.45 7.5 L29.09 6.1 L32.73 5.71 L36.36 5.71 L40 5.71 L43.64 5.71 L47.27 5.68 L50.91 5.17 L54.55 3.5 L58.18 2.1 L61.82 0 L65.45 3.34 L69.09 2.1 L72.73 1.21 L76.36 0.89 L80 0.82" fill="none" stroke="var(--cf-spark)" stroke-width="1.4" stroke-linecap="round" stroke-linejoin="round"/></svg></g></g><g transform="translate(338,16)"><text x="0" y="0" font-size="10" font-weight="500" fill="var(--cf-text-dim)" letter-spacing="0.6">LOC</text><text x="0" y="28" font-size="22" font-weight="700" fill="var(--cf-text)">376.2K</text><g transform="translate(0,38)"><svg width="80" height="18" viewBox="0 0 80 18" preserveAspectRatio="none"><path d="M0 18 L3.64 12.63 L7.27 12.61 L10.91 11.88 L14.55 11.29 L18.18 11.24 L21.82 10.95 L25.45 10.95 L29.09 10.65 L32.73 6.31 L36.36 6.31 L40 6.31 L43.64 6.31 L47.27 6.3 L50.91 6.08 L54.55 5.64 L58.18 5.19 L61.82 0.27 L65.45 0.97 L69.09 0.53 L72.73 0.14 L76.36 0.04 L80 0 L80 18 L0 18 Z" fill="var(--cf-spark-bg)" stroke="none"/><path d="M0 18 L3.64 12.63 L7.27 12.61 L10.91 11.88 L14.55 11.29 L18.18 11.24 L21.82 10.95 L25.45 10.95 L29.09 10.65 L32.73 6.31 L36.36 6.31 L40 6.31 L43.64 6.31 L47.27 6.3 L50.91 6.08 L54.55 5.64 L58.18 5.19 L61.82 0.27 L65.45 0.97 L69.09 0.53 L72.73 0.14 L76.36 0.04 L80 0" fill="none" stroke="var(--cf-spark)" stroke-width="1.4" stroke-linecap="round" stroke-linejoin="round"/></svg></g></g><g transform="translate(499,16)"><text x="0" y="0" font-size="10" font-weight="500" fill="var(--cf-text-dim)" letter-spacing="0.6">LANGS</text><text x="0" y="28" font-size="22" font-weight="700" fill="var(--cf-text)">15</text><g transform="translate(0,38)"><svg width="80" height="18" viewBox="0 0 80 18" preserveAspectRatio="none"><path d="M0 9 L3.64 9 L7.27 9 L10.91 9 L14.55 9 L18.18 9 L21.82 9 L25.45 9 L29.09 9 L32.73 9 L36.36 9 L40 9 L43.64 9 L47.27 9 L50.91 9 L54.55 9 L58.18 9 L61.82 9 L65.45 9 L69.09 9 L72.73 9 L76.36 9 L80 9 L80 18 L0 18 Z" fill="var(--cf-spark-bg)" stroke="none"/><path d="M0 9 L3.64 9 L7.27 9 L10.91 9 L14.55 9 L18.18 9 L21.82 9 L25.45 9 L29.09 9 L32.73 9 L36.36 9 L40 9 L43.64 9 L47.27 9 L50.91 9 L54.55 9 L58.18 9 L61.82 9 L65.45 9 L69.09 9 L72.73 9 L76.36 9 L80 9" fill="none" stroke="var(--cf-spark)" stroke-width="1.4" stroke-linecap="round" stroke-linejoin="round"/></svg></g></g></g><g transform="translate(22,304)"><text x="0" y="0" font-size="10" fill="var(--cf-text-faint)">updated 2026-05-25</text><a href="https://github.com/braedonsaunders/codeflow" target="_blank"><text x="676" y="0" text-anchor="end" font-size="10" fill="var(--cf-text-faint)">powered by <tspan font-weight="600" fill="var(--cf-accent)">codeflow</tspan></text></a></g></svg>