<svg xmlns="http://www.w3.org/2000/svg" width="720" height="140" viewBox="0 0 720 140" font-family="-apple-system,BlinkMacSystemFont,Segoe UI,Helvetica,Arial,sans-serif"><style>svg{--cf-bg:#0d1117;--cf-bg-alt:#161b22;--cf-border:#21262d;--cf-text:#e6edf3;--cf-text-dim:#8b949e;--cf-text-faint:#6e7681;--cf-accent:#5eead4;--cf-accent-soft:rgba(94,234,212,0.16);--cf-green:#3fb950;--cf-amber:#d29922;--cf-red:#f85149;--cf-spark:#5eead4;--cf-spark-bg:rgba(94,234,212,0.18)}@media (prefers-color-scheme: light){svg{--cf-bg:#ffffff;--cf-bg-alt:#f6f8fa;--cf-border:#d0d7de;--cf-text:#1f2328;--cf-text-dim:#656d76;--cf-text-faint:#8c959f;--cf-accent:#0d9488;--cf-accent-soft:rgba(13,148,136,0.12);--cf-green:#1a7f37;--cf-amber:#9a6700;--cf-red:#cf222e;--cf-spark:#0d9488;--cf-spark-bg:rgba(13,148,136,0.12)}}</style><rect width="720" height="140" rx="12" fill="var(--cf-bg)" stroke="var(--cf-border)"/><text x="18" y="26" font-size="13" font-weight="600" fill="var(--cf-text)">braedonsaunders/beaconhs</text><text x="702" y="26" text-anchor="end" font-size="10" fill="var(--cf-text-faint)" font-family="ui-monospace,SFMono-Regular,Menlo,monospace">@cff9770</text><g transform="translate(18,46)"><text x="0" y="0" font-size="9" font-weight="600" fill="var(--cf-text-dim)" letter-spacing="0.8">FILES</text><text x="0" y="28" font-size="22" font-weight="700" fill="var(--cf-text)">999</text><g transform="translate(0,40)"><svg width="64" height="14" viewBox="0 0 64 14" preserveAspectRatio="none"><path d="M0 12 L2.37 12 L4.74 12 L7.11 11.23 L9.48 12.62 L11.85 12.62 L14.22 12.15 L16.59 14 L18.96 13.23 L21.33 13.23 L23.7 13.23 L26.07 13.23 L28.44 13.08 L30.81 12.92 L33.19 12.62 L35.56 12.31 L37.93 12.31 L40.3 12.31 L42.67 9.23 L45.04 9.23 L47.41 9.23 L49.78 9.69 L52.15 0.15 L54.52 0 L56.89 0 L59.26 0 L61.63 0 L64 0 L64 14 L0 14 Z" fill="var(--cf-spark-bg)" stroke="none"/><path d="M0 12 L2.37 12 L4.74 12 L7.11 11.23 L9.48 12.62 L11.85 12.62 L14.22 12.15 L16.59 14 L18.96 13.23 L21.33 13.23 L23.7 13.23 L26.07 13.23 L28.44 13.08 L30.81 12.92 L33.19 12.62 L35.56 12.31 L37.93 12.31 L40.3 12.31 L42.67 9.23 L45.04 9.23 L47.41 9.23 L49.78 9.69 L52.15 0.15 L54.52 0 L56.89 0 L59.26 0 L61.63 0 L64 0" fill="none" stroke="var(--cf-spark)" stroke-width="1.4" stroke-linecap="round" stroke-linejoin="round"/></svg></g></g><g transform="translate(154.8,46)"><text x="0" y="0" font-size="9" font-weight="600" fill="var(--cf-text-dim)" letter-spacing="0.8">FNS</text><text x="0" y="28" font-size="22" font-weight="700" fill="var(--cf-text)">3.1K</text><g transform="translate(0,40)"><svg width="64" height="14" viewBox="0 0 64 14" preserveAspectRatio="none"><path d="M0 14 L2.37 14 L4.74 14 L7.11 10.39 L9.48 11.82 L11.85 11.82 L14.22 11.65 L16.59 12.87 L18.96 12.51 L21.33 12.51 L23.7 12.51 L26.07 12.51 L28.44 12.48 L30.81 12.41 L33.19 12.31 L35.56 12.25 L37.93 12.25 L40.3 12.25 L42.67 8.64 L45.04 8.64 L47.41 8.67 L49.78 8.57 L52.15 0.26 L54.52 0.23 L56.89 0.23 L59.26 0.07 L61.63 0 L64 0 L64 14 L0 14 Z" fill="var(--cf-spark-bg)" stroke="none"/><path d="M0 14 L2.37 14 L4.74 14 L7.11 10.39 L9.48 11.82 L11.85 11.82 L14.22 11.65 L16.59 12.87 L18.96 12.51 L21.33 12.51 L23.7 12.51 L26.07 12.51 L28.44 12.48 L30.81 12.41 L33.19 12.31 L35.56 12.25 L37.93 12.25 L40.3 12.25 L42.67 8.64 L45.04 8.64 L47.41 8.67 L49.78 8.57 L52.15 0.26 L54.52 0.23 L56.89 0.23 L59.26 0.07 L61.63 0 L64 0" fill="none" stroke="var(--cf-spark)" stroke-width="1.4" stroke-linecap="round" stroke-linejoin="round"/></svg></g></g><g transform="translate(291.6,46)"><text x="0" y="0" font-size="9" font-weight="600" fill="var(--cf-text-dim)" letter-spacing="0.8">LOC</text><text x="0" y="28" font-size="22" font-weight="700" fill="var(--cf-text)">342.8K</text><g transform="translate(0,40)"><svg width="64" height="14" viewBox="0 0 64 14" preserveAspectRatio="none"><path d="M0 14 L2.37 14 L4.74 14 L7.11 13.4 L9.48 9.88 L11.85 9.88 L14.22 9.82 L16.59 10.22 L18.96 10.17 L21.33 10.17 L23.7 10.15 L26.07 10.15 L28.44 10.15 L30.81 10.14 L33.19 10.13 L35.56 10.14 L37.93 10.13 L40.3 10.13 L42.67 1.36 L45.04 1.36 L47.41 1.36 L49.78 1.42 L52.15 0.07 L54.52 0.06 L56.89 0.05 L59.26 0.02 L61.63 0.01 L64 0 L64 14 L0 14 Z" fill="var(--cf-spark-bg)" stroke="none"/><path d="M0 14 L2.37 14 L4.74 14 L7.11 13.4 L9.48 9.88 L11.85 9.88 L14.22 9.82 L16.59 10.22 L18.96 10.17 L21.33 10.17 L23.7 10.15 L26.07 10.15 L28.44 10.15 L30.81 10.14 L33.19 10.13 L35.56 10.14 L37.93 10.13 L40.3 10.13 L42.67 1.36 L45.04 1.36 L47.41 1.36 L49.78 1.42 L52.15 0.07 L54.52 0.06 L56.89 0.05 L59.26 0.02 L61.63 0.01 L64 0" fill="none" stroke="var(--cf-spark)" stroke-width="1.4" stroke-linecap="round" stroke-linejoin="round"/></svg></g></g><g transform="translate(428.40000000000003,46)"><text x="0" y="0" font-size="9" font-weight="600" fill="var(--cf-text-dim)" letter-spacing="0.8">LANGS</text><text x="0" y="28" font-size="22" font-weight="700" fill="var(--cf-text)">17</text><g transform="translate(0,40)"><svg width="64" height="14" viewBox="0 0 64 14" preserveAspectRatio="none"><path d="M0 7 L2.37 7 L4.74 7 L7.11 7 L9.48 7 L11.85 7 L14.22 7 L16.59 7 L18.96 7 L21.33 7 L23.7 7 L26.07 7 L28.44 7 L30.81 7 L33.19 7 L35.56 7 L37.93 7 L40.3 7 L42.67 7 L45.04 7 L47.41 7 L49.78 7 L52.15 7 L54.52 7 L56.89 7 L59.26 7 L61.63 7 L64 7 L64 14 L0 14 Z" fill="var(--cf-spark-bg)" stroke="none"/><path d="M0 7 L2.37 7 L4.74 7 L7.11 7 L9.48 7 L11.85 7 L14.22 7 L16.59 7 L18.96 7 L21.33 7 L23.7 7 L26.07 7 L28.44 7 L30.81 7 L33.19 7 L35.56 7 L37.93 7 L40.3 7 L42.67 7 L45.04 7 L47.41 7 L49.78 7 L52.15 7 L54.52 7 L56.89 7 L59.26 7 L61.63 7 L64 7" fill="none" stroke="var(--cf-spark)" stroke-width="1.4" stroke-linecap="round" stroke-linejoin="round"/></svg></g></g><g transform="translate(565.2,46)"><text x="0" y="0" font-size="9" font-weight="600" fill="var(--cf-text-dim)" letter-spacing="0.8">TESTS</text><text x="0" y="28" font-size="22" font-weight="700" fill="var(--cf-text)">4</text><g transform="translate(0,40)"><svg width="64" height="14" viewBox="0 0 64 14" preserveAspectRatio="none"><path d="M0 14 L2.37 14 L4.74 14 L7.11 14 L9.48 14 L11.85 14 L14.22 14 L16.59 14 L18.96 14 L21.33 14 L23.7 14 L26.07 14 L28.44 14 L30.81 14 L33.19 14 L35.56 14 L37.93 14 L40.3 14 L42.67 14 L45.04 14 L47.41 14 L49.78 0 L52.15 0 L54.52 0 L56.89 0 L59.26 0 L61.63 0 L64 0 L64 14 L0 14 Z" fill="var(--cf-spark-bg)" stroke="none"/><path d="M0 14 L2.37 14 L4.74 14 L7.11 14 L9.48 14 L11.85 14 L14.22 14 L16.59 14 L18.96 14 L21.33 14 L23.7 14 L26.07 14 L28.44 14 L30.81 14 L33.19 14 L35.56 14 L37.93 14 L40.3 14 L42.67 14 L45.04 14 L47.41 14 L49.78 0 L52.15 0 L54.52 0 L56.89 0 L59.26 0 L61.63 0 L64 0" fill="none" stroke="var(--cf-spark)" stroke-width="1.4" stroke-linecap="round" stroke-linejoin="round"/></svg></g></g><a href="https://github.com/braedonsaunders/codeflow" target="_blank"><text x="702" y="130" text-anchor="end" font-size="9" fill="var(--cf-text-faint)">powered by <tspan font-weight="600" fill="var(--cf-accent)">codeflow</tspan></text></a></svg>