<svg xmlns="http://www.w3.org/2000/svg" width="720" height="140" viewBox="0 0 720 140" font-family="-apple-system,BlinkMacSystemFont,Segoe UI,Helvetica,Arial,sans-serif"><style>svg{--cf-bg:#0d1117;--cf-bg-alt:#161b22;--cf-border:#21262d;--cf-text:#e6edf3;--cf-text-dim:#8b949e;--cf-text-faint:#6e7681;--cf-accent:#5eead4;--cf-accent-soft:rgba(94,234,212,0.16);--cf-green:#3fb950;--cf-amber:#d29922;--cf-red:#f85149;--cf-spark:#5eead4;--cf-spark-bg:rgba(94,234,212,0.18)}@media (prefers-color-scheme: light){svg{--cf-bg:#ffffff;--cf-bg-alt:#f6f8fa;--cf-border:#d0d7de;--cf-text:#1f2328;--cf-text-dim:#656d76;--cf-text-faint:#8c959f;--cf-accent:#0d9488;--cf-accent-soft:rgba(13,148,136,0.12);--cf-green:#1a7f37;--cf-amber:#9a6700;--cf-red:#cf222e;--cf-spark:#0d9488;--cf-spark-bg:rgba(13,148,136,0.12)}}</style><rect width="720" height="140" rx="12" fill="var(--cf-bg)" stroke="var(--cf-border)"/><text x="18" y="26" font-size="13" font-weight="600" fill="var(--cf-text)">braedonsaunders/beaconhs</text><text x="702" y="26" text-anchor="end" font-size="10" fill="var(--cf-text-faint)" font-family="ui-monospace,SFMono-Regular,Menlo,monospace">@b8439f8</text><g transform="translate(18,46)"><text x="0" y="0" font-size="9" font-weight="600" fill="var(--cf-text-dim)" letter-spacing="0.8">FILES</text><text x="0" y="28" font-size="22" font-weight="700" fill="var(--cf-text)">1.1K</text><g transform="translate(0,40)"><svg width="64" height="14" viewBox="0 0 64 14" preserveAspectRatio="none"><path d="M0 14 L2.13 14 L4.27 14 L6.4 13.73 L8.53 13.46 L10.67 13.32 L12.8 13.32 L14.93 13.32 L17.07 13.32 L19.2 10.06 L21.33 10.19 L23.47 10.19 L25.6 8.29 L27.73 8.29 L29.87 8.29 L32 8.29 L34.13 8.29 L36.27 8.29 L38.4 8.02 L40.53 3.13 L42.67 3.13 L44.8 2.85 L46.93 2.04 L49.07 1.63 L51.2 1.63 L53.33 1.5 L55.47 1.22 L57.6 0.27 L59.73 0.27 L61.87 0 L64 0 L64 14 L0 14 Z" fill="var(--cf-spark-bg)" stroke="none"/><path d="M0 14 L2.13 14 L4.27 14 L6.4 13.73 L8.53 13.46 L10.67 13.32 L12.8 13.32 L14.93 13.32 L17.07 13.32 L19.2 10.06 L21.33 10.19 L23.47 10.19 L25.6 8.29 L27.73 8.29 L29.87 8.29 L32 8.29 L34.13 8.29 L36.27 8.29 L38.4 8.02 L40.53 3.13 L42.67 3.13 L44.8 2.85 L46.93 2.04 L49.07 1.63 L51.2 1.63 L53.33 1.5 L55.47 1.22 L57.6 0.27 L59.73 0.27 L61.87 0 L64 0" fill="none" stroke="var(--cf-spark)" stroke-width="1.4" stroke-linecap="round" stroke-linejoin="round"/></svg></g></g><g transform="translate(154.8,46)"><text x="0" y="0" font-size="9" font-weight="600" fill="var(--cf-text-dim)" letter-spacing="0.8">FNS</text><text x="0" y="28" font-size="22" font-weight="700" fill="var(--cf-text)">3.4K</text><g transform="translate(0,40)"><svg width="64" height="14" viewBox="0 0 64 14" preserveAspectRatio="none"><path d="M0 14 L2.13 14 L4.27 14 L6.4 13.04 L8.53 12.41 L10.67 12.33 L12.8 12.33 L14.93 12.33 L17.07 12.29 L19.2 8.94 L21.33 9.19 L23.47 9.19 L25.6 7.06 L27.73 7.06 L29.87 7.06 L32 7.06 L34.13 6.9 L36.27 6.9 L38.4 6.81 L40.53 4.43 L42.67 4.43 L44.8 3.89 L46.93 3.39 L49.07 2.55 L51.2 2.05 L53.33 1.88 L55.47 1.59 L57.6 0.75 L59.73 0.75 L61.87 0 L64 0 L64 14 L0 14 Z" fill="var(--cf-spark-bg)" stroke="none"/><path d="M0 14 L2.13 14 L4.27 14 L6.4 13.04 L8.53 12.41 L10.67 12.33 L12.8 12.33 L14.93 12.33 L17.07 12.29 L19.2 8.94 L21.33 9.19 L23.47 9.19 L25.6 7.06 L27.73 7.06 L29.87 7.06 L32 7.06 L34.13 6.9 L36.27 6.9 L38.4 6.81 L40.53 4.43 L42.67 4.43 L44.8 3.89 L46.93 3.39 L49.07 2.55 L51.2 2.05 L53.33 1.88 L55.47 1.59 L57.6 0.75 L59.73 0.75 L61.87 0 L64 0" fill="none" stroke="var(--cf-spark)" stroke-width="1.4" stroke-linecap="round" stroke-linejoin="round"/></svg></g></g><g transform="translate(291.6,46)"><text x="0" y="0" font-size="9" font-weight="600" fill="var(--cf-text-dim)" letter-spacing="0.8">LOC</text><text x="0" y="28" font-size="22" font-weight="700" fill="var(--cf-text)">368.5K</text><g transform="translate(0,40)"><svg width="64" height="14" viewBox="0 0 64 14" preserveAspectRatio="none"><path d="M0 14 L2.13 13.96 L4.27 13.78 L6.4 12.9 L8.53 12.65 L10.67 12.54 L12.8 12.51 L14.93 12.32 L17.07 12.26 L19.2 9.56 L21.33 9.66 L23.47 9.45 L25.6 5.72 L27.73 5.59 L29.87 5.59 L32 5.59 L34.13 5.54 L36.27 5.52 L38.4 5.49 L40.53 2.95 L42.67 2.92 L44.8 2.66 L46.93 2.44 L49.07 1.78 L51.2 1.37 L53.33 1.13 L55.47 0.99 L57.6 0.53 L59.73 0.52 L61.87 0.01 L64 0 L64 14 L0 14 Z" fill="var(--cf-spark-bg)" stroke="none"/><path d="M0 14 L2.13 13.96 L4.27 13.78 L6.4 12.9 L8.53 12.65 L10.67 12.54 L12.8 12.51 L14.93 12.32 L17.07 12.26 L19.2 9.56 L21.33 9.66 L23.47 9.45 L25.6 5.72 L27.73 5.59 L29.87 5.59 L32 5.59 L34.13 5.54 L36.27 5.52 L38.4 5.49 L40.53 2.95 L42.67 2.92 L44.8 2.66 L46.93 2.44 L49.07 1.78 L51.2 1.37 L53.33 1.13 L55.47 0.99 L57.6 0.53 L59.73 0.52 L61.87 0.01 L64 0" fill="none" stroke="var(--cf-spark)" stroke-width="1.4" stroke-linecap="round" stroke-linejoin="round"/></svg></g></g><g transform="translate(428.40000000000003,46)"><text x="0" y="0" font-size="9" font-weight="600" fill="var(--cf-text-dim)" letter-spacing="0.8">LANGS</text><text x="0" y="28" font-size="22" font-weight="700" fill="var(--cf-text)">17</text><g transform="translate(0,40)"><svg width="64" height="14" viewBox="0 0 64 14" preserveAspectRatio="none"><path d="M0 7 L2.13 7 L4.27 7 L6.4 7 L8.53 7 L10.67 7 L12.8 7 L14.93 7 L17.07 7 L19.2 7 L21.33 7 L23.47 7 L25.6 7 L27.73 7 L29.87 7 L32 7 L34.13 7 L36.27 7 L38.4 7 L40.53 7 L42.67 7 L44.8 7 L46.93 7 L49.07 7 L51.2 7 L53.33 7 L55.47 7 L57.6 7 L59.73 7 L61.87 7 L64 7 L64 14 L0 14 Z" fill="var(--cf-spark-bg)" stroke="none"/><path d="M0 7 L2.13 7 L4.27 7 L6.4 7 L8.53 7 L10.67 7 L12.8 7 L14.93 7 L17.07 7 L19.2 7 L21.33 7 L23.47 7 L25.6 7 L27.73 7 L29.87 7 L32 7 L34.13 7 L36.27 7 L38.4 7 L40.53 7 L42.67 7 L44.8 7 L46.93 7 L49.07 7 L51.2 7 L53.33 7 L55.47 7 L57.6 7 L59.73 7 L61.87 7 L64 7" fill="none" stroke="var(--cf-spark)" stroke-width="1.4" stroke-linecap="round" stroke-linejoin="round"/></svg></g></g><g transform="translate(565.2,46)"><text x="0" y="0" font-size="9" font-weight="600" fill="var(--cf-text-dim)" letter-spacing="0.8">TESTS</text><text x="0" y="28" font-size="22" font-weight="700" fill="var(--cf-text)">5</text><g transform="translate(0,40)"><svg width="64" height="14" viewBox="0 0 64 14" preserveAspectRatio="none"><path d="M0 14 L2.13 14 L4.27 14 L6.4 14 L8.53 14 L10.67 14 L12.8 14 L14.93 14 L17.07 14 L19.2 14 L21.33 14 L23.47 14 L25.6 14 L27.73 14 L29.87 14 L32 14 L34.13 14 L36.27 14 L38.4 14 L40.53 0 L42.67 0 L44.8 0 L46.93 0 L49.07 0 L51.2 0 L53.33 0 L55.47 0 L57.6 0 L59.73 0 L61.87 0 L64 0 L64 14 L0 14 Z" fill="var(--cf-spark-bg)" stroke="none"/><path d="M0 14 L2.13 14 L4.27 14 L6.4 14 L8.53 14 L10.67 14 L12.8 14 L14.93 14 L17.07 14 L19.2 14 L21.33 14 L23.47 14 L25.6 14 L27.73 14 L29.87 14 L32 14 L34.13 14 L36.27 14 L38.4 14 L40.53 0 L42.67 0 L44.8 0 L46.93 0 L49.07 0 L51.2 0 L53.33 0 L55.47 0 L57.6 0 L59.73 0 L61.87 0 L64 0" fill="none" stroke="var(--cf-spark)" stroke-width="1.4" stroke-linecap="round" stroke-linejoin="round"/></svg></g></g><a href="https://github.com/braedonsaunders/codeflow" target="_blank"><text x="702" y="130" text-anchor="end" font-size="9" fill="var(--cf-text-faint)">powered by <tspan font-weight="600" fill="var(--cf-accent)">codeflow</tspan></text></a></svg>