<svg xmlns="http://www.w3.org/2000/svg" width="720" height="194" viewBox="0 0 720 194" font-family="-apple-system,BlinkMacSystemFont,Segoe UI,Helvetica,Arial,sans-serif"><style>svg{--cf-bg:#0d1117;--cf-bg-alt:#161b22;--cf-border:#21262d;--cf-text:#e6edf3;--cf-text-dim:#8b949e;--cf-text-faint:#6e7681;--cf-accent:#5eead4;--cf-accent-soft:rgba(94,234,212,0.16);--cf-green:#3fb950;--cf-amber:#d29922;--cf-red:#f85149;--cf-spark:#5eead4;--cf-spark-bg:rgba(94,234,212,0.18)}@media (prefers-color-scheme: light){svg{--cf-bg:#ffffff;--cf-bg-alt:#f6f8fa;--cf-border:#d0d7de;--cf-text:#1f2328;--cf-text-dim:#656d76;--cf-text-faint:#8c959f;--cf-accent:#0d9488;--cf-accent-soft:rgba(13,148,136,0.12);--cf-green:#1a7f37;--cf-amber:#9a6700;--cf-red:#cf222e;--cf-spark:#0d9488;--cf-spark-bg:rgba(13,148,136,0.12)}}</style><rect width="720" height="194" rx="14" fill="var(--cf-bg)" stroke="var(--cf-border)"/><g transform="translate(22,26)"><text x="0" y="0" font-size="18" font-weight="700" fill="var(--cf-text)">braedonsaunders/beaconhs</text><text x="676" y="0" text-anchor="end" font-size="11" fill="var(--cf-text-faint)" font-family="ui-monospace,SFMono-Regular,Menlo,monospace">@3aed678</text></g><g transform="translate(22,60)"><rect width="676" height="88" rx="10" fill="var(--cf-bg-alt)" stroke="var(--cf-border)"/><g transform="translate(16,16)"><text x="0" y="0" font-size="10" font-weight="500" fill="var(--cf-text-dim)" letter-spacing="0.6">FILES</text><text x="0" y="28" font-size="22" font-weight="700" fill="var(--cf-text)">684</text><g transform="translate(0,38)"><svg width="80" height="18" viewBox="0 0 80 18" preserveAspectRatio="none"><path d="M0 18 L2.86 14.63 L5.71 14.63 L8.57 12.43 L11.43 9.97 L14.29 9.71 L17.14 9.58 L20 9.58 L22.86 7.12 L25.71 5.96 L28.57 5.96 L31.43 5.96 L34.29 5.96 L37.14 5.96 L40 5.31 L42.86 4.27 L45.71 3.11 L48.57 0.78 L51.43 2.33 L54.29 1.68 L57.14 0.52 L60 0.26 L62.86 0.13 L65.71 0 L68.57 0 L71.43 0 L74.29 0 L77.14 0 L80 4.14 L80 18 L0 18 Z" fill="var(--cf-spark-bg)" stroke="none"/><path d="M0 18 L2.86 14.63 L5.71 14.63 L8.57 12.43 L11.43 9.97 L14.29 9.71 L17.14 9.58 L20 9.58 L22.86 7.12 L25.71 5.96 L28.57 5.96 L31.43 5.96 L34.29 5.96 L37.14 5.96 L40 5.31 L42.86 4.27 L45.71 3.11 L48.57 0.78 L51.43 2.33 L54.29 1.68 L57.14 0.52 L60 0.26 L62.86 0.13 L65.71 0 L68.57 0 L71.43 0 L74.29 0 L77.14 0 L80 4.14" fill="none" stroke="var(--cf-spark)" stroke-width="1.4" stroke-linecap="round" stroke-linejoin="round"/></svg></g></g><g transform="translate(177,16)"><text x="0" y="0" font-size="10" font-weight="500" fill="var(--cf-text-dim)" letter-spacing="0.6">FNS</text><text x="0" y="28" font-size="22" font-weight="700" fill="var(--cf-text)">1.9K</text><g transform="translate(0,38)"><svg width="80" height="18" viewBox="0 0 80 18" preserveAspectRatio="none"><path d="M0 18 L2.86 13.33 L5.71 13.26 L8.57 11.74 L11.43 8.4 L14.29 8.13 L17.14 7.5 L20 7.5 L22.86 6.1 L25.71 5.71 L28.57 5.71 L31.43 5.71 L34.29 5.71 L37.14 5.68 L40 5.17 L42.86 3.5 L45.71 2.1 L48.57 0 L51.43 3.34 L54.29 2.1 L57.14 1.21 L60 0.89 L62.86 0.82 L65.71 0.82 L68.57 0.82 L71.43 0.82 L74.29 0.82 L77.14 0.82 L80 0.82 L80 18 L0 18 Z" fill="var(--cf-spark-bg)" stroke="none"/><path d="M0 18 L2.86 13.33 L5.71 13.26 L8.57 11.74 L11.43 8.4 L14.29 8.13 L17.14 7.5 L20 7.5 L22.86 6.1 L25.71 5.71 L28.57 5.71 L31.43 5.71 L34.29 5.71 L37.14 5.68 L40 5.17 L42.86 3.5 L45.71 2.1 L48.57 0 L51.43 3.34 L54.29 2.1 L57.14 1.21 L60 0.89 L62.86 0.82 L65.71 0.82 L68.57 0.82 L71.43 0.82 L74.29 0.82 L77.14 0.82 L80 0.82" fill="none" stroke="var(--cf-spark)" stroke-width="1.4" stroke-linecap="round" stroke-linejoin="round"/></svg></g></g><g transform="translate(338,16)"><text x="0" y="0" font-size="10" font-weight="500" fill="var(--cf-text-dim)" letter-spacing="0.6">LOC</text><text x="0" y="28" font-size="22" font-weight="700" fill="var(--cf-text)">184.4K</text><g transform="translate(0,38)"><svg width="80" height="18" viewBox="0 0 80 18" preserveAspectRatio="none"><path d="M0 11.99 L2.86 8.43 L5.71 8.42 L8.57 7.94 L11.43 7.54 L14.29 7.51 L17.14 7.32 L20 7.32 L22.86 7.12 L25.71 4.25 L28.57 4.24 L31.43 4.24 L34.29 4.24 L37.14 4.24 L40 4.09 L42.86 3.8 L45.71 3.5 L48.57 0.24 L51.43 0.7 L54.29 0.42 L57.14 0.15 L60 0.09 L62.86 0.06 L65.71 0 L68.57 0 L71.43 0 L74.29 0 L77.14 0 L80 18 L80 18 L0 18 Z" fill="var(--cf-spark-bg)" stroke="none"/><path d="M0 11.99 L2.86 8.43 L5.71 8.42 L8.57 7.94 L11.43 7.54 L14.29 7.51 L17.14 7.32 L20 7.32 L22.86 7.12 L25.71 4.25 L28.57 4.24 L31.43 4.24 L34.29 4.24 L37.14 4.24 L40 4.09 L42.86 3.8 L45.71 3.5 L48.57 0.24 L51.43 0.7 L54.29 0.42 L57.14 0.15 L60 0.09 L62.86 0.06 L65.71 0 L68.57 0 L71.43 0 L74.29 0 L77.14 0 L80 18" fill="none" stroke="var(--cf-spark)" stroke-width="1.4" stroke-linecap="round" stroke-linejoin="round"/></svg></g></g><g transform="translate(499,16)"><text x="0" y="0" font-size="10" font-weight="500" fill="var(--cf-text-dim)" letter-spacing="0.6">LANGS</text><text x="0" y="28" font-size="22" font-weight="700" fill="var(--cf-text)">16</text><g transform="translate(0,38)"><svg width="80" height="18" viewBox="0 0 80 18" preserveAspectRatio="none"><path d="M0 18 L2.86 18 L5.71 18 L8.57 18 L11.43 18 L14.29 18 L17.14 18 L20 18 L22.86 18 L25.71 18 L28.57 18 L31.43 18 L34.29 18 L37.14 18 L40 18 L42.86 18 L45.71 18 L48.57 18 L51.43 18 L54.29 18 L57.14 18 L60 18 L62.86 18 L65.71 0 L68.57 0 L71.43 0 L74.29 0 L77.14 0 L80 0 L80 18 L0 18 Z" fill="var(--cf-spark-bg)" stroke="none"/><path d="M0 18 L2.86 18 L5.71 18 L8.57 18 L11.43 18 L14.29 18 L17.14 18 L20 18 L22.86 18 L25.71 18 L28.57 18 L31.43 18 L34.29 18 L37.14 18 L40 18 L42.86 18 L45.71 18 L48.57 18 L51.43 18 L54.29 18 L57.14 18 L60 18 L62.86 18 L65.71 0 L68.57 0 L71.43 0 L74.29 0 L77.14 0 L80 0" fill="none" stroke="var(--cf-spark)" stroke-width="1.4" stroke-linecap="round" stroke-linejoin="round"/></svg></g></g></g><g transform="translate(22,180)"><text x="0" y="0" font-size="10" fill="var(--cf-text-faint)">updated 2026-05-25</text><a href="https://github.com/braedonsaunders/codeflow" target="_blank"><text x="676" y="0" text-anchor="end" font-size="10" fill="var(--cf-text-faint)">powered by <tspan font-weight="600" fill="var(--cf-accent)">codeflow</tspan></text></a></g></svg>