<svg xmlns="http://www.w3.org/2000/svg" width="720" height="140" viewBox="0 0 720 140" font-family="-apple-system,BlinkMacSystemFont,Segoe UI,Helvetica,Arial,sans-serif"><style>svg{--cf-bg:#0d1117;--cf-bg-alt:#161b22;--cf-border:#21262d;--cf-text:#e6edf3;--cf-text-dim:#8b949e;--cf-text-faint:#6e7681;--cf-accent:#5eead4;--cf-accent-soft:rgba(94,234,212,0.16);--cf-green:#3fb950;--cf-amber:#d29922;--cf-red:#f85149;--cf-spark:#5eead4;--cf-spark-bg:rgba(94,234,212,0.18)}@media (prefers-color-scheme: light){svg{--cf-bg:#ffffff;--cf-bg-alt:#f6f8fa;--cf-border:#d0d7de;--cf-text:#1f2328;--cf-text-dim:#656d76;--cf-text-faint:#8c959f;--cf-accent:#0d9488;--cf-accent-soft:rgba(13,148,136,0.12);--cf-green:#1a7f37;--cf-amber:#9a6700;--cf-red:#cf222e;--cf-spark:#0d9488;--cf-spark-bg:rgba(13,148,136,0.12)}}</style><rect width="720" height="140" rx="12" fill="var(--cf-bg)" stroke="var(--cf-border)"/><text x="18" y="26" font-size="13" font-weight="600" fill="var(--cf-text)">braedonsaunders/beaconhs</text><text x="702" y="26" text-anchor="end" font-size="10" fill="var(--cf-text-faint)" font-family="ui-monospace,SFMono-Regular,Menlo,monospace">@caa3e28</text><g transform="translate(18,46)"><text x="0" y="0" font-size="9" font-weight="600" fill="var(--cf-text-dim)" letter-spacing="0.8">FILES</text><text x="0" y="28" font-size="22" font-weight="700" fill="var(--cf-text)">1.1K</text><g transform="translate(0,40)"><svg width="64" height="14" viewBox="0 0 64 14" preserveAspectRatio="none"><path d="M0 13.73 L2.13 13.73 L4.27 14 L6.4 8.36 L8.53 8.27 L10.67 8.27 L12.8 8.27 L14.93 8.27 L17.07 8.27 L19.2 8.27 L21.33 8.09 L23.47 7.91 L25.6 7.82 L27.73 7.82 L29.87 7.82 L32 7.82 L34.13 5.64 L36.27 5.73 L38.4 5.73 L40.53 4.45 L42.67 4.45 L44.8 4.45 L46.93 4.45 L49.07 4.45 L51.2 4.45 L53.33 4.27 L55.47 1 L57.6 1 L59.73 0.82 L61.87 0.27 L64 0 L64 14 L0 14 Z" fill="var(--cf-spark-bg)" stroke="none"/><path d="M0 13.73 L2.13 13.73 L4.27 14 L6.4 8.36 L8.53 8.27 L10.67 8.27 L12.8 8.27 L14.93 8.27 L17.07 8.27 L19.2 8.27 L21.33 8.09 L23.47 7.91 L25.6 7.82 L27.73 7.82 L29.87 7.82 L32 7.82 L34.13 5.64 L36.27 5.73 L38.4 5.73 L40.53 4.45 L42.67 4.45 L44.8 4.45 L46.93 4.45 L49.07 4.45 L51.2 4.45 L53.33 4.27 L55.47 1 L57.6 1 L59.73 0.82 L61.87 0.27 L64 0" fill="none" stroke="var(--cf-spark)" stroke-width="1.4" stroke-linecap="round" stroke-linejoin="round"/></svg></g></g><g transform="translate(154.8,46)"><text x="0" y="0" font-size="9" font-weight="600" fill="var(--cf-text-dim)" letter-spacing="0.8">FNS</text><text x="0" y="28" font-size="22" font-weight="700" fill="var(--cf-text)">3.4K</text><g transform="translate(0,40)"><svg width="64" height="14" viewBox="0 0 64 14" preserveAspectRatio="none"><path d="M0 13.97 L2.13 14 L4.27 13.92 L6.4 7.37 L8.53 7.34 L10.67 7.34 L12.8 7.21 L14.93 7.16 L17.07 7.16 L19.2 7.16 L21.33 6.56 L23.47 6.16 L25.6 6.11 L27.73 6.11 L29.87 6.11 L32 6.09 L34.13 4 L36.27 4.15 L38.4 4.15 L40.53 2.82 L42.67 2.82 L44.8 2.82 L46.93 2.82 L49.07 2.72 L51.2 2.72 L53.33 2.66 L55.47 1.18 L57.6 1.18 L59.73 0.84 L61.87 0.52 L64 0 L64 14 L0 14 Z" fill="var(--cf-spark-bg)" stroke="none"/><path d="M0 13.97 L2.13 14 L4.27 13.92 L6.4 7.37 L8.53 7.34 L10.67 7.34 L12.8 7.21 L14.93 7.16 L17.07 7.16 L19.2 7.16 L21.33 6.56 L23.47 6.16 L25.6 6.11 L27.73 6.11 L29.87 6.11 L32 6.09 L34.13 4 L36.27 4.15 L38.4 4.15 L40.53 2.82 L42.67 2.82 L44.8 2.82 L46.93 2.82 L49.07 2.72 L51.2 2.72 L53.33 2.66 L55.47 1.18 L57.6 1.18 L59.73 0.84 L61.87 0.52 L64 0" fill="none" stroke="var(--cf-spark)" stroke-width="1.4" stroke-linecap="round" stroke-linejoin="round"/></svg></g></g><g transform="translate(291.6,46)"><text x="0" y="0" font-size="9" font-weight="600" fill="var(--cf-text-dim)" letter-spacing="0.8">LOC</text><text x="0" y="28" font-size="22" font-weight="700" fill="var(--cf-text)">365.2K</text><g transform="translate(0,40)"><svg width="64" height="14" viewBox="0 0 64 14" preserveAspectRatio="none"><path d="M0 13.82 L2.13 13.82 L4.27 14 L6.4 9.48 L8.53 9.43 L10.67 9.41 L12.8 9.32 L14.93 9.27 L17.07 9.24 L19.2 9.11 L21.33 8.44 L23.47 8.25 L25.6 8.16 L27.73 8.14 L29.87 8 L32 7.95 L34.13 5.91 L36.27 5.98 L38.4 5.82 L40.53 2.99 L42.67 2.9 L44.8 2.89 L46.93 2.89 L49.07 2.85 L51.2 2.84 L53.33 2.82 L55.47 0.89 L57.6 0.87 L59.73 0.67 L61.87 0.51 L64 0 L64 14 L0 14 Z" fill="var(--cf-spark-bg)" stroke="none"/><path d="M0 13.82 L2.13 13.82 L4.27 14 L6.4 9.48 L8.53 9.43 L10.67 9.41 L12.8 9.32 L14.93 9.27 L17.07 9.24 L19.2 9.11 L21.33 8.44 L23.47 8.25 L25.6 8.16 L27.73 8.14 L29.87 8 L32 7.95 L34.13 5.91 L36.27 5.98 L38.4 5.82 L40.53 2.99 L42.67 2.9 L44.8 2.89 L46.93 2.89 L49.07 2.85 L51.2 2.84 L53.33 2.82 L55.47 0.89 L57.6 0.87 L59.73 0.67 L61.87 0.51 L64 0" fill="none" stroke="var(--cf-spark)" stroke-width="1.4" stroke-linecap="round" stroke-linejoin="round"/></svg></g></g><g transform="translate(428.40000000000003,46)"><text x="0" y="0" font-size="9" font-weight="600" fill="var(--cf-text-dim)" letter-spacing="0.8">LANGS</text><text x="0" y="28" font-size="22" font-weight="700" fill="var(--cf-text)">17</text><g transform="translate(0,40)"><svg width="64" height="14" viewBox="0 0 64 14" preserveAspectRatio="none"><path d="M0 7 L2.13 7 L4.27 7 L6.4 7 L8.53 7 L10.67 7 L12.8 7 L14.93 7 L17.07 7 L19.2 7 L21.33 7 L23.47 7 L25.6 7 L27.73 7 L29.87 7 L32 7 L34.13 7 L36.27 7 L38.4 7 L40.53 7 L42.67 7 L44.8 7 L46.93 7 L49.07 7 L51.2 7 L53.33 7 L55.47 7 L57.6 7 L59.73 7 L61.87 7 L64 7 L64 14 L0 14 Z" fill="var(--cf-spark-bg)" stroke="none"/><path d="M0 7 L2.13 7 L4.27 7 L6.4 7 L8.53 7 L10.67 7 L12.8 7 L14.93 7 L17.07 7 L19.2 7 L21.33 7 L23.47 7 L25.6 7 L27.73 7 L29.87 7 L32 7 L34.13 7 L36.27 7 L38.4 7 L40.53 7 L42.67 7 L44.8 7 L46.93 7 L49.07 7 L51.2 7 L53.33 7 L55.47 7 L57.6 7 L59.73 7 L61.87 7 L64 7" fill="none" stroke="var(--cf-spark)" stroke-width="1.4" stroke-linecap="round" stroke-linejoin="round"/></svg></g></g><g transform="translate(565.2,46)"><text x="0" y="0" font-size="9" font-weight="600" fill="var(--cf-text-dim)" letter-spacing="0.8">TESTS</text><text x="0" y="28" font-size="22" font-weight="700" fill="var(--cf-text)">5</text><g transform="translate(0,40)"><svg width="64" height="14" viewBox="0 0 64 14" preserveAspectRatio="none"><path d="M0 14 L2.13 14 L4.27 7 L6.4 7 L8.53 7 L10.67 7 L12.8 7 L14.93 7 L17.07 7 L19.2 7 L21.33 7 L23.47 7 L25.6 7 L27.73 7 L29.87 7 L32 7 L34.13 7 L36.27 7 L38.4 7 L40.53 7 L42.67 7 L44.8 7 L46.93 7 L49.07 7 L51.2 7 L53.33 7 L55.47 0 L57.6 0 L59.73 0 L61.87 0 L64 0 L64 14 L0 14 Z" fill="var(--cf-spark-bg)" stroke="none"/><path d="M0 14 L2.13 14 L4.27 7 L6.4 7 L8.53 7 L10.67 7 L12.8 7 L14.93 7 L17.07 7 L19.2 7 L21.33 7 L23.47 7 L25.6 7 L27.73 7 L29.87 7 L32 7 L34.13 7 L36.27 7 L38.4 7 L40.53 7 L42.67 7 L44.8 7 L46.93 7 L49.07 7 L51.2 7 L53.33 7 L55.47 0 L57.6 0 L59.73 0 L61.87 0 L64 0" fill="none" stroke="var(--cf-spark)" stroke-width="1.4" stroke-linecap="round" stroke-linejoin="round"/></svg></g></g><a href="https://github.com/braedonsaunders/codeflow" target="_blank"><text x="702" y="130" text-anchor="end" font-size="9" fill="var(--cf-text-faint)">powered by <tspan font-weight="600" fill="var(--cf-accent)">codeflow</tspan></text></a></svg>