<svg xmlns="http://www.w3.org/2000/svg" width="720" height="140" viewBox="0 0 720 140" font-family="-apple-system,BlinkMacSystemFont,Segoe UI,Helvetica,Arial,sans-serif"><style>svg{--cf-bg:#0d1117;--cf-bg-alt:#161b22;--cf-border:#21262d;--cf-text:#e6edf3;--cf-text-dim:#8b949e;--cf-text-faint:#6e7681;--cf-accent:#5eead4;--cf-accent-soft:rgba(94,234,212,0.16);--cf-green:#3fb950;--cf-amber:#d29922;--cf-red:#f85149;--cf-spark:#5eead4;--cf-spark-bg:rgba(94,234,212,0.18)}@media (prefers-color-scheme: light){svg{--cf-bg:#ffffff;--cf-bg-alt:#f6f8fa;--cf-border:#d0d7de;--cf-text:#1f2328;--cf-text-dim:#656d76;--cf-text-faint:#8c959f;--cf-accent:#0d9488;--cf-accent-soft:rgba(13,148,136,0.12);--cf-green:#1a7f37;--cf-amber:#9a6700;--cf-red:#cf222e;--cf-spark:#0d9488;--cf-spark-bg:rgba(13,148,136,0.12)}}</style><rect width="720" height="140" rx="12" fill="var(--cf-bg)" stroke="var(--cf-border)"/><text x="18" y="26" font-size="13" font-weight="600" fill="var(--cf-text)">braedonsaunders/beaconhs</text><text x="702" y="26" text-anchor="end" font-size="10" fill="var(--cf-text-faint)" font-family="ui-monospace,SFMono-Regular,Menlo,monospace">@9f498ea</text><g transform="translate(18,46)"><text x="0" y="0" font-size="9" font-weight="600" fill="var(--cf-text-dim)" letter-spacing="0.8">FILES</text><text x="0" y="28" font-size="22" font-weight="700" fill="var(--cf-text)">1.2K</text><g transform="translate(0,40)"><svg width="64" height="14" viewBox="0 0 64 14" preserveAspectRatio="none"><path d="M0 14 L2.13 13.55 L4.27 13.55 L6.4 13.55 L8.53 13.55 L10.67 13.55 L12.8 13.32 L14.93 13.32 L17.07 13.32 L19.2 13.32 L21.33 13.32 L23.47 13.1 L25.6 12.87 L27.73 10.39 L29.87 10.39 L32 9.26 L34.13 5.65 L36.27 5.65 L38.4 5.65 L40.53 3.84 L42.67 3.84 L44.8 3.84 L46.93 3.61 L49.07 3.39 L51.2 3.39 L53.33 3.16 L55.47 2.71 L57.6 2.48 L59.73 2.71 L61.87 2.48 L64 0 L64 14 L0 14 Z" fill="var(--cf-spark-bg)" stroke="none"/><path d="M0 14 L2.13 13.55 L4.27 13.55 L6.4 13.55 L8.53 13.55 L10.67 13.55 L12.8 13.32 L14.93 13.32 L17.07 13.32 L19.2 13.32 L21.33 13.32 L23.47 13.1 L25.6 12.87 L27.73 10.39 L29.87 10.39 L32 9.26 L34.13 5.65 L36.27 5.65 L38.4 5.65 L40.53 3.84 L42.67 3.84 L44.8 3.84 L46.93 3.61 L49.07 3.39 L51.2 3.39 L53.33 3.16 L55.47 2.71 L57.6 2.48 L59.73 2.71 L61.87 2.48 L64 0" fill="none" stroke="var(--cf-spark)" stroke-width="1.4" stroke-linecap="round" stroke-linejoin="round"/></svg></g></g><g transform="translate(154.8,46)"><text x="0" y="0" font-size="9" font-weight="600" fill="var(--cf-text-dim)" letter-spacing="0.8">FNS</text><text x="0" y="28" font-size="22" font-weight="700" fill="var(--cf-text)">3.7K</text><g transform="translate(0,40)"><svg width="64" height="14" viewBox="0 0 64 14" preserveAspectRatio="none"><path d="M0 14 L2.13 13.09 L4.27 13.09 L6.4 13.09 L8.53 13.04 L10.67 13.04 L12.8 12.99 L14.93 12.99 L17.07 12.93 L19.2 12.68 L21.33 12.68 L23.47 12.63 L25.6 12.58 L27.73 11.21 L29.87 11.21 L32 8.57 L34.13 5.53 L36.27 5.53 L38.4 5.48 L40.53 4.06 L42.67 4.06 L44.8 4.06 L46.93 3.86 L49.07 3.75 L51.2 3.7 L53.33 3.04 L55.47 2.84 L57.6 2.64 L59.73 2.74 L61.87 2.64 L64 0 L64 14 L0 14 Z" fill="var(--cf-spark-bg)" stroke="none"/><path d="M0 14 L2.13 13.09 L4.27 13.09 L6.4 13.09 L8.53 13.04 L10.67 13.04 L12.8 12.99 L14.93 12.99 L17.07 12.93 L19.2 12.68 L21.33 12.68 L23.47 12.63 L25.6 12.58 L27.73 11.21 L29.87 11.21 L32 8.57 L34.13 5.53 L36.27 5.53 L38.4 5.48 L40.53 4.06 L42.67 4.06 L44.8 4.06 L46.93 3.86 L49.07 3.75 L51.2 3.7 L53.33 3.04 L55.47 2.84 L57.6 2.64 L59.73 2.74 L61.87 2.64 L64 0" fill="none" stroke="var(--cf-spark)" stroke-width="1.4" stroke-linecap="round" stroke-linejoin="round"/></svg></g></g><g transform="translate(291.6,46)"><text x="0" y="0" font-size="9" font-weight="600" fill="var(--cf-text-dim)" letter-spacing="0.8">LOC</text><text x="0" y="28" font-size="22" font-weight="700" fill="var(--cf-text)">379.7K</text><g transform="translate(0,40)"><svg width="64" height="14" viewBox="0 0 64 14" preserveAspectRatio="none"><path d="M0 14 L2.13 12.92 L4.27 12.91 L6.4 12.91 L8.53 12.91 L10.67 12.9 L12.8 12.79 L14.93 12.71 L17.07 12.57 L19.2 11.42 L21.33 11.39 L23.47 11.37 L25.6 11.34 L27.73 9.21 L29.87 9.22 L32 7.48 L34.13 4.71 L36.27 4.58 L38.4 4.52 L40.53 3.23 L42.67 3.2 L44.8 3.2 L46.93 3.01 L49.07 2.96 L51.2 2.75 L53.33 2.47 L55.47 2.32 L57.6 2.03 L59.73 2.21 L61.87 2.12 L64 0 L64 14 L0 14 Z" fill="var(--cf-spark-bg)" stroke="none"/><path d="M0 14 L2.13 12.92 L4.27 12.91 L6.4 12.91 L8.53 12.91 L10.67 12.9 L12.8 12.79 L14.93 12.71 L17.07 12.57 L19.2 11.42 L21.33 11.39 L23.47 11.37 L25.6 11.34 L27.73 9.21 L29.87 9.22 L32 7.48 L34.13 4.71 L36.27 4.58 L38.4 4.52 L40.53 3.23 L42.67 3.2 L44.8 3.2 L46.93 3.01 L49.07 2.96 L51.2 2.75 L53.33 2.47 L55.47 2.32 L57.6 2.03 L59.73 2.21 L61.87 2.12 L64 0" fill="none" stroke="var(--cf-spark)" stroke-width="1.4" stroke-linecap="round" stroke-linejoin="round"/></svg></g></g><g transform="translate(428.40000000000003,46)"><text x="0" y="0" font-size="9" font-weight="600" fill="var(--cf-text-dim)" letter-spacing="0.8">LANGS</text><text x="0" y="28" font-size="22" font-weight="700" fill="var(--cf-text)">17</text><g transform="translate(0,40)"><svg width="64" height="14" viewBox="0 0 64 14" preserveAspectRatio="none"><path d="M0 7 L2.13 7 L4.27 7 L6.4 7 L8.53 7 L10.67 7 L12.8 7 L14.93 7 L17.07 7 L19.2 7 L21.33 7 L23.47 7 L25.6 7 L27.73 7 L29.87 7 L32 7 L34.13 7 L36.27 7 L38.4 7 L40.53 7 L42.67 7 L44.8 7 L46.93 7 L49.07 7 L51.2 7 L53.33 7 L55.47 7 L57.6 7 L59.73 7 L61.87 7 L64 7 L64 14 L0 14 Z" fill="var(--cf-spark-bg)" stroke="none"/><path d="M0 7 L2.13 7 L4.27 7 L6.4 7 L8.53 7 L10.67 7 L12.8 7 L14.93 7 L17.07 7 L19.2 7 L21.33 7 L23.47 7 L25.6 7 L27.73 7 L29.87 7 L32 7 L34.13 7 L36.27 7 L38.4 7 L40.53 7 L42.67 7 L44.8 7 L46.93 7 L49.07 7 L51.2 7 L53.33 7 L55.47 7 L57.6 7 L59.73 7 L61.87 7 L64 7" fill="none" stroke="var(--cf-spark)" stroke-width="1.4" stroke-linecap="round" stroke-linejoin="round"/></svg></g></g><g transform="translate(565.2,46)"><text x="0" y="0" font-size="9" font-weight="600" fill="var(--cf-text-dim)" letter-spacing="0.8">TESTS</text><text x="0" y="28" font-size="22" font-weight="700" fill="var(--cf-text)">6</text><g transform="translate(0,40)"><svg width="64" height="14" viewBox="0 0 64 14" preserveAspectRatio="none"><path d="M0 14 L2.13 14 L4.27 14 L6.4 14 L8.53 14 L10.67 14 L12.8 14 L14.93 14 L17.07 14 L19.2 14 L21.33 14 L23.47 14 L25.6 14 L27.73 14 L29.87 14 L32 14 L34.13 14 L36.27 14 L38.4 14 L40.53 14 L42.67 14 L44.8 14 L46.93 14 L49.07 14 L51.2 14 L53.33 14 L55.47 14 L57.6 14 L59.73 14 L61.87 14 L64 0 L64 14 L0 14 Z" fill="var(--cf-spark-bg)" stroke="none"/><path d="M0 14 L2.13 14 L4.27 14 L6.4 14 L8.53 14 L10.67 14 L12.8 14 L14.93 14 L17.07 14 L19.2 14 L21.33 14 L23.47 14 L25.6 14 L27.73 14 L29.87 14 L32 14 L34.13 14 L36.27 14 L38.4 14 L40.53 14 L42.67 14 L44.8 14 L46.93 14 L49.07 14 L51.2 14 L53.33 14 L55.47 14 L57.6 14 L59.73 14 L61.87 14 L64 0" fill="none" stroke="var(--cf-spark)" stroke-width="1.4" stroke-linecap="round" stroke-linejoin="round"/></svg></g></g><a href="https://github.com/braedonsaunders/codeflow" target="_blank"><text x="702" y="130" text-anchor="end" font-size="9" fill="var(--cf-text-faint)">powered by <tspan font-weight="600" fill="var(--cf-accent)">codeflow</tspan></text></a></svg>