<svg xmlns="http://www.w3.org/2000/svg" width="720" height="140" viewBox="0 0 720 140" font-family="-apple-system,BlinkMacSystemFont,Segoe UI,Helvetica,Arial,sans-serif"><style>svg{--cf-bg:#0d1117;--cf-bg-alt:#161b22;--cf-border:#21262d;--cf-text:#e6edf3;--cf-text-dim:#8b949e;--cf-text-faint:#6e7681;--cf-accent:#5eead4;--cf-accent-soft:rgba(94,234,212,0.16);--cf-green:#3fb950;--cf-amber:#d29922;--cf-red:#f85149;--cf-spark:#5eead4;--cf-spark-bg:rgba(94,234,212,0.18)}@media (prefers-color-scheme: light){svg{--cf-bg:#ffffff;--cf-bg-alt:#f6f8fa;--cf-border:#d0d7de;--cf-text:#1f2328;--cf-text-dim:#656d76;--cf-text-faint:#8c959f;--cf-accent:#0d9488;--cf-accent-soft:rgba(13,148,136,0.12);--cf-green:#1a7f37;--cf-amber:#9a6700;--cf-red:#cf222e;--cf-spark:#0d9488;--cf-spark-bg:rgba(13,148,136,0.12)}}</style><rect width="720" height="140" rx="12" fill="var(--cf-bg)" stroke="var(--cf-border)"/><text x="18" y="26" font-size="13" font-weight="600" fill="var(--cf-text)">braedonsaunders/beaconhs</text><text x="702" y="26" text-anchor="end" font-size="10" fill="var(--cf-text-faint)" font-family="ui-monospace,SFMono-Regular,Menlo,monospace">@0abcf08</text><g transform="translate(18,46)"><text x="0" y="0" font-size="9" font-weight="600" fill="var(--cf-text-dim)" letter-spacing="0.8">FILES</text><text x="0" y="28" font-size="22" font-weight="700" fill="var(--cf-text)">939</text><g transform="translate(0,40)"><svg width="64" height="14" viewBox="0 0 64 14" preserveAspectRatio="none"><path d="M0 8.13 L3.37 8.13 L6.74 8.13 L10.11 5.87 L13.47 9.94 L16.84 9.94 L20.21 8.58 L23.58 14 L26.95 11.74 L30.32 11.74 L33.68 11.74 L37.05 11.74 L40.42 11.29 L43.79 10.84 L47.16 9.94 L50.53 9.03 L53.89 9.03 L57.26 9.03 L60.63 0 L64 0 L64 14 L0 14 Z" fill="var(--cf-spark-bg)" stroke="none"/><path d="M0 8.13 L3.37 8.13 L6.74 8.13 L10.11 5.87 L13.47 9.94 L16.84 9.94 L20.21 8.58 L23.58 14 L26.95 11.74 L30.32 11.74 L33.68 11.74 L37.05 11.74 L40.42 11.29 L43.79 10.84 L47.16 9.94 L50.53 9.03 L53.89 9.03 L57.26 9.03 L60.63 0 L64 0" fill="none" stroke="var(--cf-spark)" stroke-width="1.4" stroke-linecap="round" stroke-linejoin="round"/></svg></g></g><g transform="translate(154.8,46)"><text x="0" y="0" font-size="9" font-weight="600" fill="var(--cf-text-dim)" letter-spacing="0.8">FNS</text><text x="0" y="28" font-size="22" font-weight="700" fill="var(--cf-text)">2.8K</text><g transform="translate(0,40)"><svg width="64" height="14" viewBox="0 0 64 14" preserveAspectRatio="none"><path d="M0 14 L3.37 14 L6.74 14 L10.11 4.58 L13.47 8.3 L16.84 8.3 L20.21 7.86 L23.58 11.06 L26.95 10.11 L30.32 10.11 L33.68 10.11 L37.05 10.11 L40.42 10.02 L43.79 9.85 L47.16 9.59 L50.53 9.42 L53.89 9.42 L57.26 9.42 L60.63 0 L64 0 L64 14 L0 14 Z" fill="var(--cf-spark-bg)" stroke="none"/><path d="M0 14 L3.37 14 L6.74 14 L10.11 4.58 L13.47 8.3 L16.84 8.3 L20.21 7.86 L23.58 11.06 L26.95 10.11 L30.32 10.11 L33.68 10.11 L37.05 10.11 L40.42 10.02 L43.79 9.85 L47.16 9.59 L50.53 9.42 L53.89 9.42 L57.26 9.42 L60.63 0 L64 0" fill="none" stroke="var(--cf-spark)" stroke-width="1.4" stroke-linecap="round" stroke-linejoin="round"/></svg></g></g><g transform="translate(291.6,46)"><text x="0" y="0" font-size="9" font-weight="600" fill="var(--cf-text-dim)" letter-spacing="0.8">LOC</text><text x="0" y="28" font-size="22" font-weight="700" fill="var(--cf-text)">331.7K</text><g transform="translate(0,40)"><svg width="64" height="14" viewBox="0 0 64 14" preserveAspectRatio="none"><path d="M0 14 L3.37 14 L6.74 14 L10.11 13.33 L13.47 9.44 L16.84 9.44 L20.21 9.37 L23.58 9.81 L26.95 9.75 L30.32 9.75 L33.68 9.74 L37.05 9.74 L40.42 9.73 L43.79 9.73 L47.16 9.71 L50.53 9.72 L53.89 9.71 L57.26 9.71 L60.63 0 L64 0 L64 14 L0 14 Z" fill="var(--cf-spark-bg)" stroke="none"/><path d="M0 14 L3.37 14 L6.74 14 L10.11 13.33 L13.47 9.44 L16.84 9.44 L20.21 9.37 L23.58 9.81 L26.95 9.75 L30.32 9.75 L33.68 9.74 L37.05 9.74 L40.42 9.73 L43.79 9.73 L47.16 9.71 L50.53 9.72 L53.89 9.71 L57.26 9.71 L60.63 0 L64 0" fill="none" stroke="var(--cf-spark)" stroke-width="1.4" stroke-linecap="round" stroke-linejoin="round"/></svg></g></g><g transform="translate(428.40000000000003,46)"><text x="0" y="0" font-size="9" font-weight="600" fill="var(--cf-text-dim)" letter-spacing="0.8">LANGS</text><text x="0" y="28" font-size="22" font-weight="700" fill="var(--cf-text)">17</text><g transform="translate(0,40)"><svg width="64" height="14" viewBox="0 0 64 14" preserveAspectRatio="none"><path d="M0 7 L3.37 7 L6.74 7 L10.11 7 L13.47 7 L16.84 7 L20.21 7 L23.58 7 L26.95 7 L30.32 7 L33.68 7 L37.05 7 L40.42 7 L43.79 7 L47.16 7 L50.53 7 L53.89 7 L57.26 7 L60.63 7 L64 7 L64 14 L0 14 Z" fill="var(--cf-spark-bg)" stroke="none"/><path d="M0 7 L3.37 7 L6.74 7 L10.11 7 L13.47 7 L16.84 7 L20.21 7 L23.58 7 L26.95 7 L30.32 7 L33.68 7 L37.05 7 L40.42 7 L43.79 7 L47.16 7 L50.53 7 L53.89 7 L57.26 7 L60.63 7 L64 7" fill="none" stroke="var(--cf-spark)" stroke-width="1.4" stroke-linecap="round" stroke-linejoin="round"/></svg></g></g><g transform="translate(565.2,46)"><text x="0" y="0" font-size="9" font-weight="600" fill="var(--cf-text-dim)" letter-spacing="0.8">TESTS</text><text x="0" y="28" font-size="22" font-weight="700" fill="var(--cf-text)">3</text><g transform="translate(0,40)"><svg width="64" height="14" viewBox="0 0 64 14" preserveAspectRatio="none"><path d="M0 7 L3.37 7 L6.74 7 L10.11 7 L13.47 7 L16.84 7 L20.21 7 L23.58 7 L26.95 7 L30.32 7 L33.68 7 L37.05 7 L40.42 7 L43.79 7 L47.16 7 L50.53 7 L53.89 7 L57.26 7 L60.63 7 L64 7 L64 14 L0 14 Z" fill="var(--cf-spark-bg)" stroke="none"/><path d="M0 7 L3.37 7 L6.74 7 L10.11 7 L13.47 7 L16.84 7 L20.21 7 L23.58 7 L26.95 7 L30.32 7 L33.68 7 L37.05 7 L40.42 7 L43.79 7 L47.16 7 L50.53 7 L53.89 7 L57.26 7 L60.63 7 L64 7" fill="none" stroke="var(--cf-spark)" stroke-width="1.4" stroke-linecap="round" stroke-linejoin="round"/></svg></g></g><a href="https://github.com/braedonsaunders/codeflow" target="_blank"><text x="702" y="130" text-anchor="end" font-size="9" fill="var(--cf-text-faint)">powered by <tspan font-weight="600" fill="var(--cf-accent)">codeflow</tspan></text></a></svg>