<svg xmlns="http://www.w3.org/2000/svg" width="720" height="140" viewBox="0 0 720 140" font-family="-apple-system,BlinkMacSystemFont,Segoe UI,Helvetica,Arial,sans-serif"><style>svg{--cf-bg:#0d1117;--cf-bg-alt:#161b22;--cf-border:#21262d;--cf-text:#e6edf3;--cf-text-dim:#8b949e;--cf-text-faint:#6e7681;--cf-accent:#5eead4;--cf-accent-soft:rgba(94,234,212,0.16);--cf-green:#3fb950;--cf-amber:#d29922;--cf-red:#f85149;--cf-spark:#5eead4;--cf-spark-bg:rgba(94,234,212,0.18)}@media (prefers-color-scheme: light){svg{--cf-bg:#ffffff;--cf-bg-alt:#f6f8fa;--cf-border:#d0d7de;--cf-text:#1f2328;--cf-text-dim:#656d76;--cf-text-faint:#8c959f;--cf-accent:#0d9488;--cf-accent-soft:rgba(13,148,136,0.12);--cf-green:#1a7f37;--cf-amber:#9a6700;--cf-red:#cf222e;--cf-spark:#0d9488;--cf-spark-bg:rgba(13,148,136,0.12)}}</style><rect width="720" height="140" rx="12" fill="var(--cf-bg)" stroke="var(--cf-border)"/><text x="18" y="26" font-size="13" font-weight="600" fill="var(--cf-text)">braedonsaunders/beaconhs</text><text x="702" y="26" text-anchor="end" font-size="10" fill="var(--cf-text-faint)" font-family="ui-monospace,SFMono-Regular,Menlo,monospace">@905d9ca</text><g transform="translate(18,46)"><text x="0" y="0" font-size="9" font-weight="600" fill="var(--cf-text-dim)" letter-spacing="0.8">FILES</text><text x="0" y="28" font-size="22" font-weight="700" fill="var(--cf-text)">1.2K</text><g transform="translate(0,40)"><svg width="64" height="14" viewBox="0 0 64 14" preserveAspectRatio="none"><path d="M0 14 L2.13 13.77 L4.27 13.3 L6.4 11.67 L8.53 11.67 L10.67 11.2 L12.8 11.2 L14.93 11.2 L17.07 11.2 L19.2 11.2 L21.33 10.97 L23.47 10.97 L25.6 10.97 L27.73 10.97 L29.87 10.97 L32 10.73 L34.13 10.5 L36.27 7.93 L38.4 7.93 L40.53 6.77 L42.67 3.03 L44.8 3.03 L46.93 3.03 L49.07 1.17 L51.2 1.17 L53.33 1.17 L55.47 0.93 L57.6 0.7 L59.73 0.7 L61.87 0.47 L64 0 L64 14 L0 14 Z" fill="var(--cf-spark-bg)" stroke="none"/><path d="M0 14 L2.13 13.77 L4.27 13.3 L6.4 11.67 L8.53 11.67 L10.67 11.2 L12.8 11.2 L14.93 11.2 L17.07 11.2 L19.2 11.2 L21.33 10.97 L23.47 10.97 L25.6 10.97 L27.73 10.97 L29.87 10.97 L32 10.73 L34.13 10.5 L36.27 7.93 L38.4 7.93 L40.53 6.77 L42.67 3.03 L44.8 3.03 L46.93 3.03 L49.07 1.17 L51.2 1.17 L53.33 1.17 L55.47 0.93 L57.6 0.7 L59.73 0.7 L61.87 0.47 L64 0" fill="none" stroke="var(--cf-spark)" stroke-width="1.4" stroke-linecap="round" stroke-linejoin="round"/></svg></g></g><g transform="translate(154.8,46)"><text x="0" y="0" font-size="9" font-weight="600" fill="var(--cf-text-dim)" letter-spacing="0.8">FNS</text><text x="0" y="28" font-size="22" font-weight="700" fill="var(--cf-text)">3.6K</text><g transform="translate(0,40)"><svg width="64" height="14" viewBox="0 0 64 14" preserveAspectRatio="none"><path d="M0 14 L2.13 13.78 L4.27 13.39 L6.4 12.27 L8.53 12.27 L10.67 11.27 L12.8 11.27 L14.93 11.27 L17.07 11.21 L19.2 11.21 L21.33 11.16 L23.47 11.16 L25.6 11.1 L27.73 10.82 L29.87 10.82 L32 10.76 L34.13 10.71 L36.27 9.2 L38.4 9.2 L40.53 6.3 L42.67 2.96 L44.8 2.96 L46.93 2.9 L49.07 1.34 L51.2 1.34 L53.33 1.34 L55.47 1.12 L57.6 1 L59.73 0.95 L61.87 0.22 L64 0 L64 14 L0 14 Z" fill="var(--cf-spark-bg)" stroke="none"/><path d="M0 14 L2.13 13.78 L4.27 13.39 L6.4 12.27 L8.53 12.27 L10.67 11.27 L12.8 11.27 L14.93 11.27 L17.07 11.21 L19.2 11.21 L21.33 11.16 L23.47 11.16 L25.6 11.1 L27.73 10.82 L29.87 10.82 L32 10.76 L34.13 10.71 L36.27 9.2 L38.4 9.2 L40.53 6.3 L42.67 2.96 L44.8 2.96 L46.93 2.9 L49.07 1.34 L51.2 1.34 L53.33 1.34 L55.47 1.12 L57.6 1 L59.73 0.95 L61.87 0.22 L64 0" fill="none" stroke="var(--cf-spark)" stroke-width="1.4" stroke-linecap="round" stroke-linejoin="round"/></svg></g></g><g transform="translate(291.6,46)"><text x="0" y="0" font-size="9" font-weight="600" fill="var(--cf-text-dim)" letter-spacing="0.8">LOC</text><text x="0" y="28" font-size="22" font-weight="700" fill="var(--cf-text)">377.7K</text><g transform="translate(0,40)"><svg width="64" height="14" viewBox="0 0 64 14" preserveAspectRatio="none"><path d="M0 14 L2.13 13.48 L4.27 13.18 L6.4 12.16 L8.53 12.14 L10.67 11.02 L12.8 11.01 L14.93 11 L17.07 11.01 L19.2 11 L21.33 10.88 L23.47 10.8 L25.6 10.66 L27.73 9.46 L29.87 9.43 L32 9.41 L34.13 9.38 L36.27 7.17 L38.4 7.17 L40.53 5.36 L42.67 2.49 L44.8 2.35 L46.93 2.29 L49.07 0.94 L51.2 0.92 L53.33 0.91 L55.47 0.72 L57.6 0.67 L59.73 0.44 L61.87 0.15 L64 0 L64 14 L0 14 Z" fill="var(--cf-spark-bg)" stroke="none"/><path d="M0 14 L2.13 13.48 L4.27 13.18 L6.4 12.16 L8.53 12.14 L10.67 11.02 L12.8 11.01 L14.93 11 L17.07 11.01 L19.2 11 L21.33 10.88 L23.47 10.8 L25.6 10.66 L27.73 9.46 L29.87 9.43 L32 9.41 L34.13 9.38 L36.27 7.17 L38.4 7.17 L40.53 5.36 L42.67 2.49 L44.8 2.35 L46.93 2.29 L49.07 0.94 L51.2 0.92 L53.33 0.91 L55.47 0.72 L57.6 0.67 L59.73 0.44 L61.87 0.15 L64 0" fill="none" stroke="var(--cf-spark)" stroke-width="1.4" stroke-linecap="round" stroke-linejoin="round"/></svg></g></g><g transform="translate(428.40000000000003,46)"><text x="0" y="0" font-size="9" font-weight="600" fill="var(--cf-text-dim)" letter-spacing="0.8">LANGS</text><text x="0" y="28" font-size="22" font-weight="700" fill="var(--cf-text)">17</text><g transform="translate(0,40)"><svg width="64" height="14" viewBox="0 0 64 14" preserveAspectRatio="none"><path d="M0 7 L2.13 7 L4.27 7 L6.4 7 L8.53 7 L10.67 7 L12.8 7 L14.93 7 L17.07 7 L19.2 7 L21.33 7 L23.47 7 L25.6 7 L27.73 7 L29.87 7 L32 7 L34.13 7 L36.27 7 L38.4 7 L40.53 7 L42.67 7 L44.8 7 L46.93 7 L49.07 7 L51.2 7 L53.33 7 L55.47 7 L57.6 7 L59.73 7 L61.87 7 L64 7 L64 14 L0 14 Z" fill="var(--cf-spark-bg)" stroke="none"/><path d="M0 7 L2.13 7 L4.27 7 L6.4 7 L8.53 7 L10.67 7 L12.8 7 L14.93 7 L17.07 7 L19.2 7 L21.33 7 L23.47 7 L25.6 7 L27.73 7 L29.87 7 L32 7 L34.13 7 L36.27 7 L38.4 7 L40.53 7 L42.67 7 L44.8 7 L46.93 7 L49.07 7 L51.2 7 L53.33 7 L55.47 7 L57.6 7 L59.73 7 L61.87 7 L64 7" fill="none" stroke="var(--cf-spark)" stroke-width="1.4" stroke-linecap="round" stroke-linejoin="round"/></svg></g></g><g transform="translate(565.2,46)"><text x="0" y="0" font-size="9" font-weight="600" fill="var(--cf-text-dim)" letter-spacing="0.8">TESTS</text><text x="0" y="28" font-size="22" font-weight="700" fill="var(--cf-text)">5</text><g transform="translate(0,40)"><svg width="64" height="14" viewBox="0 0 64 14" preserveAspectRatio="none"><path d="M0 7 L2.13 7 L4.27 7 L6.4 7 L8.53 7 L10.67 7 L12.8 7 L14.93 7 L17.07 7 L19.2 7 L21.33 7 L23.47 7 L25.6 7 L27.73 7 L29.87 7 L32 7 L34.13 7 L36.27 7 L38.4 7 L40.53 7 L42.67 7 L44.8 7 L46.93 7 L49.07 7 L51.2 7 L53.33 7 L55.47 7 L57.6 7 L59.73 7 L61.87 7 L64 7 L64 14 L0 14 Z" fill="var(--cf-spark-bg)" stroke="none"/><path d="M0 7 L2.13 7 L4.27 7 L6.4 7 L8.53 7 L10.67 7 L12.8 7 L14.93 7 L17.07 7 L19.2 7 L21.33 7 L23.47 7 L25.6 7 L27.73 7 L29.87 7 L32 7 L34.13 7 L36.27 7 L38.4 7 L40.53 7 L42.67 7 L44.8 7 L46.93 7 L49.07 7 L51.2 7 L53.33 7 L55.47 7 L57.6 7 L59.73 7 L61.87 7 L64 7" fill="none" stroke="var(--cf-spark)" stroke-width="1.4" stroke-linecap="round" stroke-linejoin="round"/></svg></g></g><a href="https://github.com/braedonsaunders/codeflow" target="_blank"><text x="702" y="130" text-anchor="end" font-size="9" fill="var(--cf-text-faint)">powered by <tspan font-weight="600" fill="var(--cf-accent)">codeflow</tspan></text></a></svg>