<svg xmlns="http://www.w3.org/2000/svg" width="720" height="318" viewBox="0 0 720 318" font-family="-apple-system,BlinkMacSystemFont,Segoe UI,Helvetica,Arial,sans-serif"><style>svg{--cf-bg:#0d1117;--cf-bg-alt:#161b22;--cf-border:#21262d;--cf-text:#e6edf3;--cf-text-dim:#8b949e;--cf-text-faint:#6e7681;--cf-accent:#5eead4;--cf-accent-soft:rgba(94,234,212,0.16);--cf-green:#3fb950;--cf-amber:#d29922;--cf-red:#f85149;--cf-spark:#5eead4;--cf-spark-bg:rgba(94,234,212,0.18)}@media (prefers-color-scheme: light){svg{--cf-bg:#ffffff;--cf-bg-alt:#f6f8fa;--cf-border:#d0d7de;--cf-text:#1f2328;--cf-text-dim:#656d76;--cf-text-faint:#8c959f;--cf-accent:#0d9488;--cf-accent-soft:rgba(13,148,136,0.12);--cf-green:#1a7f37;--cf-amber:#9a6700;--cf-red:#cf222e;--cf-spark:#0d9488;--cf-spark-bg:rgba(13,148,136,0.12)}}</style><rect width="720" height="318" rx="14" fill="var(--cf-bg)" stroke="var(--cf-border)"/><g transform="translate(22,26)"><text x="0" y="0" font-size="18" font-weight="700" fill="var(--cf-text)">braedonsaunders/beaconhs</text><text x="676" y="0" text-anchor="end" font-size="11" fill="var(--cf-text-faint)" font-family="ui-monospace,SFMono-Regular,Menlo,monospace">@f785926</text></g><g transform="translate(22,60)"><rect width="676" height="110" rx="10" fill="var(--cf-bg-alt)" stroke="var(--cf-border)"/><text x="16" y="22" font-size="11" font-weight="500" fill="var(--cf-text-dim)" letter-spacing="0.6">HEALTH</text><text x="16" y="78" font-size="64" font-weight="700" fill="var(--cf-amber)" font-family="ui-monospace,SFMono-Regular,Menlo,monospace">D</text><text x="660" y="78" text-anchor="end" font-size="22" font-weight="600" fill="var(--cf-text)">66</text><text x="660" y="94" text-anchor="end" font-size="10" fill="var(--cf-text-faint)" letter-spacing="0.6">SCORE / 100</text></g><g transform="translate(22,184)"><rect width="676" height="88" rx="10" fill="var(--cf-bg-alt)" stroke="var(--cf-border)"/><g transform="translate(16,16)"><text x="0" y="0" font-size="10" font-weight="500" fill="var(--cf-text-dim)" letter-spacing="0.6">FILES</text><text x="0" y="28" font-size="22" font-weight="700" fill="var(--cf-text)">716</text><g transform="translate(0,38)"><svg width="80" height="18" viewBox="0 0 80 18" preserveAspectRatio="none"><path d="M0 18 L3.48 14.63 L6.96 14.63 L10.43 12.43 L13.91 9.97 L17.39 9.71 L20.87 9.58 L24.35 9.58 L27.83 7.12 L31.3 5.96 L34.78 5.96 L38.26 5.96 L41.74 5.96 L45.22 5.96 L48.7 5.31 L52.17 4.27 L55.65 3.11 L59.13 0.78 L62.61 2.33 L66.09 1.68 L69.57 0.52 L73.04 0.26 L76.52 0.13 L80 0 L80 18 L0 18 Z" fill="var(--cf-spark-bg)" stroke="none"/><path d="M0 18 L3.48 14.63 L6.96 14.63 L10.43 12.43 L13.91 9.97 L17.39 9.71 L20.87 9.58 L24.35 9.58 L27.83 7.12 L31.3 5.96 L34.78 5.96 L38.26 5.96 L41.74 5.96 L45.22 5.96 L48.7 5.31 L52.17 4.27 L55.65 3.11 L59.13 0.78 L62.61 2.33 L66.09 1.68 L69.57 0.52 L73.04 0.26 L76.52 0.13 L80 0" fill="none" stroke="var(--cf-spark)" stroke-width="1.4" stroke-linecap="round" stroke-linejoin="round"/></svg></g></g><g transform="translate(177,16)"><text x="0" y="0" font-size="10" font-weight="500" fill="var(--cf-text-dim)" letter-spacing="0.6">FNS</text><text x="0" y="28" font-size="22" font-weight="700" fill="var(--cf-text)">1.9K</text><g transform="translate(0,38)"><svg width="80" height="18" viewBox="0 0 80 18" preserveAspectRatio="none"><path d="M0 18 L3.48 13.33 L6.96 13.26 L10.43 11.74 L13.91 8.4 L17.39 8.13 L20.87 7.5 L24.35 7.5 L27.83 6.1 L31.3 5.71 L34.78 5.71 L38.26 5.71 L41.74 5.71 L45.22 5.68 L48.7 5.17 L52.17 3.5 L55.65 2.1 L59.13 0 L62.61 3.34 L66.09 2.1 L69.57 1.21 L73.04 0.89 L76.52 0.82 L80 0.82 L80 18 L0 18 Z" fill="var(--cf-spark-bg)" stroke="none"/><path d="M0 18 L3.48 13.33 L6.96 13.26 L10.43 11.74 L13.91 8.4 L17.39 8.13 L20.87 7.5 L24.35 7.5 L27.83 6.1 L31.3 5.71 L34.78 5.71 L38.26 5.71 L41.74 5.71 L45.22 5.68 L48.7 5.17 L52.17 3.5 L55.65 2.1 L59.13 0 L62.61 3.34 L66.09 2.1 L69.57 1.21 L73.04 0.89 L76.52 0.82 L80 0.82" fill="none" stroke="var(--cf-spark)" stroke-width="1.4" stroke-linecap="round" stroke-linejoin="round"/></svg></g></g><g transform="translate(338,16)"><text x="0" y="0" font-size="10" font-weight="500" fill="var(--cf-text-dim)" letter-spacing="0.6">LOC</text><text x="0" y="28" font-size="22" font-weight="700" fill="var(--cf-text)">376.8K</text><g transform="translate(0,38)"><svg width="80" height="18" viewBox="0 0 80 18" preserveAspectRatio="none"><path d="M0 18 L3.48 12.66 L6.96 12.64 L10.43 11.92 L13.91 11.32 L17.39 11.27 L20.87 10.98 L24.35 10.98 L27.83 10.68 L31.3 6.37 L34.78 6.37 L38.26 6.37 L41.74 6.37 L45.22 6.36 L48.7 6.14 L52.17 5.7 L55.65 5.25 L59.13 0.36 L62.61 1.06 L66.09 0.62 L69.57 0.23 L73.04 0.13 L76.52 0.09 L80 0 L80 18 L0 18 Z" fill="var(--cf-spark-bg)" stroke="none"/><path d="M0 18 L3.48 12.66 L6.96 12.64 L10.43 11.92 L13.91 11.32 L17.39 11.27 L20.87 10.98 L24.35 10.98 L27.83 10.68 L31.3 6.37 L34.78 6.37 L38.26 6.37 L41.74 6.37 L45.22 6.36 L48.7 6.14 L52.17 5.7 L55.65 5.25 L59.13 0.36 L62.61 1.06 L66.09 0.62 L69.57 0.23 L73.04 0.13 L76.52 0.09 L80 0" fill="none" stroke="var(--cf-spark)" stroke-width="1.4" stroke-linecap="round" stroke-linejoin="round"/></svg></g></g><g transform="translate(499,16)"><text x="0" y="0" font-size="10" font-weight="500" fill="var(--cf-text-dim)" letter-spacing="0.6">LANGS</text><text x="0" y="28" font-size="22" font-weight="700" fill="var(--cf-text)">16</text><g transform="translate(0,38)"><svg width="80" height="18" viewBox="0 0 80 18" preserveAspectRatio="none"><path d="M0 18 L3.48 18 L6.96 18 L10.43 18 L13.91 18 L17.39 18 L20.87 18 L24.35 18 L27.83 18 L31.3 18 L34.78 18 L38.26 18 L41.74 18 L45.22 18 L48.7 18 L52.17 18 L55.65 18 L59.13 18 L62.61 18 L66.09 18 L69.57 18 L73.04 18 L76.52 18 L80 0 L80 18 L0 18 Z" fill="var(--cf-spark-bg)" stroke="none"/><path d="M0 18 L3.48 18 L6.96 18 L10.43 18 L13.91 18 L17.39 18 L20.87 18 L24.35 18 L27.83 18 L31.3 18 L34.78 18 L38.26 18 L41.74 18 L45.22 18 L48.7 18 L52.17 18 L55.65 18 L59.13 18 L62.61 18 L66.09 18 L69.57 18 L73.04 18 L76.52 18 L80 0" fill="none" stroke="var(--cf-spark)" stroke-width="1.4" stroke-linecap="round" stroke-linejoin="round"/></svg></g></g></g><g transform="translate(22,304)"><text x="0" y="0" font-size="10" fill="var(--cf-text-faint)">updated 2026-05-25</text><a href="https://github.com/braedonsaunders/codeflow" target="_blank"><text x="676" y="0" text-anchor="end" font-size="10" fill="var(--cf-text-faint)">powered by <tspan font-weight="600" fill="var(--cf-accent)">codeflow</tspan></text></a></g></svg>