<svg xmlns="http://www.w3.org/2000/svg" width="720" height="318" viewBox="0 0 720 318" font-family="-apple-system,BlinkMacSystemFont,Segoe UI,Helvetica,Arial,sans-serif"><style>svg{--cf-bg:#0d1117;--cf-bg-alt:#161b22;--cf-border:#21262d;--cf-text:#e6edf3;--cf-text-dim:#8b949e;--cf-text-faint:#6e7681;--cf-accent:#5eead4;--cf-accent-soft:rgba(94,234,212,0.16);--cf-green:#3fb950;--cf-amber:#d29922;--cf-red:#f85149;--cf-spark:#5eead4;--cf-spark-bg:rgba(94,234,212,0.18)}@media (prefers-color-scheme: light){svg{--cf-bg:#ffffff;--cf-bg-alt:#f6f8fa;--cf-border:#d0d7de;--cf-text:#1f2328;--cf-text-dim:#656d76;--cf-text-faint:#8c959f;--cf-accent:#0d9488;--cf-accent-soft:rgba(13,148,136,0.12);--cf-green:#1a7f37;--cf-amber:#9a6700;--cf-red:#cf222e;--cf-spark:#0d9488;--cf-spark-bg:rgba(13,148,136,0.12)}}</style><rect width="720" height="318" rx="14" fill="var(--cf-bg)" stroke="var(--cf-border)"/><g transform="translate(22,26)"><text x="0" y="0" font-size="18" font-weight="700" fill="var(--cf-text)">braedonsaunders/beaconhs</text><text x="676" y="0" text-anchor="end" font-size="11" fill="var(--cf-text-faint)" font-family="ui-monospace,SFMono-Regular,Menlo,monospace">@c8f57f9</text></g><g transform="translate(22,60)"><rect width="676" height="110" rx="10" fill="var(--cf-bg-alt)" stroke="var(--cf-border)"/><text x="16" y="22" font-size="11" font-weight="500" fill="var(--cf-text-dim)" letter-spacing="0.6">HEALTH</text><text x="16" y="78" font-size="64" font-weight="700" fill="var(--cf-amber)" font-family="ui-monospace,SFMono-Regular,Menlo,monospace">D</text><text x="660" y="78" text-anchor="end" font-size="22" font-weight="600" fill="var(--cf-text)">66</text><text x="660" y="94" text-anchor="end" font-size="10" fill="var(--cf-text-faint)" letter-spacing="0.6">SCORE / 100</text></g><g transform="translate(22,184)"><rect width="676" height="88" rx="10" fill="var(--cf-bg-alt)" stroke="var(--cf-border)"/><g transform="translate(16,16)"><text x="0" y="0" font-size="10" font-weight="500" fill="var(--cf-text-dim)" letter-spacing="0.6">FILES</text><text x="0" y="28" font-size="22" font-weight="700" fill="var(--cf-text)">714</text><g transform="translate(0,38)"><svg width="80" height="18" viewBox="0 0 80 18" preserveAspectRatio="none"><path d="M0 18 L3.81 14.58 L7.62 14.58 L11.43 12.35 L15.24 9.85 L19.05 9.59 L22.86 9.46 L26.67 9.46 L30.48 6.96 L34.29 5.78 L38.1 5.78 L41.9 5.78 L45.71 5.78 L49.52 5.78 L53.33 5.12 L57.14 4.07 L60.95 2.89 L64.76 0.53 L68.57 2.1 L72.38 1.45 L76.19 0.26 L80 0 L80 18 L0 18 Z" fill="var(--cf-spark-bg)" stroke="none"/><path d="M0 18 L3.81 14.58 L7.62 14.58 L11.43 12.35 L15.24 9.85 L19.05 9.59 L22.86 9.46 L26.67 9.46 L30.48 6.96 L34.29 5.78 L38.1 5.78 L41.9 5.78 L45.71 5.78 L49.52 5.78 L53.33 5.12 L57.14 4.07 L60.95 2.89 L64.76 0.53 L68.57 2.1 L72.38 1.45 L76.19 0.26 L80 0" fill="none" stroke="var(--cf-spark)" stroke-width="1.4" stroke-linecap="round" stroke-linejoin="round"/></svg></g></g><g transform="translate(177,16)"><text x="0" y="0" font-size="10" font-weight="500" fill="var(--cf-text-dim)" letter-spacing="0.6">FNS</text><text x="0" y="28" font-size="22" font-weight="700" fill="var(--cf-text)">1.9K</text><g transform="translate(0,38)"><svg width="80" height="18" viewBox="0 0 80 18" preserveAspectRatio="none"><path d="M0 18 L3.81 13.33 L7.62 13.26 L11.43 11.74 L15.24 8.4 L19.05 8.13 L22.86 7.5 L26.67 7.5 L30.48 6.1 L34.29 5.71 L38.1 5.71 L41.9 5.71 L45.71 5.71 L49.52 5.68 L53.33 5.17 L57.14 3.5 L60.95 2.1 L64.76 0 L68.57 3.34 L72.38 2.1 L76.19 1.21 L80 0.89 L80 18 L0 18 Z" fill="var(--cf-spark-bg)" stroke="none"/><path d="M0 18 L3.81 13.33 L7.62 13.26 L11.43 11.74 L15.24 8.4 L19.05 8.13 L22.86 7.5 L26.67 7.5 L30.48 6.1 L34.29 5.71 L38.1 5.71 L41.9 5.71 L45.71 5.71 L49.52 5.68 L53.33 5.17 L57.14 3.5 L60.95 2.1 L64.76 0 L68.57 3.34 L72.38 2.1 L76.19 1.21 L80 0.89" fill="none" stroke="var(--cf-spark)" stroke-width="1.4" stroke-linecap="round" stroke-linejoin="round"/></svg></g></g><g transform="translate(338,16)"><text x="0" y="0" font-size="10" font-weight="500" fill="var(--cf-text-dim)" letter-spacing="0.6">LOC</text><text x="0" y="28" font-size="22" font-weight="700" fill="var(--cf-text)">375.9K</text><g transform="translate(0,38)"><svg width="80" height="18" viewBox="0 0 80 18" preserveAspectRatio="none"><path d="M0 18 L3.81 12.62 L7.62 12.6 L11.43 11.87 L15.24 11.27 L19.05 11.22 L22.86 10.93 L26.67 10.93 L30.48 10.63 L34.29 6.29 L38.1 6.28 L41.9 6.28 L45.71 6.28 L49.52 6.27 L53.33 6.05 L57.14 5.61 L60.95 5.16 L64.76 0.23 L68.57 0.93 L72.38 0.49 L76.19 0.09 L80 0 L80 18 L0 18 Z" fill="var(--cf-spark-bg)" stroke="none"/><path d="M0 18 L3.81 12.62 L7.62 12.6 L11.43 11.87 L15.24 11.27 L19.05 11.22 L22.86 10.93 L26.67 10.93 L30.48 10.63 L34.29 6.29 L38.1 6.28 L41.9 6.28 L45.71 6.28 L49.52 6.27 L53.33 6.05 L57.14 5.61 L60.95 5.16 L64.76 0.23 L68.57 0.93 L72.38 0.49 L76.19 0.09 L80 0" fill="none" stroke="var(--cf-spark)" stroke-width="1.4" stroke-linecap="round" stroke-linejoin="round"/></svg></g></g><g transform="translate(499,16)"><text x="0" y="0" font-size="10" font-weight="500" fill="var(--cf-text-dim)" letter-spacing="0.6">LANGS</text><text x="0" y="28" font-size="22" font-weight="700" fill="var(--cf-text)">15</text><g transform="translate(0,38)"><svg width="80" height="18" viewBox="0 0 80 18" preserveAspectRatio="none"><path d="M0 9 L3.81 9 L7.62 9 L11.43 9 L15.24 9 L19.05 9 L22.86 9 L26.67 9 L30.48 9 L34.29 9 L38.1 9 L41.9 9 L45.71 9 L49.52 9 L53.33 9 L57.14 9 L60.95 9 L64.76 9 L68.57 9 L72.38 9 L76.19 9 L80 9 L80 18 L0 18 Z" fill="var(--cf-spark-bg)" stroke="none"/><path d="M0 9 L3.81 9 L7.62 9 L11.43 9 L15.24 9 L19.05 9 L22.86 9 L26.67 9 L30.48 9 L34.29 9 L38.1 9 L41.9 9 L45.71 9 L49.52 9 L53.33 9 L57.14 9 L60.95 9 L64.76 9 L68.57 9 L72.38 9 L76.19 9 L80 9" fill="none" stroke="var(--cf-spark)" stroke-width="1.4" stroke-linecap="round" stroke-linejoin="round"/></svg></g></g></g><g transform="translate(22,304)"><text x="0" y="0" font-size="10" fill="var(--cf-text-faint)">updated 2026-05-20</text><a href="https://github.com/braedonsaunders/codeflow" target="_blank"><text x="676" y="0" text-anchor="end" font-size="10" fill="var(--cf-text-faint)">powered by <tspan font-weight="600" fill="var(--cf-accent)">codeflow</tspan></text></a></g></svg>