<svg xmlns="http://www.w3.org/2000/svg" width="720" height="360" viewBox="0 0 720 360" font-family="-apple-system,BlinkMacSystemFont,Segoe UI,Helvetica,Arial,sans-serif"><style>svg{--cf-bg:#0d1117;--cf-bg-alt:#161b22;--cf-border:#21262d;--cf-text:#e6edf3;--cf-text-dim:#8b949e;--cf-text-faint:#6e7681;--cf-accent:#5eead4;--cf-accent-soft:rgba(94,234,212,0.16);--cf-green:#3fb950;--cf-amber:#d29922;--cf-red:#f85149;--cf-spark:#5eead4;--cf-spark-bg:rgba(94,234,212,0.18)}@media (prefers-color-scheme: light){svg{--cf-bg:#ffffff;--cf-bg-alt:#f6f8fa;--cf-border:#d0d7de;--cf-text:#1f2328;--cf-text-dim:#656d76;--cf-text-faint:#8c959f;--cf-accent:#0d9488;--cf-accent-soft:rgba(13,148,136,0.12);--cf-green:#1a7f37;--cf-amber:#9a6700;--cf-red:#cf222e;--cf-spark:#0d9488;--cf-spark-bg:rgba(13,148,136,0.12)}}</style><rect width="720" height="360" rx="14" fill="var(--cf-bg)" stroke="var(--cf-border)"/><g transform="translate(22,26)"><text x="0" y="0" font-size="18" font-weight="700" fill="var(--cf-text)">braedonsaunders/beaconhs</text><text x="676" y="0" text-anchor="end" font-size="11" fill="var(--cf-text-faint)" font-family="ui-monospace,SFMono-Regular,Menlo,monospace">@ace9ca4</text></g><g transform="translate(22,60)"><rect width="676" height="88" rx="10" fill="var(--cf-bg-alt)" stroke="var(--cf-border)"/><g transform="translate(16,16)"><text x="0" y="0" font-size="10" font-weight="500" fill="var(--cf-text-dim)" letter-spacing="0.6">FILES</text><text x="0" y="28" font-size="22" font-weight="700" fill="var(--cf-text)">716</text><g transform="translate(0,38)"><svg width="80" height="18" viewBox="0 0 80 18" preserveAspectRatio="none"><path d="M0 18 L2.96 14.63 L5.93 14.63 L8.89 12.43 L11.85 9.97 L14.81 9.71 L17.78 9.58 L20.74 9.58 L23.7 7.12 L26.67 5.96 L29.63 5.96 L32.59 5.96 L35.56 5.96 L38.52 5.96 L41.48 5.31 L44.44 4.27 L47.41 3.11 L50.37 0.78 L53.33 2.33 L56.3 1.68 L59.26 0.52 L62.22 0.26 L65.19 0.13 L68.15 0 L71.11 0 L74.07 0 L77.04 0 L80 0 L80 18 L0 18 Z" fill="var(--cf-spark-bg)" stroke="none"/><path d="M0 18 L2.96 14.63 L5.93 14.63 L8.89 12.43 L11.85 9.97 L14.81 9.71 L17.78 9.58 L20.74 9.58 L23.7 7.12 L26.67 5.96 L29.63 5.96 L32.59 5.96 L35.56 5.96 L38.52 5.96 L41.48 5.31 L44.44 4.27 L47.41 3.11 L50.37 0.78 L53.33 2.33 L56.3 1.68 L59.26 0.52 L62.22 0.26 L65.19 0.13 L68.15 0 L71.11 0 L74.07 0 L77.04 0 L80 0" fill="none" stroke="var(--cf-spark)" stroke-width="1.4" stroke-linecap="round" stroke-linejoin="round"/></svg></g></g><g transform="translate(177,16)"><text x="0" y="0" font-size="10" font-weight="500" fill="var(--cf-text-dim)" letter-spacing="0.6">FNS</text><text x="0" y="28" font-size="22" font-weight="700" fill="var(--cf-text)">1.9K</text><g transform="translate(0,38)"><svg width="80" height="18" viewBox="0 0 80 18" preserveAspectRatio="none"><path d="M0 18 L2.96 13.33 L5.93 13.26 L8.89 11.74 L11.85 8.4 L14.81 8.13 L17.78 7.5 L20.74 7.5 L23.7 6.1 L26.67 5.71 L29.63 5.71 L32.59 5.71 L35.56 5.71 L38.52 5.68 L41.48 5.17 L44.44 3.5 L47.41 2.1 L50.37 0 L53.33 3.34 L56.3 2.1 L59.26 1.21 L62.22 0.89 L65.19 0.82 L68.15 0.82 L71.11 0.82 L74.07 0.82 L77.04 0.82 L80 0.82 L80 18 L0 18 Z" fill="var(--cf-spark-bg)" stroke="none"/><path d="M0 18 L2.96 13.33 L5.93 13.26 L8.89 11.74 L11.85 8.4 L14.81 8.13 L17.78 7.5 L20.74 7.5 L23.7 6.1 L26.67 5.71 L29.63 5.71 L32.59 5.71 L35.56 5.71 L38.52 5.68 L41.48 5.17 L44.44 3.5 L47.41 2.1 L50.37 0 L53.33 3.34 L56.3 2.1 L59.26 1.21 L62.22 0.89 L65.19 0.82 L68.15 0.82 L71.11 0.82 L74.07 0.82 L77.04 0.82 L80 0.82" fill="none" stroke="var(--cf-spark)" stroke-width="1.4" stroke-linecap="round" stroke-linejoin="round"/></svg></g></g><g transform="translate(338,16)"><text x="0" y="0" font-size="10" font-weight="500" fill="var(--cf-text-dim)" letter-spacing="0.6">LOC</text><text x="0" y="28" font-size="22" font-weight="700" fill="var(--cf-text)">376.8K</text><g transform="translate(0,38)"><svg width="80" height="18" viewBox="0 0 80 18" preserveAspectRatio="none"><path d="M0 18 L2.96 12.66 L5.93 12.64 L8.89 11.92 L11.85 11.32 L14.81 11.27 L17.78 10.98 L20.74 10.98 L23.7 10.68 L26.67 6.37 L29.63 6.37 L32.59 6.37 L35.56 6.37 L38.52 6.36 L41.48 6.14 L44.44 5.7 L47.41 5.25 L50.37 0.36 L53.33 1.06 L56.3 0.62 L59.26 0.23 L62.22 0.14 L65.19 0.1 L68.15 0 L71.11 0 L74.07 0 L77.04 0 L80 0 L80 18 L0 18 Z" fill="var(--cf-spark-bg)" stroke="none"/><path d="M0 18 L2.96 12.66 L5.93 12.64 L8.89 11.92 L11.85 11.32 L14.81 11.27 L17.78 10.98 L20.74 10.98 L23.7 10.68 L26.67 6.37 L29.63 6.37 L32.59 6.37 L35.56 6.37 L38.52 6.36 L41.48 6.14 L44.44 5.7 L47.41 5.25 L50.37 0.36 L53.33 1.06 L56.3 0.62 L59.26 0.23 L62.22 0.14 L65.19 0.1 L68.15 0 L71.11 0 L74.07 0 L77.04 0 L80 0" fill="none" stroke="var(--cf-spark)" stroke-width="1.4" stroke-linecap="round" stroke-linejoin="round"/></svg></g></g><g transform="translate(499,16)"><text x="0" y="0" font-size="10" font-weight="500" fill="var(--cf-text-dim)" letter-spacing="0.6">LANGS</text><text x="0" y="28" font-size="22" font-weight="700" fill="var(--cf-text)">16</text><g transform="translate(0,38)"><svg width="80" height="18" viewBox="0 0 80 18" preserveAspectRatio="none"><path d="M0 18 L2.96 18 L5.93 18 L8.89 18 L11.85 18 L14.81 18 L17.78 18 L20.74 18 L23.7 18 L26.67 18 L29.63 18 L32.59 18 L35.56 18 L38.52 18 L41.48 18 L44.44 18 L47.41 18 L50.37 18 L53.33 18 L56.3 18 L59.26 18 L62.22 18 L65.19 18 L68.15 0 L71.11 0 L74.07 0 L77.04 0 L80 0 L80 18 L0 18 Z" fill="var(--cf-spark-bg)" stroke="none"/><path d="M0 18 L2.96 18 L5.93 18 L8.89 18 L11.85 18 L14.81 18 L17.78 18 L20.74 18 L23.7 18 L26.67 18 L29.63 18 L32.59 18 L35.56 18 L38.52 18 L41.48 18 L44.44 18 L47.41 18 L50.37 18 L53.33 18 L56.3 18 L59.26 18 L62.22 18 L65.19 18 L68.15 0 L71.11 0 L74.07 0 L77.04 0 L80 0" fill="none" stroke="var(--cf-spark)" stroke-width="1.4" stroke-linecap="round" stroke-linejoin="round"/></svg></g></g></g><g transform="translate(22,162)"><rect width="676" height="152" rx="10" fill="var(--cf-bg-alt)" stroke="var(--cf-border)"/><text x="16" y="20" font-size="11" font-weight="500" fill="var(--cf-text-dim)" letter-spacing="0.6">LANGUAGES</text><text x="16" y="39" font-size="11" font-weight="600" fill="var(--cf-text)" font-family="ui-monospace,SFMono-Regular,Menlo,monospace">.json</text><rect x="80" y="28" width="456" height="10" rx="2" fill="var(--cf-border)" opacity="0.5"/><rect x="80" y="28" width="269" height="10" rx="2" fill="var(--cf-accent)"/><text x="660" y="39" text-anchor="end" font-size="11" font-weight="600" fill="var(--cf-text)" font-family="ui-monospace,SFMono-Regular,Menlo,monospace">59%</text><text x="16" y="61" font-size="11" font-weight="600" fill="var(--cf-text)" font-family="ui-monospace,SFMono-Regular,Menlo,monospace">.tsx</text><rect x="80" y="50" width="456" height="10" rx="2" fill="var(--cf-border)" opacity="0.5"/><rect x="80" y="50" width="119" height="10" rx="2" fill="var(--cf-spark)"/><text x="660" y="61" text-anchor="end" font-size="11" font-weight="600" fill="var(--cf-text)" font-family="ui-monospace,SFMono-Regular,Menlo,monospace">26%</text><text x="16" y="83" font-size="11" font-weight="600" fill="var(--cf-text)" font-family="ui-monospace,SFMono-Regular,Menlo,monospace">.ts</text><rect x="80" y="72" width="456" height="10" rx="2" fill="var(--cf-border)" opacity="0.5"/><rect x="80" y="72" width="55" height="10" rx="2" fill="var(--cf-green)"/><text x="660" y="83" text-anchor="end" font-size="11" font-weight="600" fill="var(--cf-text)" font-family="ui-monospace,SFMono-Regular,Menlo,monospace">12%</text><text x="16" y="105" font-size="11" font-weight="600" fill="var(--cf-text)" font-family="ui-monospace,SFMono-Regular,Menlo,monospace">.yaml</text><rect x="80" y="94" width="456" height="10" rx="2" fill="var(--cf-border)" opacity="0.5"/><rect x="80" y="94" width="9" height="10" rx="2" fill="var(--cf-amber)"/><text x="660" y="105" text-anchor="end" font-size="11" font-weight="600" fill="var(--cf-text)" font-family="ui-monospace,SFMono-Regular,Menlo,monospace">2%</text><text x="16" y="127" font-size="11" font-weight="600" fill="var(--cf-text)" font-family="ui-monospace,SFMono-Regular,Menlo,monospace">.sql</text><rect x="80" y="116" width="456" height="10" rx="2" fill="var(--cf-border)" opacity="0.5"/><rect x="80" y="116" width="5" height="10" rx="2" fill="var(--cf-text-dim)"/><text x="660" y="127" text-anchor="end" font-size="11" font-weight="600" fill="var(--cf-text)" font-family="ui-monospace,SFMono-Regular,Menlo,monospace">1%</text></g><g transform="translate(22,346)"><text x="0" y="0" font-size="10" fill="var(--cf-text-faint)">updated 2026-05-25</text><a href="https://github.com/braedonsaunders/codeflow" target="_blank"><text x="676" y="0" text-anchor="end" font-size="10" fill="var(--cf-text-faint)">powered by <tspan font-weight="600" fill="var(--cf-accent)">codeflow</tspan></text></a></g></svg>