<svg xmlns="http://www.w3.org/2000/svg" width="720" height="140" viewBox="0 0 720 140" font-family="-apple-system,BlinkMacSystemFont,Segoe UI,Helvetica,Arial,sans-serif"><style>svg{--cf-bg:#0d1117;--cf-bg-alt:#161b22;--cf-border:#21262d;--cf-text:#e6edf3;--cf-text-dim:#8b949e;--cf-text-faint:#6e7681;--cf-accent:#5eead4;--cf-accent-soft:rgba(94,234,212,0.16);--cf-green:#3fb950;--cf-amber:#d29922;--cf-red:#f85149;--cf-spark:#5eead4;--cf-spark-bg:rgba(94,234,212,0.18)}@media (prefers-color-scheme: light){svg{--cf-bg:#ffffff;--cf-bg-alt:#f6f8fa;--cf-border:#d0d7de;--cf-text:#1f2328;--cf-text-dim:#656d76;--cf-text-faint:#8c959f;--cf-accent:#0d9488;--cf-accent-soft:rgba(13,148,136,0.12);--cf-green:#1a7f37;--cf-amber:#9a6700;--cf-red:#cf222e;--cf-spark:#0d9488;--cf-spark-bg:rgba(13,148,136,0.12)}}</style><rect width="720" height="140" rx="12" fill="var(--cf-bg)" stroke="var(--cf-border)"/><text x="18" y="26" font-size="13" font-weight="600" fill="var(--cf-text)">braedonsaunders/beaconhs</text><text x="702" y="26" text-anchor="end" font-size="10" fill="var(--cf-text-faint)" font-family="ui-monospace,SFMono-Regular,Menlo,monospace">@9cf96e5</text><g transform="translate(18,46)"><text x="0" y="0" font-size="9" font-weight="600" fill="var(--cf-text-dim)" letter-spacing="0.8">FILES</text><text x="0" y="28" font-size="22" font-weight="700" fill="var(--cf-text)">1.3K</text><g transform="translate(0,40)"><svg width="64" height="14" viewBox="0 0 64 14" preserveAspectRatio="none"><path d="M0 12.2 L2.13 11 L4.27 13.4 L6.4 14 L8.53 14 L10.67 12.8 L12.8 12.8 L14.93 12.8 L17.07 12.8 L19.2 12.8 L21.33 9.8 L23.47 9.8 L25.6 9.8 L27.73 8.2 L29.87 8 L32 4.8 L34.13 4.8 L36.27 4.8 L38.4 4.8 L40.53 4.8 L42.67 4.8 L44.8 3.4 L46.93 3.2 L49.07 3.2 L51.2 3.2 L53.33 2 L55.47 1.2 L57.6 1.4 L59.73 1.4 L61.87 1.2 L64 0 L64 14 L0 14 Z" fill="var(--cf-spark-bg)" stroke="none"/><path d="M0 12.2 L2.13 11 L4.27 13.4 L6.4 14 L8.53 14 L10.67 12.8 L12.8 12.8 L14.93 12.8 L17.07 12.8 L19.2 12.8 L21.33 9.8 L23.47 9.8 L25.6 9.8 L27.73 8.2 L29.87 8 L32 4.8 L34.13 4.8 L36.27 4.8 L38.4 4.8 L40.53 4.8 L42.67 4.8 L44.8 3.4 L46.93 3.2 L49.07 3.2 L51.2 3.2 L53.33 2 L55.47 1.2 L57.6 1.4 L59.73 1.4 L61.87 1.2 L64 0" fill="none" stroke="var(--cf-spark)" stroke-width="1.4" stroke-linecap="round" stroke-linejoin="round"/></svg></g></g><g transform="translate(154.8,46)"><text x="0" y="0" font-size="9" font-weight="600" fill="var(--cf-text-dim)" letter-spacing="0.8">FNS</text><text x="0" y="28" font-size="22" font-weight="700" fill="var(--cf-text)">4.6K</text><g transform="translate(0,40)"><svg width="64" height="14" viewBox="0 0 64 14" preserveAspectRatio="none"><path d="M0 13.26 L2.13 12.95 L4.27 13.53 L6.4 14 L8.53 14 L10.67 13.26 L12.8 13.26 L14.93 13.24 L17.07 13.24 L19.2 13.41 L21.33 10.4 L23.47 10.4 L25.6 10.4 L27.73 9.88 L29.87 9.54 L32 8.48 L34.13 8.48 L36.27 8.48 L38.4 8.48 L40.53 8.41 L42.67 8.41 L44.8 3.73 L46.93 3.65 L49.07 3.65 L51.2 3.26 L53.33 1.64 L55.47 1.13 L57.6 1.08 L59.73 1.05 L61.87 1.01 L64 0 L64 14 L0 14 Z" fill="var(--cf-spark-bg)" stroke="none"/><path d="M0 13.26 L2.13 12.95 L4.27 13.53 L6.4 14 L8.53 14 L10.67 13.26 L12.8 13.26 L14.93 13.24 L17.07 13.24 L19.2 13.41 L21.33 10.4 L23.47 10.4 L25.6 10.4 L27.73 9.88 L29.87 9.54 L32 8.48 L34.13 8.48 L36.27 8.48 L38.4 8.48 L40.53 8.41 L42.67 8.41 L44.8 3.73 L46.93 3.65 L49.07 3.65 L51.2 3.26 L53.33 1.64 L55.47 1.13 L57.6 1.08 L59.73 1.05 L61.87 1.01 L64 0" fill="none" stroke="var(--cf-spark)" stroke-width="1.4" stroke-linecap="round" stroke-linejoin="round"/></svg></g></g><g transform="translate(291.6,46)"><text x="0" y="0" font-size="9" font-weight="600" fill="var(--cf-text-dim)" letter-spacing="0.8">LOC</text><text x="0" y="28" font-size="22" font-weight="700" fill="var(--cf-text)">440.8K</text><g transform="translate(0,40)"><svg width="64" height="14" viewBox="0 0 64 14" preserveAspectRatio="none"><path d="M0 8.07 L2.13 3.91 L4.27 4.13 L6.4 0.28 L8.53 0.28 L10.67 0.02 L12.8 0.01 L14.93 0 L17.07 0 L19.2 0.08 L21.33 14 L23.47 14 L25.6 13.99 L27.73 13.89 L29.87 13.81 L32 8.97 L34.13 8.97 L36.27 8.96 L38.4 8.97 L40.53 8.97 L42.67 8.97 L44.8 3.46 L46.93 3.58 L49.07 3.58 L51.2 3.53 L53.33 3.32 L55.47 3.23 L57.6 3.23 L59.73 3.22 L61.87 3.21 L64 2.84 L64 14 L0 14 Z" fill="var(--cf-spark-bg)" stroke="none"/><path d="M0 8.07 L2.13 3.91 L4.27 4.13 L6.4 0.28 L8.53 0.28 L10.67 0.02 L12.8 0.01 L14.93 0 L17.07 0 L19.2 0.08 L21.33 14 L23.47 14 L25.6 13.99 L27.73 13.89 L29.87 13.81 L32 8.97 L34.13 8.97 L36.27 8.96 L38.4 8.97 L40.53 8.97 L42.67 8.97 L44.8 3.46 L46.93 3.58 L49.07 3.58 L51.2 3.53 L53.33 3.32 L55.47 3.23 L57.6 3.23 L59.73 3.22 L61.87 3.21 L64 2.84" fill="none" stroke="var(--cf-spark)" stroke-width="1.4" stroke-linecap="round" stroke-linejoin="round"/></svg></g></g><g transform="translate(428.40000000000003,46)"><text x="0" y="0" font-size="9" font-weight="600" fill="var(--cf-text-dim)" letter-spacing="0.8">LANGS</text><text x="0" y="28" font-size="22" font-weight="700" fill="var(--cf-text)">17</text><g transform="translate(0,40)"><svg width="64" height="14" viewBox="0 0 64 14" preserveAspectRatio="none"><path d="M0 7 L2.13 7 L4.27 7 L6.4 7 L8.53 7 L10.67 7 L12.8 7 L14.93 7 L17.07 7 L19.2 7 L21.33 7 L23.47 7 L25.6 7 L27.73 7 L29.87 7 L32 7 L34.13 7 L36.27 7 L38.4 7 L40.53 7 L42.67 7 L44.8 7 L46.93 7 L49.07 7 L51.2 7 L53.33 7 L55.47 7 L57.6 7 L59.73 7 L61.87 7 L64 7 L64 14 L0 14 Z" fill="var(--cf-spark-bg)" stroke="none"/><path d="M0 7 L2.13 7 L4.27 7 L6.4 7 L8.53 7 L10.67 7 L12.8 7 L14.93 7 L17.07 7 L19.2 7 L21.33 7 L23.47 7 L25.6 7 L27.73 7 L29.87 7 L32 7 L34.13 7 L36.27 7 L38.4 7 L40.53 7 L42.67 7 L44.8 7 L46.93 7 L49.07 7 L51.2 7 L53.33 7 L55.47 7 L57.6 7 L59.73 7 L61.87 7 L64 7" fill="none" stroke="var(--cf-spark)" stroke-width="1.4" stroke-linecap="round" stroke-linejoin="round"/></svg></g></g><g transform="translate(565.2,46)"><text x="0" y="0" font-size="9" font-weight="600" fill="var(--cf-text-dim)" letter-spacing="0.8">TESTS</text><text x="0" y="28" font-size="22" font-weight="700" fill="var(--cf-text)">9</text><g transform="translate(0,40)"><svg width="64" height="14" viewBox="0 0 64 14" preserveAspectRatio="none"><path d="M0 14 L2.13 14 L4.27 14 L6.4 14 L8.53 14 L10.67 14 L12.8 14 L14.93 14 L17.07 14 L19.2 14 L21.33 14 L23.47 14 L25.6 14 L27.73 14 L29.87 14 L32 14 L34.13 14 L36.27 14 L38.4 14 L40.53 14 L42.67 14 L44.8 7 L46.93 7 L49.07 7 L51.2 7 L53.33 0 L55.47 0 L57.6 0 L59.73 0 L61.87 0 L64 0 L64 14 L0 14 Z" fill="var(--cf-spark-bg)" stroke="none"/><path d="M0 14 L2.13 14 L4.27 14 L6.4 14 L8.53 14 L10.67 14 L12.8 14 L14.93 14 L17.07 14 L19.2 14 L21.33 14 L23.47 14 L25.6 14 L27.73 14 L29.87 14 L32 14 L34.13 14 L36.27 14 L38.4 14 L40.53 14 L42.67 14 L44.8 7 L46.93 7 L49.07 7 L51.2 7 L53.33 0 L55.47 0 L57.6 0 L59.73 0 L61.87 0 L64 0" fill="none" stroke="var(--cf-spark)" stroke-width="1.4" stroke-linecap="round" stroke-linejoin="round"/></svg></g></g><a href="https://github.com/braedonsaunders/codeflow" target="_blank"><text x="702" y="130" text-anchor="end" font-size="9" fill="var(--cf-text-faint)">powered by <tspan font-weight="600" fill="var(--cf-accent)">codeflow</tspan></text></a></svg>