<svg xmlns="http://www.w3.org/2000/svg" width="720" height="194" viewBox="0 0 720 194" font-family="-apple-system,BlinkMacSystemFont,Segoe UI,Helvetica,Arial,sans-serif"><style>svg{--cf-bg:#0d1117;--cf-bg-alt:#161b22;--cf-border:#21262d;--cf-text:#e6edf3;--cf-text-dim:#8b949e;--cf-text-faint:#6e7681;--cf-accent:#5eead4;--cf-accent-soft:rgba(94,234,212,0.16);--cf-green:#3fb950;--cf-amber:#d29922;--cf-red:#f85149;--cf-spark:#5eead4;--cf-spark-bg:rgba(94,234,212,0.18)}@media (prefers-color-scheme: light){svg{--cf-bg:#ffffff;--cf-bg-alt:#f6f8fa;--cf-border:#d0d7de;--cf-text:#1f2328;--cf-text-dim:#656d76;--cf-text-faint:#8c959f;--cf-accent:#0d9488;--cf-accent-soft:rgba(13,148,136,0.12);--cf-green:#1a7f37;--cf-amber:#9a6700;--cf-red:#cf222e;--cf-spark:#0d9488;--cf-spark-bg:rgba(13,148,136,0.12)}}</style><rect width="720" height="194" rx="14" fill="var(--cf-bg)" stroke="var(--cf-border)"/><g transform="translate(22,26)"><text x="0" y="0" font-size="18" font-weight="700" fill="var(--cf-text)">braedonsaunders/beaconhs</text><text x="676" y="0" text-anchor="end" font-size="11" fill="var(--cf-text-faint)" font-family="ui-monospace,SFMono-Regular,Menlo,monospace">@66b1163</text></g><g transform="translate(22,60)"><rect width="676" height="88" rx="10" fill="var(--cf-bg-alt)" stroke="var(--cf-border)"/><g transform="translate(16,16)"><text x="0" y="0" font-size="10" font-weight="500" fill="var(--cf-text-dim)" letter-spacing="0.6">FILES</text><text x="0" y="28" font-size="22" font-weight="700" fill="var(--cf-text)">876</text><g transform="translate(0,38)"><svg width="80" height="18" viewBox="0 0 80 18" preserveAspectRatio="none"><path d="M0 18 L2.67 18 L5.33 16.54 L8 15.85 L10.67 15.85 L13.33 15.85 L16 15.85 L18.67 15.85 L21.33 15.46 L24 14.85 L26.67 14.15 L29.33 12.77 L32 13.69 L34.67 13.31 L37.33 12.62 L40 12.46 L42.67 12.38 L45.33 12.31 L48 12.31 L50.67 12.31 L53.33 12.31 L56 12.31 L58.67 14.77 L61.33 14.77 L64 1.77 L66.67 0 L69.33 0 L72 0 L74.67 0 L77.33 0 L80 0 L80 18 L0 18 Z" fill="var(--cf-spark-bg)" stroke="none"/><path d="M0 18 L2.67 18 L5.33 16.54 L8 15.85 L10.67 15.85 L13.33 15.85 L16 15.85 L18.67 15.85 L21.33 15.46 L24 14.85 L26.67 14.15 L29.33 12.77 L32 13.69 L34.67 13.31 L37.33 12.62 L40 12.46 L42.67 12.38 L45.33 12.31 L48 12.31 L50.67 12.31 L53.33 12.31 L56 12.31 L58.67 14.77 L61.33 14.77 L64 1.77 L66.67 0 L69.33 0 L72 0 L74.67 0 L77.33 0 L80 0" fill="none" stroke="var(--cf-spark)" stroke-width="1.4" stroke-linecap="round" stroke-linejoin="round"/></svg></g></g><g transform="translate(177,16)"><text x="0" y="0" font-size="10" font-weight="500" fill="var(--cf-text-dim)" letter-spacing="0.6">FNS</text><text x="0" y="28" font-size="22" font-weight="700" fill="var(--cf-text)">2.6K</text><g transform="translate(0,38)"><svg width="80" height="18" viewBox="0 0 80 18" preserveAspectRatio="none"><path d="M0 18 L2.67 18 L5.33 17.21 L8 16.99 L10.67 16.99 L13.33 16.99 L16 16.99 L18.67 16.97 L21.33 16.68 L24 15.74 L26.67 14.95 L29.33 13.77 L32 15.65 L34.67 14.95 L37.33 14.45 L40 14.27 L42.67 14.23 L45.33 14.23 L48 14.23 L50.67 14.23 L53.33 14.23 L56 14.23 L58.67 14.23 L61.33 14.23 L64 1.47 L66.67 0 L69.33 0 L72 0 L74.67 0 L77.33 0 L80 0 L80 18 L0 18 Z" fill="var(--cf-spark-bg)" stroke="none"/><path d="M0 18 L2.67 18 L5.33 17.21 L8 16.99 L10.67 16.99 L13.33 16.99 L16 16.99 L18.67 16.97 L21.33 16.68 L24 15.74 L26.67 14.95 L29.33 13.77 L32 15.65 L34.67 14.95 L37.33 14.45 L40 14.27 L42.67 14.23 L45.33 14.23 L48 14.23 L50.67 14.23 L53.33 14.23 L56 14.23 L58.67 14.23 L61.33 14.23 L64 1.47 L66.67 0 L69.33 0 L72 0 L74.67 0 L77.33 0 L80 0" fill="none" stroke="var(--cf-spark)" stroke-width="1.4" stroke-linecap="round" stroke-linejoin="round"/></svg></g></g><g transform="translate(338,16)"><text x="0" y="0" font-size="10" font-weight="500" fill="var(--cf-text-dim)" letter-spacing="0.6">LOC</text><text x="0" y="28" font-size="22" font-weight="700" fill="var(--cf-text)">218.4K</text><g transform="translate(0,38)"><svg width="80" height="18" viewBox="0 0 80 18" preserveAspectRatio="none"><path d="M0 7.3 L2.67 7.3 L5.33 7.1 L8 4.24 L10.67 4.23 L13.33 4.23 L16 4.23 L18.67 4.23 L21.33 4.08 L24 3.79 L26.67 3.49 L29.33 0.24 L32 0.7 L34.67 0.41 L37.33 0.15 L40 0.09 L42.67 0.06 L45.33 0 L48 0 L50.67 0 L53.33 0 L56 0 L58.67 17.95 L61.33 18 L64 15.24 L66.67 14.78 L69.33 14.78 L72 14.78 L74.67 14.78 L77.33 14.78 L80 14.78 L80 18 L0 18 Z" fill="var(--cf-spark-bg)" stroke="none"/><path d="M0 7.3 L2.67 7.3 L5.33 7.1 L8 4.24 L10.67 4.23 L13.33 4.23 L16 4.23 L18.67 4.23 L21.33 4.08 L24 3.79 L26.67 3.49 L29.33 0.24 L32 0.7 L34.67 0.41 L37.33 0.15 L40 0.09 L42.67 0.06 L45.33 0 L48 0 L50.67 0 L53.33 0 L56 0 L58.67 17.95 L61.33 18 L64 15.24 L66.67 14.78 L69.33 14.78 L72 14.78 L74.67 14.78 L77.33 14.78 L80 14.78" fill="none" stroke="var(--cf-spark)" stroke-width="1.4" stroke-linecap="round" stroke-linejoin="round"/></svg></g></g><g transform="translate(499,16)"><text x="0" y="0" font-size="10" font-weight="500" fill="var(--cf-text-dim)" letter-spacing="0.6">LANGS</text><text x="0" y="28" font-size="22" font-weight="700" fill="var(--cf-text)">16</text><g transform="translate(0,38)"><svg width="80" height="18" viewBox="0 0 80 18" preserveAspectRatio="none"><path d="M0 18 L2.67 18 L5.33 18 L8 18 L10.67 18 L13.33 18 L16 18 L18.67 18 L21.33 18 L24 18 L26.67 18 L29.33 18 L32 18 L34.67 18 L37.33 18 L40 18 L42.67 18 L45.33 0 L48 0 L50.67 0 L53.33 0 L56 0 L58.67 0 L61.33 0 L64 0 L66.67 0 L69.33 0 L72 0 L74.67 0 L77.33 0 L80 0 L80 18 L0 18 Z" fill="var(--cf-spark-bg)" stroke="none"/><path d="M0 18 L2.67 18 L5.33 18 L8 18 L10.67 18 L13.33 18 L16 18 L18.67 18 L21.33 18 L24 18 L26.67 18 L29.33 18 L32 18 L34.67 18 L37.33 18 L40 18 L42.67 18 L45.33 0 L48 0 L50.67 0 L53.33 0 L56 0 L58.67 0 L61.33 0 L64 0 L66.67 0 L69.33 0 L72 0 L74.67 0 L77.33 0 L80 0" fill="none" stroke="var(--cf-spark)" stroke-width="1.4" stroke-linecap="round" stroke-linejoin="round"/></svg></g></g></g><g transform="translate(22,180)"><text x="0" y="0" font-size="10" fill="var(--cf-text-faint)">updated 2026-06-10</text><a href="https://github.com/braedonsaunders/codeflow" target="_blank"><text x="676" y="0" text-anchor="end" font-size="10" fill="var(--cf-text-faint)">powered by <tspan font-weight="600" fill="var(--cf-accent)">codeflow</tspan></text></a></g></svg>