<svg xmlns="http://www.w3.org/2000/svg" width="720" height="140" viewBox="0 0 720 140" font-family="-apple-system,BlinkMacSystemFont,Segoe UI,Helvetica,Arial,sans-serif"><style>svg{--cf-bg:#0d1117;--cf-bg-alt:#161b22;--cf-border:#21262d;--cf-text:#e6edf3;--cf-text-dim:#8b949e;--cf-text-faint:#6e7681;--cf-accent:#5eead4;--cf-accent-soft:rgba(94,234,212,0.16);--cf-green:#3fb950;--cf-amber:#d29922;--cf-red:#f85149;--cf-spark:#5eead4;--cf-spark-bg:rgba(94,234,212,0.18)}@media (prefers-color-scheme: light){svg{--cf-bg:#ffffff;--cf-bg-alt:#f6f8fa;--cf-border:#d0d7de;--cf-text:#1f2328;--cf-text-dim:#656d76;--cf-text-faint:#8c959f;--cf-accent:#0d9488;--cf-accent-soft:rgba(13,148,136,0.12);--cf-green:#1a7f37;--cf-amber:#9a6700;--cf-red:#cf222e;--cf-spark:#0d9488;--cf-spark-bg:rgba(13,148,136,0.12)}}</style><rect width="720" height="140" rx="12" fill="var(--cf-bg)" stroke="var(--cf-border)"/><text x="18" y="26" font-size="13" font-weight="600" fill="var(--cf-text)">braedonsaunders/beaconhs</text><text x="702" y="26" text-anchor="end" font-size="10" fill="var(--cf-text-faint)" font-family="ui-monospace,SFMono-Regular,Menlo,monospace">@a947d1c</text><g transform="translate(18,46)"><text x="0" y="0" font-size="9" font-weight="600" fill="var(--cf-text-dim)" letter-spacing="0.8">FILES</text><text x="0" y="28" font-size="22" font-weight="700" fill="var(--cf-text)">1.1K</text><g transform="translate(0,40)"><svg width="64" height="14" viewBox="0 0 64 14" preserveAspectRatio="none"><path d="M0 14 L2.13 12.73 L4.27 12.09 L6.4 12.09 L8.53 11.88 L10.67 11.45 L12.8 9.97 L14.93 9.97 L17.07 9.55 L19.2 9.55 L21.33 9.55 L23.47 9.55 L25.6 9.55 L27.73 9.33 L29.87 9.33 L32 9.33 L34.13 9.33 L36.27 9.33 L38.4 9.12 L40.53 8.91 L42.67 6.58 L44.8 6.58 L46.93 5.52 L49.07 2.12 L51.2 2.12 L53.33 2.12 L55.47 0.42 L57.6 0.42 L59.73 0.42 L61.87 0.21 L64 0 L64 14 L0 14 Z" fill="var(--cf-spark-bg)" stroke="none"/><path d="M0 14 L2.13 12.73 L4.27 12.09 L6.4 12.09 L8.53 11.88 L10.67 11.45 L12.8 9.97 L14.93 9.97 L17.07 9.55 L19.2 9.55 L21.33 9.55 L23.47 9.55 L25.6 9.55 L27.73 9.33 L29.87 9.33 L32 9.33 L34.13 9.33 L36.27 9.33 L38.4 9.12 L40.53 8.91 L42.67 6.58 L44.8 6.58 L46.93 5.52 L49.07 2.12 L51.2 2.12 L53.33 2.12 L55.47 0.42 L57.6 0.42 L59.73 0.42 L61.87 0.21 L64 0" fill="none" stroke="var(--cf-spark)" stroke-width="1.4" stroke-linecap="round" stroke-linejoin="round"/></svg></g></g><g transform="translate(154.8,46)"><text x="0" y="0" font-size="9" font-weight="600" fill="var(--cf-text-dim)" letter-spacing="0.8">FNS</text><text x="0" y="28" font-size="22" font-weight="700" fill="var(--cf-text)">3.6K</text><g transform="translate(0,40)"><svg width="64" height="14" viewBox="0 0 64 14" preserveAspectRatio="none"><path d="M0 14 L2.13 13.39 L4.27 12.38 L6.4 11.78 L8.53 11.57 L10.67 11.22 L12.8 10.21 L14.93 10.21 L17.07 9.3 L19.2 9.3 L21.33 9.3 L23.47 9.25 L25.6 9.25 L27.73 9.2 L29.87 9.2 L32 9.15 L34.13 8.9 L36.27 8.9 L38.4 8.84 L40.53 8.79 L42.67 7.43 L44.8 7.43 L46.93 4.8 L49.07 1.77 L51.2 1.77 L53.33 1.72 L55.47 0.3 L57.6 0.3 L59.73 0.3 L61.87 0.1 L64 0 L64 14 L0 14 Z" fill="var(--cf-spark-bg)" stroke="none"/><path d="M0 14 L2.13 13.39 L4.27 12.38 L6.4 11.78 L8.53 11.57 L10.67 11.22 L12.8 10.21 L14.93 10.21 L17.07 9.3 L19.2 9.3 L21.33 9.3 L23.47 9.25 L25.6 9.25 L27.73 9.2 L29.87 9.2 L32 9.15 L34.13 8.9 L36.27 8.9 L38.4 8.84 L40.53 8.79 L42.67 7.43 L44.8 7.43 L46.93 4.8 L49.07 1.77 L51.2 1.77 L53.33 1.72 L55.47 0.3 L57.6 0.3 L59.73 0.3 L61.87 0.1 L64 0" fill="none" stroke="var(--cf-spark)" stroke-width="1.4" stroke-linecap="round" stroke-linejoin="round"/></svg></g></g><g transform="translate(291.6,46)"><text x="0" y="0" font-size="9" font-weight="600" fill="var(--cf-text-dim)" letter-spacing="0.8">LOC</text><text x="0" y="28" font-size="22" font-weight="700" fill="var(--cf-text)">377.1K</text><g transform="translate(0,40)"><svg width="64" height="14" viewBox="0 0 64 14" preserveAspectRatio="none"><path d="M0 14 L2.13 13.59 L4.27 12.32 L6.4 11.55 L8.53 11.09 L10.67 10.84 L12.8 9.95 L14.93 9.94 L17.07 8.97 L19.2 8.96 L21.33 8.95 L23.47 8.96 L25.6 8.95 L27.73 8.85 L29.87 8.78 L32 8.65 L34.13 7.61 L36.27 7.59 L38.4 7.57 L40.53 7.55 L42.67 5.63 L44.8 5.63 L46.93 4.07 L49.07 1.58 L51.2 1.46 L53.33 1.4 L55.47 0.24 L57.6 0.22 L59.73 0.21 L61.87 0.04 L64 0 L64 14 L0 14 Z" fill="var(--cf-spark-bg)" stroke="none"/><path d="M0 14 L2.13 13.59 L4.27 12.32 L6.4 11.55 L8.53 11.09 L10.67 10.84 L12.8 9.95 L14.93 9.94 L17.07 8.97 L19.2 8.96 L21.33 8.95 L23.47 8.96 L25.6 8.95 L27.73 8.85 L29.87 8.78 L32 8.65 L34.13 7.61 L36.27 7.59 L38.4 7.57 L40.53 7.55 L42.67 5.63 L44.8 5.63 L46.93 4.07 L49.07 1.58 L51.2 1.46 L53.33 1.4 L55.47 0.24 L57.6 0.22 L59.73 0.21 L61.87 0.04 L64 0" fill="none" stroke="var(--cf-spark)" stroke-width="1.4" stroke-linecap="round" stroke-linejoin="round"/></svg></g></g><g transform="translate(428.40000000000003,46)"><text x="0" y="0" font-size="9" font-weight="600" fill="var(--cf-text-dim)" letter-spacing="0.8">LANGS</text><text x="0" y="28" font-size="22" font-weight="700" fill="var(--cf-text)">17</text><g transform="translate(0,40)"><svg width="64" height="14" viewBox="0 0 64 14" preserveAspectRatio="none"><path d="M0 7 L2.13 7 L4.27 7 L6.4 7 L8.53 7 L10.67 7 L12.8 7 L14.93 7 L17.07 7 L19.2 7 L21.33 7 L23.47 7 L25.6 7 L27.73 7 L29.87 7 L32 7 L34.13 7 L36.27 7 L38.4 7 L40.53 7 L42.67 7 L44.8 7 L46.93 7 L49.07 7 L51.2 7 L53.33 7 L55.47 7 L57.6 7 L59.73 7 L61.87 7 L64 7 L64 14 L0 14 Z" fill="var(--cf-spark-bg)" stroke="none"/><path d="M0 7 L2.13 7 L4.27 7 L6.4 7 L8.53 7 L10.67 7 L12.8 7 L14.93 7 L17.07 7 L19.2 7 L21.33 7 L23.47 7 L25.6 7 L27.73 7 L29.87 7 L32 7 L34.13 7 L36.27 7 L38.4 7 L40.53 7 L42.67 7 L44.8 7 L46.93 7 L49.07 7 L51.2 7 L53.33 7 L55.47 7 L57.6 7 L59.73 7 L61.87 7 L64 7" fill="none" stroke="var(--cf-spark)" stroke-width="1.4" stroke-linecap="round" stroke-linejoin="round"/></svg></g></g><g transform="translate(565.2,46)"><text x="0" y="0" font-size="9" font-weight="600" fill="var(--cf-text-dim)" letter-spacing="0.8">TESTS</text><text x="0" y="28" font-size="22" font-weight="700" fill="var(--cf-text)">5</text><g transform="translate(0,40)"><svg width="64" height="14" viewBox="0 0 64 14" preserveAspectRatio="none"><path d="M0 7 L2.13 7 L4.27 7 L6.4 7 L8.53 7 L10.67 7 L12.8 7 L14.93 7 L17.07 7 L19.2 7 L21.33 7 L23.47 7 L25.6 7 L27.73 7 L29.87 7 L32 7 L34.13 7 L36.27 7 L38.4 7 L40.53 7 L42.67 7 L44.8 7 L46.93 7 L49.07 7 L51.2 7 L53.33 7 L55.47 7 L57.6 7 L59.73 7 L61.87 7 L64 7 L64 14 L0 14 Z" fill="var(--cf-spark-bg)" stroke="none"/><path d="M0 7 L2.13 7 L4.27 7 L6.4 7 L8.53 7 L10.67 7 L12.8 7 L14.93 7 L17.07 7 L19.2 7 L21.33 7 L23.47 7 L25.6 7 L27.73 7 L29.87 7 L32 7 L34.13 7 L36.27 7 L38.4 7 L40.53 7 L42.67 7 L44.8 7 L46.93 7 L49.07 7 L51.2 7 L53.33 7 L55.47 7 L57.6 7 L59.73 7 L61.87 7 L64 7" fill="none" stroke="var(--cf-spark)" stroke-width="1.4" stroke-linecap="round" stroke-linejoin="round"/></svg></g></g><a href="https://github.com/braedonsaunders/codeflow" target="_blank"><text x="702" y="130" text-anchor="end" font-size="9" fill="var(--cf-text-faint)">powered by <tspan font-weight="600" fill="var(--cf-accent)">codeflow</tspan></text></a></svg>