<svg xmlns="http://www.w3.org/2000/svg" width="720" height="140" viewBox="0 0 720 140" font-family="-apple-system,BlinkMacSystemFont,Segoe UI,Helvetica,Arial,sans-serif"><style>svg{--cf-bg:#0d1117;--cf-bg-alt:#161b22;--cf-border:#21262d;--cf-text:#e6edf3;--cf-text-dim:#8b949e;--cf-text-faint:#6e7681;--cf-accent:#5eead4;--cf-accent-soft:rgba(94,234,212,0.16);--cf-green:#3fb950;--cf-amber:#d29922;--cf-red:#f85149;--cf-spark:#5eead4;--cf-spark-bg:rgba(94,234,212,0.18)}@media (prefers-color-scheme: light){svg{--cf-bg:#ffffff;--cf-bg-alt:#f6f8fa;--cf-border:#d0d7de;--cf-text:#1f2328;--cf-text-dim:#656d76;--cf-text-faint:#8c959f;--cf-accent:#0d9488;--cf-accent-soft:rgba(13,148,136,0.12);--cf-green:#1a7f37;--cf-amber:#9a6700;--cf-red:#cf222e;--cf-spark:#0d9488;--cf-spark-bg:rgba(13,148,136,0.12)}}</style><rect width="720" height="140" rx="12" fill="var(--cf-bg)" stroke="var(--cf-border)"/><text x="18" y="26" font-size="13" font-weight="600" fill="var(--cf-text)">braedonsaunders/beaconhs</text><text x="702" y="26" text-anchor="end" font-size="10" fill="var(--cf-text-faint)" font-family="ui-monospace,SFMono-Regular,Menlo,monospace">@2baa407</text><g transform="translate(18,46)"><text x="0" y="0" font-size="9" font-weight="600" fill="var(--cf-text-dim)" letter-spacing="0.8">FILES</text><text x="0" y="28" font-size="22" font-weight="700" fill="var(--cf-text)">936</text><g transform="translate(0,40)"><svg width="64" height="14" viewBox="0 0 64 14" preserveAspectRatio="none"><path d="M0 8.13 L3.05 8.13 L6.1 8.13 L9.14 5.87 L12.19 9.94 L15.24 9.94 L18.29 8.58 L21.33 14 L24.38 11.74 L27.43 11.74 L30.48 11.74 L33.52 11.74 L36.57 11.29 L39.62 10.84 L42.67 9.94 L45.71 9.03 L48.76 9.03 L51.81 9.03 L54.86 0 L57.9 0 L60.95 0 L64 1.35 L64 14 L0 14 Z" fill="var(--cf-spark-bg)" stroke="none"/><path d="M0 8.13 L3.05 8.13 L6.1 8.13 L9.14 5.87 L12.19 9.94 L15.24 9.94 L18.29 8.58 L21.33 14 L24.38 11.74 L27.43 11.74 L30.48 11.74 L33.52 11.74 L36.57 11.29 L39.62 10.84 L42.67 9.94 L45.71 9.03 L48.76 9.03 L51.81 9.03 L54.86 0 L57.9 0 L60.95 0 L64 1.35" fill="none" stroke="var(--cf-spark)" stroke-width="1.4" stroke-linecap="round" stroke-linejoin="round"/></svg></g></g><g transform="translate(154.8,46)"><text x="0" y="0" font-size="9" font-weight="600" fill="var(--cf-text-dim)" letter-spacing="0.8">FNS</text><text x="0" y="28" font-size="22" font-weight="700" fill="var(--cf-text)">2.8K</text><g transform="translate(0,40)"><svg width="64" height="14" viewBox="0 0 64 14" preserveAspectRatio="none"><path d="M0 14 L3.05 14 L6.1 14 L9.14 4.7 L12.19 8.37 L15.24 8.37 L18.29 7.94 L21.33 11.1 L24.38 10.16 L27.43 10.16 L30.48 10.16 L33.52 10.16 L36.57 10.07 L39.62 9.9 L42.67 9.65 L45.71 9.48 L48.76 9.48 L51.81 9.48 L54.86 0.17 L57.9 0.17 L60.95 0.26 L64 0 L64 14 L0 14 Z" fill="var(--cf-spark-bg)" stroke="none"/><path d="M0 14 L3.05 14 L6.1 14 L9.14 4.7 L12.19 8.37 L15.24 8.37 L18.29 7.94 L21.33 11.1 L24.38 10.16 L27.43 10.16 L30.48 10.16 L33.52 10.16 L36.57 10.07 L39.62 9.9 L42.67 9.65 L45.71 9.48 L48.76 9.48 L51.81 9.48 L54.86 0.17 L57.9 0.17 L60.95 0.26 L64 0" fill="none" stroke="var(--cf-spark)" stroke-width="1.4" stroke-linecap="round" stroke-linejoin="round"/></svg></g></g><g transform="translate(291.6,46)"><text x="0" y="0" font-size="9" font-weight="600" fill="var(--cf-text-dim)" letter-spacing="0.8">LOC</text><text x="0" y="28" font-size="22" font-weight="700" fill="var(--cf-text)">331.2K</text><g transform="translate(0,40)"><svg width="64" height="14" viewBox="0 0 64 14" preserveAspectRatio="none"><path d="M0 14 L3.05 14 L6.1 14 L9.14 13.33 L12.19 9.44 L15.24 9.44 L18.29 9.37 L21.33 9.81 L24.38 9.75 L27.43 9.75 L30.48 9.74 L33.52 9.74 L36.57 9.73 L39.62 9.73 L42.67 9.71 L45.71 9.72 L48.76 9.71 L51.81 9.71 L54.86 0 L57.9 0 L60.95 0 L64 0.06 L64 14 L0 14 Z" fill="var(--cf-spark-bg)" stroke="none"/><path d="M0 14 L3.05 14 L6.1 14 L9.14 13.33 L12.19 9.44 L15.24 9.44 L18.29 9.37 L21.33 9.81 L24.38 9.75 L27.43 9.75 L30.48 9.74 L33.52 9.74 L36.57 9.73 L39.62 9.73 L42.67 9.71 L45.71 9.72 L48.76 9.71 L51.81 9.71 L54.86 0 L57.9 0 L60.95 0 L64 0.06" fill="none" stroke="var(--cf-spark)" stroke-width="1.4" stroke-linecap="round" stroke-linejoin="round"/></svg></g></g><g transform="translate(428.40000000000003,46)"><text x="0" y="0" font-size="9" font-weight="600" fill="var(--cf-text-dim)" letter-spacing="0.8">LANGS</text><text x="0" y="28" font-size="22" font-weight="700" fill="var(--cf-text)">17</text><g transform="translate(0,40)"><svg width="64" height="14" viewBox="0 0 64 14" preserveAspectRatio="none"><path d="M0 7 L3.05 7 L6.1 7 L9.14 7 L12.19 7 L15.24 7 L18.29 7 L21.33 7 L24.38 7 L27.43 7 L30.48 7 L33.52 7 L36.57 7 L39.62 7 L42.67 7 L45.71 7 L48.76 7 L51.81 7 L54.86 7 L57.9 7 L60.95 7 L64 7 L64 14 L0 14 Z" fill="var(--cf-spark-bg)" stroke="none"/><path d="M0 7 L3.05 7 L6.1 7 L9.14 7 L12.19 7 L15.24 7 L18.29 7 L21.33 7 L24.38 7 L27.43 7 L30.48 7 L33.52 7 L36.57 7 L39.62 7 L42.67 7 L45.71 7 L48.76 7 L51.81 7 L54.86 7 L57.9 7 L60.95 7 L64 7" fill="none" stroke="var(--cf-spark)" stroke-width="1.4" stroke-linecap="round" stroke-linejoin="round"/></svg></g></g><g transform="translate(565.2,46)"><text x="0" y="0" font-size="9" font-weight="600" fill="var(--cf-text-dim)" letter-spacing="0.8">TESTS</text><text x="0" y="28" font-size="22" font-weight="700" fill="var(--cf-text)">4</text><g transform="translate(0,40)"><svg width="64" height="14" viewBox="0 0 64 14" preserveAspectRatio="none"><path d="M0 14 L3.05 14 L6.1 14 L9.14 14 L12.19 14 L15.24 14 L18.29 14 L21.33 14 L24.38 14 L27.43 14 L30.48 14 L33.52 14 L36.57 14 L39.62 14 L42.67 14 L45.71 14 L48.76 14 L51.81 14 L54.86 14 L57.9 14 L60.95 14 L64 0 L64 14 L0 14 Z" fill="var(--cf-spark-bg)" stroke="none"/><path d="M0 14 L3.05 14 L6.1 14 L9.14 14 L12.19 14 L15.24 14 L18.29 14 L21.33 14 L24.38 14 L27.43 14 L30.48 14 L33.52 14 L36.57 14 L39.62 14 L42.67 14 L45.71 14 L48.76 14 L51.81 14 L54.86 14 L57.9 14 L60.95 14 L64 0" fill="none" stroke="var(--cf-spark)" stroke-width="1.4" stroke-linecap="round" stroke-linejoin="round"/></svg></g></g><a href="https://github.com/braedonsaunders/codeflow" target="_blank"><text x="702" y="130" text-anchor="end" font-size="9" fill="var(--cf-text-faint)">powered by <tspan font-weight="600" fill="var(--cf-accent)">codeflow</tspan></text></a></svg>