<svg xmlns="http://www.w3.org/2000/svg" width="720" height="318" viewBox="0 0 720 318" font-family="-apple-system,BlinkMacSystemFont,Segoe UI,Helvetica,Arial,sans-serif"><style>svg{--cf-bg:#0d1117;--cf-bg-alt:#161b22;--cf-border:#21262d;--cf-text:#e6edf3;--cf-text-dim:#8b949e;--cf-text-faint:#6e7681;--cf-accent:#5eead4;--cf-accent-soft:rgba(94,234,212,0.16);--cf-green:#3fb950;--cf-amber:#d29922;--cf-red:#f85149;--cf-spark:#5eead4;--cf-spark-bg:rgba(94,234,212,0.18)}@media (prefers-color-scheme: light){svg{--cf-bg:#ffffff;--cf-bg-alt:#f6f8fa;--cf-border:#d0d7de;--cf-text:#1f2328;--cf-text-dim:#656d76;--cf-text-faint:#8c959f;--cf-accent:#0d9488;--cf-accent-soft:rgba(13,148,136,0.12);--cf-green:#1a7f37;--cf-amber:#9a6700;--cf-red:#cf222e;--cf-spark:#0d9488;--cf-spark-bg:rgba(13,148,136,0.12)}}</style><rect width="720" height="318" rx="14" fill="var(--cf-bg)" stroke="var(--cf-border)"/><g transform="translate(22,26)"><text x="0" y="0" font-size="18" font-weight="700" fill="var(--cf-text)">braedonsaunders/beaconhs</text><text x="676" y="0" text-anchor="end" font-size="11" fill="var(--cf-text-faint)" font-family="ui-monospace,SFMono-Regular,Menlo,monospace">@03f9bc1</text></g><g transform="translate(22,60)"><rect width="676" height="110" rx="10" fill="var(--cf-bg-alt)" stroke="var(--cf-border)"/><text x="16" y="22" font-size="11" font-weight="500" fill="var(--cf-text-dim)" letter-spacing="0.6">HEALTH</text><text x="16" y="78" font-size="64" font-weight="700" fill="var(--cf-amber)" font-family="ui-monospace,SFMono-Regular,Menlo,monospace">D</text></g><g transform="translate(22,184)"><rect width="676" height="88" rx="10" fill="var(--cf-bg-alt)" stroke="var(--cf-border)"/><g transform="translate(16,16)"><text x="0" y="0" font-size="10" font-weight="500" fill="var(--cf-text-dim)" letter-spacing="0.6">FILES</text><text x="0" y="28" font-size="22" font-weight="700" fill="var(--cf-text)">716</text><g transform="translate(0,38)"><svg width="80" height="18" viewBox="0 0 80 18" preserveAspectRatio="none"><path d="M0 18 L3.08 14.63 L6.15 14.63 L9.23 12.43 L12.31 9.97 L15.38 9.71 L18.46 9.58 L21.54 9.58 L24.62 7.12 L27.69 5.96 L30.77 5.96 L33.85 5.96 L36.92 5.96 L40 5.96 L43.08 5.31 L46.15 4.27 L49.23 3.11 L52.31 0.78 L55.38 2.33 L58.46 1.68 L61.54 0.52 L64.62 0.26 L67.69 0.13 L70.77 0 L73.85 0 L76.92 0 L80 0 L80 18 L0 18 Z" fill="var(--cf-spark-bg)" stroke="none"/><path d="M0 18 L3.08 14.63 L6.15 14.63 L9.23 12.43 L12.31 9.97 L15.38 9.71 L18.46 9.58 L21.54 9.58 L24.62 7.12 L27.69 5.96 L30.77 5.96 L33.85 5.96 L36.92 5.96 L40 5.96 L43.08 5.31 L46.15 4.27 L49.23 3.11 L52.31 0.78 L55.38 2.33 L58.46 1.68 L61.54 0.52 L64.62 0.26 L67.69 0.13 L70.77 0 L73.85 0 L76.92 0 L80 0" fill="none" stroke="var(--cf-spark)" stroke-width="1.4" stroke-linecap="round" stroke-linejoin="round"/></svg></g></g><g transform="translate(177,16)"><text x="0" y="0" font-size="10" font-weight="500" fill="var(--cf-text-dim)" letter-spacing="0.6">FNS</text><text x="0" y="28" font-size="22" font-weight="700" fill="var(--cf-text)">1.9K</text><g transform="translate(0,38)"><svg width="80" height="18" viewBox="0 0 80 18" preserveAspectRatio="none"><path d="M0 18 L3.08 13.33 L6.15 13.26 L9.23 11.74 L12.31 8.4 L15.38 8.13 L18.46 7.5 L21.54 7.5 L24.62 6.1 L27.69 5.71 L30.77 5.71 L33.85 5.71 L36.92 5.71 L40 5.68 L43.08 5.17 L46.15 3.5 L49.23 2.1 L52.31 0 L55.38 3.34 L58.46 2.1 L61.54 1.21 L64.62 0.89 L67.69 0.82 L70.77 0.82 L73.85 0.82 L76.92 0.82 L80 0.82 L80 18 L0 18 Z" fill="var(--cf-spark-bg)" stroke="none"/><path d="M0 18 L3.08 13.33 L6.15 13.26 L9.23 11.74 L12.31 8.4 L15.38 8.13 L18.46 7.5 L21.54 7.5 L24.62 6.1 L27.69 5.71 L30.77 5.71 L33.85 5.71 L36.92 5.71 L40 5.68 L43.08 5.17 L46.15 3.5 L49.23 2.1 L52.31 0 L55.38 3.34 L58.46 2.1 L61.54 1.21 L64.62 0.89 L67.69 0.82 L70.77 0.82 L73.85 0.82 L76.92 0.82 L80 0.82" fill="none" stroke="var(--cf-spark)" stroke-width="1.4" stroke-linecap="round" stroke-linejoin="round"/></svg></g></g><g transform="translate(338,16)"><text x="0" y="0" font-size="10" font-weight="500" fill="var(--cf-text-dim)" letter-spacing="0.6">LOC</text><text x="0" y="28" font-size="22" font-weight="700" fill="var(--cf-text)">376.8K</text><g transform="translate(0,38)"><svg width="80" height="18" viewBox="0 0 80 18" preserveAspectRatio="none"><path d="M0 18 L3.08 12.66 L6.15 12.64 L9.23 11.92 L12.31 11.32 L15.38 11.27 L18.46 10.98 L21.54 10.98 L24.62 10.68 L27.69 6.37 L30.77 6.37 L33.85 6.37 L36.92 6.37 L40 6.36 L43.08 6.14 L46.15 5.7 L49.23 5.25 L52.31 0.36 L55.38 1.06 L58.46 0.62 L61.54 0.23 L64.62 0.14 L67.69 0.1 L70.77 0 L73.85 0 L76.92 0 L80 0 L80 18 L0 18 Z" fill="var(--cf-spark-bg)" stroke="none"/><path d="M0 18 L3.08 12.66 L6.15 12.64 L9.23 11.92 L12.31 11.32 L15.38 11.27 L18.46 10.98 L21.54 10.98 L24.62 10.68 L27.69 6.37 L30.77 6.37 L33.85 6.37 L36.92 6.37 L40 6.36 L43.08 6.14 L46.15 5.7 L49.23 5.25 L52.31 0.36 L55.38 1.06 L58.46 0.62 L61.54 0.23 L64.62 0.14 L67.69 0.1 L70.77 0 L73.85 0 L76.92 0 L80 0" fill="none" stroke="var(--cf-spark)" stroke-width="1.4" stroke-linecap="round" stroke-linejoin="round"/></svg></g></g><g transform="translate(499,16)"><text x="0" y="0" font-size="10" font-weight="500" fill="var(--cf-text-dim)" letter-spacing="0.6">LANGS</text><text x="0" y="28" font-size="22" font-weight="700" fill="var(--cf-text)">16</text><g transform="translate(0,38)"><svg width="80" height="18" viewBox="0 0 80 18" preserveAspectRatio="none"><path d="M0 18 L3.08 18 L6.15 18 L9.23 18 L12.31 18 L15.38 18 L18.46 18 L21.54 18 L24.62 18 L27.69 18 L30.77 18 L33.85 18 L36.92 18 L40 18 L43.08 18 L46.15 18 L49.23 18 L52.31 18 L55.38 18 L58.46 18 L61.54 18 L64.62 18 L67.69 18 L70.77 0 L73.85 0 L76.92 0 L80 0 L80 18 L0 18 Z" fill="var(--cf-spark-bg)" stroke="none"/><path d="M0 18 L3.08 18 L6.15 18 L9.23 18 L12.31 18 L15.38 18 L18.46 18 L21.54 18 L24.62 18 L27.69 18 L30.77 18 L33.85 18 L36.92 18 L40 18 L43.08 18 L46.15 18 L49.23 18 L52.31 18 L55.38 18 L58.46 18 L61.54 18 L64.62 18 L67.69 18 L70.77 0 L73.85 0 L76.92 0 L80 0" fill="none" stroke="var(--cf-spark)" stroke-width="1.4" stroke-linecap="round" stroke-linejoin="round"/></svg></g></g></g><g transform="translate(22,304)"><text x="0" y="0" font-size="10" fill="var(--cf-text-faint)">updated 2026-05-25</text><a href="https://github.com/braedonsaunders/codeflow" target="_blank"><text x="676" y="0" text-anchor="end" font-size="10" fill="var(--cf-text-faint)">powered by <tspan font-weight="600" fill="var(--cf-accent)">codeflow</tspan></text></a></g></svg>