<svg xmlns="http://www.w3.org/2000/svg" width="720" height="140" viewBox="0 0 720 140" font-family="-apple-system,BlinkMacSystemFont,Segoe UI,Helvetica,Arial,sans-serif"><style>svg{--cf-bg:#0d1117;--cf-bg-alt:#161b22;--cf-border:#21262d;--cf-text:#e6edf3;--cf-text-dim:#8b949e;--cf-text-faint:#6e7681;--cf-accent:#5eead4;--cf-accent-soft:rgba(94,234,212,0.16);--cf-green:#3fb950;--cf-amber:#d29922;--cf-red:#f85149;--cf-spark:#5eead4;--cf-spark-bg:rgba(94,234,212,0.18)}@media (prefers-color-scheme: light){svg{--cf-bg:#ffffff;--cf-bg-alt:#f6f8fa;--cf-border:#d0d7de;--cf-text:#1f2328;--cf-text-dim:#656d76;--cf-text-faint:#8c959f;--cf-accent:#0d9488;--cf-accent-soft:rgba(13,148,136,0.12);--cf-green:#1a7f37;--cf-amber:#9a6700;--cf-red:#cf222e;--cf-spark:#0d9488;--cf-spark-bg:rgba(13,148,136,0.12)}}</style><rect width="720" height="140" rx="12" fill="var(--cf-bg)" stroke="var(--cf-border)"/><text x="18" y="26" font-size="13" font-weight="600" fill="var(--cf-text)">braedonsaunders/beaconhs</text><text x="702" y="26" text-anchor="end" font-size="10" fill="var(--cf-text-faint)" font-family="ui-monospace,SFMono-Regular,Menlo,monospace">@ae4fecc</text><g transform="translate(18,46)"><text x="0" y="0" font-size="9" font-weight="600" fill="var(--cf-text-dim)" letter-spacing="0.8">FILES</text><text x="0" y="28" font-size="22" font-weight="700" fill="var(--cf-text)">1.4K</text><g transform="translate(0,40)"><svg width="64" height="14" viewBox="0 0 64 14" preserveAspectRatio="none"><path d="M0 14 L2.13 11.86 L4.27 10.31 L6.4 10.31 L8.53 10.31 L10.67 9.92 L12.8 9.92 L14.93 9.92 L17.07 9.92 L19.2 9.92 L21.33 9.92 L23.47 9.92 L25.6 9.72 L27.73 9.92 L29.87 7.97 L32 7.39 L34.13 1.94 L36.27 1.94 L38.4 0 L40.53 0.78 L42.67 0.58 L44.8 0.58 L46.93 3.31 L49.07 3.31 L51.2 2.53 L53.33 2.14 L55.47 1.56 L57.6 1.75 L59.73 1.75 L61.87 1.75 L64 1.75 L64 14 L0 14 Z" fill="var(--cf-spark-bg)" stroke="none"/><path d="M0 14 L2.13 11.86 L4.27 10.31 L6.4 10.31 L8.53 10.31 L10.67 9.92 L12.8 9.92 L14.93 9.92 L17.07 9.92 L19.2 9.92 L21.33 9.92 L23.47 9.92 L25.6 9.72 L27.73 9.92 L29.87 7.97 L32 7.39 L34.13 1.94 L36.27 1.94 L38.4 0 L40.53 0.78 L42.67 0.58 L44.8 0.58 L46.93 3.31 L49.07 3.31 L51.2 2.53 L53.33 2.14 L55.47 1.56 L57.6 1.75 L59.73 1.75 L61.87 1.75 L64 1.75" fill="none" stroke="var(--cf-spark)" stroke-width="1.4" stroke-linecap="round" stroke-linejoin="round"/></svg></g></g><g transform="translate(154.8,46)"><text x="0" y="0" font-size="9" font-weight="600" fill="var(--cf-text-dim)" letter-spacing="0.8">FNS</text><text x="0" y="28" font-size="22" font-weight="700" fill="var(--cf-text)">4.7K</text><g transform="translate(0,40)"><svg width="64" height="14" viewBox="0 0 64 14" preserveAspectRatio="none"><path d="M0 11.48 L2.13 14 L4.27 10.78 L6.4 10.78 L8.53 10.78 L10.67 10.58 L12.8 10.58 L14.93 10.58 L17.07 10.58 L19.2 10.47 L21.33 10.47 L23.47 10.47 L25.6 10.47 L27.73 11.68 L29.87 10.37 L32 8.86 L34.13 2.72 L36.27 2.72 L38.4 0 L40.53 4.23 L42.67 3.93 L44.8 3.83 L46.93 11.38 L49.07 11.38 L51.2 10.78 L53.33 10.17 L55.47 8.96 L57.6 9.06 L59.73 9.06 L61.87 8.76 L64 8.76 L64 14 L0 14 Z" fill="var(--cf-spark-bg)" stroke="none"/><path d="M0 11.48 L2.13 14 L4.27 10.78 L6.4 10.78 L8.53 10.78 L10.67 10.58 L12.8 10.58 L14.93 10.58 L17.07 10.58 L19.2 10.47 L21.33 10.47 L23.47 10.47 L25.6 10.47 L27.73 11.68 L29.87 10.37 L32 8.86 L34.13 2.72 L36.27 2.72 L38.4 0 L40.53 4.23 L42.67 3.93 L44.8 3.83 L46.93 11.38 L49.07 11.38 L51.2 10.78 L53.33 10.17 L55.47 8.96 L57.6 9.06 L59.73 9.06 L61.87 8.76 L64 8.76" fill="none" stroke="var(--cf-spark)" stroke-width="1.4" stroke-linecap="round" stroke-linejoin="round"/></svg></g></g><g transform="translate(291.6,46)"><text x="0" y="0" font-size="9" font-weight="600" fill="var(--cf-text-dim)" letter-spacing="0.8">LOC</text><text x="0" y="28" font-size="22" font-weight="700" fill="var(--cf-text)">455.6K</text><g transform="translate(0,40)"><svg width="64" height="14" viewBox="0 0 64 14" preserveAspectRatio="none"><path d="M0 14 L2.13 10.86 L4.27 7.82 L6.4 7.81 L8.53 7.8 L10.67 7.49 L12.8 7.5 L14.93 7.5 L17.07 7.47 L19.2 7.11 L21.33 7.08 L23.47 7.08 L25.6 7.12 L27.73 7.78 L29.87 7.22 L32 6.91 L34.13 1.36 L36.27 1.37 L38.4 0 L40.53 1.91 L42.67 1.81 L44.8 1.71 L46.93 5.44 L49.07 5.44 L51.2 4.76 L53.33 4.44 L55.47 3.99 L57.6 3.92 L59.73 3.89 L61.87 3.73 L64 3.72 L64 14 L0 14 Z" fill="var(--cf-spark-bg)" stroke="none"/><path d="M0 14 L2.13 10.86 L4.27 7.82 L6.4 7.81 L8.53 7.8 L10.67 7.49 L12.8 7.5 L14.93 7.5 L17.07 7.47 L19.2 7.11 L21.33 7.08 L23.47 7.08 L25.6 7.12 L27.73 7.78 L29.87 7.22 L32 6.91 L34.13 1.36 L36.27 1.37 L38.4 0 L40.53 1.91 L42.67 1.81 L44.8 1.71 L46.93 5.44 L49.07 5.44 L51.2 4.76 L53.33 4.44 L55.47 3.99 L57.6 3.92 L59.73 3.89 L61.87 3.73 L64 3.72" fill="none" stroke="var(--cf-spark)" stroke-width="1.4" stroke-linecap="round" stroke-linejoin="round"/></svg></g></g><g transform="translate(428.40000000000003,46)"><text x="0" y="0" font-size="9" font-weight="600" fill="var(--cf-text-dim)" letter-spacing="0.8">LANGS</text><text x="0" y="28" font-size="22" font-weight="700" fill="var(--cf-text)">17</text><g transform="translate(0,40)"><svg width="64" height="14" viewBox="0 0 64 14" preserveAspectRatio="none"><path d="M0 7 L2.13 7 L4.27 7 L6.4 7 L8.53 7 L10.67 7 L12.8 7 L14.93 7 L17.07 7 L19.2 7 L21.33 7 L23.47 7 L25.6 7 L27.73 7 L29.87 7 L32 7 L34.13 7 L36.27 7 L38.4 7 L40.53 7 L42.67 7 L44.8 7 L46.93 7 L49.07 7 L51.2 7 L53.33 7 L55.47 7 L57.6 7 L59.73 7 L61.87 7 L64 7 L64 14 L0 14 Z" fill="var(--cf-spark-bg)" stroke="none"/><path d="M0 7 L2.13 7 L4.27 7 L6.4 7 L8.53 7 L10.67 7 L12.8 7 L14.93 7 L17.07 7 L19.2 7 L21.33 7 L23.47 7 L25.6 7 L27.73 7 L29.87 7 L32 7 L34.13 7 L36.27 7 L38.4 7 L40.53 7 L42.67 7 L44.8 7 L46.93 7 L49.07 7 L51.2 7 L53.33 7 L55.47 7 L57.6 7 L59.73 7 L61.87 7 L64 7" fill="none" stroke="var(--cf-spark)" stroke-width="1.4" stroke-linecap="round" stroke-linejoin="round"/></svg></g></g><g transform="translate(565.2,46)"><text x="0" y="0" font-size="9" font-weight="600" fill="var(--cf-text-dim)" letter-spacing="0.8">TESTS</text><text x="0" y="28" font-size="22" font-weight="700" fill="var(--cf-text)">11</text><g transform="translate(0,40)"><svg width="64" height="14" viewBox="0 0 64 14" preserveAspectRatio="none"><path d="M0 14 L2.13 14 L4.27 14 L6.4 14 L8.53 14 L10.67 14 L12.8 14 L14.93 14 L17.07 14 L19.2 14 L21.33 14 L23.47 14 L25.6 14 L27.73 14 L29.87 14 L32 14 L34.13 14 L36.27 14 L38.4 14 L40.53 14 L42.67 14 L44.8 14 L46.93 14 L49.07 14 L51.2 14 L53.33 0 L55.47 0 L57.6 0 L59.73 0 L61.87 0 L64 0 L64 14 L0 14 Z" fill="var(--cf-spark-bg)" stroke="none"/><path d="M0 14 L2.13 14 L4.27 14 L6.4 14 L8.53 14 L10.67 14 L12.8 14 L14.93 14 L17.07 14 L19.2 14 L21.33 14 L23.47 14 L25.6 14 L27.73 14 L29.87 14 L32 14 L34.13 14 L36.27 14 L38.4 14 L40.53 14 L42.67 14 L44.8 14 L46.93 14 L49.07 14 L51.2 14 L53.33 0 L55.47 0 L57.6 0 L59.73 0 L61.87 0 L64 0" fill="none" stroke="var(--cf-spark)" stroke-width="1.4" stroke-linecap="round" stroke-linejoin="round"/></svg></g></g><a href="https://github.com/braedonsaunders/codeflow" target="_blank"><text x="702" y="130" text-anchor="end" font-size="9" fill="var(--cf-text-faint)">powered by <tspan font-weight="600" fill="var(--cf-accent)">codeflow</tspan></text></a></svg>