<svg xmlns="http://www.w3.org/2000/svg" width="720" height="140" viewBox="0 0 720 140" font-family="-apple-system,BlinkMacSystemFont,Segoe UI,Helvetica,Arial,sans-serif"><style>svg{--cf-bg:#0d1117;--cf-bg-alt:#161b22;--cf-border:#21262d;--cf-text:#e6edf3;--cf-text-dim:#8b949e;--cf-text-faint:#6e7681;--cf-accent:#5eead4;--cf-accent-soft:rgba(94,234,212,0.16);--cf-green:#3fb950;--cf-amber:#d29922;--cf-red:#f85149;--cf-spark:#5eead4;--cf-spark-bg:rgba(94,234,212,0.18)}@media (prefers-color-scheme: light){svg{--cf-bg:#ffffff;--cf-bg-alt:#f6f8fa;--cf-border:#d0d7de;--cf-text:#1f2328;--cf-text-dim:#656d76;--cf-text-faint:#8c959f;--cf-accent:#0d9488;--cf-accent-soft:rgba(13,148,136,0.12);--cf-green:#1a7f37;--cf-amber:#9a6700;--cf-red:#cf222e;--cf-spark:#0d9488;--cf-spark-bg:rgba(13,148,136,0.12)}}</style><rect width="720" height="140" rx="12" fill="var(--cf-bg)" stroke="var(--cf-border)"/><text x="18" y="26" font-size="13" font-weight="600" fill="var(--cf-text)">braedonsaunders/beaconhs</text><text x="702" y="26" text-anchor="end" font-size="10" fill="var(--cf-text-faint)" font-family="ui-monospace,SFMono-Regular,Menlo,monospace">@bc2e83d</text><g transform="translate(18,46)"><text x="0" y="0" font-size="9" font-weight="600" fill="var(--cf-text-dim)" letter-spacing="0.8">FILES</text><text x="0" y="28" font-size="22" font-weight="700" fill="var(--cf-text)">998</text><g transform="translate(0,40)"><svg width="64" height="14" viewBox="0 0 64 14" preserveAspectRatio="none"><path d="M0 11.98 L2.91 11.98 L5.82 11.98 L8.73 11.2 L11.64 12.6 L14.55 12.6 L17.45 12.13 L20.36 14 L23.27 13.22 L26.18 13.22 L29.09 13.22 L32 13.22 L34.91 13.07 L37.82 12.91 L40.73 12.6 L43.64 12.29 L46.55 12.29 L49.45 12.29 L52.36 9.18 L55.27 9.18 L58.18 9.18 L61.09 9.64 L64 0 L64 14 L0 14 Z" fill="var(--cf-spark-bg)" stroke="none"/><path d="M0 11.98 L2.91 11.98 L5.82 11.98 L8.73 11.2 L11.64 12.6 L14.55 12.6 L17.45 12.13 L20.36 14 L23.27 13.22 L26.18 13.22 L29.09 13.22 L32 13.22 L34.91 13.07 L37.82 12.91 L40.73 12.6 L43.64 12.29 L46.55 12.29 L49.45 12.29 L52.36 9.18 L55.27 9.18 L58.18 9.18 L61.09 9.64 L64 0" fill="none" stroke="var(--cf-spark)" stroke-width="1.4" stroke-linecap="round" stroke-linejoin="round"/></svg></g></g><g transform="translate(154.8,46)"><text x="0" y="0" font-size="9" font-weight="600" fill="var(--cf-text-dim)" letter-spacing="0.8">FNS</text><text x="0" y="28" font-size="22" font-weight="700" fill="var(--cf-text)">3.1K</text><g transform="translate(0,40)"><svg width="64" height="14" viewBox="0 0 64 14" preserveAspectRatio="none"><path d="M0 14 L2.91 14 L5.82 14 L8.73 10.32 L11.64 11.77 L14.55 11.77 L17.45 11.6 L20.36 12.85 L23.27 12.48 L26.18 12.48 L29.09 12.48 L32 12.48 L34.91 12.45 L37.82 12.38 L40.73 12.28 L43.64 12.21 L46.55 12.21 L49.45 12.21 L52.36 8.53 L55.27 8.53 L58.18 8.57 L61.09 8.47 L64 0 L64 14 L0 14 Z" fill="var(--cf-spark-bg)" stroke="none"/><path d="M0 14 L2.91 14 L5.82 14 L8.73 10.32 L11.64 11.77 L14.55 11.77 L17.45 11.6 L20.36 12.85 L23.27 12.48 L26.18 12.48 L29.09 12.48 L32 12.48 L34.91 12.45 L37.82 12.38 L40.73 12.28 L43.64 12.21 L46.55 12.21 L49.45 12.21 L52.36 8.53 L55.27 8.53 L58.18 8.57 L61.09 8.47 L64 0" fill="none" stroke="var(--cf-spark)" stroke-width="1.4" stroke-linecap="round" stroke-linejoin="round"/></svg></g></g><g transform="translate(291.6,46)"><text x="0" y="0" font-size="9" font-weight="600" fill="var(--cf-text-dim)" letter-spacing="0.8">LOC</text><text x="0" y="28" font-size="22" font-weight="700" fill="var(--cf-text)">342.2K</text><g transform="translate(0,40)"><svg width="64" height="14" viewBox="0 0 64 14" preserveAspectRatio="none"><path d="M0 14 L2.91 14 L5.82 14 L8.73 13.4 L11.64 9.86 L14.55 9.86 L17.45 9.8 L20.36 10.2 L23.27 10.15 L26.18 10.15 L29.09 10.13 L32 10.13 L34.91 10.13 L37.82 10.12 L40.73 10.11 L43.64 10.12 L46.55 10.11 L49.45 10.11 L52.36 1.3 L55.27 1.3 L58.18 1.3 L61.09 1.35 L64 0 L64 14 L0 14 Z" fill="var(--cf-spark-bg)" stroke="none"/><path d="M0 14 L2.91 14 L5.82 14 L8.73 13.4 L11.64 9.86 L14.55 9.86 L17.45 9.8 L20.36 10.2 L23.27 10.15 L26.18 10.15 L29.09 10.13 L32 10.13 L34.91 10.13 L37.82 10.12 L40.73 10.11 L43.64 10.12 L46.55 10.11 L49.45 10.11 L52.36 1.3 L55.27 1.3 L58.18 1.3 L61.09 1.35 L64 0" fill="none" stroke="var(--cf-spark)" stroke-width="1.4" stroke-linecap="round" stroke-linejoin="round"/></svg></g></g><g transform="translate(428.40000000000003,46)"><text x="0" y="0" font-size="9" font-weight="600" fill="var(--cf-text-dim)" letter-spacing="0.8">LANGS</text><text x="0" y="28" font-size="22" font-weight="700" fill="var(--cf-text)">17</text><g transform="translate(0,40)"><svg width="64" height="14" viewBox="0 0 64 14" preserveAspectRatio="none"><path d="M0 7 L2.91 7 L5.82 7 L8.73 7 L11.64 7 L14.55 7 L17.45 7 L20.36 7 L23.27 7 L26.18 7 L29.09 7 L32 7 L34.91 7 L37.82 7 L40.73 7 L43.64 7 L46.55 7 L49.45 7 L52.36 7 L55.27 7 L58.18 7 L61.09 7 L64 7 L64 14 L0 14 Z" fill="var(--cf-spark-bg)" stroke="none"/><path d="M0 7 L2.91 7 L5.82 7 L8.73 7 L11.64 7 L14.55 7 L17.45 7 L20.36 7 L23.27 7 L26.18 7 L29.09 7 L32 7 L34.91 7 L37.82 7 L40.73 7 L43.64 7 L46.55 7 L49.45 7 L52.36 7 L55.27 7 L58.18 7 L61.09 7 L64 7" fill="none" stroke="var(--cf-spark)" stroke-width="1.4" stroke-linecap="round" stroke-linejoin="round"/></svg></g></g><g transform="translate(565.2,46)"><text x="0" y="0" font-size="9" font-weight="600" fill="var(--cf-text-dim)" letter-spacing="0.8">TESTS</text><text x="0" y="28" font-size="22" font-weight="700" fill="var(--cf-text)">4</text><g transform="translate(0,40)"><svg width="64" height="14" viewBox="0 0 64 14" preserveAspectRatio="none"><path d="M0 14 L2.91 14 L5.82 14 L8.73 14 L11.64 14 L14.55 14 L17.45 14 L20.36 14 L23.27 14 L26.18 14 L29.09 14 L32 14 L34.91 14 L37.82 14 L40.73 14 L43.64 14 L46.55 14 L49.45 14 L52.36 14 L55.27 14 L58.18 14 L61.09 0 L64 0 L64 14 L0 14 Z" fill="var(--cf-spark-bg)" stroke="none"/><path d="M0 14 L2.91 14 L5.82 14 L8.73 14 L11.64 14 L14.55 14 L17.45 14 L20.36 14 L23.27 14 L26.18 14 L29.09 14 L32 14 L34.91 14 L37.82 14 L40.73 14 L43.64 14 L46.55 14 L49.45 14 L52.36 14 L55.27 14 L58.18 14 L61.09 0 L64 0" fill="none" stroke="var(--cf-spark)" stroke-width="1.4" stroke-linecap="round" stroke-linejoin="round"/></svg></g></g><a href="https://github.com/braedonsaunders/codeflow" target="_blank"><text x="702" y="130" text-anchor="end" font-size="9" fill="var(--cf-text-faint)">powered by <tspan font-weight="600" fill="var(--cf-accent)">codeflow</tspan></text></a></svg>