<svg xmlns="http://www.w3.org/2000/svg" width="720" height="140" viewBox="0 0 720 140" font-family="-apple-system,BlinkMacSystemFont,Segoe UI,Helvetica,Arial,sans-serif"><style>svg{--cf-bg:#0d1117;--cf-bg-alt:#161b22;--cf-border:#21262d;--cf-text:#e6edf3;--cf-text-dim:#8b949e;--cf-text-faint:#6e7681;--cf-accent:#5eead4;--cf-accent-soft:rgba(94,234,212,0.16);--cf-green:#3fb950;--cf-amber:#d29922;--cf-red:#f85149;--cf-spark:#5eead4;--cf-spark-bg:rgba(94,234,212,0.18)}@media (prefers-color-scheme: light){svg{--cf-bg:#ffffff;--cf-bg-alt:#f6f8fa;--cf-border:#d0d7de;--cf-text:#1f2328;--cf-text-dim:#656d76;--cf-text-faint:#8c959f;--cf-accent:#0d9488;--cf-accent-soft:rgba(13,148,136,0.12);--cf-green:#1a7f37;--cf-amber:#9a6700;--cf-red:#cf222e;--cf-spark:#0d9488;--cf-spark-bg:rgba(13,148,136,0.12)}}</style><rect width="720" height="140" rx="12" fill="var(--cf-bg)" stroke="var(--cf-border)"/><text x="18" y="26" font-size="13" font-weight="600" fill="var(--cf-text)">braedonsaunders/beaconhs</text><text x="702" y="26" text-anchor="end" font-size="10" fill="var(--cf-text-faint)" font-family="ui-monospace,SFMono-Regular,Menlo,monospace">@0ef1b7c</text><g transform="translate(18,46)"><text x="0" y="0" font-size="9" font-weight="600" fill="var(--cf-text-dim)" letter-spacing="0.8">FILES</text><text x="0" y="28" font-size="22" font-weight="700" fill="var(--cf-text)">999</text><g transform="translate(0,40)"><svg width="64" height="14" viewBox="0 0 64 14" preserveAspectRatio="none"><path d="M0 12 L2.56 12 L5.12 12 L7.68 11.23 L10.24 12.62 L12.8 12.62 L15.36 12.15 L17.92 14 L20.48 13.23 L23.04 13.23 L25.6 13.23 L28.16 13.23 L30.72 13.08 L33.28 12.92 L35.84 12.62 L38.4 12.31 L40.96 12.31 L43.52 12.31 L46.08 9.23 L48.64 9.23 L51.2 9.23 L53.76 9.69 L56.32 0.15 L58.88 0 L61.44 0 L64 0 L64 14 L0 14 Z" fill="var(--cf-spark-bg)" stroke="none"/><path d="M0 12 L2.56 12 L5.12 12 L7.68 11.23 L10.24 12.62 L12.8 12.62 L15.36 12.15 L17.92 14 L20.48 13.23 L23.04 13.23 L25.6 13.23 L28.16 13.23 L30.72 13.08 L33.28 12.92 L35.84 12.62 L38.4 12.31 L40.96 12.31 L43.52 12.31 L46.08 9.23 L48.64 9.23 L51.2 9.23 L53.76 9.69 L56.32 0.15 L58.88 0 L61.44 0 L64 0" fill="none" stroke="var(--cf-spark)" stroke-width="1.4" stroke-linecap="round" stroke-linejoin="round"/></svg></g></g><g transform="translate(154.8,46)"><text x="0" y="0" font-size="9" font-weight="600" fill="var(--cf-text-dim)" letter-spacing="0.8">FNS</text><text x="0" y="28" font-size="22" font-weight="700" fill="var(--cf-text)">3.1K</text><g transform="translate(0,40)"><svg width="64" height="14" viewBox="0 0 64 14" preserveAspectRatio="none"><path d="M0 14 L2.56 14 L5.12 14 L7.68 10.38 L10.24 11.81 L12.8 11.81 L15.36 11.64 L17.92 12.87 L20.48 12.5 L23.04 12.5 L25.6 12.5 L28.16 12.5 L30.72 12.47 L33.28 12.4 L35.84 12.3 L38.4 12.24 L40.96 12.24 L43.52 12.24 L46.08 8.61 L48.64 8.61 L51.2 8.65 L53.76 8.55 L56.32 0.2 L58.88 0.17 L61.44 0.17 L64 0 L64 14 L0 14 Z" fill="var(--cf-spark-bg)" stroke="none"/><path d="M0 14 L2.56 14 L5.12 14 L7.68 10.38 L10.24 11.81 L12.8 11.81 L15.36 11.64 L17.92 12.87 L20.48 12.5 L23.04 12.5 L25.6 12.5 L28.16 12.5 L30.72 12.47 L33.28 12.4 L35.84 12.3 L38.4 12.24 L40.96 12.24 L43.52 12.24 L46.08 8.61 L48.64 8.61 L51.2 8.65 L53.76 8.55 L56.32 0.2 L58.88 0.17 L61.44 0.17 L64 0" fill="none" stroke="var(--cf-spark)" stroke-width="1.4" stroke-linecap="round" stroke-linejoin="round"/></svg></g></g><g transform="translate(291.6,46)"><text x="0" y="0" font-size="9" font-weight="600" fill="var(--cf-text-dim)" letter-spacing="0.8">LOC</text><text x="0" y="28" font-size="22" font-weight="700" fill="var(--cf-text)">342.6K</text><g transform="translate(0,40)"><svg width="64" height="14" viewBox="0 0 64 14" preserveAspectRatio="none"><path d="M0 14 L2.56 14 L5.12 14 L7.68 13.4 L10.24 9.88 L12.8 9.88 L15.36 9.82 L17.92 10.21 L20.48 10.16 L23.04 10.16 L25.6 10.14 L28.16 10.14 L30.72 10.14 L33.28 10.14 L35.84 10.12 L38.4 10.13 L40.96 10.12 L43.52 10.12 L46.08 1.34 L48.64 1.34 L51.2 1.34 L53.76 1.4 L56.32 0.05 L58.88 0.03 L61.44 0.03 L64 0 L64 14 L0 14 Z" fill="var(--cf-spark-bg)" stroke="none"/><path d="M0 14 L2.56 14 L5.12 14 L7.68 13.4 L10.24 9.88 L12.8 9.88 L15.36 9.82 L17.92 10.21 L20.48 10.16 L23.04 10.16 L25.6 10.14 L28.16 10.14 L30.72 10.14 L33.28 10.14 L35.84 10.12 L38.4 10.13 L40.96 10.12 L43.52 10.12 L46.08 1.34 L48.64 1.34 L51.2 1.34 L53.76 1.4 L56.32 0.05 L58.88 0.03 L61.44 0.03 L64 0" fill="none" stroke="var(--cf-spark)" stroke-width="1.4" stroke-linecap="round" stroke-linejoin="round"/></svg></g></g><g transform="translate(428.40000000000003,46)"><text x="0" y="0" font-size="9" font-weight="600" fill="var(--cf-text-dim)" letter-spacing="0.8">LANGS</text><text x="0" y="28" font-size="22" font-weight="700" fill="var(--cf-text)">17</text><g transform="translate(0,40)"><svg width="64" height="14" viewBox="0 0 64 14" preserveAspectRatio="none"><path d="M0 7 L2.56 7 L5.12 7 L7.68 7 L10.24 7 L12.8 7 L15.36 7 L17.92 7 L20.48 7 L23.04 7 L25.6 7 L28.16 7 L30.72 7 L33.28 7 L35.84 7 L38.4 7 L40.96 7 L43.52 7 L46.08 7 L48.64 7 L51.2 7 L53.76 7 L56.32 7 L58.88 7 L61.44 7 L64 7 L64 14 L0 14 Z" fill="var(--cf-spark-bg)" stroke="none"/><path d="M0 7 L2.56 7 L5.12 7 L7.68 7 L10.24 7 L12.8 7 L15.36 7 L17.92 7 L20.48 7 L23.04 7 L25.6 7 L28.16 7 L30.72 7 L33.28 7 L35.84 7 L38.4 7 L40.96 7 L43.52 7 L46.08 7 L48.64 7 L51.2 7 L53.76 7 L56.32 7 L58.88 7 L61.44 7 L64 7" fill="none" stroke="var(--cf-spark)" stroke-width="1.4" stroke-linecap="round" stroke-linejoin="round"/></svg></g></g><g transform="translate(565.2,46)"><text x="0" y="0" font-size="9" font-weight="600" fill="var(--cf-text-dim)" letter-spacing="0.8">TESTS</text><text x="0" y="28" font-size="22" font-weight="700" fill="var(--cf-text)">4</text><g transform="translate(0,40)"><svg width="64" height="14" viewBox="0 0 64 14" preserveAspectRatio="none"><path d="M0 14 L2.56 14 L5.12 14 L7.68 14 L10.24 14 L12.8 14 L15.36 14 L17.92 14 L20.48 14 L23.04 14 L25.6 14 L28.16 14 L30.72 14 L33.28 14 L35.84 14 L38.4 14 L40.96 14 L43.52 14 L46.08 14 L48.64 14 L51.2 14 L53.76 0 L56.32 0 L58.88 0 L61.44 0 L64 0 L64 14 L0 14 Z" fill="var(--cf-spark-bg)" stroke="none"/><path d="M0 14 L2.56 14 L5.12 14 L7.68 14 L10.24 14 L12.8 14 L15.36 14 L17.92 14 L20.48 14 L23.04 14 L25.6 14 L28.16 14 L30.72 14 L33.28 14 L35.84 14 L38.4 14 L40.96 14 L43.52 14 L46.08 14 L48.64 14 L51.2 14 L53.76 0 L56.32 0 L58.88 0 L61.44 0 L64 0" fill="none" stroke="var(--cf-spark)" stroke-width="1.4" stroke-linecap="round" stroke-linejoin="round"/></svg></g></g><a href="https://github.com/braedonsaunders/codeflow" target="_blank"><text x="702" y="130" text-anchor="end" font-size="9" fill="var(--cf-text-faint)">powered by <tspan font-weight="600" fill="var(--cf-accent)">codeflow</tspan></text></a></svg>