<svg xmlns="http://www.w3.org/2000/svg" width="720" height="318" viewBox="0 0 720 318" font-family="-apple-system,BlinkMacSystemFont,Segoe UI,Helvetica,Arial,sans-serif"><style>svg{--cf-bg:#0d1117;--cf-bg-alt:#161b22;--cf-border:#21262d;--cf-text:#e6edf3;--cf-text-dim:#8b949e;--cf-text-faint:#6e7681;--cf-accent:#5eead4;--cf-accent-soft:rgba(94,234,212,0.16);--cf-green:#3fb950;--cf-amber:#d29922;--cf-red:#f85149;--cf-spark:#5eead4;--cf-spark-bg:rgba(94,234,212,0.18)}@media (prefers-color-scheme: light){svg{--cf-bg:#ffffff;--cf-bg-alt:#f6f8fa;--cf-border:#d0d7de;--cf-text:#1f2328;--cf-text-dim:#656d76;--cf-text-faint:#8c959f;--cf-accent:#0d9488;--cf-accent-soft:rgba(13,148,136,0.12);--cf-green:#1a7f37;--cf-amber:#9a6700;--cf-red:#cf222e;--cf-spark:#0d9488;--cf-spark-bg:rgba(13,148,136,0.12)}}</style><rect width="720" height="318" rx="14" fill="var(--cf-bg)" stroke="var(--cf-border)"/><g transform="translate(22,26)"><text x="0" y="0" font-size="18" font-weight="700" fill="var(--cf-text)">braedonsaunders/beaconhs</text><text x="676" y="0" text-anchor="end" font-size="11" fill="var(--cf-text-faint)" font-family="ui-monospace,SFMono-Regular,Menlo,monospace">@d9a92db</text></g><g transform="translate(22,60)"><rect width="676" height="110" rx="10" fill="var(--cf-bg-alt)" stroke="var(--cf-border)"/><text x="16" y="22" font-size="11" font-weight="500" fill="var(--cf-text-dim)" letter-spacing="0.6">HEALTH</text><text x="16" y="78" font-size="64" font-weight="700" fill="var(--cf-amber)" font-family="ui-monospace,SFMono-Regular,Menlo,monospace">D</text><text x="660" y="78" text-anchor="end" font-size="22" font-weight="600" fill="var(--cf-text)">66</text><text x="660" y="94" text-anchor="end" font-size="10" fill="var(--cf-text-faint)" letter-spacing="0.6">SCORE / 100</text></g><g transform="translate(22,184)"><rect width="676" height="88" rx="10" fill="var(--cf-bg-alt)" stroke="var(--cf-border)"/><g transform="translate(16,16)"><text x="0" y="0" font-size="10" font-weight="500" fill="var(--cf-text-dim)" letter-spacing="0.6">FILES</text><text x="0" y="28" font-size="22" font-weight="700" fill="var(--cf-text)">703</text><g transform="translate(0,38)"><svg width="80" height="18" viewBox="0 0 80 18" preserveAspectRatio="none"><path d="M0 18 L4.21 14.48 L8.42 14.48 L12.63 12.18 L16.84 9.61 L21.05 9.34 L25.26 9.2 L29.47 9.2 L33.68 6.63 L37.89 5.41 L42.11 5.41 L46.32 5.41 L50.53 5.41 L54.74 5.41 L58.95 4.74 L63.16 3.65 L67.37 2.44 L71.58 0 L75.79 1.62 L80 0.95 L80 18 L0 18 Z" fill="var(--cf-spark-bg)" stroke="none"/><path d="M0 18 L4.21 14.48 L8.42 14.48 L12.63 12.18 L16.84 9.61 L21.05 9.34 L25.26 9.2 L29.47 9.2 L33.68 6.63 L37.89 5.41 L42.11 5.41 L46.32 5.41 L50.53 5.41 L54.74 5.41 L58.95 4.74 L63.16 3.65 L67.37 2.44 L71.58 0 L75.79 1.62 L80 0.95" fill="none" stroke="var(--cf-spark)" stroke-width="1.4" stroke-linecap="round" stroke-linejoin="round"/></svg></g></g><g transform="translate(177,16)"><text x="0" y="0" font-size="10" font-weight="500" fill="var(--cf-text-dim)" letter-spacing="0.6">FNS</text><text x="0" y="28" font-size="22" font-weight="700" fill="var(--cf-text)">1.9K</text><g transform="translate(0,38)"><svg width="80" height="18" viewBox="0 0 80 18" preserveAspectRatio="none"><path d="M0 18 L4.21 13.33 L8.42 13.26 L12.63 11.74 L16.84 8.4 L21.05 8.13 L25.26 7.5 L29.47 7.5 L33.68 6.1 L37.89 5.71 L42.11 5.71 L46.32 5.71 L50.53 5.71 L54.74 5.68 L58.95 5.17 L63.16 3.5 L67.37 2.1 L71.58 0 L75.79 3.34 L80 2.1 L80 18 L0 18 Z" fill="var(--cf-spark-bg)" stroke="none"/><path d="M0 18 L4.21 13.33 L8.42 13.26 L12.63 11.74 L16.84 8.4 L21.05 8.13 L25.26 7.5 L29.47 7.5 L33.68 6.1 L37.89 5.71 L42.11 5.71 L46.32 5.71 L50.53 5.71 L54.74 5.68 L58.95 5.17 L63.16 3.5 L67.37 2.1 L71.58 0 L75.79 3.34 L80 2.1" fill="none" stroke="var(--cf-spark)" stroke-width="1.4" stroke-linecap="round" stroke-linejoin="round"/></svg></g></g><g transform="translate(338,16)"><text x="0" y="0" font-size="10" font-weight="500" fill="var(--cf-text-dim)" letter-spacing="0.6">LOC</text><text x="0" y="28" font-size="22" font-weight="700" fill="var(--cf-text)">372.4K</text><g transform="translate(0,38)"><svg width="80" height="18" viewBox="0 0 80 18" preserveAspectRatio="none"><path d="M0 18 L4.21 12.55 L8.42 12.53 L12.63 11.79 L16.84 11.18 L21.05 11.14 L25.26 10.84 L29.47 10.84 L33.68 10.53 L37.89 6.14 L42.11 6.13 L46.32 6.13 L50.53 6.13 L54.74 6.12 L58.95 5.9 L63.16 5.45 L67.37 4.99 L71.58 0 L75.79 0.71 L80 0.27 L80 18 L0 18 Z" fill="var(--cf-spark-bg)" stroke="none"/><path d="M0 18 L4.21 12.55 L8.42 12.53 L12.63 11.79 L16.84 11.18 L21.05 11.14 L25.26 10.84 L29.47 10.84 L33.68 10.53 L37.89 6.14 L42.11 6.13 L46.32 6.13 L50.53 6.13 L54.74 6.12 L58.95 5.9 L63.16 5.45 L67.37 4.99 L71.58 0 L75.79 0.71 L80 0.27" fill="none" stroke="var(--cf-spark)" stroke-width="1.4" stroke-linecap="round" stroke-linejoin="round"/></svg></g></g><g transform="translate(499,16)"><text x="0" y="0" font-size="10" font-weight="500" fill="var(--cf-text-dim)" letter-spacing="0.6">LANGS</text><text x="0" y="28" font-size="22" font-weight="700" fill="var(--cf-text)">15</text><g transform="translate(0,38)"><svg width="80" height="18" viewBox="0 0 80 18" preserveAspectRatio="none"><path d="M0 9 L4.21 9 L8.42 9 L12.63 9 L16.84 9 L21.05 9 L25.26 9 L29.47 9 L33.68 9 L37.89 9 L42.11 9 L46.32 9 L50.53 9 L54.74 9 L58.95 9 L63.16 9 L67.37 9 L71.58 9 L75.79 9 L80 9 L80 18 L0 18 Z" fill="var(--cf-spark-bg)" stroke="none"/><path d="M0 9 L4.21 9 L8.42 9 L12.63 9 L16.84 9 L21.05 9 L25.26 9 L29.47 9 L33.68 9 L37.89 9 L42.11 9 L46.32 9 L50.53 9 L54.74 9 L58.95 9 L63.16 9 L67.37 9 L71.58 9 L75.79 9 L80 9" fill="none" stroke="var(--cf-spark)" stroke-width="1.4" stroke-linecap="round" stroke-linejoin="round"/></svg></g></g></g><g transform="translate(22,304)"><text x="0" y="0" font-size="10" fill="var(--cf-text-faint)">updated 2026-05-20</text><a href="https://github.com/braedonsaunders/codeflow" target="_blank"><text x="676" y="0" text-anchor="end" font-size="10" fill="var(--cf-text-faint)">powered by <tspan font-weight="600" fill="var(--cf-accent)">codeflow</tspan></text></a></g></svg>