<svg xmlns="http://www.w3.org/2000/svg" width="720" height="140" viewBox="0 0 720 140" font-family="-apple-system,BlinkMacSystemFont,Segoe UI,Helvetica,Arial,sans-serif"><style>svg{--cf-bg:#0d1117;--cf-bg-alt:#161b22;--cf-border:#21262d;--cf-text:#e6edf3;--cf-text-dim:#8b949e;--cf-text-faint:#6e7681;--cf-accent:#5eead4;--cf-accent-soft:rgba(94,234,212,0.16);--cf-green:#3fb950;--cf-amber:#d29922;--cf-red:#f85149;--cf-spark:#5eead4;--cf-spark-bg:rgba(94,234,212,0.18)}@media (prefers-color-scheme: light){svg{--cf-bg:#ffffff;--cf-bg-alt:#f6f8fa;--cf-border:#d0d7de;--cf-text:#1f2328;--cf-text-dim:#656d76;--cf-text-faint:#8c959f;--cf-accent:#0d9488;--cf-accent-soft:rgba(13,148,136,0.12);--cf-green:#1a7f37;--cf-amber:#9a6700;--cf-red:#cf222e;--cf-spark:#0d9488;--cf-spark-bg:rgba(13,148,136,0.12)}}</style><rect width="720" height="140" rx="12" fill="var(--cf-bg)" stroke="var(--cf-border)"/><text x="18" y="26" font-size="13" font-weight="600" fill="var(--cf-text)">braedonsaunders/beaconhs</text><text x="702" y="26" text-anchor="end" font-size="10" fill="var(--cf-text-faint)" font-family="ui-monospace,SFMono-Regular,Menlo,monospace">@387c3c3</text><g transform="translate(18,46)"><text x="0" y="0" font-size="9" font-weight="600" fill="var(--cf-text-dim)" letter-spacing="0.8">FILES</text><text x="0" y="28" font-size="22" font-weight="700" fill="var(--cf-text)">999</text><g transform="translate(0,40)"><svg width="64" height="14" viewBox="0 0 64 14" preserveAspectRatio="none"><path d="M0 12 L2.67 12 L5.33 12 L8 11.23 L10.67 12.62 L13.33 12.62 L16 12.15 L18.67 14 L21.33 13.23 L24 13.23 L26.67 13.23 L29.33 13.23 L32 13.08 L34.67 12.92 L37.33 12.62 L40 12.31 L42.67 12.31 L45.33 12.31 L48 9.23 L50.67 9.23 L53.33 9.23 L56 9.69 L58.67 0.15 L61.33 0 L64 0 L64 14 L0 14 Z" fill="var(--cf-spark-bg)" stroke="none"/><path d="M0 12 L2.67 12 L5.33 12 L8 11.23 L10.67 12.62 L13.33 12.62 L16 12.15 L18.67 14 L21.33 13.23 L24 13.23 L26.67 13.23 L29.33 13.23 L32 13.08 L34.67 12.92 L37.33 12.62 L40 12.31 L42.67 12.31 L45.33 12.31 L48 9.23 L50.67 9.23 L53.33 9.23 L56 9.69 L58.67 0.15 L61.33 0 L64 0" fill="none" stroke="var(--cf-spark)" stroke-width="1.4" stroke-linecap="round" stroke-linejoin="round"/></svg></g></g><g transform="translate(154.8,46)"><text x="0" y="0" font-size="9" font-weight="600" fill="var(--cf-text-dim)" letter-spacing="0.8">FNS</text><text x="0" y="28" font-size="22" font-weight="700" fill="var(--cf-text)">3.1K</text><g transform="translate(0,40)"><svg width="64" height="14" viewBox="0 0 64 14" preserveAspectRatio="none"><path d="M0 14 L2.67 14 L5.33 14 L8 10.33 L10.67 11.78 L13.33 11.78 L16 11.61 L18.67 12.86 L21.33 12.49 L24 12.49 L26.67 12.49 L29.33 12.49 L32 12.45 L34.67 12.38 L37.33 12.28 L40 12.22 L42.67 12.22 L45.33 12.22 L48 8.55 L50.67 8.55 L53.33 8.58 L56 8.48 L58.67 0.03 L61.33 0 L64 0 L64 14 L0 14 Z" fill="var(--cf-spark-bg)" stroke="none"/><path d="M0 14 L2.67 14 L5.33 14 L8 10.33 L10.67 11.78 L13.33 11.78 L16 11.61 L18.67 12.86 L21.33 12.49 L24 12.49 L26.67 12.49 L29.33 12.49 L32 12.45 L34.67 12.38 L37.33 12.28 L40 12.22 L42.67 12.22 L45.33 12.22 L48 8.55 L50.67 8.55 L53.33 8.58 L56 8.48 L58.67 0.03 L61.33 0 L64 0" fill="none" stroke="var(--cf-spark)" stroke-width="1.4" stroke-linecap="round" stroke-linejoin="round"/></svg></g></g><g transform="translate(291.6,46)"><text x="0" y="0" font-size="9" font-weight="600" fill="var(--cf-text-dim)" letter-spacing="0.8">LOC</text><text x="0" y="28" font-size="22" font-weight="700" fill="var(--cf-text)">342.4K</text><g transform="translate(0,40)"><svg width="64" height="14" viewBox="0 0 64 14" preserveAspectRatio="none"><path d="M0 14 L2.67 14 L5.33 14 L8 13.4 L10.67 9.87 L13.33 9.87 L16 9.81 L18.67 10.21 L21.33 10.15 L24 10.15 L26.67 10.14 L29.33 10.14 L32 10.13 L34.67 10.13 L37.33 10.11 L40 10.13 L42.67 10.12 L45.33 10.12 L48 1.32 L50.67 1.32 L53.33 1.32 L56 1.37 L58.67 0.02 L61.33 0.01 L64 0 L64 14 L0 14 Z" fill="var(--cf-spark-bg)" stroke="none"/><path d="M0 14 L2.67 14 L5.33 14 L8 13.4 L10.67 9.87 L13.33 9.87 L16 9.81 L18.67 10.21 L21.33 10.15 L24 10.15 L26.67 10.14 L29.33 10.14 L32 10.13 L34.67 10.13 L37.33 10.11 L40 10.13 L42.67 10.12 L45.33 10.12 L48 1.32 L50.67 1.32 L53.33 1.32 L56 1.37 L58.67 0.02 L61.33 0.01 L64 0" fill="none" stroke="var(--cf-spark)" stroke-width="1.4" stroke-linecap="round" stroke-linejoin="round"/></svg></g></g><g transform="translate(428.40000000000003,46)"><text x="0" y="0" font-size="9" font-weight="600" fill="var(--cf-text-dim)" letter-spacing="0.8">LANGS</text><text x="0" y="28" font-size="22" font-weight="700" fill="var(--cf-text)">17</text><g transform="translate(0,40)"><svg width="64" height="14" viewBox="0 0 64 14" preserveAspectRatio="none"><path d="M0 7 L2.67 7 L5.33 7 L8 7 L10.67 7 L13.33 7 L16 7 L18.67 7 L21.33 7 L24 7 L26.67 7 L29.33 7 L32 7 L34.67 7 L37.33 7 L40 7 L42.67 7 L45.33 7 L48 7 L50.67 7 L53.33 7 L56 7 L58.67 7 L61.33 7 L64 7 L64 14 L0 14 Z" fill="var(--cf-spark-bg)" stroke="none"/><path d="M0 7 L2.67 7 L5.33 7 L8 7 L10.67 7 L13.33 7 L16 7 L18.67 7 L21.33 7 L24 7 L26.67 7 L29.33 7 L32 7 L34.67 7 L37.33 7 L40 7 L42.67 7 L45.33 7 L48 7 L50.67 7 L53.33 7 L56 7 L58.67 7 L61.33 7 L64 7" fill="none" stroke="var(--cf-spark)" stroke-width="1.4" stroke-linecap="round" stroke-linejoin="round"/></svg></g></g><g transform="translate(565.2,46)"><text x="0" y="0" font-size="9" font-weight="600" fill="var(--cf-text-dim)" letter-spacing="0.8">TESTS</text><text x="0" y="28" font-size="22" font-weight="700" fill="var(--cf-text)">4</text><g transform="translate(0,40)"><svg width="64" height="14" viewBox="0 0 64 14" preserveAspectRatio="none"><path d="M0 14 L2.67 14 L5.33 14 L8 14 L10.67 14 L13.33 14 L16 14 L18.67 14 L21.33 14 L24 14 L26.67 14 L29.33 14 L32 14 L34.67 14 L37.33 14 L40 14 L42.67 14 L45.33 14 L48 14 L50.67 14 L53.33 14 L56 0 L58.67 0 L61.33 0 L64 0 L64 14 L0 14 Z" fill="var(--cf-spark-bg)" stroke="none"/><path d="M0 14 L2.67 14 L5.33 14 L8 14 L10.67 14 L13.33 14 L16 14 L18.67 14 L21.33 14 L24 14 L26.67 14 L29.33 14 L32 14 L34.67 14 L37.33 14 L40 14 L42.67 14 L45.33 14 L48 14 L50.67 14 L53.33 14 L56 0 L58.67 0 L61.33 0 L64 0" fill="none" stroke="var(--cf-spark)" stroke-width="1.4" stroke-linecap="round" stroke-linejoin="round"/></svg></g></g><a href="https://github.com/braedonsaunders/codeflow" target="_blank"><text x="702" y="130" text-anchor="end" font-size="9" fill="var(--cf-text-faint)">powered by <tspan font-weight="600" fill="var(--cf-accent)">codeflow</tspan></text></a></svg>