<svg xmlns="http://www.w3.org/2000/svg" width="720" height="140" viewBox="0 0 720 140" font-family="-apple-system,BlinkMacSystemFont,Segoe UI,Helvetica,Arial,sans-serif"><style>svg{--cf-bg:#0d1117;--cf-bg-alt:#161b22;--cf-border:#21262d;--cf-text:#e6edf3;--cf-text-dim:#8b949e;--cf-text-faint:#6e7681;--cf-accent:#5eead4;--cf-accent-soft:rgba(94,234,212,0.16);--cf-green:#3fb950;--cf-amber:#d29922;--cf-red:#f85149;--cf-spark:#5eead4;--cf-spark-bg:rgba(94,234,212,0.18)}@media (prefers-color-scheme: light){svg{--cf-bg:#ffffff;--cf-bg-alt:#f6f8fa;--cf-border:#d0d7de;--cf-text:#1f2328;--cf-text-dim:#656d76;--cf-text-faint:#8c959f;--cf-accent:#0d9488;--cf-accent-soft:rgba(13,148,136,0.12);--cf-green:#1a7f37;--cf-amber:#9a6700;--cf-red:#cf222e;--cf-spark:#0d9488;--cf-spark-bg:rgba(13,148,136,0.12)}}</style><rect width="720" height="140" rx="12" fill="var(--cf-bg)" stroke="var(--cf-border)"/><text x="18" y="26" font-size="13" font-weight="600" fill="var(--cf-text)">braedonsaunders/beaconhs</text><text x="702" y="26" text-anchor="end" font-size="10" fill="var(--cf-text-faint)" font-family="ui-monospace,SFMono-Regular,Menlo,monospace">@2b10589</text><g transform="translate(18,46)"><text x="0" y="0" font-size="9" font-weight="600" fill="var(--cf-text-dim)" letter-spacing="0.8">FILES</text><text x="0" y="28" font-size="22" font-weight="700" fill="var(--cf-text)">1.4K</text><g transform="translate(0,40)"><svg width="64" height="14" viewBox="0 0 64 14" preserveAspectRatio="none"><path d="M0 14 L2.13 13.35 L4.27 7.32 L6.4 7.32 L8.53 5.17 L10.67 6.03 L12.8 5.82 L14.93 5.82 L17.07 8.83 L19.2 8.83 L21.33 7.97 L23.47 7.54 L25.6 6.89 L27.73 7.11 L29.87 7.11 L32 7.11 L34.13 7.11 L36.27 5.82 L38.4 5.82 L40.53 4.74 L42.67 4.74 L44.8 4.74 L46.93 3.45 L49.07 2.8 L51.2 3.02 L53.33 3.23 L55.47 3.23 L57.6 3.45 L59.73 3.23 L61.87 1.51 L64 0 L64 14 L0 14 Z" fill="var(--cf-spark-bg)" stroke="none"/><path d="M0 14 L2.13 13.35 L4.27 7.32 L6.4 7.32 L8.53 5.17 L10.67 6.03 L12.8 5.82 L14.93 5.82 L17.07 8.83 L19.2 8.83 L21.33 7.97 L23.47 7.54 L25.6 6.89 L27.73 7.11 L29.87 7.11 L32 7.11 L34.13 7.11 L36.27 5.82 L38.4 5.82 L40.53 4.74 L42.67 4.74 L44.8 4.74 L46.93 3.45 L49.07 2.8 L51.2 3.02 L53.33 3.23 L55.47 3.23 L57.6 3.45 L59.73 3.23 L61.87 1.51 L64 0" fill="none" stroke="var(--cf-spark)" stroke-width="1.4" stroke-linecap="round" stroke-linejoin="round"/></svg></g></g><g transform="translate(154.8,46)"><text x="0" y="0" font-size="9" font-weight="600" fill="var(--cf-text-dim)" letter-spacing="0.8">FNS</text><text x="0" y="28" font-size="22" font-weight="700" fill="var(--cf-text)">4.8K</text><g transform="translate(0,40)"><svg width="64" height="14" viewBox="0 0 64 14" preserveAspectRatio="none"><path d="M0 12.89 L2.13 11.22 L4.27 4.44 L6.4 4.44 L8.53 1.44 L10.67 6.11 L12.8 5.78 L14.93 5.67 L17.07 14 L19.2 14 L21.33 13.33 L23.47 12.67 L25.6 11.33 L27.73 11.44 L29.87 11.44 L32 11.11 L34.13 11.11 L36.27 9.11 L38.4 9 L40.53 9.78 L42.67 9.78 L44.8 9.22 L46.93 5 L49.07 4 L51.2 4.22 L53.33 3.78 L55.47 3.78 L57.6 4.33 L59.73 4.44 L61.87 1.22 L64 0 L64 14 L0 14 Z" fill="var(--cf-spark-bg)" stroke="none"/><path d="M0 12.89 L2.13 11.22 L4.27 4.44 L6.4 4.44 L8.53 1.44 L10.67 6.11 L12.8 5.78 L14.93 5.67 L17.07 14 L19.2 14 L21.33 13.33 L23.47 12.67 L25.6 11.33 L27.73 11.44 L29.87 11.44 L32 11.11 L34.13 11.11 L36.27 9.11 L38.4 9 L40.53 9.78 L42.67 9.78 L44.8 9.22 L46.93 5 L49.07 4 L51.2 4.22 L53.33 3.78 L55.47 3.78 L57.6 4.33 L59.73 4.44 L61.87 1.22 L64 0" fill="none" stroke="var(--cf-spark)" stroke-width="1.4" stroke-linecap="round" stroke-linejoin="round"/></svg></g></g><g transform="translate(291.6,46)"><text x="0" y="0" font-size="9" font-weight="600" fill="var(--cf-text-dim)" letter-spacing="0.8">LOC</text><text x="0" y="28" font-size="22" font-weight="700" fill="var(--cf-text)">460.6K</text><g transform="translate(0,40)"><svg width="64" height="14" viewBox="0 0 64 14" preserveAspectRatio="none"><path d="M0 14 L2.13 13.48 L4.27 4.16 L6.4 4.17 L8.53 1.87 L10.67 5.08 L12.8 4.91 L14.93 4.74 L17.07 11.01 L19.2 11.01 L21.33 9.87 L23.47 9.33 L25.6 8.57 L27.73 8.46 L29.87 8.41 L32 8.14 L34.13 8.11 L36.27 6.53 L38.4 6.29 L40.53 7.89 L42.67 7.89 L44.8 7.28 L46.93 4.58 L49.07 3.38 L51.2 3.5 L53.33 3.08 L55.47 2.99 L57.6 2.9 L59.73 2.86 L61.87 0.83 L64 0 L64 14 L0 14 Z" fill="var(--cf-spark-bg)" stroke="none"/><path d="M0 14 L2.13 13.48 L4.27 4.16 L6.4 4.17 L8.53 1.87 L10.67 5.08 L12.8 4.91 L14.93 4.74 L17.07 11.01 L19.2 11.01 L21.33 9.87 L23.47 9.33 L25.6 8.57 L27.73 8.46 L29.87 8.41 L32 8.14 L34.13 8.11 L36.27 6.53 L38.4 6.29 L40.53 7.89 L42.67 7.89 L44.8 7.28 L46.93 4.58 L49.07 3.38 L51.2 3.5 L53.33 3.08 L55.47 2.99 L57.6 2.9 L59.73 2.86 L61.87 0.83 L64 0" fill="none" stroke="var(--cf-spark)" stroke-width="1.4" stroke-linecap="round" stroke-linejoin="round"/></svg></g></g><g transform="translate(428.40000000000003,46)"><text x="0" y="0" font-size="9" font-weight="600" fill="var(--cf-text-dim)" letter-spacing="0.8">LANGS</text><text x="0" y="28" font-size="22" font-weight="700" fill="var(--cf-text)">17</text><g transform="translate(0,40)"><svg width="64" height="14" viewBox="0 0 64 14" preserveAspectRatio="none"><path d="M0 7 L2.13 7 L4.27 7 L6.4 7 L8.53 7 L10.67 7 L12.8 7 L14.93 7 L17.07 7 L19.2 7 L21.33 7 L23.47 7 L25.6 7 L27.73 7 L29.87 7 L32 7 L34.13 7 L36.27 7 L38.4 7 L40.53 7 L42.67 7 L44.8 7 L46.93 7 L49.07 7 L51.2 7 L53.33 7 L55.47 7 L57.6 7 L59.73 7 L61.87 7 L64 7 L64 14 L0 14 Z" fill="var(--cf-spark-bg)" stroke="none"/><path d="M0 7 L2.13 7 L4.27 7 L6.4 7 L8.53 7 L10.67 7 L12.8 7 L14.93 7 L17.07 7 L19.2 7 L21.33 7 L23.47 7 L25.6 7 L27.73 7 L29.87 7 L32 7 L34.13 7 L36.27 7 L38.4 7 L40.53 7 L42.67 7 L44.8 7 L46.93 7 L49.07 7 L51.2 7 L53.33 7 L55.47 7 L57.6 7 L59.73 7 L61.87 7 L64 7" fill="none" stroke="var(--cf-spark)" stroke-width="1.4" stroke-linecap="round" stroke-linejoin="round"/></svg></g></g><g transform="translate(565.2,46)"><text x="0" y="0" font-size="9" font-weight="600" fill="var(--cf-text-dim)" letter-spacing="0.8">TESTS</text><text x="0" y="28" font-size="22" font-weight="700" fill="var(--cf-text)">13</text><g transform="translate(0,40)"><svg width="64" height="14" viewBox="0 0 64 14" preserveAspectRatio="none"><path d="M0 14 L2.13 14 L4.27 14 L6.4 14 L8.53 14 L10.67 14 L12.8 14 L14.93 14 L17.07 14 L19.2 14 L21.33 14 L23.47 9.33 L25.6 9.33 L27.73 9.33 L29.87 9.33 L32 9.33 L34.13 9.33 L36.27 9.33 L38.4 9.33 L40.53 0 L42.67 0 L44.8 0 L46.93 0 L49.07 0 L51.2 0 L53.33 0 L55.47 0 L57.6 0 L59.73 0 L61.87 0 L64 0 L64 14 L0 14 Z" fill="var(--cf-spark-bg)" stroke="none"/><path d="M0 14 L2.13 14 L4.27 14 L6.4 14 L8.53 14 L10.67 14 L12.8 14 L14.93 14 L17.07 14 L19.2 14 L21.33 14 L23.47 9.33 L25.6 9.33 L27.73 9.33 L29.87 9.33 L32 9.33 L34.13 9.33 L36.27 9.33 L38.4 9.33 L40.53 0 L42.67 0 L44.8 0 L46.93 0 L49.07 0 L51.2 0 L53.33 0 L55.47 0 L57.6 0 L59.73 0 L61.87 0 L64 0" fill="none" stroke="var(--cf-spark)" stroke-width="1.4" stroke-linecap="round" stroke-linejoin="round"/></svg></g></g><a href="https://github.com/braedonsaunders/codeflow" target="_blank"><text x="702" y="130" text-anchor="end" font-size="9" fill="var(--cf-text-faint)">powered by <tspan font-weight="600" fill="var(--cf-accent)">codeflow</tspan></text></a></svg>