<svg xmlns="http://www.w3.org/2000/svg" width="720" height="140" viewBox="0 0 720 140" font-family="-apple-system,BlinkMacSystemFont,Segoe UI,Helvetica,Arial,sans-serif"><style>svg{--cf-bg:#0d1117;--cf-bg-alt:#161b22;--cf-border:#21262d;--cf-text:#e6edf3;--cf-text-dim:#8b949e;--cf-text-faint:#6e7681;--cf-accent:#5eead4;--cf-accent-soft:rgba(94,234,212,0.16);--cf-green:#3fb950;--cf-amber:#d29922;--cf-red:#f85149;--cf-spark:#5eead4;--cf-spark-bg:rgba(94,234,212,0.18)}@media (prefers-color-scheme: light){svg{--cf-bg:#ffffff;--cf-bg-alt:#f6f8fa;--cf-border:#d0d7de;--cf-text:#1f2328;--cf-text-dim:#656d76;--cf-text-faint:#8c959f;--cf-accent:#0d9488;--cf-accent-soft:rgba(13,148,136,0.12);--cf-green:#1a7f37;--cf-amber:#9a6700;--cf-red:#cf222e;--cf-spark:#0d9488;--cf-spark-bg:rgba(13,148,136,0.12)}}</style><rect width="720" height="140" rx="12" fill="var(--cf-bg)" stroke="var(--cf-border)"/><text x="18" y="26" font-size="13" font-weight="600" fill="var(--cf-text)">braedonsaunders/beaconhs</text><text x="702" y="26" text-anchor="end" font-size="10" fill="var(--cf-text-faint)" font-family="ui-monospace,SFMono-Regular,Menlo,monospace">@41e592d</text><g transform="translate(18,46)"><text x="0" y="0" font-size="9" font-weight="600" fill="var(--cf-text-dim)" letter-spacing="0.8">FILES</text><text x="0" y="28" font-size="22" font-weight="700" fill="var(--cf-text)">1.3K</text><g transform="translate(0,40)"><svg width="64" height="14" viewBox="0 0 64 14" preserveAspectRatio="none"><path d="M0 14 L2.13 14 L4.27 14 L6.4 13.92 L8.53 13.84 L10.67 12.93 L12.8 12.93 L14.93 12.52 L17.07 11.2 L19.2 11.2 L21.33 11.2 L23.47 10.54 L25.6 10.54 L27.73 10.54 L29.87 10.46 L32 10.38 L34.13 10.38 L36.27 10.29 L38.4 10.13 L40.53 10.05 L42.67 10.13 L44.8 10.05 L46.93 9.14 L49.07 9.14 L51.2 2.06 L53.33 1.56 L55.47 1.56 L57.6 0.25 L59.73 0.08 L61.87 0.08 L64 0 L64 14 L0 14 Z" fill="var(--cf-spark-bg)" stroke="none"/><path d="M0 14 L2.13 14 L4.27 14 L6.4 13.92 L8.53 13.84 L10.67 12.93 L12.8 12.93 L14.93 12.52 L17.07 11.2 L19.2 11.2 L21.33 11.2 L23.47 10.54 L25.6 10.54 L27.73 10.54 L29.87 10.46 L32 10.38 L34.13 10.38 L36.27 10.29 L38.4 10.13 L40.53 10.05 L42.67 10.13 L44.8 10.05 L46.93 9.14 L49.07 9.14 L51.2 2.06 L53.33 1.56 L55.47 1.56 L57.6 0.25 L59.73 0.08 L61.87 0.08 L64 0" fill="none" stroke="var(--cf-spark)" stroke-width="1.4" stroke-linecap="round" stroke-linejoin="round"/></svg></g></g><g transform="translate(154.8,46)"><text x="0" y="0" font-size="9" font-weight="600" fill="var(--cf-text-dim)" letter-spacing="0.8">FNS</text><text x="0" y="28" font-size="22" font-weight="700" fill="var(--cf-text)">4.1K</text><g transform="translate(0,40)"><svg width="64" height="14" viewBox="0 0 64 14" preserveAspectRatio="none"><path d="M0 14 L2.13 13.89 L4.27 13.89 L6.4 13.87 L8.53 13.85 L10.67 13.27 L12.8 13.27 L14.93 12.14 L17.07 10.85 L19.2 10.85 L21.33 10.82 L23.47 10.22 L25.6 10.22 L27.73 10.22 L29.87 10.13 L32 10.09 L34.13 10.07 L36.27 9.79 L38.4 9.7 L40.53 9.61 L42.67 9.66 L44.8 9.61 L46.93 8.49 L49.07 8.49 L51.2 2.59 L53.33 2.1 L55.47 2.1 L57.6 0.24 L59.73 0.06 L61.87 0.06 L64 0 L64 14 L0 14 Z" fill="var(--cf-spark-bg)" stroke="none"/><path d="M0 14 L2.13 13.89 L4.27 13.89 L6.4 13.87 L8.53 13.85 L10.67 13.27 L12.8 13.27 L14.93 12.14 L17.07 10.85 L19.2 10.85 L21.33 10.82 L23.47 10.22 L25.6 10.22 L27.73 10.22 L29.87 10.13 L32 10.09 L34.13 10.07 L36.27 9.79 L38.4 9.7 L40.53 9.61 L42.67 9.66 L44.8 9.61 L46.93 8.49 L49.07 8.49 L51.2 2.59 L53.33 2.1 L55.47 2.1 L57.6 0.24 L59.73 0.06 L61.87 0.06 L64 0" fill="none" stroke="var(--cf-spark)" stroke-width="1.4" stroke-linecap="round" stroke-linejoin="round"/></svg></g></g><g transform="translate(291.6,46)"><text x="0" y="0" font-size="9" font-weight="600" fill="var(--cf-text-dim)" letter-spacing="0.8">LOC</text><text x="0" y="28" font-size="22" font-weight="700" fill="var(--cf-text)">398K</text><g transform="translate(0,40)"><svg width="64" height="14" viewBox="0 0 64 14" preserveAspectRatio="none"><path d="M0 14 L2.13 13.52 L4.27 13.51 L6.4 13.5 L8.53 13.49 L10.67 12.59 L12.8 12.59 L14.93 11.87 L17.07 10.71 L19.2 10.65 L21.33 10.63 L23.47 10.09 L25.6 10.08 L27.73 10.08 L29.87 10 L32 9.98 L34.13 9.89 L36.27 9.77 L38.4 9.71 L40.53 9.59 L42.67 9.66 L44.8 9.63 L46.93 8.74 L49.07 8.74 L51.2 2.56 L53.33 2.15 L55.47 2.13 L57.6 0.28 L59.73 0.08 L61.87 0.07 L64 0 L64 14 L0 14 Z" fill="var(--cf-spark-bg)" stroke="none"/><path d="M0 14 L2.13 13.52 L4.27 13.51 L6.4 13.5 L8.53 13.49 L10.67 12.59 L12.8 12.59 L14.93 11.87 L17.07 10.71 L19.2 10.65 L21.33 10.63 L23.47 10.09 L25.6 10.08 L27.73 10.08 L29.87 10 L32 9.98 L34.13 9.89 L36.27 9.77 L38.4 9.71 L40.53 9.59 L42.67 9.66 L44.8 9.63 L46.93 8.74 L49.07 8.74 L51.2 2.56 L53.33 2.15 L55.47 2.13 L57.6 0.28 L59.73 0.08 L61.87 0.07 L64 0" fill="none" stroke="var(--cf-spark)" stroke-width="1.4" stroke-linecap="round" stroke-linejoin="round"/></svg></g></g><g transform="translate(428.40000000000003,46)"><text x="0" y="0" font-size="9" font-weight="600" fill="var(--cf-text-dim)" letter-spacing="0.8">LANGS</text><text x="0" y="28" font-size="22" font-weight="700" fill="var(--cf-text)">17</text><g transform="translate(0,40)"><svg width="64" height="14" viewBox="0 0 64 14" preserveAspectRatio="none"><path d="M0 7 L2.13 7 L4.27 7 L6.4 7 L8.53 7 L10.67 7 L12.8 7 L14.93 7 L17.07 7 L19.2 7 L21.33 7 L23.47 7 L25.6 7 L27.73 7 L29.87 7 L32 7 L34.13 7 L36.27 7 L38.4 7 L40.53 7 L42.67 7 L44.8 7 L46.93 7 L49.07 7 L51.2 7 L53.33 7 L55.47 7 L57.6 7 L59.73 7 L61.87 7 L64 7 L64 14 L0 14 Z" fill="var(--cf-spark-bg)" stroke="none"/><path d="M0 7 L2.13 7 L4.27 7 L6.4 7 L8.53 7 L10.67 7 L12.8 7 L14.93 7 L17.07 7 L19.2 7 L21.33 7 L23.47 7 L25.6 7 L27.73 7 L29.87 7 L32 7 L34.13 7 L36.27 7 L38.4 7 L40.53 7 L42.67 7 L44.8 7 L46.93 7 L49.07 7 L51.2 7 L53.33 7 L55.47 7 L57.6 7 L59.73 7 L61.87 7 L64 7" fill="none" stroke="var(--cf-spark)" stroke-width="1.4" stroke-linecap="round" stroke-linejoin="round"/></svg></g></g><g transform="translate(565.2,46)"><text x="0" y="0" font-size="9" font-weight="600" fill="var(--cf-text-dim)" letter-spacing="0.8">TESTS</text><text x="0" y="28" font-size="22" font-weight="700" fill="var(--cf-text)">7</text><g transform="translate(0,40)"><svg width="64" height="14" viewBox="0 0 64 14" preserveAspectRatio="none"><path d="M0 14 L2.13 14 L4.27 14 L6.4 14 L8.53 14 L10.67 14 L12.8 14 L14.93 14 L17.07 14 L19.2 14 L21.33 14 L23.47 14 L25.6 14 L27.73 14 L29.87 14 L32 14 L34.13 14 L36.27 14 L38.4 14 L40.53 14 L42.67 14 L44.8 14 L46.93 7 L49.07 7 L51.2 0 L53.33 0 L55.47 0 L57.6 0 L59.73 0 L61.87 0 L64 0 L64 14 L0 14 Z" fill="var(--cf-spark-bg)" stroke="none"/><path d="M0 14 L2.13 14 L4.27 14 L6.4 14 L8.53 14 L10.67 14 L12.8 14 L14.93 14 L17.07 14 L19.2 14 L21.33 14 L23.47 14 L25.6 14 L27.73 14 L29.87 14 L32 14 L34.13 14 L36.27 14 L38.4 14 L40.53 14 L42.67 14 L44.8 14 L46.93 7 L49.07 7 L51.2 0 L53.33 0 L55.47 0 L57.6 0 L59.73 0 L61.87 0 L64 0" fill="none" stroke="var(--cf-spark)" stroke-width="1.4" stroke-linecap="round" stroke-linejoin="round"/></svg></g></g><a href="https://github.com/braedonsaunders/codeflow" target="_blank"><text x="702" y="130" text-anchor="end" font-size="9" fill="var(--cf-text-faint)">powered by <tspan font-weight="600" fill="var(--cf-accent)">codeflow</tspan></text></a></svg>