<svg xmlns="http://www.w3.org/2000/svg" width="720" height="140" viewBox="0 0 720 140" font-family="-apple-system,BlinkMacSystemFont,Segoe UI,Helvetica,Arial,sans-serif"><style>svg{--cf-bg:#0d1117;--cf-bg-alt:#161b22;--cf-border:#21262d;--cf-text:#e6edf3;--cf-text-dim:#8b949e;--cf-text-faint:#6e7681;--cf-accent:#5eead4;--cf-accent-soft:rgba(94,234,212,0.16);--cf-green:#3fb950;--cf-amber:#d29922;--cf-red:#f85149;--cf-spark:#5eead4;--cf-spark-bg:rgba(94,234,212,0.18)}@media (prefers-color-scheme: light){svg{--cf-bg:#ffffff;--cf-bg-alt:#f6f8fa;--cf-border:#d0d7de;--cf-text:#1f2328;--cf-text-dim:#656d76;--cf-text-faint:#8c959f;--cf-accent:#0d9488;--cf-accent-soft:rgba(13,148,136,0.12);--cf-green:#1a7f37;--cf-amber:#9a6700;--cf-red:#cf222e;--cf-spark:#0d9488;--cf-spark-bg:rgba(13,148,136,0.12)}}</style><rect width="720" height="140" rx="12" fill="var(--cf-bg)" stroke="var(--cf-border)"/><text x="18" y="26" font-size="13" font-weight="600" fill="var(--cf-text)">braedonsaunders/beaconhs</text><text x="702" y="26" text-anchor="end" font-size="10" fill="var(--cf-text-faint)" font-family="ui-monospace,SFMono-Regular,Menlo,monospace">@bee7b8e</text><g transform="translate(18,46)"><text x="0" y="0" font-size="9" font-weight="600" fill="var(--cf-text-dim)" letter-spacing="0.8">FILES</text><text x="0" y="28" font-size="22" font-weight="700" fill="var(--cf-text)">1K</text><g transform="translate(0,40)"><svg width="64" height="14" viewBox="0 0 64 14" preserveAspectRatio="none"><path d="M0 12.1 L2.13 12.1 L4.27 11.38 L6.4 12.69 L8.53 12.69 L10.67 12.25 L12.8 14 L14.93 13.27 L17.07 13.27 L19.2 13.27 L21.33 13.27 L23.47 13.13 L25.6 12.98 L27.73 12.69 L29.87 12.4 L32 12.4 L34.13 12.4 L36.27 9.48 L38.4 9.48 L40.53 9.48 L42.67 9.92 L44.8 0.88 L46.93 0.73 L49.07 0.73 L51.2 0.73 L53.33 0.73 L55.47 0.73 L57.6 0.73 L59.73 0.44 L61.87 0.15 L64 0 L64 14 L0 14 Z" fill="var(--cf-spark-bg)" stroke="none"/><path d="M0 12.1 L2.13 12.1 L4.27 11.38 L6.4 12.69 L8.53 12.69 L10.67 12.25 L12.8 14 L14.93 13.27 L17.07 13.27 L19.2 13.27 L21.33 13.27 L23.47 13.13 L25.6 12.98 L27.73 12.69 L29.87 12.4 L32 12.4 L34.13 12.4 L36.27 9.48 L38.4 9.48 L40.53 9.48 L42.67 9.92 L44.8 0.88 L46.93 0.73 L49.07 0.73 L51.2 0.73 L53.33 0.73 L55.47 0.73 L57.6 0.73 L59.73 0.44 L61.87 0.15 L64 0" fill="none" stroke="var(--cf-spark)" stroke-width="1.4" stroke-linecap="round" stroke-linejoin="round"/></svg></g></g><g transform="translate(154.8,46)"><text x="0" y="0" font-size="9" font-weight="600" fill="var(--cf-text-dim)" letter-spacing="0.8">FNS</text><text x="0" y="28" font-size="22" font-weight="700" fill="var(--cf-text)">3.1K</text><g transform="translate(0,40)"><svg width="64" height="14" viewBox="0 0 64 14" preserveAspectRatio="none"><path d="M0 14 L2.13 14 L4.27 10.7 L6.4 12 L8.53 12 L10.67 11.85 L12.8 12.97 L14.93 12.64 L17.07 12.64 L19.2 12.64 L21.33 12.64 L23.47 12.61 L25.6 12.55 L27.73 12.46 L29.87 12.4 L32 12.4 L34.13 12.4 L36.27 9.1 L38.4 9.1 L40.53 9.13 L42.67 9.04 L44.8 1.45 L46.93 1.42 L49.07 1.42 L51.2 1.27 L53.33 1.21 L55.47 1.21 L57.6 1.21 L59.73 0.51 L61.87 0.06 L64 0 L64 14 L0 14 Z" fill="var(--cf-spark-bg)" stroke="none"/><path d="M0 14 L2.13 14 L4.27 10.7 L6.4 12 L8.53 12 L10.67 11.85 L12.8 12.97 L14.93 12.64 L17.07 12.64 L19.2 12.64 L21.33 12.64 L23.47 12.61 L25.6 12.55 L27.73 12.46 L29.87 12.4 L32 12.4 L34.13 12.4 L36.27 9.1 L38.4 9.1 L40.53 9.13 L42.67 9.04 L44.8 1.45 L46.93 1.42 L49.07 1.42 L51.2 1.27 L53.33 1.21 L55.47 1.21 L57.6 1.21 L59.73 0.51 L61.87 0.06 L64 0" fill="none" stroke="var(--cf-spark)" stroke-width="1.4" stroke-linecap="round" stroke-linejoin="round"/></svg></g></g><g transform="translate(291.6,46)"><text x="0" y="0" font-size="9" font-weight="600" fill="var(--cf-text-dim)" letter-spacing="0.8">LOC</text><text x="0" y="28" font-size="22" font-weight="700" fill="var(--cf-text)">345.4K</text><g transform="translate(0,40)"><svg width="64" height="14" viewBox="0 0 64 14" preserveAspectRatio="none"><path d="M0 14 L2.13 14 L4.27 13.41 L6.4 9.98 L8.53 9.98 L10.67 9.92 L12.8 10.3 L14.93 10.25 L17.07 10.25 L19.2 10.24 L21.33 10.24 L23.47 10.23 L25.6 10.23 L27.73 10.21 L29.87 10.23 L32 10.22 L34.13 10.22 L36.27 1.65 L38.4 1.65 L40.53 1.65 L42.67 1.7 L44.8 0.38 L46.93 0.37 L49.07 0.36 L51.2 0.34 L53.33 0.32 L55.47 0.32 L57.6 0.27 L59.73 0.08 L61.87 0.03 L64 0 L64 14 L0 14 Z" fill="var(--cf-spark-bg)" stroke="none"/><path d="M0 14 L2.13 14 L4.27 13.41 L6.4 9.98 L8.53 9.98 L10.67 9.92 L12.8 10.3 L14.93 10.25 L17.07 10.25 L19.2 10.24 L21.33 10.24 L23.47 10.23 L25.6 10.23 L27.73 10.21 L29.87 10.23 L32 10.22 L34.13 10.22 L36.27 1.65 L38.4 1.65 L40.53 1.65 L42.67 1.7 L44.8 0.38 L46.93 0.37 L49.07 0.36 L51.2 0.34 L53.33 0.32 L55.47 0.32 L57.6 0.27 L59.73 0.08 L61.87 0.03 L64 0" fill="none" stroke="var(--cf-spark)" stroke-width="1.4" stroke-linecap="round" stroke-linejoin="round"/></svg></g></g><g transform="translate(428.40000000000003,46)"><text x="0" y="0" font-size="9" font-weight="600" fill="var(--cf-text-dim)" letter-spacing="0.8">LANGS</text><text x="0" y="28" font-size="22" font-weight="700" fill="var(--cf-text)">17</text><g transform="translate(0,40)"><svg width="64" height="14" viewBox="0 0 64 14" preserveAspectRatio="none"><path d="M0 7 L2.13 7 L4.27 7 L6.4 7 L8.53 7 L10.67 7 L12.8 7 L14.93 7 L17.07 7 L19.2 7 L21.33 7 L23.47 7 L25.6 7 L27.73 7 L29.87 7 L32 7 L34.13 7 L36.27 7 L38.4 7 L40.53 7 L42.67 7 L44.8 7 L46.93 7 L49.07 7 L51.2 7 L53.33 7 L55.47 7 L57.6 7 L59.73 7 L61.87 7 L64 7 L64 14 L0 14 Z" fill="var(--cf-spark-bg)" stroke="none"/><path d="M0 7 L2.13 7 L4.27 7 L6.4 7 L8.53 7 L10.67 7 L12.8 7 L14.93 7 L17.07 7 L19.2 7 L21.33 7 L23.47 7 L25.6 7 L27.73 7 L29.87 7 L32 7 L34.13 7 L36.27 7 L38.4 7 L40.53 7 L42.67 7 L44.8 7 L46.93 7 L49.07 7 L51.2 7 L53.33 7 L55.47 7 L57.6 7 L59.73 7 L61.87 7 L64 7" fill="none" stroke="var(--cf-spark)" stroke-width="1.4" stroke-linecap="round" stroke-linejoin="round"/></svg></g></g><g transform="translate(565.2,46)"><text x="0" y="0" font-size="9" font-weight="600" fill="var(--cf-text-dim)" letter-spacing="0.8">TESTS</text><text x="0" y="28" font-size="22" font-weight="700" fill="var(--cf-text)">4</text><g transform="translate(0,40)"><svg width="64" height="14" viewBox="0 0 64 14" preserveAspectRatio="none"><path d="M0 14 L2.13 14 L4.27 14 L6.4 14 L8.53 14 L10.67 14 L12.8 14 L14.93 14 L17.07 14 L19.2 14 L21.33 14 L23.47 14 L25.6 14 L27.73 14 L29.87 14 L32 14 L34.13 14 L36.27 14 L38.4 14 L40.53 14 L42.67 0 L44.8 0 L46.93 0 L49.07 0 L51.2 0 L53.33 0 L55.47 0 L57.6 0 L59.73 0 L61.87 0 L64 0 L64 14 L0 14 Z" fill="var(--cf-spark-bg)" stroke="none"/><path d="M0 14 L2.13 14 L4.27 14 L6.4 14 L8.53 14 L10.67 14 L12.8 14 L14.93 14 L17.07 14 L19.2 14 L21.33 14 L23.47 14 L25.6 14 L27.73 14 L29.87 14 L32 14 L34.13 14 L36.27 14 L38.4 14 L40.53 14 L42.67 0 L44.8 0 L46.93 0 L49.07 0 L51.2 0 L53.33 0 L55.47 0 L57.6 0 L59.73 0 L61.87 0 L64 0" fill="none" stroke="var(--cf-spark)" stroke-width="1.4" stroke-linecap="round" stroke-linejoin="round"/></svg></g></g><a href="https://github.com/braedonsaunders/codeflow" target="_blank"><text x="702" y="130" text-anchor="end" font-size="9" fill="var(--cf-text-faint)">powered by <tspan font-weight="600" fill="var(--cf-accent)">codeflow</tspan></text></a></svg>