<svg xmlns="http://www.w3.org/2000/svg" width="720" height="140" viewBox="0 0 720 140" font-family="-apple-system,BlinkMacSystemFont,Segoe UI,Helvetica,Arial,sans-serif"><style>svg{--cf-bg:#0d1117;--cf-bg-alt:#161b22;--cf-border:#21262d;--cf-text:#e6edf3;--cf-text-dim:#8b949e;--cf-text-faint:#6e7681;--cf-accent:#5eead4;--cf-accent-soft:rgba(94,234,212,0.16);--cf-green:#3fb950;--cf-amber:#d29922;--cf-red:#f85149;--cf-spark:#5eead4;--cf-spark-bg:rgba(94,234,212,0.18)}@media (prefers-color-scheme: light){svg{--cf-bg:#ffffff;--cf-bg-alt:#f6f8fa;--cf-border:#d0d7de;--cf-text:#1f2328;--cf-text-dim:#656d76;--cf-text-faint:#8c959f;--cf-accent:#0d9488;--cf-accent-soft:rgba(13,148,136,0.12);--cf-green:#1a7f37;--cf-amber:#9a6700;--cf-red:#cf222e;--cf-spark:#0d9488;--cf-spark-bg:rgba(13,148,136,0.12)}}</style><rect width="720" height="140" rx="12" fill="var(--cf-bg)" stroke="var(--cf-border)"/><text x="18" y="26" font-size="13" font-weight="600" fill="var(--cf-text)">braedonsaunders/beaconhs</text><text x="702" y="26" text-anchor="end" font-size="10" fill="var(--cf-text-faint)" font-family="ui-monospace,SFMono-Regular,Menlo,monospace">@2c4c345</text><g transform="translate(18,46)"><text x="0" y="0" font-size="9" font-weight="600" fill="var(--cf-text-dim)" letter-spacing="0.8">FILES</text><text x="0" y="28" font-size="22" font-weight="700" fill="var(--cf-text)">1.5K</text><g transform="translate(0,40)"><svg width="64" height="14" viewBox="0 0 64 14" preserveAspectRatio="none"><path d="M0 12.48 L2.13 12.37 L4.27 12.37 L6.4 14 L8.53 14 L10.67 13.53 L12.8 13.3 L14.93 12.95 L17.07 13.07 L19.2 13.07 L21.33 13.07 L23.47 13.07 L25.6 12.37 L27.73 12.37 L29.87 11.78 L32 11.78 L34.13 11.78 L36.27 11.08 L38.4 10.73 L40.53 10.85 L42.67 10.97 L44.8 10.97 L46.93 11.08 L49.07 10.97 L51.2 10.03 L53.33 9.22 L55.47 9.22 L57.6 0 L59.73 0 L61.87 0 L64 0 L64 14 L0 14 Z" fill="var(--cf-spark-bg)" stroke="none"/><path d="M0 12.48 L2.13 12.37 L4.27 12.37 L6.4 14 L8.53 14 L10.67 13.53 L12.8 13.3 L14.93 12.95 L17.07 13.07 L19.2 13.07 L21.33 13.07 L23.47 13.07 L25.6 12.37 L27.73 12.37 L29.87 11.78 L32 11.78 L34.13 11.78 L36.27 11.08 L38.4 10.73 L40.53 10.85 L42.67 10.97 L44.8 10.97 L46.93 11.08 L49.07 10.97 L51.2 10.03 L53.33 9.22 L55.47 9.22 L57.6 0 L59.73 0 L61.87 0 L64 0" fill="none" stroke="var(--cf-spark)" stroke-width="1.4" stroke-linecap="round" stroke-linejoin="round"/></svg></g></g><g transform="translate(154.8,46)"><text x="0" y="0" font-size="9" font-weight="600" fill="var(--cf-text-dim)" letter-spacing="0.8">FNS</text><text x="0" y="28" font-size="22" font-weight="700" fill="var(--cf-text)">5K</text><g transform="translate(0,40)"><svg width="64" height="14" viewBox="0 0 64 14" preserveAspectRatio="none"><path d="M0 11.09 L2.13 10.97 L4.27 10.93 L6.4 14 L8.53 14 L10.67 13.75 L12.8 13.51 L14.93 13.02 L17.07 13.06 L19.2 13.06 L21.33 12.94 L23.47 12.94 L25.6 12.2 L27.73 12.16 L29.87 12.44 L32 12.44 L34.13 12.24 L36.27 10.68 L38.4 10.32 L40.53 10.4 L42.67 10.23 L44.8 10.23 L46.93 10.44 L49.07 10.48 L51.2 9.29 L53.33 8.84 L55.47 8.84 L57.6 0 L59.73 0 L61.87 0 L64 0 L64 14 L0 14 Z" fill="var(--cf-spark-bg)" stroke="none"/><path d="M0 11.09 L2.13 10.97 L4.27 10.93 L6.4 14 L8.53 14 L10.67 13.75 L12.8 13.51 L14.93 13.02 L17.07 13.06 L19.2 13.06 L21.33 12.94 L23.47 12.94 L25.6 12.2 L27.73 12.16 L29.87 12.44 L32 12.44 L34.13 12.24 L36.27 10.68 L38.4 10.32 L40.53 10.4 L42.67 10.23 L44.8 10.23 L46.93 10.44 L49.07 10.48 L51.2 9.29 L53.33 8.84 L55.47 8.84 L57.6 0 L59.73 0 L61.87 0 L64 0" fill="none" stroke="var(--cf-spark)" stroke-width="1.4" stroke-linecap="round" stroke-linejoin="round"/></svg></g></g><g transform="translate(291.6,46)"><text x="0" y="0" font-size="9" font-weight="600" fill="var(--cf-text-dim)" letter-spacing="0.8">LOC</text><text x="0" y="28" font-size="22" font-weight="700" fill="var(--cf-text)">442.4K</text><g transform="translate(0,40)"><svg width="64" height="14" viewBox="0 0 64 14" preserveAspectRatio="none"><path d="M0 2.38 L2.13 2.3 L4.27 2.22 L6.4 5.16 L8.53 5.16 L10.67 4.63 L12.8 4.37 L14.93 4.02 L17.07 3.96 L19.2 3.94 L21.33 3.82 L23.47 3.8 L25.6 3.06 L27.73 2.95 L29.87 3.7 L32 3.7 L34.13 3.41 L36.27 2.15 L38.4 1.59 L40.53 1.64 L42.67 1.45 L44.8 1.4 L46.93 1.36 L49.07 1.34 L51.2 0.39 L53.33 0 L55.47 0 L57.6 14 L59.73 13.99 L61.87 13.99 L64 13.99 L64 14 L0 14 Z" fill="var(--cf-spark-bg)" stroke="none"/><path d="M0 2.38 L2.13 2.3 L4.27 2.22 L6.4 5.16 L8.53 5.16 L10.67 4.63 L12.8 4.37 L14.93 4.02 L17.07 3.96 L19.2 3.94 L21.33 3.82 L23.47 3.8 L25.6 3.06 L27.73 2.95 L29.87 3.7 L32 3.7 L34.13 3.41 L36.27 2.15 L38.4 1.59 L40.53 1.64 L42.67 1.45 L44.8 1.4 L46.93 1.36 L49.07 1.34 L51.2 0.39 L53.33 0 L55.47 0 L57.6 14 L59.73 13.99 L61.87 13.99 L64 13.99" fill="none" stroke="var(--cf-spark)" stroke-width="1.4" stroke-linecap="round" stroke-linejoin="round"/></svg></g></g><g transform="translate(428.40000000000003,46)"><text x="0" y="0" font-size="9" font-weight="600" fill="var(--cf-text-dim)" letter-spacing="0.8">LANGS</text><text x="0" y="28" font-size="22" font-weight="700" fill="var(--cf-text)">17</text><g transform="translate(0,40)"><svg width="64" height="14" viewBox="0 0 64 14" preserveAspectRatio="none"><path d="M0 7 L2.13 7 L4.27 7 L6.4 7 L8.53 7 L10.67 7 L12.8 7 L14.93 7 L17.07 7 L19.2 7 L21.33 7 L23.47 7 L25.6 7 L27.73 7 L29.87 7 L32 7 L34.13 7 L36.27 7 L38.4 7 L40.53 7 L42.67 7 L44.8 7 L46.93 7 L49.07 7 L51.2 7 L53.33 7 L55.47 7 L57.6 7 L59.73 7 L61.87 7 L64 7 L64 14 L0 14 Z" fill="var(--cf-spark-bg)" stroke="none"/><path d="M0 7 L2.13 7 L4.27 7 L6.4 7 L8.53 7 L10.67 7 L12.8 7 L14.93 7 L17.07 7 L19.2 7 L21.33 7 L23.47 7 L25.6 7 L27.73 7 L29.87 7 L32 7 L34.13 7 L36.27 7 L38.4 7 L40.53 7 L42.67 7 L44.8 7 L46.93 7 L49.07 7 L51.2 7 L53.33 7 L55.47 7 L57.6 7 L59.73 7 L61.87 7 L64 7" fill="none" stroke="var(--cf-spark)" stroke-width="1.4" stroke-linecap="round" stroke-linejoin="round"/></svg></g></g><g transform="translate(565.2,46)"><text x="0" y="0" font-size="9" font-weight="600" fill="var(--cf-text-dim)" letter-spacing="0.8">TESTS</text><text x="0" y="28" font-size="22" font-weight="700" fill="var(--cf-text)">58</text><g transform="translate(0,40)"><svg width="64" height="14" viewBox="0 0 64 14" preserveAspectRatio="none"><path d="M0 14 L2.13 14 L4.27 14 L6.4 14 L8.53 14 L10.67 14 L12.8 13.71 L14.93 13.71 L17.07 13.71 L19.2 13.71 L21.33 13.71 L23.47 13.71 L25.6 13.71 L27.73 13.71 L29.87 13.13 L32 13.13 L34.13 13.13 L36.27 13.13 L38.4 13.13 L40.53 13.13 L42.67 13.13 L44.8 13.13 L46.93 13.13 L49.07 13.13 L51.2 13.13 L53.33 13.13 L55.47 13.13 L57.6 0 L59.73 0 L61.87 0 L64 0 L64 14 L0 14 Z" fill="var(--cf-spark-bg)" stroke="none"/><path d="M0 14 L2.13 14 L4.27 14 L6.4 14 L8.53 14 L10.67 14 L12.8 13.71 L14.93 13.71 L17.07 13.71 L19.2 13.71 L21.33 13.71 L23.47 13.71 L25.6 13.71 L27.73 13.71 L29.87 13.13 L32 13.13 L34.13 13.13 L36.27 13.13 L38.4 13.13 L40.53 13.13 L42.67 13.13 L44.8 13.13 L46.93 13.13 L49.07 13.13 L51.2 13.13 L53.33 13.13 L55.47 13.13 L57.6 0 L59.73 0 L61.87 0 L64 0" fill="none" stroke="var(--cf-spark)" stroke-width="1.4" stroke-linecap="round" stroke-linejoin="round"/></svg></g></g><a href="https://github.com/braedonsaunders/codeflow" target="_blank"><text x="702" y="130" text-anchor="end" font-size="9" fill="var(--cf-text-faint)">powered by <tspan font-weight="600" fill="var(--cf-accent)">codeflow</tspan></text></a></svg>