<svg xmlns="http://www.w3.org/2000/svg" width="720" height="318" viewBox="0 0 720 318" font-family="-apple-system,BlinkMacSystemFont,Segoe UI,Helvetica,Arial,sans-serif"><style>svg{--cf-bg:#0d1117;--cf-bg-alt:#161b22;--cf-border:#21262d;--cf-text:#e6edf3;--cf-text-dim:#8b949e;--cf-text-faint:#6e7681;--cf-accent:#5eead4;--cf-accent-soft:rgba(94,234,212,0.16);--cf-green:#3fb950;--cf-amber:#d29922;--cf-red:#f85149;--cf-spark:#5eead4;--cf-spark-bg:rgba(94,234,212,0.18)}@media (prefers-color-scheme: light){svg{--cf-bg:#ffffff;--cf-bg-alt:#f6f8fa;--cf-border:#d0d7de;--cf-text:#1f2328;--cf-text-dim:#656d76;--cf-text-faint:#8c959f;--cf-accent:#0d9488;--cf-accent-soft:rgba(13,148,136,0.12);--cf-green:#1a7f37;--cf-amber:#9a6700;--cf-red:#cf222e;--cf-spark:#0d9488;--cf-spark-bg:rgba(13,148,136,0.12)}}</style><rect width="720" height="318" rx="14" fill="var(--cf-bg)" stroke="var(--cf-border)"/><g transform="translate(22,26)"><text x="0" y="0" font-size="18" font-weight="700" fill="var(--cf-text)">braedonsaunders/beaconhs</text><text x="676" y="0" text-anchor="end" font-size="11" fill="var(--cf-text-faint)" font-family="ui-monospace,SFMono-Regular,Menlo,monospace">@612e947</text></g><g transform="translate(22,60)"><rect width="676" height="110" rx="10" fill="var(--cf-bg-alt)" stroke="var(--cf-border)"/><text x="16" y="22" font-size="11" font-weight="500" fill="var(--cf-text-dim)" letter-spacing="0.6">HEALTH</text><text x="16" y="78" font-size="64" font-weight="700" fill="var(--cf-amber)" font-family="ui-monospace,SFMono-Regular,Menlo,monospace">D</text><text x="660" y="78" text-anchor="end" font-size="22" font-weight="600" fill="var(--cf-text)">66</text><text x="660" y="94" text-anchor="end" font-size="10" fill="var(--cf-text-faint)" letter-spacing="0.6">SCORE / 100</text></g><g transform="translate(22,184)"><rect width="676" height="88" rx="10" fill="var(--cf-bg-alt)" stroke="var(--cf-border)"/><g transform="translate(16,16)"><text x="0" y="0" font-size="10" font-weight="500" fill="var(--cf-text-dim)" letter-spacing="0.6">FILES</text><text x="0" y="28" font-size="22" font-weight="700" fill="var(--cf-text)">670</text><g transform="translate(0,38)"><svg width="80" height="18" viewBox="0 0 80 18" preserveAspectRatio="none"><path d="M0 18 L6.15 12.97 L12.31 12.97 L18.46 9.68 L24.62 6 L30.77 5.61 L36.92 5.42 L43.08 5.42 L49.23 1.74 L55.38 0 L61.54 0 L67.69 0 L73.85 0 L80 0 L80 18 L0 18 Z" fill="var(--cf-spark-bg)" stroke="none"/><path d="M0 18 L6.15 12.97 L12.31 12.97 L18.46 9.68 L24.62 6 L30.77 5.61 L36.92 5.42 L43.08 5.42 L49.23 1.74 L55.38 0 L61.54 0 L67.69 0 L73.85 0 L80 0" fill="none" stroke="var(--cf-spark)" stroke-width="1.4" stroke-linecap="round" stroke-linejoin="round"/></svg></g></g><g transform="translate(177,16)"><text x="0" y="0" font-size="10" font-weight="500" fill="var(--cf-text-dim)" letter-spacing="0.6">FNS</text><text x="0" y="28" font-size="22" font-weight="700" fill="var(--cf-text)">1.8K</text><g transform="translate(0,38)"><svg width="80" height="18" viewBox="0 0 80 18" preserveAspectRatio="none"><path d="M0 18 L6.15 11.19 L12.31 11.07 L18.46 8.86 L24.62 3.97 L30.77 3.58 L36.92 2.67 L43.08 2.67 L49.23 0.62 L55.38 0.06 L61.54 0.06 L67.69 0.06 L73.85 0.06 L80 0 L80 18 L0 18 Z" fill="var(--cf-spark-bg)" stroke="none"/><path d="M0 18 L6.15 11.19 L12.31 11.07 L18.46 8.86 L24.62 3.97 L30.77 3.58 L36.92 2.67 L43.08 2.67 L49.23 0.62 L55.38 0.06 L61.54 0.06 L67.69 0.06 L73.85 0.06 L80 0" fill="none" stroke="var(--cf-spark)" stroke-width="1.4" stroke-linecap="round" stroke-linejoin="round"/></svg></g></g><g transform="translate(338,16)"><text x="0" y="0" font-size="10" font-weight="500" fill="var(--cf-text-dim)" letter-spacing="0.6">LOC</text><text x="0" y="28" font-size="22" font-weight="700" fill="var(--cf-text)">331.5K</text><g transform="translate(0,38)"><svg width="80" height="18" viewBox="0 0 80 18" preserveAspectRatio="none"><path d="M0 18 L6.15 9.74 L12.31 9.7 L18.46 8.59 L24.62 7.67 L30.77 7.6 L36.92 7.15 L43.08 7.14 L49.23 6.68 L55.38 0.02 L61.54 0.01 L67.69 0.01 L73.85 0.01 L80 0 L80 18 L0 18 Z" fill="var(--cf-spark-bg)" stroke="none"/><path d="M0 18 L6.15 9.74 L12.31 9.7 L18.46 8.59 L24.62 7.67 L30.77 7.6 L36.92 7.15 L43.08 7.14 L49.23 6.68 L55.38 0.02 L61.54 0.01 L67.69 0.01 L73.85 0.01 L80 0" fill="none" stroke="var(--cf-spark)" stroke-width="1.4" stroke-linecap="round" stroke-linejoin="round"/></svg></g></g><g transform="translate(499,16)"><text x="0" y="0" font-size="10" font-weight="500" fill="var(--cf-text-dim)" letter-spacing="0.6">LANGS</text><text x="0" y="28" font-size="22" font-weight="700" fill="var(--cf-text)">15</text><g transform="translate(0,38)"><svg width="80" height="18" viewBox="0 0 80 18" preserveAspectRatio="none"><path d="M0 9 L6.15 9 L12.31 9 L18.46 9 L24.62 9 L30.77 9 L36.92 9 L43.08 9 L49.23 9 L55.38 9 L61.54 9 L67.69 9 L73.85 9 L80 9 L80 18 L0 18 Z" fill="var(--cf-spark-bg)" stroke="none"/><path d="M0 9 L6.15 9 L12.31 9 L18.46 9 L24.62 9 L30.77 9 L36.92 9 L43.08 9 L49.23 9 L55.38 9 L61.54 9 L67.69 9 L73.85 9 L80 9" fill="none" stroke="var(--cf-spark)" stroke-width="1.4" stroke-linecap="round" stroke-linejoin="round"/></svg></g></g></g><g transform="translate(22,304)"><text x="0" y="0" font-size="10" fill="var(--cf-text-faint)">updated 2026-05-20</text><a href="https://github.com/braedonsaunders/codeflow" target="_blank"><text x="676" y="0" text-anchor="end" font-size="10" fill="var(--cf-text-faint)">powered by <tspan font-weight="600" fill="var(--cf-accent)">codeflow</tspan></text></a></g></svg>