<svg xmlns="http://www.w3.org/2000/svg" width="720" height="194" viewBox="0 0 720 194" font-family="-apple-system,BlinkMacSystemFont,Segoe UI,Helvetica,Arial,sans-serif"><style>svg{--cf-bg:#0d1117;--cf-bg-alt:#161b22;--cf-border:#21262d;--cf-text:#e6edf3;--cf-text-dim:#8b949e;--cf-text-faint:#6e7681;--cf-accent:#5eead4;--cf-accent-soft:rgba(94,234,212,0.16);--cf-green:#3fb950;--cf-amber:#d29922;--cf-red:#f85149;--cf-spark:#5eead4;--cf-spark-bg:rgba(94,234,212,0.18)}@media (prefers-color-scheme: light){svg{--cf-bg:#ffffff;--cf-bg-alt:#f6f8fa;--cf-border:#d0d7de;--cf-text:#1f2328;--cf-text-dim:#656d76;--cf-text-faint:#8c959f;--cf-accent:#0d9488;--cf-accent-soft:rgba(13,148,136,0.12);--cf-green:#1a7f37;--cf-amber:#9a6700;--cf-red:#cf222e;--cf-spark:#0d9488;--cf-spark-bg:rgba(13,148,136,0.12)}}</style><rect width="720" height="194" rx="14" fill="var(--cf-bg)" stroke="var(--cf-border)"/><g transform="translate(22,26)"><text x="0" y="0" font-size="18" font-weight="700" fill="var(--cf-text)">braedonsaunders/beaconhs</text><text x="676" y="0" text-anchor="end" font-size="11" fill="var(--cf-text-faint)" font-family="ui-monospace,SFMono-Regular,Menlo,monospace">@17824ab</text></g><g transform="translate(22,60)"><rect width="676" height="88" rx="10" fill="var(--cf-bg-alt)" stroke="var(--cf-border)"/><g transform="translate(16,16)"><text x="0" y="0" font-size="10" font-weight="500" fill="var(--cf-text-dim)" letter-spacing="0.6">FILES</text><text x="0" y="28" font-size="22" font-weight="700" fill="var(--cf-text)">876</text><g transform="translate(0,38)"><svg width="80" height="18" viewBox="0 0 80 18" preserveAspectRatio="none"><path d="M0 18 L2.67 16.88 L5.33 15.63 L8 15.49 L10.67 15.43 L13.33 15.43 L16 14.18 L18.67 13.58 L21.33 13.58 L24 13.58 L26.67 13.58 L29.33 13.58 L32 13.25 L34.67 12.73 L37.33 12.13 L40 10.95 L42.67 11.74 L45.33 11.41 L48 10.81 L50.67 10.68 L53.33 10.62 L56 10.55 L58.67 10.55 L61.33 10.55 L64 10.55 L66.67 10.55 L69.33 12.66 L72 12.66 L74.67 1.52 L77.33 0 L80 0 L80 18 L0 18 Z" fill="var(--cf-spark-bg)" stroke="none"/><path d="M0 18 L2.67 16.88 L5.33 15.63 L8 15.49 L10.67 15.43 L13.33 15.43 L16 14.18 L18.67 13.58 L21.33 13.58 L24 13.58 L26.67 13.58 L29.33 13.58 L32 13.25 L34.67 12.73 L37.33 12.13 L40 10.95 L42.67 11.74 L45.33 11.41 L48 10.81 L50.67 10.68 L53.33 10.62 L56 10.55 L58.67 10.55 L61.33 10.55 L64 10.55 L66.67 10.55 L69.33 12.66 L72 12.66 L74.67 1.52 L77.33 0 L80 0" fill="none" stroke="var(--cf-spark)" stroke-width="1.4" stroke-linecap="round" stroke-linejoin="round"/></svg></g></g><g transform="translate(177,16)"><text x="0" y="0" font-size="10" font-weight="500" fill="var(--cf-text-dim)" letter-spacing="0.6">FNS</text><text x="0" y="28" font-size="22" font-weight="700" fill="var(--cf-text)">2.6K</text><g transform="translate(0,38)"><svg width="80" height="18" viewBox="0 0 80 18" preserveAspectRatio="none"><path d="M0 18 L2.67 17.28 L5.33 15.68 L8 15.55 L10.67 15.25 L13.33 15.25 L16 14.58 L18.67 14.4 L21.33 14.4 L24 14.4 L26.67 14.4 L29.33 14.38 L32 14.14 L34.67 13.34 L37.33 12.67 L40 11.67 L42.67 13.26 L45.33 12.67 L48 12.24 L50.67 12.09 L53.33 12.06 L56 12.06 L58.67 12.06 L61.33 12.06 L64 12.06 L66.67 12.06 L69.33 12.06 L72 12.06 L74.67 1.24 L77.33 0 L80 0 L80 18 L0 18 Z" fill="var(--cf-spark-bg)" stroke="none"/><path d="M0 18 L2.67 17.28 L5.33 15.68 L8 15.55 L10.67 15.25 L13.33 15.25 L16 14.58 L18.67 14.4 L21.33 14.4 L24 14.4 L26.67 14.4 L29.33 14.38 L32 14.14 L34.67 13.34 L37.33 12.67 L40 11.67 L42.67 13.26 L45.33 12.67 L48 12.24 L50.67 12.09 L53.33 12.06 L56 12.06 L58.67 12.06 L61.33 12.06 L64 12.06 L66.67 12.06 L69.33 12.06 L72 12.06 L74.67 1.24 L77.33 0 L80 0" fill="none" stroke="var(--cf-spark)" stroke-width="1.4" stroke-linecap="round" stroke-linejoin="round"/></svg></g></g><g transform="translate(338,16)"><text x="0" y="0" font-size="10" font-weight="500" fill="var(--cf-text-dim)" letter-spacing="0.6">LOC</text><text x="0" y="28" font-size="22" font-weight="700" fill="var(--cf-text)">218.4K</text><g transform="translate(0,38)"><svg width="80" height="18" viewBox="0 0 80 18" preserveAspectRatio="none"><path d="M0 8.4 L2.67 7.92 L5.33 7.52 L8 7.49 L10.67 7.3 L13.33 7.3 L16 7.1 L18.67 4.24 L21.33 4.23 L24 4.23 L26.67 4.23 L29.33 4.23 L32 4.08 L34.67 3.79 L37.33 3.49 L40 0.24 L42.67 0.7 L45.33 0.41 L48 0.15 L50.67 0.09 L53.33 0.06 L56 0 L58.67 0 L61.33 0 L64 0 L66.67 0 L69.33 17.95 L72 18 L74.67 15.24 L77.33 14.78 L80 14.78 L80 18 L0 18 Z" fill="var(--cf-spark-bg)" stroke="none"/><path d="M0 8.4 L2.67 7.92 L5.33 7.52 L8 7.49 L10.67 7.3 L13.33 7.3 L16 7.1 L18.67 4.24 L21.33 4.23 L24 4.23 L26.67 4.23 L29.33 4.23 L32 4.08 L34.67 3.79 L37.33 3.49 L40 0.24 L42.67 0.7 L45.33 0.41 L48 0.15 L50.67 0.09 L53.33 0.06 L56 0 L58.67 0 L61.33 0 L64 0 L66.67 0 L69.33 17.95 L72 18 L74.67 15.24 L77.33 14.78 L80 14.78" fill="none" stroke="var(--cf-spark)" stroke-width="1.4" stroke-linecap="round" stroke-linejoin="round"/></svg></g></g><g transform="translate(499,16)"><text x="0" y="0" font-size="10" font-weight="500" fill="var(--cf-text-dim)" letter-spacing="0.6">LANGS</text><text x="0" y="28" font-size="22" font-weight="700" fill="var(--cf-text)">16</text><g transform="translate(0,38)"><svg width="80" height="18" viewBox="0 0 80 18" preserveAspectRatio="none"><path d="M0 18 L2.67 18 L5.33 18 L8 18 L10.67 18 L13.33 18 L16 18 L18.67 18 L21.33 18 L24 18 L26.67 18 L29.33 18 L32 18 L34.67 18 L37.33 18 L40 18 L42.67 18 L45.33 18 L48 18 L50.67 18 L53.33 18 L56 0 L58.67 0 L61.33 0 L64 0 L66.67 0 L69.33 0 L72 0 L74.67 0 L77.33 0 L80 0 L80 18 L0 18 Z" fill="var(--cf-spark-bg)" stroke="none"/><path d="M0 18 L2.67 18 L5.33 18 L8 18 L10.67 18 L13.33 18 L16 18 L18.67 18 L21.33 18 L24 18 L26.67 18 L29.33 18 L32 18 L34.67 18 L37.33 18 L40 18 L42.67 18 L45.33 18 L48 18 L50.67 18 L53.33 18 L56 0 L58.67 0 L61.33 0 L64 0 L66.67 0 L69.33 0 L72 0 L74.67 0 L77.33 0 L80 0" fill="none" stroke="var(--cf-spark)" stroke-width="1.4" stroke-linecap="round" stroke-linejoin="round"/></svg></g></g></g><g transform="translate(22,180)"><text x="0" y="0" font-size="10" fill="var(--cf-text-faint)">updated 2026-06-10</text><a href="https://github.com/braedonsaunders/codeflow" target="_blank"><text x="676" y="0" text-anchor="end" font-size="10" fill="var(--cf-text-faint)">powered by <tspan font-weight="600" fill="var(--cf-accent)">codeflow</tspan></text></a></g></svg>