<svg xmlns="http://www.w3.org/2000/svg" width="720" height="194" viewBox="0 0 720 194" font-family="-apple-system,BlinkMacSystemFont,Segoe UI,Helvetica,Arial,sans-serif"><style>svg{--cf-bg:#0d1117;--cf-bg-alt:#161b22;--cf-border:#21262d;--cf-text:#e6edf3;--cf-text-dim:#8b949e;--cf-text-faint:#6e7681;--cf-accent:#5eead4;--cf-accent-soft:rgba(94,234,212,0.16);--cf-green:#3fb950;--cf-amber:#d29922;--cf-red:#f85149;--cf-spark:#5eead4;--cf-spark-bg:rgba(94,234,212,0.18)}@media (prefers-color-scheme: light){svg{--cf-bg:#ffffff;--cf-bg-alt:#f6f8fa;--cf-border:#d0d7de;--cf-text:#1f2328;--cf-text-dim:#656d76;--cf-text-faint:#8c959f;--cf-accent:#0d9488;--cf-accent-soft:rgba(13,148,136,0.12);--cf-green:#1a7f37;--cf-amber:#9a6700;--cf-red:#cf222e;--cf-spark:#0d9488;--cf-spark-bg:rgba(13,148,136,0.12)}}</style><rect width="720" height="194" rx="14" fill="var(--cf-bg)" stroke="var(--cf-border)"/><g transform="translate(22,26)"><text x="0" y="0" font-size="18" font-weight="700" fill="var(--cf-text)">braedonsaunders/beaconhs</text><text x="676" y="0" text-anchor="end" font-size="11" fill="var(--cf-text-faint)" font-family="ui-monospace,SFMono-Regular,Menlo,monospace">@70ebdce</text></g><g transform="translate(22,60)"><rect width="676" height="88" rx="10" fill="var(--cf-bg-alt)" stroke="var(--cf-border)"/><g transform="translate(16,16)"><text x="0" y="0" font-size="10" font-weight="500" fill="var(--cf-text-dim)" letter-spacing="0.6">FILES</text><text x="0" y="28" font-size="22" font-weight="700" fill="var(--cf-text)">684</text><g transform="translate(0,38)"><svg width="80" height="18" viewBox="0 0 80 18" preserveAspectRatio="none"><path d="M0 18 L2.76 14.63 L5.52 14.63 L8.28 12.43 L11.03 9.97 L13.79 9.71 L16.55 9.58 L19.31 9.58 L22.07 7.12 L24.83 5.96 L27.59 5.96 L30.34 5.96 L33.1 5.96 L35.86 5.96 L38.62 5.31 L41.38 4.27 L44.14 3.11 L46.9 0.78 L49.66 2.33 L52.41 1.68 L55.17 0.52 L57.93 0.26 L60.69 0.13 L63.45 0 L66.21 0 L68.97 0 L71.72 0 L74.48 0 L77.24 4.14 L80 4.14 L80 18 L0 18 Z" fill="var(--cf-spark-bg)" stroke="none"/><path d="M0 18 L2.76 14.63 L5.52 14.63 L8.28 12.43 L11.03 9.97 L13.79 9.71 L16.55 9.58 L19.31 9.58 L22.07 7.12 L24.83 5.96 L27.59 5.96 L30.34 5.96 L33.1 5.96 L35.86 5.96 L38.62 5.31 L41.38 4.27 L44.14 3.11 L46.9 0.78 L49.66 2.33 L52.41 1.68 L55.17 0.52 L57.93 0.26 L60.69 0.13 L63.45 0 L66.21 0 L68.97 0 L71.72 0 L74.48 0 L77.24 4.14 L80 4.14" fill="none" stroke="var(--cf-spark)" stroke-width="1.4" stroke-linecap="round" stroke-linejoin="round"/></svg></g></g><g transform="translate(177,16)"><text x="0" y="0" font-size="10" font-weight="500" fill="var(--cf-text-dim)" letter-spacing="0.6">FNS</text><text x="0" y="28" font-size="22" font-weight="700" fill="var(--cf-text)">1.9K</text><g transform="translate(0,38)"><svg width="80" height="18" viewBox="0 0 80 18" preserveAspectRatio="none"><path d="M0 18 L2.76 13.33 L5.52 13.26 L8.28 11.74 L11.03 8.4 L13.79 8.13 L16.55 7.5 L19.31 7.5 L22.07 6.1 L24.83 5.71 L27.59 5.71 L30.34 5.71 L33.1 5.71 L35.86 5.68 L38.62 5.17 L41.38 3.5 L44.14 2.1 L46.9 0 L49.66 3.34 L52.41 2.1 L55.17 1.21 L57.93 0.89 L60.69 0.82 L63.45 0.82 L66.21 0.82 L68.97 0.82 L71.72 0.82 L74.48 0.82 L77.24 0.82 L80 0.82 L80 18 L0 18 Z" fill="var(--cf-spark-bg)" stroke="none"/><path d="M0 18 L2.76 13.33 L5.52 13.26 L8.28 11.74 L11.03 8.4 L13.79 8.13 L16.55 7.5 L19.31 7.5 L22.07 6.1 L24.83 5.71 L27.59 5.71 L30.34 5.71 L33.1 5.71 L35.86 5.68 L38.62 5.17 L41.38 3.5 L44.14 2.1 L46.9 0 L49.66 3.34 L52.41 2.1 L55.17 1.21 L57.93 0.89 L60.69 0.82 L63.45 0.82 L66.21 0.82 L68.97 0.82 L71.72 0.82 L74.48 0.82 L77.24 0.82 L80 0.82" fill="none" stroke="var(--cf-spark)" stroke-width="1.4" stroke-linecap="round" stroke-linejoin="round"/></svg></g></g><g transform="translate(338,16)"><text x="0" y="0" font-size="10" font-weight="500" fill="var(--cf-text-dim)" letter-spacing="0.6">LOC</text><text x="0" y="28" font-size="22" font-weight="700" fill="var(--cf-text)">183.8K</text><g transform="translate(0,38)"><svg width="80" height="18" viewBox="0 0 80 18" preserveAspectRatio="none"><path d="M0 11.96 L2.76 8.41 L5.52 8.4 L8.28 7.92 L11.03 7.52 L13.79 7.49 L16.55 7.3 L19.31 7.3 L22.07 7.1 L24.83 4.24 L27.59 4.23 L30.34 4.23 L33.1 4.23 L35.86 4.23 L38.62 4.08 L41.38 3.79 L44.14 3.49 L46.9 0.24 L49.66 0.7 L52.41 0.41 L55.17 0.15 L57.93 0.09 L60.69 0.06 L63.45 0 L66.21 0 L68.97 0 L71.72 0 L74.48 0 L77.24 17.95 L80 18 L80 18 L0 18 Z" fill="var(--cf-spark-bg)" stroke="none"/><path d="M0 11.96 L2.76 8.41 L5.52 8.4 L8.28 7.92 L11.03 7.52 L13.79 7.49 L16.55 7.3 L19.31 7.3 L22.07 7.1 L24.83 4.24 L27.59 4.23 L30.34 4.23 L33.1 4.23 L35.86 4.23 L38.62 4.08 L41.38 3.79 L44.14 3.49 L46.9 0.24 L49.66 0.7 L52.41 0.41 L55.17 0.15 L57.93 0.09 L60.69 0.06 L63.45 0 L66.21 0 L68.97 0 L71.72 0 L74.48 0 L77.24 17.95 L80 18" fill="none" stroke="var(--cf-spark)" stroke-width="1.4" stroke-linecap="round" stroke-linejoin="round"/></svg></g></g><g transform="translate(499,16)"><text x="0" y="0" font-size="10" font-weight="500" fill="var(--cf-text-dim)" letter-spacing="0.6">LANGS</text><text x="0" y="28" font-size="22" font-weight="700" fill="var(--cf-text)">16</text><g transform="translate(0,38)"><svg width="80" height="18" viewBox="0 0 80 18" preserveAspectRatio="none"><path d="M0 18 L2.76 18 L5.52 18 L8.28 18 L11.03 18 L13.79 18 L16.55 18 L19.31 18 L22.07 18 L24.83 18 L27.59 18 L30.34 18 L33.1 18 L35.86 18 L38.62 18 L41.38 18 L44.14 18 L46.9 18 L49.66 18 L52.41 18 L55.17 18 L57.93 18 L60.69 18 L63.45 0 L66.21 0 L68.97 0 L71.72 0 L74.48 0 L77.24 0 L80 0 L80 18 L0 18 Z" fill="var(--cf-spark-bg)" stroke="none"/><path d="M0 18 L2.76 18 L5.52 18 L8.28 18 L11.03 18 L13.79 18 L16.55 18 L19.31 18 L22.07 18 L24.83 18 L27.59 18 L30.34 18 L33.1 18 L35.86 18 L38.62 18 L41.38 18 L44.14 18 L46.9 18 L49.66 18 L52.41 18 L55.17 18 L57.93 18 L60.69 18 L63.45 0 L66.21 0 L68.97 0 L71.72 0 L74.48 0 L77.24 0 L80 0" fill="none" stroke="var(--cf-spark)" stroke-width="1.4" stroke-linecap="round" stroke-linejoin="round"/></svg></g></g></g><g transform="translate(22,180)"><text x="0" y="0" font-size="10" fill="var(--cf-text-faint)">updated 2026-05-25</text><a href="https://github.com/braedonsaunders/codeflow" target="_blank"><text x="676" y="0" text-anchor="end" font-size="10" fill="var(--cf-text-faint)">powered by <tspan font-weight="600" fill="var(--cf-accent)">codeflow</tspan></text></a></g></svg>