<svg xmlns="http://www.w3.org/2000/svg" width="720" height="318" viewBox="0 0 720 318" font-family="-apple-system,BlinkMacSystemFont,Segoe UI,Helvetica,Arial,sans-serif"><style>svg{--cf-bg:#0d1117;--cf-bg-alt:#161b22;--cf-border:#21262d;--cf-text:#e6edf3;--cf-text-dim:#8b949e;--cf-text-faint:#6e7681;--cf-accent:#5eead4;--cf-accent-soft:rgba(94,234,212,0.16);--cf-green:#3fb950;--cf-amber:#d29922;--cf-red:#f85149;--cf-spark:#5eead4;--cf-spark-bg:rgba(94,234,212,0.18)}@media (prefers-color-scheme: light){svg{--cf-bg:#ffffff;--cf-bg-alt:#f6f8fa;--cf-border:#d0d7de;--cf-text:#1f2328;--cf-text-dim:#656d76;--cf-text-faint:#8c959f;--cf-accent:#0d9488;--cf-accent-soft:rgba(13,148,136,0.12);--cf-green:#1a7f37;--cf-amber:#9a6700;--cf-red:#cf222e;--cf-spark:#0d9488;--cf-spark-bg:rgba(13,148,136,0.12)}}</style><rect width="720" height="318" rx="14" fill="var(--cf-bg)" stroke="var(--cf-border)"/><g transform="translate(22,26)"><text x="0" y="0" font-size="18" font-weight="700" fill="var(--cf-text)">braedonsaunders/beaconhs</text><text x="676" y="0" text-anchor="end" font-size="11" fill="var(--cf-text-faint)" font-family="ui-monospace,SFMono-Regular,Menlo,monospace">@9c1a989</text></g><g transform="translate(22,60)"><rect width="676" height="110" rx="10" fill="var(--cf-bg-alt)" stroke="var(--cf-border)"/><text x="16" y="22" font-size="11" font-weight="500" fill="var(--cf-text-dim)" letter-spacing="0.6">HEALTH</text><text x="16" y="78" font-size="64" font-weight="700" fill="var(--cf-amber)" font-family="ui-monospace,SFMono-Regular,Menlo,monospace">D</text><text x="660" y="78" text-anchor="end" font-size="22" font-weight="600" fill="var(--cf-text)">66</text><text x="660" y="94" text-anchor="end" font-size="10" fill="var(--cf-text-faint)" letter-spacing="0.6">SCORE / 100</text></g><g transform="translate(22,184)"><rect width="676" height="88" rx="10" fill="var(--cf-bg-alt)" stroke="var(--cf-border)"/><g transform="translate(16,16)"><text x="0" y="0" font-size="10" font-weight="500" fill="var(--cf-text-dim)" letter-spacing="0.6">FILES</text><text x="0" y="28" font-size="22" font-weight="700" fill="var(--cf-text)">698</text><g transform="translate(0,38)"><svg width="80" height="18" viewBox="0 0 80 18" preserveAspectRatio="none"><path d="M0 18 L4.44 14.48 L8.89 14.48 L13.33 12.18 L17.78 9.61 L22.22 9.34 L26.67 9.2 L31.11 9.2 L35.56 6.63 L40 5.41 L44.44 5.41 L48.89 5.41 L53.33 5.41 L57.78 5.41 L62.22 4.74 L66.67 3.65 L71.11 2.44 L75.56 0 L80 1.62 L80 18 L0 18 Z" fill="var(--cf-spark-bg)" stroke="none"/><path d="M0 18 L4.44 14.48 L8.89 14.48 L13.33 12.18 L17.78 9.61 L22.22 9.34 L26.67 9.2 L31.11 9.2 L35.56 6.63 L40 5.41 L44.44 5.41 L48.89 5.41 L53.33 5.41 L57.78 5.41 L62.22 4.74 L66.67 3.65 L71.11 2.44 L75.56 0 L80 1.62" fill="none" stroke="var(--cf-spark)" stroke-width="1.4" stroke-linecap="round" stroke-linejoin="round"/></svg></g></g><g transform="translate(177,16)"><text x="0" y="0" font-size="10" font-weight="500" fill="var(--cf-text-dim)" letter-spacing="0.6">FNS</text><text x="0" y="28" font-size="22" font-weight="700" fill="var(--cf-text)">1.9K</text><g transform="translate(0,38)"><svg width="80" height="18" viewBox="0 0 80 18" preserveAspectRatio="none"><path d="M0 18 L4.44 13.33 L8.89 13.26 L13.33 11.74 L17.78 8.4 L22.22 8.13 L26.67 7.5 L31.11 7.5 L35.56 6.1 L40 5.71 L44.44 5.71 L48.89 5.71 L53.33 5.71 L57.78 5.68 L62.22 5.17 L66.67 3.5 L71.11 2.1 L75.56 0 L80 3.34 L80 18 L0 18 Z" fill="var(--cf-spark-bg)" stroke="none"/><path d="M0 18 L4.44 13.33 L8.89 13.26 L13.33 11.74 L17.78 8.4 L22.22 8.13 L26.67 7.5 L31.11 7.5 L35.56 6.1 L40 5.71 L44.44 5.71 L48.89 5.71 L53.33 5.71 L57.78 5.68 L62.22 5.17 L66.67 3.5 L71.11 2.1 L75.56 0 L80 3.34" fill="none" stroke="var(--cf-spark)" stroke-width="1.4" stroke-linecap="round" stroke-linejoin="round"/></svg></g></g><g transform="translate(338,16)"><text x="0" y="0" font-size="10" font-weight="500" fill="var(--cf-text-dim)" letter-spacing="0.6">LOC</text><text x="0" y="28" font-size="22" font-weight="700" fill="var(--cf-text)">369.3K</text><g transform="translate(0,38)"><svg width="80" height="18" viewBox="0 0 80 18" preserveAspectRatio="none"><path d="M0 18 L4.44 12.55 L8.89 12.53 L13.33 11.79 L17.78 11.18 L22.22 11.14 L26.67 10.84 L31.11 10.84 L35.56 10.53 L40 6.14 L44.44 6.13 L48.89 6.13 L53.33 6.13 L57.78 6.12 L62.22 5.9 L66.67 5.45 L71.11 4.99 L75.56 0 L80 0.71 L80 18 L0 18 Z" fill="var(--cf-spark-bg)" stroke="none"/><path d="M0 18 L4.44 12.55 L8.89 12.53 L13.33 11.79 L17.78 11.18 L22.22 11.14 L26.67 10.84 L31.11 10.84 L35.56 10.53 L40 6.14 L44.44 6.13 L48.89 6.13 L53.33 6.13 L57.78 6.12 L62.22 5.9 L66.67 5.45 L71.11 4.99 L75.56 0 L80 0.71" fill="none" stroke="var(--cf-spark)" stroke-width="1.4" stroke-linecap="round" stroke-linejoin="round"/></svg></g></g><g transform="translate(499,16)"><text x="0" y="0" font-size="10" font-weight="500" fill="var(--cf-text-dim)" letter-spacing="0.6">LANGS</text><text x="0" y="28" font-size="22" font-weight="700" fill="var(--cf-text)">15</text><g transform="translate(0,38)"><svg width="80" height="18" viewBox="0 0 80 18" preserveAspectRatio="none"><path d="M0 9 L4.44 9 L8.89 9 L13.33 9 L17.78 9 L22.22 9 L26.67 9 L31.11 9 L35.56 9 L40 9 L44.44 9 L48.89 9 L53.33 9 L57.78 9 L62.22 9 L66.67 9 L71.11 9 L75.56 9 L80 9 L80 18 L0 18 Z" fill="var(--cf-spark-bg)" stroke="none"/><path d="M0 9 L4.44 9 L8.89 9 L13.33 9 L17.78 9 L22.22 9 L26.67 9 L31.11 9 L35.56 9 L40 9 L44.44 9 L48.89 9 L53.33 9 L57.78 9 L62.22 9 L66.67 9 L71.11 9 L75.56 9 L80 9" fill="none" stroke="var(--cf-spark)" stroke-width="1.4" stroke-linecap="round" stroke-linejoin="round"/></svg></g></g></g><g transform="translate(22,304)"><text x="0" y="0" font-size="10" fill="var(--cf-text-faint)">updated 2026-05-20</text><a href="https://github.com/braedonsaunders/codeflow" target="_blank"><text x="676" y="0" text-anchor="end" font-size="10" fill="var(--cf-text-faint)">powered by <tspan font-weight="600" fill="var(--cf-accent)">codeflow</tspan></text></a></g></svg>