<svg xmlns="http://www.w3.org/2000/svg" width="720" height="194" viewBox="0 0 720 194" font-family="-apple-system,BlinkMacSystemFont,Segoe UI,Helvetica,Arial,sans-serif"><style>svg{--cf-bg:#0d1117;--cf-bg-alt:#161b22;--cf-border:#21262d;--cf-text:#e6edf3;--cf-text-dim:#8b949e;--cf-text-faint:#6e7681;--cf-accent:#5eead4;--cf-accent-soft:rgba(94,234,212,0.16);--cf-green:#3fb950;--cf-amber:#d29922;--cf-red:#f85149;--cf-spark:#5eead4;--cf-spark-bg:rgba(94,234,212,0.18)}@media (prefers-color-scheme: light){svg{--cf-bg:#ffffff;--cf-bg-alt:#f6f8fa;--cf-border:#d0d7de;--cf-text:#1f2328;--cf-text-dim:#656d76;--cf-text-faint:#8c959f;--cf-accent:#0d9488;--cf-accent-soft:rgba(13,148,136,0.12);--cf-green:#1a7f37;--cf-amber:#9a6700;--cf-red:#cf222e;--cf-spark:#0d9488;--cf-spark-bg:rgba(13,148,136,0.12)}}</style><rect width="720" height="194" rx="14" fill="var(--cf-bg)" stroke="var(--cf-border)"/><g transform="translate(22,26)"><text x="0" y="0" font-size="18" font-weight="700" fill="var(--cf-text)">braedonsaunders/beaconhs</text><text x="676" y="0" text-anchor="end" font-size="11" fill="var(--cf-text-faint)" font-family="ui-monospace,SFMono-Regular,Menlo,monospace">@02c9c4d</text></g><g transform="translate(22,60)"><rect width="676" height="88" rx="10" fill="var(--cf-bg-alt)" stroke="var(--cf-border)"/><g transform="translate(16,16)"><text x="0" y="0" font-size="10" font-weight="500" fill="var(--cf-text-dim)" letter-spacing="0.6">FILES</text><text x="0" y="28" font-size="22" font-weight="700" fill="var(--cf-text)">853</text><g transform="translate(0,38)"><svg width="80" height="18" viewBox="0 0 80 18" preserveAspectRatio="none"><path d="M0 18 L2.67 16.3 L5.33 16.3 L8 15.2 L10.67 13.96 L13.33 13.83 L16 13.76 L18.67 13.76 L21.33 12.52 L24 11.93 L26.67 11.93 L29.33 11.93 L32 11.93 L34.67 11.93 L37.33 11.61 L40 11.09 L42.67 10.5 L45.33 9.33 L48 10.11 L50.67 9.78 L53.33 9.2 L56 9.07 L58.67 9 L61.33 8.93 L64 8.93 L66.67 8.93 L69.33 8.93 L72 8.93 L74.67 11.02 L77.33 11.02 L80 0 L80 18 L0 18 Z" fill="var(--cf-spark-bg)" stroke="none"/><path d="M0 18 L2.67 16.3 L5.33 16.3 L8 15.2 L10.67 13.96 L13.33 13.83 L16 13.76 L18.67 13.76 L21.33 12.52 L24 11.93 L26.67 11.93 L29.33 11.93 L32 11.93 L34.67 11.93 L37.33 11.61 L40 11.09 L42.67 10.5 L45.33 9.33 L48 10.11 L50.67 9.78 L53.33 9.2 L56 9.07 L58.67 9 L61.33 8.93 L64 8.93 L66.67 8.93 L69.33 8.93 L72 8.93 L74.67 11.02 L77.33 11.02 L80 0" fill="none" stroke="var(--cf-spark)" stroke-width="1.4" stroke-linecap="round" stroke-linejoin="round"/></svg></g></g><g transform="translate(177,16)"><text x="0" y="0" font-size="10" font-weight="500" fill="var(--cf-text-dim)" letter-spacing="0.6">FNS</text><text x="0" y="28" font-size="22" font-weight="700" fill="var(--cf-text)">2.5K</text><g transform="translate(0,38)"><svg width="80" height="18" viewBox="0 0 80 18" preserveAspectRatio="none"><path d="M0 18 L2.67 15.89 L5.33 15.86 L8 15.17 L10.67 13.66 L13.33 13.54 L16 13.25 L18.67 13.25 L21.33 12.62 L24 12.45 L26.67 12.45 L29.33 12.45 L32 12.45 L34.67 12.43 L37.33 12.2 L40 11.44 L42.67 10.81 L45.33 9.86 L48 11.37 L50.67 10.81 L53.33 10.41 L56 10.27 L58.67 10.23 L61.33 10.23 L64 10.23 L66.67 10.23 L69.33 10.23 L72 10.23 L74.67 10.23 L77.33 10.23 L80 0 L80 18 L0 18 Z" fill="var(--cf-spark-bg)" stroke="none"/><path d="M0 18 L2.67 15.89 L5.33 15.86 L8 15.17 L10.67 13.66 L13.33 13.54 L16 13.25 L18.67 13.25 L21.33 12.62 L24 12.45 L26.67 12.45 L29.33 12.45 L32 12.45 L34.67 12.43 L37.33 12.2 L40 11.44 L42.67 10.81 L45.33 9.86 L48 11.37 L50.67 10.81 L53.33 10.41 L56 10.27 L58.67 10.23 L61.33 10.23 L64 10.23 L66.67 10.23 L69.33 10.23 L72 10.23 L74.67 10.23 L77.33 10.23 L80 0" fill="none" stroke="var(--cf-spark)" stroke-width="1.4" stroke-linecap="round" stroke-linejoin="round"/></svg></g></g><g transform="translate(338,16)"><text x="0" y="0" font-size="10" font-weight="500" fill="var(--cf-text-dim)" letter-spacing="0.6">LOC</text><text x="0" y="28" font-size="22" font-weight="700" fill="var(--cf-text)">213.4K</text><g transform="translate(0,38)"><svg width="80" height="18" viewBox="0 0 80 18" preserveAspectRatio="none"><path d="M0 11.96 L2.67 8.41 L5.33 8.4 L8 7.92 L10.67 7.52 L13.33 7.49 L16 7.3 L18.67 7.3 L21.33 7.1 L24 4.24 L26.67 4.23 L29.33 4.23 L32 4.23 L34.67 4.23 L37.33 4.08 L40 3.79 L42.67 3.49 L45.33 0.24 L48 0.7 L50.67 0.41 L53.33 0.15 L56 0.09 L58.67 0.06 L61.33 0 L64 0 L66.67 0 L69.33 0 L72 0 L74.67 17.95 L77.33 18 L80 15.24 L80 18 L0 18 Z" fill="var(--cf-spark-bg)" stroke="none"/><path d="M0 11.96 L2.67 8.41 L5.33 8.4 L8 7.92 L10.67 7.52 L13.33 7.49 L16 7.3 L18.67 7.3 L21.33 7.1 L24 4.24 L26.67 4.23 L29.33 4.23 L32 4.23 L34.67 4.23 L37.33 4.08 L40 3.79 L42.67 3.49 L45.33 0.24 L48 0.7 L50.67 0.41 L53.33 0.15 L56 0.09 L58.67 0.06 L61.33 0 L64 0 L66.67 0 L69.33 0 L72 0 L74.67 17.95 L77.33 18 L80 15.24" fill="none" stroke="var(--cf-spark)" stroke-width="1.4" stroke-linecap="round" stroke-linejoin="round"/></svg></g></g><g transform="translate(499,16)"><text x="0" y="0" font-size="10" font-weight="500" fill="var(--cf-text-dim)" letter-spacing="0.6">LANGS</text><text x="0" y="28" font-size="22" font-weight="700" fill="var(--cf-text)">16</text><g transform="translate(0,38)"><svg width="80" height="18" viewBox="0 0 80 18" preserveAspectRatio="none"><path d="M0 18 L2.67 18 L5.33 18 L8 18 L10.67 18 L13.33 18 L16 18 L18.67 18 L21.33 18 L24 18 L26.67 18 L29.33 18 L32 18 L34.67 18 L37.33 18 L40 18 L42.67 18 L45.33 18 L48 18 L50.67 18 L53.33 18 L56 18 L58.67 18 L61.33 0 L64 0 L66.67 0 L69.33 0 L72 0 L74.67 0 L77.33 0 L80 0 L80 18 L0 18 Z" fill="var(--cf-spark-bg)" stroke="none"/><path d="M0 18 L2.67 18 L5.33 18 L8 18 L10.67 18 L13.33 18 L16 18 L18.67 18 L21.33 18 L24 18 L26.67 18 L29.33 18 L32 18 L34.67 18 L37.33 18 L40 18 L42.67 18 L45.33 18 L48 18 L50.67 18 L53.33 18 L56 18 L58.67 18 L61.33 0 L64 0 L66.67 0 L69.33 0 L72 0 L74.67 0 L77.33 0 L80 0" fill="none" stroke="var(--cf-spark)" stroke-width="1.4" stroke-linecap="round" stroke-linejoin="round"/></svg></g></g></g><g transform="translate(22,180)"><text x="0" y="0" font-size="10" fill="var(--cf-text-faint)">updated 2026-06-09</text><a href="https://github.com/braedonsaunders/codeflow" target="_blank"><text x="676" y="0" text-anchor="end" font-size="10" fill="var(--cf-text-faint)">powered by <tspan font-weight="600" fill="var(--cf-accent)">codeflow</tspan></text></a></g></svg>