<svg xmlns="http://www.w3.org/2000/svg" width="720" height="140" viewBox="0 0 720 140" font-family="-apple-system,BlinkMacSystemFont,Segoe UI,Helvetica,Arial,sans-serif"><style>svg{--cf-bg:#0d1117;--cf-bg-alt:#161b22;--cf-border:#21262d;--cf-text:#e6edf3;--cf-text-dim:#8b949e;--cf-text-faint:#6e7681;--cf-accent:#5eead4;--cf-accent-soft:rgba(94,234,212,0.16);--cf-green:#3fb950;--cf-amber:#d29922;--cf-red:#f85149;--cf-spark:#5eead4;--cf-spark-bg:rgba(94,234,212,0.18)}@media (prefers-color-scheme: light){svg{--cf-bg:#ffffff;--cf-bg-alt:#f6f8fa;--cf-border:#d0d7de;--cf-text:#1f2328;--cf-text-dim:#656d76;--cf-text-faint:#8c959f;--cf-accent:#0d9488;--cf-accent-soft:rgba(13,148,136,0.12);--cf-green:#1a7f37;--cf-amber:#9a6700;--cf-red:#cf222e;--cf-spark:#0d9488;--cf-spark-bg:rgba(13,148,136,0.12)}}</style><rect width="720" height="140" rx="12" fill="var(--cf-bg)" stroke="var(--cf-border)"/><text x="18" y="26" font-size="13" font-weight="600" fill="var(--cf-text)">braedonsaunders/beaconhs</text><text x="702" y="26" text-anchor="end" font-size="10" fill="var(--cf-text-faint)" font-family="ui-monospace,SFMono-Regular,Menlo,monospace">@91bc39d</text><g transform="translate(18,46)"><text x="0" y="0" font-size="9" font-weight="600" fill="var(--cf-text-dim)" letter-spacing="0.8">FILES</text><text x="0" y="28" font-size="22" font-weight="700" fill="var(--cf-text)">1.5K</text><g transform="translate(0,40)"><svg width="64" height="14" viewBox="0 0 64 14" preserveAspectRatio="none"><path d="M0 12.42 L2.13 14 L4.27 14 L6.4 13.55 L8.53 13.32 L10.67 12.98 L12.8 13.1 L14.93 13.1 L17.07 13.1 L19.2 13.1 L21.33 12.42 L23.47 12.42 L25.6 11.85 L27.73 11.85 L29.87 11.85 L32 11.18 L34.13 10.84 L36.27 10.95 L38.4 11.06 L40.53 11.06 L42.67 11.18 L44.8 11.06 L46.93 10.16 L49.07 9.37 L51.2 9.37 L53.33 0.45 L55.47 0.45 L57.6 0.45 L59.73 0.45 L61.87 0.45 L64 0 L64 14 L0 14 Z" fill="var(--cf-spark-bg)" stroke="none"/><path d="M0 12.42 L2.13 14 L4.27 14 L6.4 13.55 L8.53 13.32 L10.67 12.98 L12.8 13.1 L14.93 13.1 L17.07 13.1 L19.2 13.1 L21.33 12.42 L23.47 12.42 L25.6 11.85 L27.73 11.85 L29.87 11.85 L32 11.18 L34.13 10.84 L36.27 10.95 L38.4 11.06 L40.53 11.06 L42.67 11.18 L44.8 11.06 L46.93 10.16 L49.07 9.37 L51.2 9.37 L53.33 0.45 L55.47 0.45 L57.6 0.45 L59.73 0.45 L61.87 0.45 L64 0" fill="none" stroke="var(--cf-spark)" stroke-width="1.4" stroke-linecap="round" stroke-linejoin="round"/></svg></g></g><g transform="translate(154.8,46)"><text x="0" y="0" font-size="9" font-weight="600" fill="var(--cf-text-dim)" letter-spacing="0.8">FNS</text><text x="0" y="28" font-size="22" font-weight="700" fill="var(--cf-text)">5.1K</text><g transform="translate(0,40)"><svg width="64" height="14" viewBox="0 0 64 14" preserveAspectRatio="none"><path d="M0 11.05 L2.13 14 L4.27 14 L6.4 13.76 L8.53 13.53 L10.67 13.06 L12.8 13.1 L14.93 13.1 L17.07 12.98 L19.2 12.98 L21.33 12.27 L23.47 12.23 L25.6 12.51 L27.73 12.51 L29.87 12.31 L32 10.81 L34.13 10.46 L36.27 10.54 L38.4 10.38 L40.53 10.38 L42.67 10.58 L44.8 10.62 L46.93 9.48 L49.07 9.04 L51.2 9.04 L53.33 0.55 L55.47 0.55 L57.6 0.55 L59.73 0.55 L61.87 0.55 L64 0 L64 14 L0 14 Z" fill="var(--cf-spark-bg)" stroke="none"/><path d="M0 11.05 L2.13 14 L4.27 14 L6.4 13.76 L8.53 13.53 L10.67 13.06 L12.8 13.1 L14.93 13.1 L17.07 12.98 L19.2 12.98 L21.33 12.27 L23.47 12.23 L25.6 12.51 L27.73 12.51 L29.87 12.31 L32 10.81 L34.13 10.46 L36.27 10.54 L38.4 10.38 L40.53 10.38 L42.67 10.58 L44.8 10.62 L46.93 9.48 L49.07 9.04 L51.2 9.04 L53.33 0.55 L55.47 0.55 L57.6 0.55 L59.73 0.55 L61.87 0.55 L64 0" fill="none" stroke="var(--cf-spark)" stroke-width="1.4" stroke-linecap="round" stroke-linejoin="round"/></svg></g></g><g transform="translate(291.6,46)"><text x="0" y="0" font-size="9" font-weight="600" fill="var(--cf-text-dim)" letter-spacing="0.8">LOC</text><text x="0" y="28" font-size="22" font-weight="700" fill="var(--cf-text)">444.4K</text><g transform="translate(0,40)"><svg width="64" height="14" viewBox="0 0 64 14" preserveAspectRatio="none"><path d="M0 2.22 L2.13 5.16 L4.27 5.16 L6.4 4.63 L8.53 4.37 L10.67 4.02 L12.8 3.96 L14.93 3.94 L17.07 3.82 L19.2 3.8 L21.33 3.06 L23.47 2.95 L25.6 3.7 L27.73 3.7 L29.87 3.41 L32 2.15 L34.13 1.59 L36.27 1.64 L38.4 1.45 L40.53 1.4 L42.67 1.36 L44.8 1.34 L46.93 0.39 L49.07 0 L51.2 0 L53.33 14 L55.47 13.99 L57.6 13.99 L59.73 13.99 L61.87 13.99 L64 12.44 L64 14 L0 14 Z" fill="var(--cf-spark-bg)" stroke="none"/><path d="M0 2.22 L2.13 5.16 L4.27 5.16 L6.4 4.63 L8.53 4.37 L10.67 4.02 L12.8 3.96 L14.93 3.94 L17.07 3.82 L19.2 3.8 L21.33 3.06 L23.47 2.95 L25.6 3.7 L27.73 3.7 L29.87 3.41 L32 2.15 L34.13 1.59 L36.27 1.64 L38.4 1.45 L40.53 1.4 L42.67 1.36 L44.8 1.34 L46.93 0.39 L49.07 0 L51.2 0 L53.33 14 L55.47 13.99 L57.6 13.99 L59.73 13.99 L61.87 13.99 L64 12.44" fill="none" stroke="var(--cf-spark)" stroke-width="1.4" stroke-linecap="round" stroke-linejoin="round"/></svg></g></g><g transform="translate(428.40000000000003,46)"><text x="0" y="0" font-size="9" font-weight="600" fill="var(--cf-text-dim)" letter-spacing="0.8">LANGS</text><text x="0" y="28" font-size="22" font-weight="700" fill="var(--cf-text)">17</text><g transform="translate(0,40)"><svg width="64" height="14" viewBox="0 0 64 14" preserveAspectRatio="none"><path d="M0 7 L2.13 7 L4.27 7 L6.4 7 L8.53 7 L10.67 7 L12.8 7 L14.93 7 L17.07 7 L19.2 7 L21.33 7 L23.47 7 L25.6 7 L27.73 7 L29.87 7 L32 7 L34.13 7 L36.27 7 L38.4 7 L40.53 7 L42.67 7 L44.8 7 L46.93 7 L49.07 7 L51.2 7 L53.33 7 L55.47 7 L57.6 7 L59.73 7 L61.87 7 L64 7 L64 14 L0 14 Z" fill="var(--cf-spark-bg)" stroke="none"/><path d="M0 7 L2.13 7 L4.27 7 L6.4 7 L8.53 7 L10.67 7 L12.8 7 L14.93 7 L17.07 7 L19.2 7 L21.33 7 L23.47 7 L25.6 7 L27.73 7 L29.87 7 L32 7 L34.13 7 L36.27 7 L38.4 7 L40.53 7 L42.67 7 L44.8 7 L46.93 7 L49.07 7 L51.2 7 L53.33 7 L55.47 7 L57.6 7 L59.73 7 L61.87 7 L64 7" fill="none" stroke="var(--cf-spark)" stroke-width="1.4" stroke-linecap="round" stroke-linejoin="round"/></svg></g></g><g transform="translate(565.2,46)"><text x="0" y="0" font-size="9" font-weight="600" fill="var(--cf-text-dim)" letter-spacing="0.8">TESTS</text><text x="0" y="28" font-size="22" font-weight="700" fill="var(--cf-text)">61</text><g transform="translate(0,40)"><svg width="64" height="14" viewBox="0 0 64 14" preserveAspectRatio="none"><path d="M0 14 L2.13 14 L4.27 14 L6.4 14 L8.53 13.73 L10.67 13.73 L12.8 13.73 L14.93 13.73 L17.07 13.73 L19.2 13.73 L21.33 13.73 L23.47 13.73 L25.6 13.18 L27.73 13.18 L29.87 13.18 L32 13.18 L34.13 13.18 L36.27 13.18 L38.4 13.18 L40.53 13.18 L42.67 13.18 L44.8 13.18 L46.93 13.18 L49.07 13.18 L51.2 13.18 L53.33 0.82 L55.47 0.82 L57.6 0.82 L59.73 0.82 L61.87 0.82 L64 0 L64 14 L0 14 Z" fill="var(--cf-spark-bg)" stroke="none"/><path d="M0 14 L2.13 14 L4.27 14 L6.4 14 L8.53 13.73 L10.67 13.73 L12.8 13.73 L14.93 13.73 L17.07 13.73 L19.2 13.73 L21.33 13.73 L23.47 13.73 L25.6 13.18 L27.73 13.18 L29.87 13.18 L32 13.18 L34.13 13.18 L36.27 13.18 L38.4 13.18 L40.53 13.18 L42.67 13.18 L44.8 13.18 L46.93 13.18 L49.07 13.18 L51.2 13.18 L53.33 0.82 L55.47 0.82 L57.6 0.82 L59.73 0.82 L61.87 0.82 L64 0" fill="none" stroke="var(--cf-spark)" stroke-width="1.4" stroke-linecap="round" stroke-linejoin="round"/></svg></g></g><a href="https://github.com/braedonsaunders/codeflow" target="_blank"><text x="702" y="130" text-anchor="end" font-size="9" fill="var(--cf-text-faint)">powered by <tspan font-weight="600" fill="var(--cf-accent)">codeflow</tspan></text></a></svg>