<svg xmlns="http://www.w3.org/2000/svg" width="720" height="140" viewBox="0 0 720 140" font-family="-apple-system,BlinkMacSystemFont,Segoe UI,Helvetica,Arial,sans-serif"><style>svg{--cf-bg:#0d1117;--cf-bg-alt:#161b22;--cf-border:#21262d;--cf-text:#e6edf3;--cf-text-dim:#8b949e;--cf-text-faint:#6e7681;--cf-accent:#5eead4;--cf-accent-soft:rgba(94,234,212,0.16);--cf-green:#3fb950;--cf-amber:#d29922;--cf-red:#f85149;--cf-spark:#5eead4;--cf-spark-bg:rgba(94,234,212,0.18)}@media (prefers-color-scheme: light){svg{--cf-bg:#ffffff;--cf-bg-alt:#f6f8fa;--cf-border:#d0d7de;--cf-text:#1f2328;--cf-text-dim:#656d76;--cf-text-faint:#8c959f;--cf-accent:#0d9488;--cf-accent-soft:rgba(13,148,136,0.12);--cf-green:#1a7f37;--cf-amber:#9a6700;--cf-red:#cf222e;--cf-spark:#0d9488;--cf-spark-bg:rgba(13,148,136,0.12)}}</style><rect width="720" height="140" rx="12" fill="var(--cf-bg)" stroke="var(--cf-border)"/><text x="18" y="26" font-size="13" font-weight="600" fill="var(--cf-text)">braedonsaunders/beaconhs</text><text x="702" y="26" text-anchor="end" font-size="10" fill="var(--cf-text-faint)" font-family="ui-monospace,SFMono-Regular,Menlo,monospace">@31b4a0d</text><g transform="translate(18,46)"><text x="0" y="0" font-size="9" font-weight="600" fill="var(--cf-text-dim)" letter-spacing="0.8">FILES</text><text x="0" y="28" font-size="22" font-weight="700" fill="var(--cf-text)">1.5K</text><g transform="translate(0,40)"><svg width="64" height="14" viewBox="0 0 64 14" preserveAspectRatio="none"><path d="M0 14 L2.13 13.57 L4.27 13.35 L6.4 13.03 L8.53 13.14 L10.67 13.14 L12.8 13.14 L14.93 13.14 L17.07 12.49 L19.2 12.49 L21.33 11.95 L23.47 11.95 L25.6 11.95 L27.73 11.31 L29.87 10.98 L32 11.09 L34.13 11.2 L36.27 11.2 L38.4 11.31 L40.53 11.2 L42.67 10.34 L44.8 9.58 L46.93 9.58 L49.07 1.08 L51.2 1.08 L53.33 1.08 L55.47 1.08 L57.6 1.08 L59.73 0.65 L61.87 0.65 L64 0 L64 14 L0 14 Z" fill="var(--cf-spark-bg)" stroke="none"/><path d="M0 14 L2.13 13.57 L4.27 13.35 L6.4 13.03 L8.53 13.14 L10.67 13.14 L12.8 13.14 L14.93 13.14 L17.07 12.49 L19.2 12.49 L21.33 11.95 L23.47 11.95 L25.6 11.95 L27.73 11.31 L29.87 10.98 L32 11.09 L34.13 11.2 L36.27 11.2 L38.4 11.31 L40.53 11.2 L42.67 10.34 L44.8 9.58 L46.93 9.58 L49.07 1.08 L51.2 1.08 L53.33 1.08 L55.47 1.08 L57.6 1.08 L59.73 0.65 L61.87 0.65 L64 0" fill="none" stroke="var(--cf-spark)" stroke-width="1.4" stroke-linecap="round" stroke-linejoin="round"/></svg></g></g><g transform="translate(154.8,46)"><text x="0" y="0" font-size="9" font-weight="600" fill="var(--cf-text-dim)" letter-spacing="0.8">FNS</text><text x="0" y="28" font-size="22" font-weight="700" fill="var(--cf-text)">5.2K</text><g transform="translate(0,40)"><svg width="64" height="14" viewBox="0 0 64 14" preserveAspectRatio="none"><path d="M0 14 L2.13 13.83 L4.27 13.65 L6.4 13.3 L8.53 13.33 L10.67 13.33 L12.8 13.24 L14.93 13.24 L17.07 12.72 L19.2 12.69 L21.33 12.89 L23.47 12.89 L25.6 12.75 L27.73 11.64 L29.87 11.38 L32 11.43 L34.13 11.32 L36.27 11.32 L38.4 11.46 L40.53 11.49 L42.67 10.65 L44.8 10.33 L46.93 10.33 L49.07 4.03 L51.2 4.03 L53.33 4.03 L55.47 4.03 L57.6 4.03 L59.73 3.62 L61.87 3.62 L64 0 L64 14 L0 14 Z" fill="var(--cf-spark-bg)" stroke="none"/><path d="M0 14 L2.13 13.83 L4.27 13.65 L6.4 13.3 L8.53 13.33 L10.67 13.33 L12.8 13.24 L14.93 13.24 L17.07 12.72 L19.2 12.69 L21.33 12.89 L23.47 12.89 L25.6 12.75 L27.73 11.64 L29.87 11.38 L32 11.43 L34.13 11.32 L36.27 11.32 L38.4 11.46 L40.53 11.49 L42.67 10.65 L44.8 10.33 L46.93 10.33 L49.07 4.03 L51.2 4.03 L53.33 4.03 L55.47 4.03 L57.6 4.03 L59.73 3.62 L61.87 3.62 L64 0" fill="none" stroke="var(--cf-spark)" stroke-width="1.4" stroke-linecap="round" stroke-linejoin="round"/></svg></g></g><g transform="translate(291.6,46)"><text x="0" y="0" font-size="9" font-weight="600" fill="var(--cf-text-dim)" letter-spacing="0.8">LOC</text><text x="0" y="28" font-size="22" font-weight="700" fill="var(--cf-text)">448K</text><g transform="translate(0,40)"><svg width="64" height="14" viewBox="0 0 64 14" preserveAspectRatio="none"><path d="M0 5.16 L2.13 4.63 L4.27 4.37 L6.4 4.02 L8.53 3.96 L10.67 3.94 L12.8 3.82 L14.93 3.8 L17.07 3.06 L19.2 2.95 L21.33 3.7 L23.47 3.7 L25.6 3.41 L27.73 2.15 L29.87 1.59 L32 1.64 L34.13 1.45 L36.27 1.4 L38.4 1.36 L40.53 1.34 L42.67 0.39 L44.8 0 L46.93 0 L49.07 14 L51.2 13.99 L53.33 13.99 L55.47 13.99 L57.6 13.99 L59.73 12.44 L61.87 12.45 L64 9.67 L64 14 L0 14 Z" fill="var(--cf-spark-bg)" stroke="none"/><path d="M0 5.16 L2.13 4.63 L4.27 4.37 L6.4 4.02 L8.53 3.96 L10.67 3.94 L12.8 3.82 L14.93 3.8 L17.07 3.06 L19.2 2.95 L21.33 3.7 L23.47 3.7 L25.6 3.41 L27.73 2.15 L29.87 1.59 L32 1.64 L34.13 1.45 L36.27 1.4 L38.4 1.36 L40.53 1.34 L42.67 0.39 L44.8 0 L46.93 0 L49.07 14 L51.2 13.99 L53.33 13.99 L55.47 13.99 L57.6 13.99 L59.73 12.44 L61.87 12.45 L64 9.67" fill="none" stroke="var(--cf-spark)" stroke-width="1.4" stroke-linecap="round" stroke-linejoin="round"/></svg></g></g><g transform="translate(428.40000000000003,46)"><text x="0" y="0" font-size="9" font-weight="600" fill="var(--cf-text-dim)" letter-spacing="0.8">LANGS</text><text x="0" y="28" font-size="22" font-weight="700" fill="var(--cf-text)">17</text><g transform="translate(0,40)"><svg width="64" height="14" viewBox="0 0 64 14" preserveAspectRatio="none"><path d="M0 7 L2.13 7 L4.27 7 L6.4 7 L8.53 7 L10.67 7 L12.8 7 L14.93 7 L17.07 7 L19.2 7 L21.33 7 L23.47 7 L25.6 7 L27.73 7 L29.87 7 L32 7 L34.13 7 L36.27 7 L38.4 7 L40.53 7 L42.67 7 L44.8 7 L46.93 7 L49.07 7 L51.2 7 L53.33 7 L55.47 7 L57.6 7 L59.73 7 L61.87 7 L64 7 L64 14 L0 14 Z" fill="var(--cf-spark-bg)" stroke="none"/><path d="M0 7 L2.13 7 L4.27 7 L6.4 7 L8.53 7 L10.67 7 L12.8 7 L14.93 7 L17.07 7 L19.2 7 L21.33 7 L23.47 7 L25.6 7 L27.73 7 L29.87 7 L32 7 L34.13 7 L36.27 7 L38.4 7 L40.53 7 L42.67 7 L44.8 7 L46.93 7 L49.07 7 L51.2 7 L53.33 7 L55.47 7 L57.6 7 L59.73 7 L61.87 7 L64 7" fill="none" stroke="var(--cf-spark)" stroke-width="1.4" stroke-linecap="round" stroke-linejoin="round"/></svg></g></g><g transform="translate(565.2,46)"><text x="0" y="0" font-size="9" font-weight="600" fill="var(--cf-text-dim)" letter-spacing="0.8">TESTS</text><text x="0" y="28" font-size="22" font-weight="700" fill="var(--cf-text)">63</text><g transform="translate(0,40)"><svg width="64" height="14" viewBox="0 0 64 14" preserveAspectRatio="none"><path d="M0 14 L2.13 14 L4.27 13.74 L6.4 13.74 L8.53 13.74 L10.67 13.74 L12.8 13.74 L14.93 13.74 L17.07 13.74 L19.2 13.74 L21.33 13.21 L23.47 13.21 L25.6 13.21 L27.73 13.21 L29.87 13.21 L32 13.21 L34.13 13.21 L36.27 13.21 L38.4 13.21 L40.53 13.21 L42.67 13.21 L44.8 13.21 L46.93 13.21 L49.07 1.32 L51.2 1.32 L53.33 1.32 L55.47 1.32 L57.6 1.32 L59.73 0.53 L61.87 0.53 L64 0 L64 14 L0 14 Z" fill="var(--cf-spark-bg)" stroke="none"/><path d="M0 14 L2.13 14 L4.27 13.74 L6.4 13.74 L8.53 13.74 L10.67 13.74 L12.8 13.74 L14.93 13.74 L17.07 13.74 L19.2 13.74 L21.33 13.21 L23.47 13.21 L25.6 13.21 L27.73 13.21 L29.87 13.21 L32 13.21 L34.13 13.21 L36.27 13.21 L38.4 13.21 L40.53 13.21 L42.67 13.21 L44.8 13.21 L46.93 13.21 L49.07 1.32 L51.2 1.32 L53.33 1.32 L55.47 1.32 L57.6 1.32 L59.73 0.53 L61.87 0.53 L64 0" fill="none" stroke="var(--cf-spark)" stroke-width="1.4" stroke-linecap="round" stroke-linejoin="round"/></svg></g></g><a href="https://github.com/braedonsaunders/codeflow" target="_blank"><text x="702" y="130" text-anchor="end" font-size="9" fill="var(--cf-text-faint)">powered by <tspan font-weight="600" fill="var(--cf-accent)">codeflow</tspan></text></a></svg>