<svg xmlns="http://www.w3.org/2000/svg" width="720" height="140" viewBox="0 0 720 140" font-family="-apple-system,BlinkMacSystemFont,Segoe UI,Helvetica,Arial,sans-serif"><style>svg{--cf-bg:#0d1117;--cf-bg-alt:#161b22;--cf-border:#21262d;--cf-text:#e6edf3;--cf-text-dim:#8b949e;--cf-text-faint:#6e7681;--cf-accent:#5eead4;--cf-accent-soft:rgba(94,234,212,0.16);--cf-green:#3fb950;--cf-amber:#d29922;--cf-red:#f85149;--cf-spark:#5eead4;--cf-spark-bg:rgba(94,234,212,0.18)}@media (prefers-color-scheme: light){svg{--cf-bg:#ffffff;--cf-bg-alt:#f6f8fa;--cf-border:#d0d7de;--cf-text:#1f2328;--cf-text-dim:#656d76;--cf-text-faint:#8c959f;--cf-accent:#0d9488;--cf-accent-soft:rgba(13,148,136,0.12);--cf-green:#1a7f37;--cf-amber:#9a6700;--cf-red:#cf222e;--cf-spark:#0d9488;--cf-spark-bg:rgba(13,148,136,0.12)}}</style><rect width="720" height="140" rx="12" fill="var(--cf-bg)" stroke="var(--cf-border)"/><text x="18" y="26" font-size="13" font-weight="600" fill="var(--cf-text)">braedonsaunders/beaconhs</text><text x="702" y="26" text-anchor="end" font-size="10" fill="var(--cf-text-faint)" font-family="ui-monospace,SFMono-Regular,Menlo,monospace">@184a5b0</text><g transform="translate(18,46)"><text x="0" y="0" font-size="9" font-weight="600" fill="var(--cf-text-dim)" letter-spacing="0.8">FILES</text><text x="0" y="28" font-size="22" font-weight="700" fill="var(--cf-text)">1K</text><g transform="translate(0,40)"><svg width="64" height="14" viewBox="0 0 64 14" preserveAspectRatio="none"><path d="M0 12.04 L2.21 12.04 L4.41 12.04 L6.62 11.29 L8.83 12.65 L11.03 12.65 L13.24 12.19 L15.45 14 L17.66 13.25 L19.86 13.25 L22.07 13.25 L24.28 13.25 L26.48 13.1 L28.69 12.95 L30.9 12.65 L33.1 12.34 L35.31 12.34 L37.52 12.34 L39.72 9.33 L41.93 9.33 L44.14 9.33 L46.34 9.78 L48.55 0.45 L50.76 0.3 L52.97 0.3 L55.17 0.3 L57.38 0.3 L59.59 0.3 L61.79 0.3 L64 0 L64 14 L0 14 Z" fill="var(--cf-spark-bg)" stroke="none"/><path d="M0 12.04 L2.21 12.04 L4.41 12.04 L6.62 11.29 L8.83 12.65 L11.03 12.65 L13.24 12.19 L15.45 14 L17.66 13.25 L19.86 13.25 L22.07 13.25 L24.28 13.25 L26.48 13.1 L28.69 12.95 L30.9 12.65 L33.1 12.34 L35.31 12.34 L37.52 12.34 L39.72 9.33 L41.93 9.33 L44.14 9.33 L46.34 9.78 L48.55 0.45 L50.76 0.3 L52.97 0.3 L55.17 0.3 L57.38 0.3 L59.59 0.3 L61.79 0.3 L64 0" fill="none" stroke="var(--cf-spark)" stroke-width="1.4" stroke-linecap="round" stroke-linejoin="round"/></svg></g></g><g transform="translate(154.8,46)"><text x="0" y="0" font-size="9" font-weight="600" fill="var(--cf-text-dim)" letter-spacing="0.8">FNS</text><text x="0" y="28" font-size="22" font-weight="700" fill="var(--cf-text)">3.1K</text><g transform="translate(0,40)"><svg width="64" height="14" viewBox="0 0 64 14" preserveAspectRatio="none"><path d="M0 14 L2.21 14 L4.41 14 L6.62 10.58 L8.83 11.93 L11.03 11.93 L13.24 11.77 L15.45 12.93 L17.66 12.59 L19.86 12.59 L22.07 12.59 L24.28 12.59 L26.48 12.56 L28.69 12.49 L30.9 12.4 L33.1 12.34 L35.31 12.34 L37.52 12.34 L39.72 8.91 L41.93 8.91 L44.14 8.95 L46.34 8.85 L48.55 0.97 L50.76 0.94 L52.97 0.94 L55.17 0.78 L57.38 0.72 L59.59 0.72 L61.79 0.72 L64 0 L64 14 L0 14 Z" fill="var(--cf-spark-bg)" stroke="none"/><path d="M0 14 L2.21 14 L4.41 14 L6.62 10.58 L8.83 11.93 L11.03 11.93 L13.24 11.77 L15.45 12.93 L17.66 12.59 L19.86 12.59 L22.07 12.59 L24.28 12.59 L26.48 12.56 L28.69 12.49 L30.9 12.4 L33.1 12.34 L35.31 12.34 L37.52 12.34 L39.72 8.91 L41.93 8.91 L44.14 8.95 L46.34 8.85 L48.55 0.97 L50.76 0.94 L52.97 0.94 L55.17 0.78 L57.38 0.72 L59.59 0.72 L61.79 0.72 L64 0" fill="none" stroke="var(--cf-spark)" stroke-width="1.4" stroke-linecap="round" stroke-linejoin="round"/></svg></g></g><g transform="translate(291.6,46)"><text x="0" y="0" font-size="9" font-weight="600" fill="var(--cf-text-dim)" letter-spacing="0.8">LOC</text><text x="0" y="28" font-size="22" font-weight="700" fill="var(--cf-text)">344.7K</text><g transform="translate(0,40)"><svg width="64" height="14" viewBox="0 0 64 14" preserveAspectRatio="none"><path d="M0 14 L2.21 14 L4.41 14 L6.62 13.41 L8.83 9.95 L11.03 9.95 L13.24 9.89 L15.45 10.28 L17.66 10.23 L19.86 10.23 L22.07 10.22 L24.28 10.22 L26.48 10.21 L28.69 10.21 L30.9 10.19 L33.1 10.2 L35.31 10.2 L37.52 10.19 L39.72 1.58 L41.93 1.58 L44.14 1.58 L46.34 1.63 L48.55 0.31 L50.76 0.29 L52.97 0.29 L55.17 0.26 L57.38 0.25 L59.59 0.24 L61.79 0.2 L64 0 L64 14 L0 14 Z" fill="var(--cf-spark-bg)" stroke="none"/><path d="M0 14 L2.21 14 L4.41 14 L6.62 13.41 L8.83 9.95 L11.03 9.95 L13.24 9.89 L15.45 10.28 L17.66 10.23 L19.86 10.23 L22.07 10.22 L24.28 10.22 L26.48 10.21 L28.69 10.21 L30.9 10.19 L33.1 10.2 L35.31 10.2 L37.52 10.19 L39.72 1.58 L41.93 1.58 L44.14 1.58 L46.34 1.63 L48.55 0.31 L50.76 0.29 L52.97 0.29 L55.17 0.26 L57.38 0.25 L59.59 0.24 L61.79 0.2 L64 0" fill="none" stroke="var(--cf-spark)" stroke-width="1.4" stroke-linecap="round" stroke-linejoin="round"/></svg></g></g><g transform="translate(428.40000000000003,46)"><text x="0" y="0" font-size="9" font-weight="600" fill="var(--cf-text-dim)" letter-spacing="0.8">LANGS</text><text x="0" y="28" font-size="22" font-weight="700" fill="var(--cf-text)">17</text><g transform="translate(0,40)"><svg width="64" height="14" viewBox="0 0 64 14" preserveAspectRatio="none"><path d="M0 7 L2.21 7 L4.41 7 L6.62 7 L8.83 7 L11.03 7 L13.24 7 L15.45 7 L17.66 7 L19.86 7 L22.07 7 L24.28 7 L26.48 7 L28.69 7 L30.9 7 L33.1 7 L35.31 7 L37.52 7 L39.72 7 L41.93 7 L44.14 7 L46.34 7 L48.55 7 L50.76 7 L52.97 7 L55.17 7 L57.38 7 L59.59 7 L61.79 7 L64 7 L64 14 L0 14 Z" fill="var(--cf-spark-bg)" stroke="none"/><path d="M0 7 L2.21 7 L4.41 7 L6.62 7 L8.83 7 L11.03 7 L13.24 7 L15.45 7 L17.66 7 L19.86 7 L22.07 7 L24.28 7 L26.48 7 L28.69 7 L30.9 7 L33.1 7 L35.31 7 L37.52 7 L39.72 7 L41.93 7 L44.14 7 L46.34 7 L48.55 7 L50.76 7 L52.97 7 L55.17 7 L57.38 7 L59.59 7 L61.79 7 L64 7" fill="none" stroke="var(--cf-spark)" stroke-width="1.4" stroke-linecap="round" stroke-linejoin="round"/></svg></g></g><g transform="translate(565.2,46)"><text x="0" y="0" font-size="9" font-weight="600" fill="var(--cf-text-dim)" letter-spacing="0.8">TESTS</text><text x="0" y="28" font-size="22" font-weight="700" fill="var(--cf-text)">4</text><g transform="translate(0,40)"><svg width="64" height="14" viewBox="0 0 64 14" preserveAspectRatio="none"><path d="M0 14 L2.21 14 L4.41 14 L6.62 14 L8.83 14 L11.03 14 L13.24 14 L15.45 14 L17.66 14 L19.86 14 L22.07 14 L24.28 14 L26.48 14 L28.69 14 L30.9 14 L33.1 14 L35.31 14 L37.52 14 L39.72 14 L41.93 14 L44.14 14 L46.34 0 L48.55 0 L50.76 0 L52.97 0 L55.17 0 L57.38 0 L59.59 0 L61.79 0 L64 0 L64 14 L0 14 Z" fill="var(--cf-spark-bg)" stroke="none"/><path d="M0 14 L2.21 14 L4.41 14 L6.62 14 L8.83 14 L11.03 14 L13.24 14 L15.45 14 L17.66 14 L19.86 14 L22.07 14 L24.28 14 L26.48 14 L28.69 14 L30.9 14 L33.1 14 L35.31 14 L37.52 14 L39.72 14 L41.93 14 L44.14 14 L46.34 0 L48.55 0 L50.76 0 L52.97 0 L55.17 0 L57.38 0 L59.59 0 L61.79 0 L64 0" fill="none" stroke="var(--cf-spark)" stroke-width="1.4" stroke-linecap="round" stroke-linejoin="round"/></svg></g></g><a href="https://github.com/braedonsaunders/codeflow" target="_blank"><text x="702" y="130" text-anchor="end" font-size="9" fill="var(--cf-text-faint)">powered by <tspan font-weight="600" fill="var(--cf-accent)">codeflow</tspan></text></a></svg>