<svg xmlns="http://www.w3.org/2000/svg" width="720" height="140" viewBox="0 0 720 140" font-family="-apple-system,BlinkMacSystemFont,Segoe UI,Helvetica,Arial,sans-serif"><style>svg{--cf-bg:#0d1117;--cf-bg-alt:#161b22;--cf-border:#21262d;--cf-text:#e6edf3;--cf-text-dim:#8b949e;--cf-text-faint:#6e7681;--cf-accent:#5eead4;--cf-accent-soft:rgba(94,234,212,0.16);--cf-green:#3fb950;--cf-amber:#d29922;--cf-red:#f85149;--cf-spark:#5eead4;--cf-spark-bg:rgba(94,234,212,0.18)}@media (prefers-color-scheme: light){svg{--cf-bg:#ffffff;--cf-bg-alt:#f6f8fa;--cf-border:#d0d7de;--cf-text:#1f2328;--cf-text-dim:#656d76;--cf-text-faint:#8c959f;--cf-accent:#0d9488;--cf-accent-soft:rgba(13,148,136,0.12);--cf-green:#1a7f37;--cf-amber:#9a6700;--cf-red:#cf222e;--cf-spark:#0d9488;--cf-spark-bg:rgba(13,148,136,0.12)}}</style><rect width="720" height="140" rx="12" fill="var(--cf-bg)" stroke="var(--cf-border)"/><text x="18" y="26" font-size="13" font-weight="600" fill="var(--cf-text)">braedonsaunders/beaconhs</text><text x="702" y="26" text-anchor="end" font-size="10" fill="var(--cf-text-faint)" font-family="ui-monospace,SFMono-Regular,Menlo,monospace">@134515d</text><g transform="translate(18,46)"><text x="0" y="0" font-size="9" font-weight="600" fill="var(--cf-text-dim)" letter-spacing="0.8">FILES</text><text x="0" y="28" font-size="22" font-weight="700" fill="var(--cf-text)">1.3K</text><g transform="translate(0,40)"><svg width="64" height="14" viewBox="0 0 64 14" preserveAspectRatio="none"><path d="M0 14 L2.13 12.99 L4.27 12.99 L6.4 12.99 L8.53 12.99 L10.67 12.99 L12.8 10.46 L14.93 10.46 L17.07 10.46 L19.2 9.11 L21.33 8.94 L23.47 6.24 L25.6 6.24 L27.73 6.24 L29.87 6.24 L32 6.24 L34.13 6.24 L36.27 5.06 L38.4 4.89 L40.53 4.89 L42.67 4.89 L44.8 3.88 L46.93 3.2 L49.07 3.37 L51.2 3.37 L53.33 3.2 L55.47 2.19 L57.6 2.02 L59.73 2.53 L61.87 2.7 L64 0 L64 14 L0 14 Z" fill="var(--cf-spark-bg)" stroke="none"/><path d="M0 14 L2.13 12.99 L4.27 12.99 L6.4 12.99 L8.53 12.99 L10.67 12.99 L12.8 10.46 L14.93 10.46 L17.07 10.46 L19.2 9.11 L21.33 8.94 L23.47 6.24 L25.6 6.24 L27.73 6.24 L29.87 6.24 L32 6.24 L34.13 6.24 L36.27 5.06 L38.4 4.89 L40.53 4.89 L42.67 4.89 L44.8 3.88 L46.93 3.2 L49.07 3.37 L51.2 3.37 L53.33 3.2 L55.47 2.19 L57.6 2.02 L59.73 2.53 L61.87 2.7 L64 0" fill="none" stroke="var(--cf-spark)" stroke-width="1.4" stroke-linecap="round" stroke-linejoin="round"/></svg></g></g><g transform="translate(154.8,46)"><text x="0" y="0" font-size="9" font-weight="600" fill="var(--cf-text-dim)" letter-spacing="0.8">FNS</text><text x="0" y="28" font-size="22" font-weight="700" fill="var(--cf-text)">4.7K</text><g transform="translate(0,40)"><svg width="64" height="14" viewBox="0 0 64 14" preserveAspectRatio="none"><path d="M0 14 L2.13 13.33 L4.27 13.33 L6.4 13.31 L8.53 13.31 L10.67 13.47 L12.8 10.73 L14.93 10.73 L17.07 10.73 L19.2 10.26 L21.33 9.95 L23.47 8.99 L25.6 8.99 L27.73 8.99 L29.87 8.99 L32 8.93 L34.13 8.93 L36.27 4.67 L38.4 4.61 L40.53 4.61 L42.67 4.25 L44.8 2.78 L46.93 2.31 L49.07 2.27 L51.2 2.25 L53.33 2.2 L55.47 1.29 L57.6 1.25 L59.73 1.31 L61.87 1.31 L64 0 L64 14 L0 14 Z" fill="var(--cf-spark-bg)" stroke="none"/><path d="M0 14 L2.13 13.33 L4.27 13.33 L6.4 13.31 L8.53 13.31 L10.67 13.47 L12.8 10.73 L14.93 10.73 L17.07 10.73 L19.2 10.26 L21.33 9.95 L23.47 8.99 L25.6 8.99 L27.73 8.99 L29.87 8.99 L32 8.93 L34.13 8.93 L36.27 4.67 L38.4 4.61 L40.53 4.61 L42.67 4.25 L44.8 2.78 L46.93 2.31 L49.07 2.27 L51.2 2.25 L53.33 2.2 L55.47 1.29 L57.6 1.25 L59.73 1.31 L61.87 1.31 L64 0" fill="none" stroke="var(--cf-spark)" stroke-width="1.4" stroke-linecap="round" stroke-linejoin="round"/></svg></g></g><g transform="translate(291.6,46)"><text x="0" y="0" font-size="9" font-weight="600" fill="var(--cf-text-dim)" letter-spacing="0.8">LOC</text><text x="0" y="28" font-size="22" font-weight="700" fill="var(--cf-text)">444.8K</text><g transform="translate(0,40)"><svg width="64" height="14" viewBox="0 0 64 14" preserveAspectRatio="none"><path d="M0 0.28 L2.13 0.02 L4.27 0.01 L6.4 0 L8.53 0 L10.67 0.08 L12.8 14 L14.93 14 L17.07 13.99 L19.2 13.89 L21.33 13.81 L23.47 8.97 L25.6 8.97 L27.73 8.96 L29.87 8.97 L32 8.97 L34.13 8.97 L36.27 3.46 L38.4 3.58 L40.53 3.58 L42.67 3.53 L44.8 3.32 L46.93 3.23 L49.07 3.23 L51.2 3.22 L53.33 3.21 L55.47 2.84 L57.6 2.81 L59.73 2.74 L61.87 2.71 L64 2.35 L64 14 L0 14 Z" fill="var(--cf-spark-bg)" stroke="none"/><path d="M0 0.28 L2.13 0.02 L4.27 0.01 L6.4 0 L8.53 0 L10.67 0.08 L12.8 14 L14.93 14 L17.07 13.99 L19.2 13.89 L21.33 13.81 L23.47 8.97 L25.6 8.97 L27.73 8.96 L29.87 8.97 L32 8.97 L34.13 8.97 L36.27 3.46 L38.4 3.58 L40.53 3.58 L42.67 3.53 L44.8 3.32 L46.93 3.23 L49.07 3.23 L51.2 3.22 L53.33 3.21 L55.47 2.84 L57.6 2.81 L59.73 2.74 L61.87 2.71 L64 2.35" fill="none" stroke="var(--cf-spark)" stroke-width="1.4" stroke-linecap="round" stroke-linejoin="round"/></svg></g></g><g transform="translate(428.40000000000003,46)"><text x="0" y="0" font-size="9" font-weight="600" fill="var(--cf-text-dim)" letter-spacing="0.8">LANGS</text><text x="0" y="28" font-size="22" font-weight="700" fill="var(--cf-text)">17</text><g transform="translate(0,40)"><svg width="64" height="14" viewBox="0 0 64 14" preserveAspectRatio="none"><path d="M0 7 L2.13 7 L4.27 7 L6.4 7 L8.53 7 L10.67 7 L12.8 7 L14.93 7 L17.07 7 L19.2 7 L21.33 7 L23.47 7 L25.6 7 L27.73 7 L29.87 7 L32 7 L34.13 7 L36.27 7 L38.4 7 L40.53 7 L42.67 7 L44.8 7 L46.93 7 L49.07 7 L51.2 7 L53.33 7 L55.47 7 L57.6 7 L59.73 7 L61.87 7 L64 7 L64 14 L0 14 Z" fill="var(--cf-spark-bg)" stroke="none"/><path d="M0 7 L2.13 7 L4.27 7 L6.4 7 L8.53 7 L10.67 7 L12.8 7 L14.93 7 L17.07 7 L19.2 7 L21.33 7 L23.47 7 L25.6 7 L27.73 7 L29.87 7 L32 7 L34.13 7 L36.27 7 L38.4 7 L40.53 7 L42.67 7 L44.8 7 L46.93 7 L49.07 7 L51.2 7 L53.33 7 L55.47 7 L57.6 7 L59.73 7 L61.87 7 L64 7" fill="none" stroke="var(--cf-spark)" stroke-width="1.4" stroke-linecap="round" stroke-linejoin="round"/></svg></g></g><g transform="translate(565.2,46)"><text x="0" y="0" font-size="9" font-weight="600" fill="var(--cf-text-dim)" letter-spacing="0.8">TESTS</text><text x="0" y="28" font-size="22" font-weight="700" fill="var(--cf-text)">10</text><g transform="translate(0,40)"><svg width="64" height="14" viewBox="0 0 64 14" preserveAspectRatio="none"><path d="M0 14 L2.13 14 L4.27 14 L6.4 14 L8.53 14 L10.67 14 L12.8 14 L14.93 14 L17.07 14 L19.2 14 L21.33 14 L23.47 14 L25.6 14 L27.73 14 L29.87 14 L32 14 L34.13 14 L36.27 9.33 L38.4 9.33 L40.53 9.33 L42.67 9.33 L44.8 4.67 L46.93 4.67 L49.07 4.67 L51.2 4.67 L53.33 4.67 L55.47 4.67 L57.6 4.67 L59.73 4.67 L61.87 4.67 L64 0 L64 14 L0 14 Z" fill="var(--cf-spark-bg)" stroke="none"/><path d="M0 14 L2.13 14 L4.27 14 L6.4 14 L8.53 14 L10.67 14 L12.8 14 L14.93 14 L17.07 14 L19.2 14 L21.33 14 L23.47 14 L25.6 14 L27.73 14 L29.87 14 L32 14 L34.13 14 L36.27 9.33 L38.4 9.33 L40.53 9.33 L42.67 9.33 L44.8 4.67 L46.93 4.67 L49.07 4.67 L51.2 4.67 L53.33 4.67 L55.47 4.67 L57.6 4.67 L59.73 4.67 L61.87 4.67 L64 0" fill="none" stroke="var(--cf-spark)" stroke-width="1.4" stroke-linecap="round" stroke-linejoin="round"/></svg></g></g><a href="https://github.com/braedonsaunders/codeflow" target="_blank"><text x="702" y="130" text-anchor="end" font-size="9" fill="var(--cf-text-faint)">powered by <tspan font-weight="600" fill="var(--cf-accent)">codeflow</tspan></text></a></svg>