<svg xmlns="http://www.w3.org/2000/svg" width="720" height="140" viewBox="0 0 720 140" font-family="-apple-system,BlinkMacSystemFont,Segoe UI,Helvetica,Arial,sans-serif"><style>svg{--cf-bg:#0d1117;--cf-bg-alt:#161b22;--cf-border:#21262d;--cf-text:#e6edf3;--cf-text-dim:#8b949e;--cf-text-faint:#6e7681;--cf-accent:#5eead4;--cf-accent-soft:rgba(94,234,212,0.16);--cf-green:#3fb950;--cf-amber:#d29922;--cf-red:#f85149;--cf-spark:#5eead4;--cf-spark-bg:rgba(94,234,212,0.18)}@media (prefers-color-scheme: light){svg{--cf-bg:#ffffff;--cf-bg-alt:#f6f8fa;--cf-border:#d0d7de;--cf-text:#1f2328;--cf-text-dim:#656d76;--cf-text-faint:#8c959f;--cf-accent:#0d9488;--cf-accent-soft:rgba(13,148,136,0.12);--cf-green:#1a7f37;--cf-amber:#9a6700;--cf-red:#cf222e;--cf-spark:#0d9488;--cf-spark-bg:rgba(13,148,136,0.12)}}</style><rect width="720" height="140" rx="12" fill="var(--cf-bg)" stroke="var(--cf-border)"/><text x="18" y="26" font-size="13" font-weight="600" fill="var(--cf-text)">braedonsaunders/beaconhs</text><text x="702" y="26" text-anchor="end" font-size="10" fill="var(--cf-text-faint)" font-family="ui-monospace,SFMono-Regular,Menlo,monospace">@94cae13</text><g transform="translate(18,46)"><text x="0" y="0" font-size="9" font-weight="600" fill="var(--cf-text-dim)" letter-spacing="0.8">FILES</text><text x="0" y="28" font-size="22" font-weight="700" fill="var(--cf-text)">1.4K</text><g transform="translate(0,40)"><svg width="64" height="14" viewBox="0 0 64 14" preserveAspectRatio="none"><path d="M0 14 L2.13 12.16 L4.27 12.16 L6.4 12.16 L8.53 11.7 L10.67 11.7 L12.8 11.7 L14.93 11.7 L17.07 11.7 L19.2 11.7 L21.33 11.7 L23.47 11.48 L25.6 11.7 L27.73 9.41 L29.87 8.72 L32 2.3 L34.13 2.3 L36.27 0 L38.4 0.92 L40.53 0.69 L42.67 0.69 L44.8 3.9 L46.93 3.9 L49.07 2.98 L51.2 2.52 L53.33 1.84 L55.47 2.07 L57.6 2.07 L59.73 2.07 L61.87 2.07 L64 0.69 L64 14 L0 14 Z" fill="var(--cf-spark-bg)" stroke="none"/><path d="M0 14 L2.13 12.16 L4.27 12.16 L6.4 12.16 L8.53 11.7 L10.67 11.7 L12.8 11.7 L14.93 11.7 L17.07 11.7 L19.2 11.7 L21.33 11.7 L23.47 11.48 L25.6 11.7 L27.73 9.41 L29.87 8.72 L32 2.3 L34.13 2.3 L36.27 0 L38.4 0.92 L40.53 0.69 L42.67 0.69 L44.8 3.9 L46.93 3.9 L49.07 2.98 L51.2 2.52 L53.33 1.84 L55.47 2.07 L57.6 2.07 L59.73 2.07 L61.87 2.07 L64 0.69" fill="none" stroke="var(--cf-spark)" stroke-width="1.4" stroke-linecap="round" stroke-linejoin="round"/></svg></g></g><g transform="translate(154.8,46)"><text x="0" y="0" font-size="9" font-weight="600" fill="var(--cf-text-dim)" letter-spacing="0.8">FNS</text><text x="0" y="28" font-size="22" font-weight="700" fill="var(--cf-text)">4.7K</text><g transform="translate(0,40)"><svg width="64" height="14" viewBox="0 0 64 14" preserveAspectRatio="none"><path d="M0 14 L2.13 10.78 L4.27 10.78 L6.4 10.78 L8.53 10.58 L10.67 10.58 L12.8 10.58 L14.93 10.58 L17.07 10.47 L19.2 10.47 L21.33 10.47 L23.47 10.47 L25.6 11.68 L27.73 10.37 L29.87 8.86 L32 2.72 L34.13 2.72 L36.27 0 L38.4 4.23 L40.53 3.93 L42.67 3.83 L44.8 11.38 L46.93 11.38 L49.07 10.78 L51.2 10.17 L53.33 8.96 L55.47 9.06 L57.6 9.06 L59.73 8.76 L61.87 8.76 L64 6.95 L64 14 L0 14 Z" fill="var(--cf-spark-bg)" stroke="none"/><path d="M0 14 L2.13 10.78 L4.27 10.78 L6.4 10.78 L8.53 10.58 L10.67 10.58 L12.8 10.58 L14.93 10.58 L17.07 10.47 L19.2 10.47 L21.33 10.47 L23.47 10.47 L25.6 11.68 L27.73 10.37 L29.87 8.86 L32 2.72 L34.13 2.72 L36.27 0 L38.4 4.23 L40.53 3.93 L42.67 3.83 L44.8 11.38 L46.93 11.38 L49.07 10.78 L51.2 10.17 L53.33 8.96 L55.47 9.06 L57.6 9.06 L59.73 8.76 L61.87 8.76 L64 6.95" fill="none" stroke="var(--cf-spark)" stroke-width="1.4" stroke-linecap="round" stroke-linejoin="round"/></svg></g></g><g transform="translate(291.6,46)"><text x="0" y="0" font-size="9" font-weight="600" fill="var(--cf-text-dim)" letter-spacing="0.8">LOC</text><text x="0" y="28" font-size="22" font-weight="700" fill="var(--cf-text)">456.6K</text><g transform="translate(0,40)"><svg width="64" height="14" viewBox="0 0 64 14" preserveAspectRatio="none"><path d="M0 14 L2.13 10.07 L4.27 10.06 L6.4 10.05 L8.53 9.65 L10.67 9.66 L12.8 9.66 L14.93 9.62 L17.07 9.17 L19.2 9.13 L21.33 9.12 L23.47 9.17 L25.6 10.02 L27.73 9.3 L29.87 8.9 L32 1.76 L34.13 1.77 L36.27 0 L38.4 2.46 L40.53 2.33 L42.67 2.21 L44.8 7.01 L46.93 7.01 L49.07 6.14 L51.2 5.72 L53.33 5.14 L55.47 5.05 L57.6 5.02 L59.73 4.81 L61.87 4.79 L64 3.57 L64 14 L0 14 Z" fill="var(--cf-spark-bg)" stroke="none"/><path d="M0 14 L2.13 10.07 L4.27 10.06 L6.4 10.05 L8.53 9.65 L10.67 9.66 L12.8 9.66 L14.93 9.62 L17.07 9.17 L19.2 9.13 L21.33 9.12 L23.47 9.17 L25.6 10.02 L27.73 9.3 L29.87 8.9 L32 1.76 L34.13 1.77 L36.27 0 L38.4 2.46 L40.53 2.33 L42.67 2.21 L44.8 7.01 L46.93 7.01 L49.07 6.14 L51.2 5.72 L53.33 5.14 L55.47 5.05 L57.6 5.02 L59.73 4.81 L61.87 4.79 L64 3.57" fill="none" stroke="var(--cf-spark)" stroke-width="1.4" stroke-linecap="round" stroke-linejoin="round"/></svg></g></g><g transform="translate(428.40000000000003,46)"><text x="0" y="0" font-size="9" font-weight="600" fill="var(--cf-text-dim)" letter-spacing="0.8">LANGS</text><text x="0" y="28" font-size="22" font-weight="700" fill="var(--cf-text)">17</text><g transform="translate(0,40)"><svg width="64" height="14" viewBox="0 0 64 14" preserveAspectRatio="none"><path d="M0 7 L2.13 7 L4.27 7 L6.4 7 L8.53 7 L10.67 7 L12.8 7 L14.93 7 L17.07 7 L19.2 7 L21.33 7 L23.47 7 L25.6 7 L27.73 7 L29.87 7 L32 7 L34.13 7 L36.27 7 L38.4 7 L40.53 7 L42.67 7 L44.8 7 L46.93 7 L49.07 7 L51.2 7 L53.33 7 L55.47 7 L57.6 7 L59.73 7 L61.87 7 L64 7 L64 14 L0 14 Z" fill="var(--cf-spark-bg)" stroke="none"/><path d="M0 7 L2.13 7 L4.27 7 L6.4 7 L8.53 7 L10.67 7 L12.8 7 L14.93 7 L17.07 7 L19.2 7 L21.33 7 L23.47 7 L25.6 7 L27.73 7 L29.87 7 L32 7 L34.13 7 L36.27 7 L38.4 7 L40.53 7 L42.67 7 L44.8 7 L46.93 7 L49.07 7 L51.2 7 L53.33 7 L55.47 7 L57.6 7 L59.73 7 L61.87 7 L64 7" fill="none" stroke="var(--cf-spark)" stroke-width="1.4" stroke-linecap="round" stroke-linejoin="round"/></svg></g></g><g transform="translate(565.2,46)"><text x="0" y="0" font-size="9" font-weight="600" fill="var(--cf-text-dim)" letter-spacing="0.8">TESTS</text><text x="0" y="28" font-size="22" font-weight="700" fill="var(--cf-text)">11</text><g transform="translate(0,40)"><svg width="64" height="14" viewBox="0 0 64 14" preserveAspectRatio="none"><path d="M0 14 L2.13 14 L4.27 14 L6.4 14 L8.53 14 L10.67 14 L12.8 14 L14.93 14 L17.07 14 L19.2 14 L21.33 14 L23.47 14 L25.6 14 L27.73 14 L29.87 14 L32 14 L34.13 14 L36.27 14 L38.4 14 L40.53 14 L42.67 14 L44.8 14 L46.93 14 L49.07 14 L51.2 0 L53.33 0 L55.47 0 L57.6 0 L59.73 0 L61.87 0 L64 0 L64 14 L0 14 Z" fill="var(--cf-spark-bg)" stroke="none"/><path d="M0 14 L2.13 14 L4.27 14 L6.4 14 L8.53 14 L10.67 14 L12.8 14 L14.93 14 L17.07 14 L19.2 14 L21.33 14 L23.47 14 L25.6 14 L27.73 14 L29.87 14 L32 14 L34.13 14 L36.27 14 L38.4 14 L40.53 14 L42.67 14 L44.8 14 L46.93 14 L49.07 14 L51.2 0 L53.33 0 L55.47 0 L57.6 0 L59.73 0 L61.87 0 L64 0" fill="none" stroke="var(--cf-spark)" stroke-width="1.4" stroke-linecap="round" stroke-linejoin="round"/></svg></g></g><a href="https://github.com/braedonsaunders/codeflow" target="_blank"><text x="702" y="130" text-anchor="end" font-size="9" fill="var(--cf-text-faint)">powered by <tspan font-weight="600" fill="var(--cf-accent)">codeflow</tspan></text></a></svg>