<svg xmlns="http://www.w3.org/2000/svg" width="720" height="140" viewBox="0 0 720 140" font-family="-apple-system,BlinkMacSystemFont,Segoe UI,Helvetica,Arial,sans-serif"><style>svg{--cf-bg:#0d1117;--cf-bg-alt:#161b22;--cf-border:#21262d;--cf-text:#e6edf3;--cf-text-dim:#8b949e;--cf-text-faint:#6e7681;--cf-accent:#5eead4;--cf-accent-soft:rgba(94,234,212,0.16);--cf-green:#3fb950;--cf-amber:#d29922;--cf-red:#f85149;--cf-spark:#5eead4;--cf-spark-bg:rgba(94,234,212,0.18)}@media (prefers-color-scheme: light){svg{--cf-bg:#ffffff;--cf-bg-alt:#f6f8fa;--cf-border:#d0d7de;--cf-text:#1f2328;--cf-text-dim:#656d76;--cf-text-faint:#8c959f;--cf-accent:#0d9488;--cf-accent-soft:rgba(13,148,136,0.12);--cf-green:#1a7f37;--cf-amber:#9a6700;--cf-red:#cf222e;--cf-spark:#0d9488;--cf-spark-bg:rgba(13,148,136,0.12)}}</style><rect width="720" height="140" rx="12" fill="var(--cf-bg)" stroke="var(--cf-border)"/><text x="18" y="26" font-size="13" font-weight="600" fill="var(--cf-text)">braedonsaunders/beaconhs</text><text x="702" y="26" text-anchor="end" font-size="10" fill="var(--cf-text-faint)" font-family="ui-monospace,SFMono-Regular,Menlo,monospace">@9837ad6</text><g transform="translate(18,46)"><text x="0" y="0" font-size="9" font-weight="600" fill="var(--cf-text-dim)" letter-spacing="0.8">FILES</text><text x="0" y="28" font-size="22" font-weight="700" fill="var(--cf-text)">1.4K</text><g transform="translate(0,40)"><svg width="64" height="14" viewBox="0 0 64 14" preserveAspectRatio="none"><path d="M0 14 L2.13 13.82 L4.27 10.87 L6.4 10.87 L8.53 10.87 L10.67 10.87 L12.8 10.87 L14.93 10.87 L17.07 9.58 L19.2 9.39 L21.33 9.39 L23.47 9.39 L25.6 8.29 L27.73 7.55 L29.87 7.74 L32 7.74 L34.13 7.55 L36.27 6.45 L38.4 6.26 L40.53 6.82 L42.67 7 L44.8 4.05 L46.93 4.05 L49.07 4.05 L51.2 3.87 L53.33 3.87 L55.47 1.84 L57.6 0.37 L59.73 0.37 L61.87 0.37 L64 0 L64 14 L0 14 Z" fill="var(--cf-spark-bg)" stroke="none"/><path d="M0 14 L2.13 13.82 L4.27 10.87 L6.4 10.87 L8.53 10.87 L10.67 10.87 L12.8 10.87 L14.93 10.87 L17.07 9.58 L19.2 9.39 L21.33 9.39 L23.47 9.39 L25.6 8.29 L27.73 7.55 L29.87 7.74 L32 7.74 L34.13 7.55 L36.27 6.45 L38.4 6.26 L40.53 6.82 L42.67 7 L44.8 4.05 L46.93 4.05 L49.07 4.05 L51.2 3.87 L53.33 3.87 L55.47 1.84 L57.6 0.37 L59.73 0.37 L61.87 0.37 L64 0" fill="none" stroke="var(--cf-spark)" stroke-width="1.4" stroke-linecap="round" stroke-linejoin="round"/></svg></g></g><g transform="translate(154.8,46)"><text x="0" y="0" font-size="9" font-weight="600" fill="var(--cf-text-dim)" letter-spacing="0.8">FNS</text><text x="0" y="28" font-size="22" font-weight="700" fill="var(--cf-text)">4.7K</text><g transform="translate(0,40)"><svg width="64" height="14" viewBox="0 0 64 14" preserveAspectRatio="none"><path d="M0 14 L2.13 13.59 L4.27 12.32 L6.4 12.32 L8.53 12.32 L10.67 12.32 L12.8 12.23 L14.93 12.23 L17.07 6.6 L19.2 6.51 L21.33 6.51 L23.47 6.04 L25.6 4.1 L27.73 3.48 L29.87 3.42 L32 3.39 L34.13 3.33 L36.27 2.12 L38.4 2.06 L40.53 2.15 L42.67 2.15 L44.8 0.41 L46.93 0.41 L49.07 0.41 L51.2 0.27 L53.33 0.27 L55.47 1 L57.6 0.06 L59.73 0.06 L61.87 0.06 L64 0 L64 14 L0 14 Z" fill="var(--cf-spark-bg)" stroke="none"/><path d="M0 14 L2.13 13.59 L4.27 12.32 L6.4 12.32 L8.53 12.32 L10.67 12.32 L12.8 12.23 L14.93 12.23 L17.07 6.6 L19.2 6.51 L21.33 6.51 L23.47 6.04 L25.6 4.1 L27.73 3.48 L29.87 3.42 L32 3.39 L34.13 3.33 L36.27 2.12 L38.4 2.06 L40.53 2.15 L42.67 2.15 L44.8 0.41 L46.93 0.41 L49.07 0.41 L51.2 0.27 L53.33 0.27 L55.47 1 L57.6 0.06 L59.73 0.06 L61.87 0.06 L64 0" fill="none" stroke="var(--cf-spark)" stroke-width="1.4" stroke-linecap="round" stroke-linejoin="round"/></svg></g></g><g transform="translate(291.6,46)"><text x="0" y="0" font-size="9" font-weight="600" fill="var(--cf-text-dim)" letter-spacing="0.8">LOC</text><text x="0" y="28" font-size="22" font-weight="700" fill="var(--cf-text)">451.8K</text><g transform="translate(0,40)"><svg width="64" height="14" viewBox="0 0 64 14" preserveAspectRatio="none"><path d="M0 14 L2.13 13.91 L4.27 8.44 L6.4 8.44 L8.53 8.43 L10.67 8.45 L12.8 8.45 L14.93 8.45 L17.07 2.22 L19.2 2.35 L21.33 2.35 L23.47 2.3 L25.6 2.06 L27.73 1.96 L29.87 1.96 L32 1.95 L34.13 1.93 L36.27 1.52 L38.4 1.49 L40.53 1.41 L42.67 1.37 L44.8 0.97 L46.93 0.97 L49.07 0.97 L51.2 0.93 L53.33 0.93 L55.47 0.48 L57.6 0.05 L59.73 0.05 L61.87 0.04 L64 0 L64 14 L0 14 Z" fill="var(--cf-spark-bg)" stroke="none"/><path d="M0 14 L2.13 13.91 L4.27 8.44 L6.4 8.44 L8.53 8.43 L10.67 8.45 L12.8 8.45 L14.93 8.45 L17.07 2.22 L19.2 2.35 L21.33 2.35 L23.47 2.3 L25.6 2.06 L27.73 1.96 L29.87 1.96 L32 1.95 L34.13 1.93 L36.27 1.52 L38.4 1.49 L40.53 1.41 L42.67 1.37 L44.8 0.97 L46.93 0.97 L49.07 0.97 L51.2 0.93 L53.33 0.93 L55.47 0.48 L57.6 0.05 L59.73 0.05 L61.87 0.04 L64 0" fill="none" stroke="var(--cf-spark)" stroke-width="1.4" stroke-linecap="round" stroke-linejoin="round"/></svg></g></g><g transform="translate(428.40000000000003,46)"><text x="0" y="0" font-size="9" font-weight="600" fill="var(--cf-text-dim)" letter-spacing="0.8">LANGS</text><text x="0" y="28" font-size="22" font-weight="700" fill="var(--cf-text)">17</text><g transform="translate(0,40)"><svg width="64" height="14" viewBox="0 0 64 14" preserveAspectRatio="none"><path d="M0 7 L2.13 7 L4.27 7 L6.4 7 L8.53 7 L10.67 7 L12.8 7 L14.93 7 L17.07 7 L19.2 7 L21.33 7 L23.47 7 L25.6 7 L27.73 7 L29.87 7 L32 7 L34.13 7 L36.27 7 L38.4 7 L40.53 7 L42.67 7 L44.8 7 L46.93 7 L49.07 7 L51.2 7 L53.33 7 L55.47 7 L57.6 7 L59.73 7 L61.87 7 L64 7 L64 14 L0 14 Z" fill="var(--cf-spark-bg)" stroke="none"/><path d="M0 7 L2.13 7 L4.27 7 L6.4 7 L8.53 7 L10.67 7 L12.8 7 L14.93 7 L17.07 7 L19.2 7 L21.33 7 L23.47 7 L25.6 7 L27.73 7 L29.87 7 L32 7 L34.13 7 L36.27 7 L38.4 7 L40.53 7 L42.67 7 L44.8 7 L46.93 7 L49.07 7 L51.2 7 L53.33 7 L55.47 7 L57.6 7 L59.73 7 L61.87 7 L64 7" fill="none" stroke="var(--cf-spark)" stroke-width="1.4" stroke-linecap="round" stroke-linejoin="round"/></svg></g></g><g transform="translate(565.2,46)"><text x="0" y="0" font-size="9" font-weight="600" fill="var(--cf-text-dim)" letter-spacing="0.8">TESTS</text><text x="0" y="28" font-size="22" font-weight="700" fill="var(--cf-text)">10</text><g transform="translate(0,40)"><svg width="64" height="14" viewBox="0 0 64 14" preserveAspectRatio="none"><path d="M0 14 L2.13 14 L4.27 14 L6.4 14 L8.53 14 L10.67 14 L12.8 14 L14.93 14 L17.07 9.33 L19.2 9.33 L21.33 9.33 L23.47 9.33 L25.6 4.67 L27.73 4.67 L29.87 4.67 L32 4.67 L34.13 4.67 L36.27 4.67 L38.4 4.67 L40.53 4.67 L42.67 4.67 L44.8 0 L46.93 0 L49.07 0 L51.2 0 L53.33 0 L55.47 0 L57.6 0 L59.73 0 L61.87 0 L64 0 L64 14 L0 14 Z" fill="var(--cf-spark-bg)" stroke="none"/><path d="M0 14 L2.13 14 L4.27 14 L6.4 14 L8.53 14 L10.67 14 L12.8 14 L14.93 14 L17.07 9.33 L19.2 9.33 L21.33 9.33 L23.47 9.33 L25.6 4.67 L27.73 4.67 L29.87 4.67 L32 4.67 L34.13 4.67 L36.27 4.67 L38.4 4.67 L40.53 4.67 L42.67 4.67 L44.8 0 L46.93 0 L49.07 0 L51.2 0 L53.33 0 L55.47 0 L57.6 0 L59.73 0 L61.87 0 L64 0" fill="none" stroke="var(--cf-spark)" stroke-width="1.4" stroke-linecap="round" stroke-linejoin="round"/></svg></g></g><a href="https://github.com/braedonsaunders/codeflow" target="_blank"><text x="702" y="130" text-anchor="end" font-size="9" fill="var(--cf-text-faint)">powered by <tspan font-weight="600" fill="var(--cf-accent)">codeflow</tspan></text></a></svg>