<svg xmlns="http://www.w3.org/2000/svg" width="720" height="140" viewBox="0 0 720 140" font-family="-apple-system,BlinkMacSystemFont,Segoe UI,Helvetica,Arial,sans-serif"><style>svg{--cf-bg:#0d1117;--cf-bg-alt:#161b22;--cf-border:#21262d;--cf-text:#e6edf3;--cf-text-dim:#8b949e;--cf-text-faint:#6e7681;--cf-accent:#5eead4;--cf-accent-soft:rgba(94,234,212,0.16);--cf-green:#3fb950;--cf-amber:#d29922;--cf-red:#f85149;--cf-spark:#5eead4;--cf-spark-bg:rgba(94,234,212,0.18)}@media (prefers-color-scheme: light){svg{--cf-bg:#ffffff;--cf-bg-alt:#f6f8fa;--cf-border:#d0d7de;--cf-text:#1f2328;--cf-text-dim:#656d76;--cf-text-faint:#8c959f;--cf-accent:#0d9488;--cf-accent-soft:rgba(13,148,136,0.12);--cf-green:#1a7f37;--cf-amber:#9a6700;--cf-red:#cf222e;--cf-spark:#0d9488;--cf-spark-bg:rgba(13,148,136,0.12)}}</style><rect width="720" height="140" rx="12" fill="var(--cf-bg)" stroke="var(--cf-border)"/><text x="18" y="26" font-size="13" font-weight="600" fill="var(--cf-text)">braedonsaunders/beaconhs</text><text x="702" y="26" text-anchor="end" font-size="10" fill="var(--cf-text-faint)" font-family="ui-monospace,SFMono-Regular,Menlo,monospace">@e60de67</text><g transform="translate(18,46)"><text x="0" y="0" font-size="9" font-weight="600" fill="var(--cf-text-dim)" letter-spacing="0.8">FILES</text><text x="0" y="28" font-size="22" font-weight="700" fill="var(--cf-text)">1.4K</text><g transform="translate(0,40)"><svg width="64" height="14" viewBox="0 0 64 14" preserveAspectRatio="none"><path d="M0 14 L2.13 11.01 L4.27 11.01 L6.4 11.01 L8.53 11.01 L10.67 11.01 L12.8 11.01 L14.93 9.71 L17.07 9.52 L19.2 9.52 L21.33 9.52 L23.47 8.4 L25.6 7.65 L27.73 7.84 L29.87 7.84 L32 7.65 L34.13 6.53 L36.27 6.35 L38.4 6.91 L40.53 7.09 L42.67 4.11 L44.8 4.11 L46.93 4.11 L49.07 3.92 L51.2 3.92 L53.33 1.87 L55.47 0.37 L57.6 0.37 L59.73 0.37 L61.87 0 L64 0 L64 14 L0 14 Z" fill="var(--cf-spark-bg)" stroke="none"/><path d="M0 14 L2.13 11.01 L4.27 11.01 L6.4 11.01 L8.53 11.01 L10.67 11.01 L12.8 11.01 L14.93 9.71 L17.07 9.52 L19.2 9.52 L21.33 9.52 L23.47 8.4 L25.6 7.65 L27.73 7.84 L29.87 7.84 L32 7.65 L34.13 6.53 L36.27 6.35 L38.4 6.91 L40.53 7.09 L42.67 4.11 L44.8 4.11 L46.93 4.11 L49.07 3.92 L51.2 3.92 L53.33 1.87 L55.47 0.37 L57.6 0.37 L59.73 0.37 L61.87 0 L64 0" fill="none" stroke="var(--cf-spark)" stroke-width="1.4" stroke-linecap="round" stroke-linejoin="round"/></svg></g></g><g transform="translate(154.8,46)"><text x="0" y="0" font-size="9" font-weight="600" fill="var(--cf-text-dim)" letter-spacing="0.8">FNS</text><text x="0" y="28" font-size="22" font-weight="700" fill="var(--cf-text)">4.7K</text><g transform="translate(0,40)"><svg width="64" height="14" viewBox="0 0 64 14" preserveAspectRatio="none"><path d="M0 14 L2.13 12.69 L4.27 12.69 L6.4 12.69 L8.53 12.69 L10.67 12.6 L12.8 12.6 L14.93 6.8 L17.07 6.71 L19.2 6.71 L21.33 6.23 L23.47 4.22 L25.6 3.58 L27.73 3.52 L29.87 3.49 L32 3.43 L34.13 2.19 L36.27 2.13 L38.4 2.22 L40.53 2.22 L42.67 0.43 L44.8 0.43 L46.93 0.43 L49.07 0.27 L51.2 0.27 L53.33 1.03 L55.47 0.06 L57.6 0.06 L59.73 0.06 L61.87 0 L64 0 L64 14 L0 14 Z" fill="var(--cf-spark-bg)" stroke="none"/><path d="M0 14 L2.13 12.69 L4.27 12.69 L6.4 12.69 L8.53 12.69 L10.67 12.6 L12.8 12.6 L14.93 6.8 L17.07 6.71 L19.2 6.71 L21.33 6.23 L23.47 4.22 L25.6 3.58 L27.73 3.52 L29.87 3.49 L32 3.43 L34.13 2.19 L36.27 2.13 L38.4 2.22 L40.53 2.22 L42.67 0.43 L44.8 0.43 L46.93 0.43 L49.07 0.27 L51.2 0.27 L53.33 1.03 L55.47 0.06 L57.6 0.06 L59.73 0.06 L61.87 0 L64 0" fill="none" stroke="var(--cf-spark)" stroke-width="1.4" stroke-linecap="round" stroke-linejoin="round"/></svg></g></g><g transform="translate(291.6,46)"><text x="0" y="0" font-size="9" font-weight="600" fill="var(--cf-text-dim)" letter-spacing="0.8">LOC</text><text x="0" y="28" font-size="22" font-weight="700" fill="var(--cf-text)">451.8K</text><g transform="translate(0,40)"><svg width="64" height="14" viewBox="0 0 64 14" preserveAspectRatio="none"><path d="M0 14 L2.13 8.5 L4.27 8.5 L6.4 8.49 L8.53 8.5 L10.67 8.5 L12.8 8.5 L14.93 2.24 L17.07 2.37 L19.2 2.37 L21.33 2.32 L23.47 2.07 L25.6 1.97 L27.73 1.97 L29.87 1.96 L32 1.95 L34.13 1.53 L36.27 1.5 L38.4 1.42 L40.53 1.38 L42.67 0.98 L44.8 0.98 L46.93 0.98 L49.07 0.94 L51.2 0.93 L53.33 0.48 L55.47 0.05 L57.6 0.05 L59.73 0.04 L61.87 0 L64 0 L64 14 L0 14 Z" fill="var(--cf-spark-bg)" stroke="none"/><path d="M0 14 L2.13 8.5 L4.27 8.5 L6.4 8.49 L8.53 8.5 L10.67 8.5 L12.8 8.5 L14.93 2.24 L17.07 2.37 L19.2 2.37 L21.33 2.32 L23.47 2.07 L25.6 1.97 L27.73 1.97 L29.87 1.96 L32 1.95 L34.13 1.53 L36.27 1.5 L38.4 1.42 L40.53 1.38 L42.67 0.98 L44.8 0.98 L46.93 0.98 L49.07 0.94 L51.2 0.93 L53.33 0.48 L55.47 0.05 L57.6 0.05 L59.73 0.04 L61.87 0 L64 0" fill="none" stroke="var(--cf-spark)" stroke-width="1.4" stroke-linecap="round" stroke-linejoin="round"/></svg></g></g><g transform="translate(428.40000000000003,46)"><text x="0" y="0" font-size="9" font-weight="600" fill="var(--cf-text-dim)" letter-spacing="0.8">LANGS</text><text x="0" y="28" font-size="22" font-weight="700" fill="var(--cf-text)">17</text><g transform="translate(0,40)"><svg width="64" height="14" viewBox="0 0 64 14" preserveAspectRatio="none"><path d="M0 7 L2.13 7 L4.27 7 L6.4 7 L8.53 7 L10.67 7 L12.8 7 L14.93 7 L17.07 7 L19.2 7 L21.33 7 L23.47 7 L25.6 7 L27.73 7 L29.87 7 L32 7 L34.13 7 L36.27 7 L38.4 7 L40.53 7 L42.67 7 L44.8 7 L46.93 7 L49.07 7 L51.2 7 L53.33 7 L55.47 7 L57.6 7 L59.73 7 L61.87 7 L64 7 L64 14 L0 14 Z" fill="var(--cf-spark-bg)" stroke="none"/><path d="M0 7 L2.13 7 L4.27 7 L6.4 7 L8.53 7 L10.67 7 L12.8 7 L14.93 7 L17.07 7 L19.2 7 L21.33 7 L23.47 7 L25.6 7 L27.73 7 L29.87 7 L32 7 L34.13 7 L36.27 7 L38.4 7 L40.53 7 L42.67 7 L44.8 7 L46.93 7 L49.07 7 L51.2 7 L53.33 7 L55.47 7 L57.6 7 L59.73 7 L61.87 7 L64 7" fill="none" stroke="var(--cf-spark)" stroke-width="1.4" stroke-linecap="round" stroke-linejoin="round"/></svg></g></g><g transform="translate(565.2,46)"><text x="0" y="0" font-size="9" font-weight="600" fill="var(--cf-text-dim)" letter-spacing="0.8">TESTS</text><text x="0" y="28" font-size="22" font-weight="700" fill="var(--cf-text)">10</text><g transform="translate(0,40)"><svg width="64" height="14" viewBox="0 0 64 14" preserveAspectRatio="none"><path d="M0 14 L2.13 14 L4.27 14 L6.4 14 L8.53 14 L10.67 14 L12.8 14 L14.93 9.33 L17.07 9.33 L19.2 9.33 L21.33 9.33 L23.47 4.67 L25.6 4.67 L27.73 4.67 L29.87 4.67 L32 4.67 L34.13 4.67 L36.27 4.67 L38.4 4.67 L40.53 4.67 L42.67 0 L44.8 0 L46.93 0 L49.07 0 L51.2 0 L53.33 0 L55.47 0 L57.6 0 L59.73 0 L61.87 0 L64 0 L64 14 L0 14 Z" fill="var(--cf-spark-bg)" stroke="none"/><path d="M0 14 L2.13 14 L4.27 14 L6.4 14 L8.53 14 L10.67 14 L12.8 14 L14.93 9.33 L17.07 9.33 L19.2 9.33 L21.33 9.33 L23.47 4.67 L25.6 4.67 L27.73 4.67 L29.87 4.67 L32 4.67 L34.13 4.67 L36.27 4.67 L38.4 4.67 L40.53 4.67 L42.67 0 L44.8 0 L46.93 0 L49.07 0 L51.2 0 L53.33 0 L55.47 0 L57.6 0 L59.73 0 L61.87 0 L64 0" fill="none" stroke="var(--cf-spark)" stroke-width="1.4" stroke-linecap="round" stroke-linejoin="round"/></svg></g></g><a href="https://github.com/braedonsaunders/codeflow" target="_blank"><text x="702" y="130" text-anchor="end" font-size="9" fill="var(--cf-text-faint)">powered by <tspan font-weight="600" fill="var(--cf-accent)">codeflow</tspan></text></a></svg>