<svg xmlns="http://www.w3.org/2000/svg" width="720" height="140" viewBox="0 0 720 140" font-family="-apple-system,BlinkMacSystemFont,Segoe UI,Helvetica,Arial,sans-serif"><style>svg{--cf-bg:#0d1117;--cf-bg-alt:#161b22;--cf-border:#21262d;--cf-text:#e6edf3;--cf-text-dim:#8b949e;--cf-text-faint:#6e7681;--cf-accent:#5eead4;--cf-accent-soft:rgba(94,234,212,0.16);--cf-green:#3fb950;--cf-amber:#d29922;--cf-red:#f85149;--cf-spark:#5eead4;--cf-spark-bg:rgba(94,234,212,0.18)}@media (prefers-color-scheme: light){svg{--cf-bg:#ffffff;--cf-bg-alt:#f6f8fa;--cf-border:#d0d7de;--cf-text:#1f2328;--cf-text-dim:#656d76;--cf-text-faint:#8c959f;--cf-accent:#0d9488;--cf-accent-soft:rgba(13,148,136,0.12);--cf-green:#1a7f37;--cf-amber:#9a6700;--cf-red:#cf222e;--cf-spark:#0d9488;--cf-spark-bg:rgba(13,148,136,0.12)}}</style><rect width="720" height="140" rx="12" fill="var(--cf-bg)" stroke="var(--cf-border)"/><text x="18" y="26" font-size="13" font-weight="600" fill="var(--cf-text)">braedonsaunders/beaconhs</text><text x="702" y="26" text-anchor="end" font-size="10" fill="var(--cf-text-faint)" font-family="ui-monospace,SFMono-Regular,Menlo,monospace">@c1e35ef</text><g transform="translate(18,46)"><text x="0" y="0" font-size="9" font-weight="600" fill="var(--cf-text-dim)" letter-spacing="0.8">FILES</text><text x="0" y="28" font-size="22" font-weight="700" fill="var(--cf-text)">999</text><g transform="translate(0,40)"><svg width="64" height="14" viewBox="0 0 64 14" preserveAspectRatio="none"><path d="M0 12 L2.46 12 L4.92 12 L7.38 11.23 L9.85 12.62 L12.31 12.62 L14.77 12.15 L17.23 14 L19.69 13.23 L22.15 13.23 L24.62 13.23 L27.08 13.23 L29.54 13.08 L32 12.92 L34.46 12.62 L36.92 12.31 L39.38 12.31 L41.85 12.31 L44.31 9.23 L46.77 9.23 L49.23 9.23 L51.69 9.69 L54.15 0.15 L56.62 0 L59.08 0 L61.54 0 L64 0 L64 14 L0 14 Z" fill="var(--cf-spark-bg)" stroke="none"/><path d="M0 12 L2.46 12 L4.92 12 L7.38 11.23 L9.85 12.62 L12.31 12.62 L14.77 12.15 L17.23 14 L19.69 13.23 L22.15 13.23 L24.62 13.23 L27.08 13.23 L29.54 13.08 L32 12.92 L34.46 12.62 L36.92 12.31 L39.38 12.31 L41.85 12.31 L44.31 9.23 L46.77 9.23 L49.23 9.23 L51.69 9.69 L54.15 0.15 L56.62 0 L59.08 0 L61.54 0 L64 0" fill="none" stroke="var(--cf-spark)" stroke-width="1.4" stroke-linecap="round" stroke-linejoin="round"/></svg></g></g><g transform="translate(154.8,46)"><text x="0" y="0" font-size="9" font-weight="600" fill="var(--cf-text-dim)" letter-spacing="0.8">FNS</text><text x="0" y="28" font-size="22" font-weight="700" fill="var(--cf-text)">3.1K</text><g transform="translate(0,40)"><svg width="64" height="14" viewBox="0 0 64 14" preserveAspectRatio="none"><path d="M0 14 L2.46 14 L4.92 14 L7.38 10.39 L9.85 11.82 L12.31 11.82 L14.77 11.65 L17.23 12.87 L19.69 12.51 L22.15 12.51 L24.62 12.51 L27.08 12.51 L29.54 12.48 L32 12.41 L34.46 12.31 L36.92 12.25 L39.38 12.25 L41.85 12.25 L44.31 8.64 L46.77 8.64 L49.23 8.67 L51.69 8.57 L54.15 0.26 L56.62 0.23 L59.08 0.23 L61.54 0.07 L64 0 L64 14 L0 14 Z" fill="var(--cf-spark-bg)" stroke="none"/><path d="M0 14 L2.46 14 L4.92 14 L7.38 10.39 L9.85 11.82 L12.31 11.82 L14.77 11.65 L17.23 12.87 L19.69 12.51 L22.15 12.51 L24.62 12.51 L27.08 12.51 L29.54 12.48 L32 12.41 L34.46 12.31 L36.92 12.25 L39.38 12.25 L41.85 12.25 L44.31 8.64 L46.77 8.64 L49.23 8.67 L51.69 8.57 L54.15 0.26 L56.62 0.23 L59.08 0.23 L61.54 0.07 L64 0" fill="none" stroke="var(--cf-spark)" stroke-width="1.4" stroke-linecap="round" stroke-linejoin="round"/></svg></g></g><g transform="translate(291.6,46)"><text x="0" y="0" font-size="9" font-weight="600" fill="var(--cf-text-dim)" letter-spacing="0.8">LOC</text><text x="0" y="28" font-size="22" font-weight="700" fill="var(--cf-text)">342.7K</text><g transform="translate(0,40)"><svg width="64" height="14" viewBox="0 0 64 14" preserveAspectRatio="none"><path d="M0 14 L2.46 14 L4.92 14 L7.38 13.4 L9.85 9.88 L12.31 9.88 L14.77 9.82 L17.23 10.22 L19.69 10.16 L22.15 10.16 L24.62 10.15 L27.08 10.15 L29.54 10.14 L32 10.14 L34.46 10.12 L36.92 10.14 L39.38 10.13 L41.85 10.13 L44.31 1.36 L46.77 1.36 L49.23 1.36 L51.69 1.41 L54.15 0.06 L56.62 0.05 L59.08 0.04 L61.54 0.01 L64 0 L64 14 L0 14 Z" fill="var(--cf-spark-bg)" stroke="none"/><path d="M0 14 L2.46 14 L4.92 14 L7.38 13.4 L9.85 9.88 L12.31 9.88 L14.77 9.82 L17.23 10.22 L19.69 10.16 L22.15 10.16 L24.62 10.15 L27.08 10.15 L29.54 10.14 L32 10.14 L34.46 10.12 L36.92 10.14 L39.38 10.13 L41.85 10.13 L44.31 1.36 L46.77 1.36 L49.23 1.36 L51.69 1.41 L54.15 0.06 L56.62 0.05 L59.08 0.04 L61.54 0.01 L64 0" fill="none" stroke="var(--cf-spark)" stroke-width="1.4" stroke-linecap="round" stroke-linejoin="round"/></svg></g></g><g transform="translate(428.40000000000003,46)"><text x="0" y="0" font-size="9" font-weight="600" fill="var(--cf-text-dim)" letter-spacing="0.8">LANGS</text><text x="0" y="28" font-size="22" font-weight="700" fill="var(--cf-text)">17</text><g transform="translate(0,40)"><svg width="64" height="14" viewBox="0 0 64 14" preserveAspectRatio="none"><path d="M0 7 L2.46 7 L4.92 7 L7.38 7 L9.85 7 L12.31 7 L14.77 7 L17.23 7 L19.69 7 L22.15 7 L24.62 7 L27.08 7 L29.54 7 L32 7 L34.46 7 L36.92 7 L39.38 7 L41.85 7 L44.31 7 L46.77 7 L49.23 7 L51.69 7 L54.15 7 L56.62 7 L59.08 7 L61.54 7 L64 7 L64 14 L0 14 Z" fill="var(--cf-spark-bg)" stroke="none"/><path d="M0 7 L2.46 7 L4.92 7 L7.38 7 L9.85 7 L12.31 7 L14.77 7 L17.23 7 L19.69 7 L22.15 7 L24.62 7 L27.08 7 L29.54 7 L32 7 L34.46 7 L36.92 7 L39.38 7 L41.85 7 L44.31 7 L46.77 7 L49.23 7 L51.69 7 L54.15 7 L56.62 7 L59.08 7 L61.54 7 L64 7" fill="none" stroke="var(--cf-spark)" stroke-width="1.4" stroke-linecap="round" stroke-linejoin="round"/></svg></g></g><g transform="translate(565.2,46)"><text x="0" y="0" font-size="9" font-weight="600" fill="var(--cf-text-dim)" letter-spacing="0.8">TESTS</text><text x="0" y="28" font-size="22" font-weight="700" fill="var(--cf-text)">4</text><g transform="translate(0,40)"><svg width="64" height="14" viewBox="0 0 64 14" preserveAspectRatio="none"><path d="M0 14 L2.46 14 L4.92 14 L7.38 14 L9.85 14 L12.31 14 L14.77 14 L17.23 14 L19.69 14 L22.15 14 L24.62 14 L27.08 14 L29.54 14 L32 14 L34.46 14 L36.92 14 L39.38 14 L41.85 14 L44.31 14 L46.77 14 L49.23 14 L51.69 0 L54.15 0 L56.62 0 L59.08 0 L61.54 0 L64 0 L64 14 L0 14 Z" fill="var(--cf-spark-bg)" stroke="none"/><path d="M0 14 L2.46 14 L4.92 14 L7.38 14 L9.85 14 L12.31 14 L14.77 14 L17.23 14 L19.69 14 L22.15 14 L24.62 14 L27.08 14 L29.54 14 L32 14 L34.46 14 L36.92 14 L39.38 14 L41.85 14 L44.31 14 L46.77 14 L49.23 14 L51.69 0 L54.15 0 L56.62 0 L59.08 0 L61.54 0 L64 0" fill="none" stroke="var(--cf-spark)" stroke-width="1.4" stroke-linecap="round" stroke-linejoin="round"/></svg></g></g><a href="https://github.com/braedonsaunders/codeflow" target="_blank"><text x="702" y="130" text-anchor="end" font-size="9" fill="var(--cf-text-faint)">powered by <tspan font-weight="600" fill="var(--cf-accent)">codeflow</tspan></text></a></svg>